%TF.GenerationSoftware,KiCad,Pcbnew,(7.0.0)*%
%TF.CreationDate,2023-07-05T19:52:17+02:00*%
%TF.ProjectId,atmega328p-gate_controller,61746d65-6761-4333-9238-702d67617465,rev?*%
%TF.SameCoordinates,Original*%
%TF.FileFunction,Drillmap*%
%TF.FilePolarity,Positive*%
%FSLAX45Y45*%
G04 Gerber Fmt 4.5, Leading zero omitted, Abs format (unit mm)*
G04 Created by KiCad (PCBNEW (7.0.0)) date 2023-07-05 19:52:17*
%MOMM*%
%LPD*%
G01*
G04 APERTURE LIST*
%ADD10C,0.100000*%
%ADD11C,0.200000*%
%ADD12C,0.030000*%
%ADD13C,0.040000*%
%ADD14C,0.060000*%
%ADD15C,0.080000*%
%ADD16C,0.110000*%
G04 APERTURE END LIST*
D10*
X5802500Y-5355000D02*
G75*
G03*
X5802500Y-5355000I-200000J0D01*
G01*
X5202500Y-4955000D02*
X11202500Y-4955000D01*
X11202500Y-4955000D02*
X11202500Y-10355000D01*
X11202500Y-10355000D02*
X5202500Y-10355000D01*
X5202500Y-10355000D02*
X5202500Y-4955000D01*
X11002500Y-9955000D02*
G75*
G03*
X11002500Y-9955000I-200000J0D01*
G01*
X11002500Y-5355000D02*
G75*
G03*
X11002500Y-5355000I-200000J0D01*
G01*
X5802500Y-9955000D02*
G75*
G03*
X5802500Y-9955000I-200000J0D01*
G01*
D11*
D12*
X6762500Y-7640000D02*
X6792500Y-7670000D01*
X6792500Y-7640000D02*
X6762500Y-7670000D01*
X6805000Y-7287500D02*
X6835000Y-7317500D01*
X6835000Y-7287500D02*
X6805000Y-7317500D01*
X7045000Y-9042500D02*
X7075000Y-9072500D01*
X7075000Y-9042500D02*
X7045000Y-9072500D01*
X7370000Y-10082500D02*
X7400000Y-10112500D01*
X7400000Y-10082500D02*
X7370000Y-10112500D01*
X7517500Y-9050000D02*
X7547500Y-9080000D01*
X7547500Y-9050000D02*
X7517500Y-9080000D01*
X7600000Y-8782500D02*
X7630000Y-8812500D01*
X7630000Y-8782500D02*
X7600000Y-8812500D01*
X7622500Y-9965000D02*
X7652500Y-9995000D01*
X7652500Y-9965000D02*
X7622500Y-9995000D01*
D13*
X5350000Y-5107500D02*
G75*
G03*
X5350000Y-5107500I-20000J0D01*
G01*
X5457500Y-7227500D02*
G75*
G03*
X5457500Y-7227500I-20000J0D01*
G01*
X5582500Y-9482500D02*
G75*
G03*
X5582500Y-9482500I-20000J0D01*
G01*
X5672500Y-7587500D02*
G75*
G03*
X5672500Y-7587500I-20000J0D01*
G01*
X5785000Y-6252500D02*
G75*
G03*
X5785000Y-6252500I-20000J0D01*
G01*
X5822500Y-8977500D02*
G75*
G03*
X5822500Y-8977500I-20000J0D01*
G01*
X5890000Y-9290000D02*
G75*
G03*
X5890000Y-9290000I-20000J0D01*
G01*
X5910000Y-9610000D02*
G75*
G03*
X5910000Y-9610000I-20000J0D01*
G01*
X5952500Y-10122500D02*
G75*
G03*
X5952500Y-10122500I-20000J0D01*
G01*
X6225421Y-9158017D02*
G75*
G03*
X6225421Y-9158017I-20000J0D01*
G01*
X6230000Y-5150000D02*
G75*
G03*
X6230000Y-5150000I-20000J0D01*
G01*
X6415000Y-6045000D02*
G75*
G03*
X6415000Y-6045000I-20000J0D01*
G01*
X6632500Y-9427500D02*
G75*
G03*
X6632500Y-9427500I-20000J0D01*
G01*
X6647500Y-9865000D02*
G75*
G03*
X6647500Y-9865000I-20000J0D01*
G01*
X6710000Y-7267500D02*
G75*
G03*
X6710000Y-7267500I-20000J0D01*
G01*
X6715000Y-5787500D02*
G75*
G03*
X6715000Y-5787500I-20000J0D01*
G01*
X6832500Y-6095000D02*
G75*
G03*
X6832500Y-6095000I-20000J0D01*
G01*
X7257500Y-5055000D02*
G75*
G03*
X7257500Y-5055000I-20000J0D01*
G01*
X7390000Y-6005000D02*
G75*
G03*
X7390000Y-6005000I-20000J0D01*
G01*
X7457500Y-5650000D02*
G75*
G03*
X7457500Y-5650000I-20000J0D01*
G01*
X7847500Y-7647500D02*
G75*
G03*
X7847500Y-7647500I-20000J0D01*
G01*
X7970000Y-5770000D02*
G75*
G03*
X7970000Y-5770000I-20000J0D01*
G01*
X8050000Y-7665000D02*
G75*
G03*
X8050000Y-7665000I-20000J0D01*
G01*
X8207500Y-7705000D02*
G75*
G03*
X8207500Y-7705000I-20000J0D01*
G01*
X8215000Y-9450000D02*
G75*
G03*
X8215000Y-9450000I-20000J0D01*
G01*
X8380000Y-7357500D02*
G75*
G03*
X8380000Y-7357500I-20000J0D01*
G01*
X8510000Y-6412500D02*
G75*
G03*
X8510000Y-6412500I-20000J0D01*
G01*
X8521250Y-8586250D02*
G75*
G03*
X8521250Y-8586250I-20000J0D01*
G01*
X8525000Y-6862500D02*
G75*
G03*
X8525000Y-6862500I-20000J0D01*
G01*
X8590000Y-5577500D02*
G75*
G03*
X8590000Y-5577500I-20000J0D01*
G01*
X8685000Y-8630000D02*
G75*
G03*
X8685000Y-8630000I-20000J0D01*
G01*
X8827000Y-8627500D02*
G75*
G03*
X8827000Y-8627500I-20000J0D01*
G01*
X8947500Y-6945000D02*
G75*
G03*
X8947500Y-6945000I-20000J0D01*
G01*
X9081000Y-8627500D02*
G75*
G03*
X9081000Y-8627500I-20000J0D01*
G01*
X9457500Y-5555000D02*
G75*
G03*
X9457500Y-5555000I-20000J0D01*
G01*
X9557500Y-9530000D02*
G75*
G03*
X9557500Y-9530000I-20000J0D01*
G01*
X9617500Y-7580000D02*
G75*
G03*
X9617500Y-7580000I-20000J0D01*
G01*
X10592500Y-9630000D02*
G75*
G03*
X10592500Y-9630000I-20000J0D01*
G01*
X10865000Y-8412500D02*
G75*
G03*
X10865000Y-8412500I-20000J0D01*
G01*
X11067500Y-5102500D02*
G75*
G03*
X11067500Y-5102500I-20000J0D01*
G01*
X11122500Y-9822500D02*
G75*
G03*
X11122500Y-9822500I-20000J0D01*
G01*
D14*
X6955000Y-8930000D02*
X6955000Y-8990000D01*
X6925000Y-8960000D02*
X6985000Y-8960000D01*
X6957500Y-9132500D02*
X6957500Y-9192500D01*
X6927500Y-9162500D02*
X6987500Y-9162500D01*
X7182500Y-7937500D02*
X7182500Y-7997500D01*
X7152500Y-7967500D02*
X7212500Y-7967500D01*
X7302500Y-8312500D02*
X7302500Y-8372500D01*
X7272500Y-8342500D02*
X7332500Y-8342500D01*
X7435000Y-8382500D02*
X7435000Y-8442500D01*
X7405000Y-8412500D02*
X7465000Y-8412500D01*
X7437500Y-10240000D02*
X7437500Y-10300000D01*
X7407500Y-10270000D02*
X7467500Y-10270000D01*
X7725000Y-7415500D02*
X7725000Y-7475500D01*
X7695000Y-7445500D02*
X7755000Y-7445500D01*
X7905000Y-7415500D02*
X7905000Y-7475500D01*
X7875000Y-7445500D02*
X7935000Y-7445500D01*
X8925000Y-6645000D02*
X8925000Y-6705000D01*
X8895000Y-6675000D02*
X8955000Y-6675000D01*
X9005000Y-6505000D02*
X9005000Y-6565000D01*
X8975000Y-6535000D02*
X9035000Y-6535000D01*
X9295000Y-6370000D02*
X9295000Y-6430000D01*
X9265000Y-6400000D02*
X9325000Y-6400000D01*
X9310000Y-8705000D02*
X9310000Y-8765000D01*
X9280000Y-8735000D02*
X9340000Y-8735000D01*
X9417500Y-6170000D02*
X9417500Y-6230000D01*
X9387500Y-6200000D02*
X9447500Y-6200000D01*
X9555000Y-5972500D02*
X9555000Y-6032500D01*
X9525000Y-6002500D02*
X9585000Y-6002500D01*
X9567500Y-8815050D02*
X9567500Y-8875050D01*
X9537500Y-8845050D02*
X9597500Y-8845050D01*
X9820000Y-8907500D02*
X9820000Y-8967500D01*
X9790000Y-8937500D02*
X9850000Y-8937500D01*
X9895000Y-7492500D02*
X9895000Y-7552500D01*
X9865000Y-7522500D02*
X9925000Y-7522500D01*
X9997500Y-7332500D02*
X9997500Y-7392500D01*
X9967500Y-7362500D02*
X10027500Y-7362500D01*
X10517500Y-5762500D02*
X10517500Y-5822500D01*
X10487500Y-5792500D02*
X10547500Y-5792500D01*
X10675000Y-5670000D02*
X10675000Y-5730000D01*
X10645000Y-5700000D02*
X10705000Y-5700000D01*
D15*
X5575785Y-6923284D02*
X5575785Y-6866715D01*
X5519216Y-6866715D01*
X5519216Y-6923284D01*
X5575785Y-6923284D01*
X5575785Y-8448285D02*
X5575785Y-8391716D01*
X5519216Y-8391716D01*
X5519216Y-8448285D01*
X5575785Y-8448285D01*
X5825784Y-6923284D02*
X5825784Y-6866715D01*
X5769215Y-6866715D01*
X5769215Y-6923284D01*
X5825784Y-6923284D01*
X5825784Y-7440284D02*
X5825784Y-7383715D01*
X5769215Y-7383715D01*
X5769215Y-7440284D01*
X5825784Y-7440284D01*
X5825784Y-7928284D02*
X5825784Y-7871715D01*
X5769215Y-7871715D01*
X5769215Y-7928284D01*
X5825784Y-7928284D01*
X5825784Y-8448285D02*
X5825784Y-8391716D01*
X5769215Y-8391716D01*
X5769215Y-8448285D01*
X5825784Y-8448285D01*
X5917784Y-5130785D02*
X5917784Y-5074216D01*
X5861215Y-5074216D01*
X5861215Y-5130785D01*
X5917784Y-5130785D01*
X6246284Y-5441785D02*
X6246284Y-5385216D01*
X6189715Y-5385216D01*
X6189715Y-5441785D01*
X6246284Y-5441785D01*
X6246284Y-5695784D02*
X6246284Y-5639215D01*
X6189715Y-5639215D01*
X6189715Y-5695784D01*
X6246284Y-5695784D01*
X6246284Y-5949784D02*
X6246284Y-5893215D01*
X6189715Y-5893215D01*
X6189715Y-5949784D01*
X6246284Y-5949784D01*
X6246284Y-6203784D02*
X6246284Y-6147215D01*
X6189715Y-6147215D01*
X6189715Y-6203784D01*
X6246284Y-6203784D01*
X6246284Y-6457784D02*
X6246284Y-6401215D01*
X6189715Y-6401215D01*
X6189715Y-6457784D01*
X6246284Y-6457784D01*
X6246284Y-6711784D02*
X6246284Y-6655215D01*
X6189715Y-6655215D01*
X6189715Y-6711784D01*
X6246284Y-6711784D01*
X6246284Y-6965784D02*
X6246284Y-6909215D01*
X6189715Y-6909215D01*
X6189715Y-6965784D01*
X6246284Y-6965784D01*
X6246284Y-7219784D02*
X6246284Y-7163215D01*
X6189715Y-7163215D01*
X6189715Y-7219784D01*
X6246284Y-7219784D01*
X6246284Y-7473784D02*
X6246284Y-7417215D01*
X6189715Y-7417215D01*
X6189715Y-7473784D01*
X6246284Y-7473784D01*
X6246284Y-7727784D02*
X6246284Y-7671215D01*
X6189715Y-7671215D01*
X6189715Y-7727784D01*
X6246284Y-7727784D01*
X6246284Y-7981784D02*
X6246284Y-7925215D01*
X6189715Y-7925215D01*
X6189715Y-7981784D01*
X6246284Y-7981784D01*
X6246284Y-8235784D02*
X6246284Y-8179215D01*
X6189715Y-8179215D01*
X6189715Y-8235784D01*
X6246284Y-8235784D01*
X6246284Y-8489785D02*
X6246284Y-8433216D01*
X6189715Y-8433216D01*
X6189715Y-8489785D01*
X6246284Y-8489785D01*
X6246284Y-8743785D02*
X6246284Y-8687216D01*
X6189715Y-8687216D01*
X6189715Y-8743785D01*
X6246284Y-8743785D01*
X6933784Y-5130785D02*
X6933784Y-5074216D01*
X6877215Y-5074216D01*
X6877215Y-5130785D01*
X6933784Y-5130785D01*
X7008284Y-5441785D02*
X7008284Y-5385216D01*
X6951715Y-5385216D01*
X6951715Y-5441785D01*
X7008284Y-5441785D01*
X7008284Y-5695784D02*
X7008284Y-5639215D01*
X6951715Y-5639215D01*
X6951715Y-5695784D01*
X7008284Y-5695784D01*
X7008284Y-5949784D02*
X7008284Y-5893215D01*
X6951715Y-5893215D01*
X6951715Y-5949784D01*
X7008284Y-5949784D01*
X7008284Y-6203784D02*
X7008284Y-6147215D01*
X6951715Y-6147215D01*
X6951715Y-6203784D01*
X7008284Y-6203784D01*
X7008284Y-6457784D02*
X7008284Y-6401215D01*
X6951715Y-6401215D01*
X6951715Y-6457784D01*
X7008284Y-6457784D01*
X7008284Y-6711784D02*
X7008284Y-6655215D01*
X6951715Y-6655215D01*
X6951715Y-6711784D01*
X7008284Y-6711784D01*
X7008284Y-6965784D02*
X7008284Y-6909215D01*
X6951715Y-6909215D01*
X6951715Y-6965784D01*
X7008284Y-6965784D01*
X7008284Y-7219784D02*
X7008284Y-7163215D01*
X6951715Y-7163215D01*
X6951715Y-7219784D01*
X7008284Y-7219784D01*
X7008284Y-7473784D02*
X7008284Y-7417215D01*
X6951715Y-7417215D01*
X6951715Y-7473784D01*
X7008284Y-7473784D01*
X7008284Y-7727784D02*
X7008284Y-7671215D01*
X6951715Y-7671215D01*
X6951715Y-7727784D01*
X7008284Y-7727784D01*
X7008284Y-7981784D02*
X7008284Y-7925215D01*
X6951715Y-7925215D01*
X6951715Y-7981784D01*
X7008284Y-7981784D01*
X7008284Y-8235784D02*
X7008284Y-8179215D01*
X6951715Y-8179215D01*
X6951715Y-8235784D01*
X7008284Y-8235784D01*
X7008284Y-8489785D02*
X7008284Y-8433216D01*
X6951715Y-8433216D01*
X6951715Y-8489785D01*
X7008284Y-8489785D01*
X7008284Y-8743785D02*
X7008284Y-8687216D01*
X6951715Y-8687216D01*
X6951715Y-8743785D01*
X7008284Y-8743785D01*
D10*
X7732500Y-5459500D02*
X7782500Y-5409500D01*
X7732500Y-5359500D01*
X7682500Y-5409500D01*
X7732500Y-5459500D01*
X7732500Y-5713500D02*
X7782500Y-5663500D01*
X7732500Y-5613500D01*
X7682500Y-5663500D01*
X7732500Y-5713500D01*
X7732500Y-5967500D02*
X7782500Y-5917500D01*
X7732500Y-5867500D01*
X7682500Y-5917500D01*
X7732500Y-5967500D01*
X7732500Y-6221500D02*
X7782500Y-6171500D01*
X7732500Y-6121500D01*
X7682500Y-6171500D01*
X7732500Y-6221500D01*
X7732500Y-6475500D02*
X7782500Y-6425500D01*
X7732500Y-6375500D01*
X7682500Y-6425500D01*
X7732500Y-6475500D01*
X7732500Y-6729500D02*
X7782500Y-6679500D01*
X7732500Y-6629500D01*
X7682500Y-6679500D01*
X7732500Y-6729500D01*
X7732500Y-6983500D02*
X7782500Y-6933500D01*
X7732500Y-6883500D01*
X7682500Y-6933500D01*
X7732500Y-6983500D01*
X7732500Y-7237500D02*
X7782500Y-7187500D01*
X7732500Y-7137500D01*
X7682500Y-7187500D01*
X7732500Y-7237500D01*
X7791000Y-9220000D02*
X7841000Y-9170000D01*
X7791000Y-9120000D01*
X7741000Y-9170000D01*
X7791000Y-9220000D01*
X8045000Y-9220000D02*
X8095000Y-9170000D01*
X8045000Y-9120000D01*
X7995000Y-9170000D01*
X8045000Y-9220000D01*
X8052500Y-10110000D02*
X8102500Y-10060000D01*
X8052500Y-10010000D01*
X8002500Y-10060000D01*
X8052500Y-10110000D01*
X8299000Y-9220000D02*
X8349000Y-9170000D01*
X8299000Y-9120000D01*
X8249000Y-9170000D01*
X8299000Y-9220000D01*
X8306500Y-10110000D02*
X8356500Y-10060000D01*
X8306500Y-10010000D01*
X8256500Y-10060000D01*
X8306500Y-10110000D01*
X8553000Y-9220000D02*
X8603000Y-9170000D01*
X8553000Y-9120000D01*
X8503000Y-9170000D01*
X8553000Y-9220000D01*
X8560500Y-10110000D02*
X8610500Y-10060000D01*
X8560500Y-10010000D01*
X8510500Y-10060000D01*
X8560500Y-10110000D01*
X8807000Y-9220000D02*
X8857000Y-9170000D01*
X8807000Y-9120000D01*
X8757000Y-9170000D01*
X8807000Y-9220000D01*
X8814500Y-10110000D02*
X8864500Y-10060000D01*
X8814500Y-10010000D01*
X8764500Y-10060000D01*
X8814500Y-10110000D01*
X9061000Y-9220000D02*
X9111000Y-9170000D01*
X9061000Y-9120000D01*
X9011000Y-9170000D01*
X9061000Y-9220000D01*
X9068500Y-10110000D02*
X9118500Y-10060000D01*
X9068500Y-10010000D01*
X9018500Y-10060000D01*
X9068500Y-10110000D01*
X9315000Y-9220000D02*
X9365000Y-9170000D01*
X9315000Y-9120000D01*
X9265000Y-9170000D01*
X9315000Y-9220000D01*
X9322500Y-10110000D02*
X9372500Y-10060000D01*
X9322500Y-10010000D01*
X9272500Y-10060000D01*
X9322500Y-10110000D01*
X9539500Y-7852500D02*
X9589500Y-7802500D01*
X9539500Y-7752500D01*
X9489500Y-7802500D01*
X9539500Y-7852500D01*
X9539500Y-8212500D02*
X9589500Y-8162500D01*
X9539500Y-8112500D01*
X9489500Y-8162500D01*
X9539500Y-8212500D01*
X9539500Y-8572500D02*
X9589500Y-8522500D01*
X9539500Y-8472500D01*
X9489500Y-8522500D01*
X9539500Y-8572500D01*
X9569000Y-9220000D02*
X9619000Y-9170000D01*
X9569000Y-9120000D01*
X9519000Y-9170000D01*
X9569000Y-9220000D01*
X9793500Y-7852500D02*
X9843500Y-7802500D01*
X9793500Y-7752500D01*
X9743500Y-7802500D01*
X9793500Y-7852500D01*
X9793500Y-8212500D02*
X9843500Y-8162500D01*
X9793500Y-8112500D01*
X9743500Y-8162500D01*
X9793500Y-8212500D01*
X9793500Y-8572500D02*
X9843500Y-8522500D01*
X9793500Y-8472500D01*
X9743500Y-8522500D01*
X9793500Y-8572500D01*
X9823000Y-9220000D02*
X9873000Y-9170000D01*
X9823000Y-9120000D01*
X9773000Y-9170000D01*
X9823000Y-9220000D01*
X9905000Y-10110000D02*
X9955000Y-10060000D01*
X9905000Y-10010000D01*
X9855000Y-10060000D01*
X9905000Y-10110000D01*
X10047500Y-7852500D02*
X10097500Y-7802500D01*
X10047500Y-7752500D01*
X9997500Y-7802500D01*
X10047500Y-7852500D01*
X10047500Y-8212500D02*
X10097500Y-8162500D01*
X10047500Y-8112500D01*
X9997500Y-8162500D01*
X10047500Y-8212500D01*
X10047500Y-8572500D02*
X10097500Y-8522500D01*
X10047500Y-8472500D01*
X9997500Y-8522500D01*
X10047500Y-8572500D01*
X10077000Y-9220000D02*
X10127000Y-9170000D01*
X10077000Y-9120000D01*
X10027000Y-9170000D01*
X10077000Y-9220000D01*
X10159000Y-10110000D02*
X10209000Y-10060000D01*
X10159000Y-10010000D01*
X10109000Y-10060000D01*
X10159000Y-10110000D01*
X10282500Y-5459500D02*
X10332500Y-5409500D01*
X10282500Y-5359500D01*
X10232500Y-5409500D01*
X10282500Y-5459500D01*
X10282500Y-5713500D02*
X10332500Y-5663500D01*
X10282500Y-5613500D01*
X10232500Y-5663500D01*
X10282500Y-5713500D01*
X10282500Y-5967500D02*
X10332500Y-5917500D01*
X10282500Y-5867500D01*
X10232500Y-5917500D01*
X10282500Y-5967500D01*
X10282500Y-6221500D02*
X10332500Y-6171500D01*
X10282500Y-6121500D01*
X10232500Y-6171500D01*
X10282500Y-6221500D01*
X10282500Y-6475500D02*
X10332500Y-6425500D01*
X10282500Y-6375500D01*
X10232500Y-6425500D01*
X10282500Y-6475500D01*
X10282500Y-6729500D02*
X10332500Y-6679500D01*
X10282500Y-6629500D01*
X10232500Y-6679500D01*
X10282500Y-6729500D01*
X10282500Y-6983500D02*
X10332500Y-6933500D01*
X10282500Y-6883500D01*
X10232500Y-6933500D01*
X10282500Y-6983500D01*
X10282500Y-7237500D02*
X10332500Y-7187500D01*
X10282500Y-7137500D01*
X10232500Y-7187500D01*
X10282500Y-7237500D01*
X10331000Y-9220000D02*
X10381000Y-9170000D01*
X10331000Y-9120000D01*
X10281000Y-9170000D01*
X10331000Y-9220000D01*
X10413000Y-10110000D02*
X10463000Y-10060000D01*
X10413000Y-10010000D01*
X10363000Y-10060000D01*
X10413000Y-10110000D01*
X10862500Y-5999000D02*
X10912500Y-5949000D01*
X10862500Y-5899000D01*
X10812500Y-5949000D01*
X10862500Y-5999000D01*
X10862500Y-6253000D02*
X10912500Y-6203000D01*
X10862500Y-6153000D01*
X10812500Y-6203000D01*
X10862500Y-6253000D01*
X10862500Y-6507000D02*
X10912500Y-6457000D01*
X10862500Y-6407000D01*
X10812500Y-6457000D01*
X10862500Y-6507000D01*
X10862500Y-6761000D02*
X10912500Y-6711000D01*
X10862500Y-6661000D01*
X10812500Y-6711000D01*
X10862500Y-6761000D01*
X10862500Y-7015000D02*
X10912500Y-6965000D01*
X10862500Y-6915000D01*
X10812500Y-6965000D01*
X10862500Y-7015000D01*
X10862500Y-7372500D02*
X10912500Y-7322500D01*
X10862500Y-7272500D01*
X10812500Y-7322500D01*
X10862500Y-7372500D01*
X10862500Y-7626500D02*
X10912500Y-7576500D01*
X10862500Y-7526500D01*
X10812500Y-7576500D01*
X10862500Y-7626500D01*
X10862500Y-7880500D02*
X10912500Y-7830500D01*
X10862500Y-7780500D01*
X10812500Y-7830500D01*
X10862500Y-7880500D01*
X10862500Y-8134500D02*
X10912500Y-8084500D01*
X10862500Y-8034500D01*
X10812500Y-8084500D01*
X10862500Y-8134500D01*
X10862500Y-8814500D02*
X10912500Y-8764500D01*
X10862500Y-8714500D01*
X10812500Y-8764500D01*
X10862500Y-8814500D01*
X10862500Y-9068500D02*
X10912500Y-9018500D01*
X10862500Y-8968500D01*
X10812500Y-9018500D01*
X10862500Y-9068500D01*
X10862500Y-9322500D02*
X10912500Y-9272500D01*
X10862500Y-9222500D01*
X10812500Y-9272500D01*
X10862500Y-9322500D01*
X10862500Y-9576500D02*
X10912500Y-9526500D01*
X10862500Y-9476500D01*
X10812500Y-9526500D01*
X10862500Y-9576500D01*
D16*
X5352500Y-5860000D02*
X5462500Y-5970000D01*
X5462500Y-5860000D02*
X5352500Y-5970000D01*
X5462500Y-5915000D02*
G75*
G03*
X5462500Y-5915000I-55000J0D01*
G01*
X5352500Y-6510000D02*
X5462500Y-6620000D01*
X5462500Y-6510000D02*
X5352500Y-6620000D01*
X5462500Y-6565000D02*
G75*
G03*
X5462500Y-6565000I-55000J0D01*
G01*
X5802500Y-5860000D02*
X5912500Y-5970000D01*
X5912500Y-5860000D02*
X5802500Y-5970000D01*
X5912500Y-5915000D02*
G75*
G03*
X5912500Y-5915000I-55000J0D01*
G01*
X5802500Y-6510000D02*
X5912500Y-6620000D01*
X5912500Y-6510000D02*
X5802500Y-6620000D01*
X5912500Y-6565000D02*
G75*
G03*
X5912500Y-6565000I-55000J0D01*
G01*
D11*
X5445119Y-10653476D02*
X5445119Y-10453476D01*
X5445119Y-10453476D02*
X5492738Y-10453476D01*
X5492738Y-10453476D02*
X5521310Y-10463000D01*
X5521310Y-10463000D02*
X5540357Y-10482048D01*
X5540357Y-10482048D02*
X5549881Y-10501095D01*
X5549881Y-10501095D02*
X5559405Y-10539190D01*
X5559405Y-10539190D02*
X5559405Y-10567762D01*
X5559405Y-10567762D02*
X5549881Y-10605857D01*
X5549881Y-10605857D02*
X5540357Y-10624905D01*
X5540357Y-10624905D02*
X5521310Y-10643952D01*
X5521310Y-10643952D02*
X5492738Y-10653476D01*
X5492738Y-10653476D02*
X5445119Y-10653476D01*
X5645119Y-10653476D02*
X5645119Y-10520143D01*
X5645119Y-10558238D02*
X5654643Y-10539190D01*
X5654643Y-10539190D02*
X5664167Y-10529667D01*
X5664167Y-10529667D02*
X5683214Y-10520143D01*
X5683214Y-10520143D02*
X5702262Y-10520143D01*
X5768928Y-10653476D02*
X5768928Y-10520143D01*
X5768928Y-10453476D02*
X5759405Y-10463000D01*
X5759405Y-10463000D02*
X5768928Y-10472524D01*
X5768928Y-10472524D02*
X5778452Y-10463000D01*
X5778452Y-10463000D02*
X5768928Y-10453476D01*
X5768928Y-10453476D02*
X5768928Y-10472524D01*
X5892738Y-10653476D02*
X5873690Y-10643952D01*
X5873690Y-10643952D02*
X5864167Y-10624905D01*
X5864167Y-10624905D02*
X5864167Y-10453476D01*
X5997500Y-10653476D02*
X5978452Y-10643952D01*
X5978452Y-10643952D02*
X5968928Y-10624905D01*
X5968928Y-10624905D02*
X5968928Y-10453476D01*
X6193690Y-10653476D02*
X6193690Y-10453476D01*
X6193690Y-10453476D02*
X6260357Y-10596333D01*
X6260357Y-10596333D02*
X6327024Y-10453476D01*
X6327024Y-10453476D02*
X6327024Y-10653476D01*
X6507976Y-10653476D02*
X6507976Y-10548714D01*
X6507976Y-10548714D02*
X6498452Y-10529667D01*
X6498452Y-10529667D02*
X6479405Y-10520143D01*
X6479405Y-10520143D02*
X6441309Y-10520143D01*
X6441309Y-10520143D02*
X6422262Y-10529667D01*
X6507976Y-10643952D02*
X6488928Y-10653476D01*
X6488928Y-10653476D02*
X6441309Y-10653476D01*
X6441309Y-10653476D02*
X6422262Y-10643952D01*
X6422262Y-10643952D02*
X6412738Y-10624905D01*
X6412738Y-10624905D02*
X6412738Y-10605857D01*
X6412738Y-10605857D02*
X6422262Y-10586810D01*
X6422262Y-10586810D02*
X6441309Y-10577286D01*
X6441309Y-10577286D02*
X6488928Y-10577286D01*
X6488928Y-10577286D02*
X6507976Y-10567762D01*
X6603214Y-10520143D02*
X6603214Y-10720143D01*
X6603214Y-10529667D02*
X6622262Y-10520143D01*
X6622262Y-10520143D02*
X6660357Y-10520143D01*
X6660357Y-10520143D02*
X6679405Y-10529667D01*
X6679405Y-10529667D02*
X6688928Y-10539190D01*
X6688928Y-10539190D02*
X6698452Y-10558238D01*
X6698452Y-10558238D02*
X6698452Y-10615381D01*
X6698452Y-10615381D02*
X6688928Y-10634429D01*
X6688928Y-10634429D02*
X6679405Y-10643952D01*
X6679405Y-10643952D02*
X6660357Y-10653476D01*
X6660357Y-10653476D02*
X6622262Y-10653476D01*
X6622262Y-10653476D02*
X6603214Y-10643952D01*
X6784167Y-10634429D02*
X6793690Y-10643952D01*
X6793690Y-10643952D02*
X6784167Y-10653476D01*
X6784167Y-10653476D02*
X6774643Y-10643952D01*
X6774643Y-10643952D02*
X6784167Y-10634429D01*
X6784167Y-10634429D02*
X6784167Y-10653476D01*
X6784167Y-10529667D02*
X6793690Y-10539190D01*
X6793690Y-10539190D02*
X6784167Y-10548714D01*
X6784167Y-10548714D02*
X6774643Y-10539190D01*
X6774643Y-10539190D02*
X6784167Y-10529667D01*
X6784167Y-10529667D02*
X6784167Y-10548714D01*
D12*
X5167500Y-10985000D02*
X5197500Y-11015000D01*
X5197500Y-10985000D02*
X5167500Y-11015000D01*
D11*
X5483214Y-10873476D02*
X5502262Y-10873476D01*
X5502262Y-10873476D02*
X5521310Y-10883000D01*
X5521310Y-10883000D02*
X5530833Y-10892524D01*
X5530833Y-10892524D02*
X5540357Y-10911571D01*
X5540357Y-10911571D02*
X5549881Y-10949667D01*
X5549881Y-10949667D02*
X5549881Y-10997286D01*
X5549881Y-10997286D02*
X5540357Y-11035381D01*
X5540357Y-11035381D02*
X5530833Y-11054429D01*
X5530833Y-11054429D02*
X5521310Y-11063952D01*
X5521310Y-11063952D02*
X5502262Y-11073476D01*
X5502262Y-11073476D02*
X5483214Y-11073476D01*
X5483214Y-11073476D02*
X5464167Y-11063952D01*
X5464167Y-11063952D02*
X5454643Y-11054429D01*
X5454643Y-11054429D02*
X5445119Y-11035381D01*
X5445119Y-11035381D02*
X5435595Y-10997286D01*
X5435595Y-10997286D02*
X5435595Y-10949667D01*
X5435595Y-10949667D02*
X5445119Y-10911571D01*
X5445119Y-10911571D02*
X5454643Y-10892524D01*
X5454643Y-10892524D02*
X5464167Y-10883000D01*
X5464167Y-10883000D02*
X5483214Y-10873476D01*
X5635595Y-11054429D02*
X5645119Y-11063952D01*
X5645119Y-11063952D02*
X5635595Y-11073476D01*
X5635595Y-11073476D02*
X5626071Y-11063952D01*
X5626071Y-11063952D02*
X5635595Y-11054429D01*
X5635595Y-11054429D02*
X5635595Y-11073476D01*
X5711786Y-10873476D02*
X5835595Y-10873476D01*
X5835595Y-10873476D02*
X5768928Y-10949667D01*
X5768928Y-10949667D02*
X5797500Y-10949667D01*
X5797500Y-10949667D02*
X5816548Y-10959190D01*
X5816548Y-10959190D02*
X5826071Y-10968714D01*
X5826071Y-10968714D02*
X5835595Y-10987762D01*
X5835595Y-10987762D02*
X5835595Y-11035381D01*
X5835595Y-11035381D02*
X5826071Y-11054429D01*
X5826071Y-11054429D02*
X5816548Y-11063952D01*
X5816548Y-11063952D02*
X5797500Y-11073476D01*
X5797500Y-11073476D02*
X5740357Y-11073476D01*
X5740357Y-11073476D02*
X5721309Y-11063952D01*
X5721309Y-11063952D02*
X5711786Y-11054429D01*
X5959405Y-10873476D02*
X5978452Y-10873476D01*
X5978452Y-10873476D02*
X5997500Y-10883000D01*
X5997500Y-10883000D02*
X6007024Y-10892524D01*
X6007024Y-10892524D02*
X6016548Y-10911571D01*
X6016548Y-10911571D02*
X6026071Y-10949667D01*
X6026071Y-10949667D02*
X6026071Y-10997286D01*
X6026071Y-10997286D02*
X6016548Y-11035381D01*
X6016548Y-11035381D02*
X6007024Y-11054429D01*
X6007024Y-11054429D02*
X5997500Y-11063952D01*
X5997500Y-11063952D02*
X5978452Y-11073476D01*
X5978452Y-11073476D02*
X5959405Y-11073476D01*
X5959405Y-11073476D02*
X5940357Y-11063952D01*
X5940357Y-11063952D02*
X5930833Y-11054429D01*
X5930833Y-11054429D02*
X5921309Y-11035381D01*
X5921309Y-11035381D02*
X5911786Y-10997286D01*
X5911786Y-10997286D02*
X5911786Y-10949667D01*
X5911786Y-10949667D02*
X5921309Y-10911571D01*
X5921309Y-10911571D02*
X5930833Y-10892524D01*
X5930833Y-10892524D02*
X5940357Y-10883000D01*
X5940357Y-10883000D02*
X5959405Y-10873476D01*
X6149881Y-10873476D02*
X6168929Y-10873476D01*
X6168929Y-10873476D02*
X6187976Y-10883000D01*
X6187976Y-10883000D02*
X6197500Y-10892524D01*
X6197500Y-10892524D02*
X6207024Y-10911571D01*
X6207024Y-10911571D02*
X6216548Y-10949667D01*
X6216548Y-10949667D02*
X6216548Y-10997286D01*
X6216548Y-10997286D02*
X6207024Y-11035381D01*
X6207024Y-11035381D02*
X6197500Y-11054429D01*
X6197500Y-11054429D02*
X6187976Y-11063952D01*
X6187976Y-11063952D02*
X6168929Y-11073476D01*
X6168929Y-11073476D02*
X6149881Y-11073476D01*
X6149881Y-11073476D02*
X6130833Y-11063952D01*
X6130833Y-11063952D02*
X6121309Y-11054429D01*
X6121309Y-11054429D02*
X6111786Y-11035381D01*
X6111786Y-11035381D02*
X6102262Y-10997286D01*
X6102262Y-10997286D02*
X6102262Y-10949667D01*
X6102262Y-10949667D02*
X6111786Y-10911571D01*
X6111786Y-10911571D02*
X6121309Y-10892524D01*
X6121309Y-10892524D02*
X6130833Y-10883000D01*
X6130833Y-10883000D02*
X6149881Y-10873476D01*
X6302262Y-11073476D02*
X6302262Y-10940143D01*
X6302262Y-10959190D02*
X6311786Y-10949667D01*
X6311786Y-10949667D02*
X6330833Y-10940143D01*
X6330833Y-10940143D02*
X6359405Y-10940143D01*
X6359405Y-10940143D02*
X6378452Y-10949667D01*
X6378452Y-10949667D02*
X6387976Y-10968714D01*
X6387976Y-10968714D02*
X6387976Y-11073476D01*
X6387976Y-10968714D02*
X6397500Y-10949667D01*
X6397500Y-10949667D02*
X6416548Y-10940143D01*
X6416548Y-10940143D02*
X6445119Y-10940143D01*
X6445119Y-10940143D02*
X6464167Y-10949667D01*
X6464167Y-10949667D02*
X6473690Y-10968714D01*
X6473690Y-10968714D02*
X6473690Y-11073476D01*
X6568929Y-11073476D02*
X6568929Y-10940143D01*
X6568929Y-10959190D02*
X6578452Y-10949667D01*
X6578452Y-10949667D02*
X6597500Y-10940143D01*
X6597500Y-10940143D02*
X6626071Y-10940143D01*
X6626071Y-10940143D02*
X6645119Y-10949667D01*
X6645119Y-10949667D02*
X6654643Y-10968714D01*
X6654643Y-10968714D02*
X6654643Y-11073476D01*
X6654643Y-10968714D02*
X6664167Y-10949667D01*
X6664167Y-10949667D02*
X6683214Y-10940143D01*
X6683214Y-10940143D02*
X6711786Y-10940143D01*
X6711786Y-10940143D02*
X6730833Y-10949667D01*
X6730833Y-10949667D02*
X6740357Y-10968714D01*
X6740357Y-10968714D02*
X6740357Y-11073476D01*
X7098452Y-10863952D02*
X6927024Y-11121095D01*
X7323214Y-10873476D02*
X7342262Y-10873476D01*
X7342262Y-10873476D02*
X7361310Y-10883000D01*
X7361310Y-10883000D02*
X7370833Y-10892524D01*
X7370833Y-10892524D02*
X7380357Y-10911571D01*
X7380357Y-10911571D02*
X7389881Y-10949667D01*
X7389881Y-10949667D02*
X7389881Y-10997286D01*
X7389881Y-10997286D02*
X7380357Y-11035381D01*
X7380357Y-11035381D02*
X7370833Y-11054429D01*
X7370833Y-11054429D02*
X7361310Y-11063952D01*
X7361310Y-11063952D02*
X7342262Y-11073476D01*
X7342262Y-11073476D02*
X7323214Y-11073476D01*
X7323214Y-11073476D02*
X7304167Y-11063952D01*
X7304167Y-11063952D02*
X7294643Y-11054429D01*
X7294643Y-11054429D02*
X7285119Y-11035381D01*
X7285119Y-11035381D02*
X7275595Y-10997286D01*
X7275595Y-10997286D02*
X7275595Y-10949667D01*
X7275595Y-10949667D02*
X7285119Y-10911571D01*
X7285119Y-10911571D02*
X7294643Y-10892524D01*
X7294643Y-10892524D02*
X7304167Y-10883000D01*
X7304167Y-10883000D02*
X7323214Y-10873476D01*
X7475595Y-11054429D02*
X7485119Y-11063952D01*
X7485119Y-11063952D02*
X7475595Y-11073476D01*
X7475595Y-11073476D02*
X7466071Y-11063952D01*
X7466071Y-11063952D02*
X7475595Y-11054429D01*
X7475595Y-11054429D02*
X7475595Y-11073476D01*
X7608929Y-10873476D02*
X7627976Y-10873476D01*
X7627976Y-10873476D02*
X7647024Y-10883000D01*
X7647024Y-10883000D02*
X7656548Y-10892524D01*
X7656548Y-10892524D02*
X7666071Y-10911571D01*
X7666071Y-10911571D02*
X7675595Y-10949667D01*
X7675595Y-10949667D02*
X7675595Y-10997286D01*
X7675595Y-10997286D02*
X7666071Y-11035381D01*
X7666071Y-11035381D02*
X7656548Y-11054429D01*
X7656548Y-11054429D02*
X7647024Y-11063952D01*
X7647024Y-11063952D02*
X7627976Y-11073476D01*
X7627976Y-11073476D02*
X7608929Y-11073476D01*
X7608929Y-11073476D02*
X7589881Y-11063952D01*
X7589881Y-11063952D02*
X7580357Y-11054429D01*
X7580357Y-11054429D02*
X7570833Y-11035381D01*
X7570833Y-11035381D02*
X7561310Y-10997286D01*
X7561310Y-10997286D02*
X7561310Y-10949667D01*
X7561310Y-10949667D02*
X7570833Y-10911571D01*
X7570833Y-10911571D02*
X7580357Y-10892524D01*
X7580357Y-10892524D02*
X7589881Y-10883000D01*
X7589881Y-10883000D02*
X7608929Y-10873476D01*
X7866071Y-11073476D02*
X7751786Y-11073476D01*
X7808929Y-11073476D02*
X7808929Y-10873476D01*
X7808929Y-10873476D02*
X7789881Y-10902048D01*
X7789881Y-10902048D02*
X7770833Y-10921095D01*
X7770833Y-10921095D02*
X7751786Y-10930619D01*
X8056548Y-11073476D02*
X7942262Y-11073476D01*
X7999405Y-11073476D02*
X7999405Y-10873476D01*
X7999405Y-10873476D02*
X7980357Y-10902048D01*
X7980357Y-10902048D02*
X7961310Y-10921095D01*
X7961310Y-10921095D02*
X7942262Y-10930619D01*
X8170833Y-10959190D02*
X8151786Y-10949667D01*
X8151786Y-10949667D02*
X8142262Y-10940143D01*
X8142262Y-10940143D02*
X8132738Y-10921095D01*
X8132738Y-10921095D02*
X8132738Y-10911571D01*
X8132738Y-10911571D02*
X8142262Y-10892524D01*
X8142262Y-10892524D02*
X8151786Y-10883000D01*
X8151786Y-10883000D02*
X8170833Y-10873476D01*
X8170833Y-10873476D02*
X8208929Y-10873476D01*
X8208929Y-10873476D02*
X8227976Y-10883000D01*
X8227976Y-10883000D02*
X8237500Y-10892524D01*
X8237500Y-10892524D02*
X8247024Y-10911571D01*
X8247024Y-10911571D02*
X8247024Y-10921095D01*
X8247024Y-10921095D02*
X8237500Y-10940143D01*
X8237500Y-10940143D02*
X8227976Y-10949667D01*
X8227976Y-10949667D02*
X8208929Y-10959190D01*
X8208929Y-10959190D02*
X8170833Y-10959190D01*
X8170833Y-10959190D02*
X8151786Y-10968714D01*
X8151786Y-10968714D02*
X8142262Y-10978238D01*
X8142262Y-10978238D02*
X8132738Y-10997286D01*
X8132738Y-10997286D02*
X8132738Y-11035381D01*
X8132738Y-11035381D02*
X8142262Y-11054429D01*
X8142262Y-11054429D02*
X8151786Y-11063952D01*
X8151786Y-11063952D02*
X8170833Y-11073476D01*
X8170833Y-11073476D02*
X8208929Y-11073476D01*
X8208929Y-11073476D02*
X8227976Y-11063952D01*
X8227976Y-11063952D02*
X8237500Y-11054429D01*
X8237500Y-11054429D02*
X8247024Y-11035381D01*
X8247024Y-11035381D02*
X8247024Y-10997286D01*
X8247024Y-10997286D02*
X8237500Y-10978238D01*
X8237500Y-10978238D02*
X8227976Y-10968714D01*
X8227976Y-10968714D02*
X8208929Y-10959190D01*
X8323214Y-10873476D02*
X8323214Y-10911571D01*
X8399405Y-10873476D02*
X8399405Y-10911571D01*
X8662262Y-11149667D02*
X8652738Y-11140143D01*
X8652738Y-11140143D02*
X8633691Y-11111571D01*
X8633691Y-11111571D02*
X8624167Y-11092524D01*
X8624167Y-11092524D02*
X8614643Y-11063952D01*
X8614643Y-11063952D02*
X8605119Y-11016333D01*
X8605119Y-11016333D02*
X8605119Y-10978238D01*
X8605119Y-10978238D02*
X8614643Y-10930619D01*
X8614643Y-10930619D02*
X8624167Y-10902048D01*
X8624167Y-10902048D02*
X8633691Y-10883000D01*
X8633691Y-10883000D02*
X8652738Y-10854429D01*
X8652738Y-10854429D02*
X8662262Y-10844905D01*
X8719405Y-10873476D02*
X8852738Y-10873476D01*
X8852738Y-10873476D02*
X8767024Y-11073476D01*
X9048929Y-11073476D02*
X9048929Y-10873476D01*
X9134643Y-11073476D02*
X9134643Y-10968714D01*
X9134643Y-10968714D02*
X9125119Y-10949667D01*
X9125119Y-10949667D02*
X9106072Y-10940143D01*
X9106072Y-10940143D02*
X9077500Y-10940143D01*
X9077500Y-10940143D02*
X9058453Y-10949667D01*
X9058453Y-10949667D02*
X9048929Y-10959190D01*
X9258453Y-11073476D02*
X9239405Y-11063952D01*
X9239405Y-11063952D02*
X9229881Y-11054429D01*
X9229881Y-11054429D02*
X9220357Y-11035381D01*
X9220357Y-11035381D02*
X9220357Y-10978238D01*
X9220357Y-10978238D02*
X9229881Y-10959190D01*
X9229881Y-10959190D02*
X9239405Y-10949667D01*
X9239405Y-10949667D02*
X9258453Y-10940143D01*
X9258453Y-10940143D02*
X9287024Y-10940143D01*
X9287024Y-10940143D02*
X9306072Y-10949667D01*
X9306072Y-10949667D02*
X9315595Y-10959190D01*
X9315595Y-10959190D02*
X9325119Y-10978238D01*
X9325119Y-10978238D02*
X9325119Y-11035381D01*
X9325119Y-11035381D02*
X9315595Y-11054429D01*
X9315595Y-11054429D02*
X9306072Y-11063952D01*
X9306072Y-11063952D02*
X9287024Y-11073476D01*
X9287024Y-11073476D02*
X9258453Y-11073476D01*
X9439405Y-11073476D02*
X9420357Y-11063952D01*
X9420357Y-11063952D02*
X9410834Y-11044905D01*
X9410834Y-11044905D02*
X9410834Y-10873476D01*
X9591786Y-11063952D02*
X9572738Y-11073476D01*
X9572738Y-11073476D02*
X9534643Y-11073476D01*
X9534643Y-11073476D02*
X9515595Y-11063952D01*
X9515595Y-11063952D02*
X9506072Y-11044905D01*
X9506072Y-11044905D02*
X9506072Y-10968714D01*
X9506072Y-10968714D02*
X9515595Y-10949667D01*
X9515595Y-10949667D02*
X9534643Y-10940143D01*
X9534643Y-10940143D02*
X9572738Y-10940143D01*
X9572738Y-10940143D02*
X9591786Y-10949667D01*
X9591786Y-10949667D02*
X9601310Y-10968714D01*
X9601310Y-10968714D02*
X9601310Y-10987762D01*
X9601310Y-10987762D02*
X9506072Y-11006810D01*
X9677500Y-11063952D02*
X9696548Y-11073476D01*
X9696548Y-11073476D02*
X9734643Y-11073476D01*
X9734643Y-11073476D02*
X9753691Y-11063952D01*
X9753691Y-11063952D02*
X9763215Y-11044905D01*
X9763215Y-11044905D02*
X9763215Y-11035381D01*
X9763215Y-11035381D02*
X9753691Y-11016333D01*
X9753691Y-11016333D02*
X9734643Y-11006810D01*
X9734643Y-11006810D02*
X9706072Y-11006810D01*
X9706072Y-11006810D02*
X9687024Y-10997286D01*
X9687024Y-10997286D02*
X9677500Y-10978238D01*
X9677500Y-10978238D02*
X9677500Y-10968714D01*
X9677500Y-10968714D02*
X9687024Y-10949667D01*
X9687024Y-10949667D02*
X9706072Y-10940143D01*
X9706072Y-10940143D02*
X9734643Y-10940143D01*
X9734643Y-10940143D02*
X9753691Y-10949667D01*
X9829881Y-11149667D02*
X9839405Y-11140143D01*
X9839405Y-11140143D02*
X9858453Y-11111571D01*
X9858453Y-11111571D02*
X9867976Y-11092524D01*
X9867976Y-11092524D02*
X9877500Y-11063952D01*
X9877500Y-11063952D02*
X9887024Y-11016333D01*
X9887024Y-11016333D02*
X9887024Y-10978238D01*
X9887024Y-10978238D02*
X9877500Y-10930619D01*
X9877500Y-10930619D02*
X9867976Y-10902048D01*
X9867976Y-10902048D02*
X9858453Y-10883000D01*
X9858453Y-10883000D02*
X9839405Y-10854429D01*
X9839405Y-10854429D02*
X9829881Y-10844905D01*
D13*
X5197500Y-11264000D02*
G75*
G03*
X5197500Y-11264000I-20000J0D01*
G01*
D11*
X5483214Y-11137476D02*
X5502262Y-11137476D01*
X5502262Y-11137476D02*
X5521310Y-11147000D01*
X5521310Y-11147000D02*
X5530833Y-11156524D01*
X5530833Y-11156524D02*
X5540357Y-11175571D01*
X5540357Y-11175571D02*
X5549881Y-11213667D01*
X5549881Y-11213667D02*
X5549881Y-11261286D01*
X5549881Y-11261286D02*
X5540357Y-11299381D01*
X5540357Y-11299381D02*
X5530833Y-11318428D01*
X5530833Y-11318428D02*
X5521310Y-11327952D01*
X5521310Y-11327952D02*
X5502262Y-11337476D01*
X5502262Y-11337476D02*
X5483214Y-11337476D01*
X5483214Y-11337476D02*
X5464167Y-11327952D01*
X5464167Y-11327952D02*
X5454643Y-11318428D01*
X5454643Y-11318428D02*
X5445119Y-11299381D01*
X5445119Y-11299381D02*
X5435595Y-11261286D01*
X5435595Y-11261286D02*
X5435595Y-11213667D01*
X5435595Y-11213667D02*
X5445119Y-11175571D01*
X5445119Y-11175571D02*
X5454643Y-11156524D01*
X5454643Y-11156524D02*
X5464167Y-11147000D01*
X5464167Y-11147000D02*
X5483214Y-11137476D01*
X5635595Y-11318428D02*
X5645119Y-11327952D01*
X5645119Y-11327952D02*
X5635595Y-11337476D01*
X5635595Y-11337476D02*
X5626071Y-11327952D01*
X5626071Y-11327952D02*
X5635595Y-11318428D01*
X5635595Y-11318428D02*
X5635595Y-11337476D01*
X5816548Y-11204143D02*
X5816548Y-11337476D01*
X5768928Y-11127952D02*
X5721309Y-11270809D01*
X5721309Y-11270809D02*
X5845119Y-11270809D01*
X5959405Y-11137476D02*
X5978452Y-11137476D01*
X5978452Y-11137476D02*
X5997500Y-11147000D01*
X5997500Y-11147000D02*
X6007024Y-11156524D01*
X6007024Y-11156524D02*
X6016548Y-11175571D01*
X6016548Y-11175571D02*
X6026071Y-11213667D01*
X6026071Y-11213667D02*
X6026071Y-11261286D01*
X6026071Y-11261286D02*
X6016548Y-11299381D01*
X6016548Y-11299381D02*
X6007024Y-11318428D01*
X6007024Y-11318428D02*
X5997500Y-11327952D01*
X5997500Y-11327952D02*
X5978452Y-11337476D01*
X5978452Y-11337476D02*
X5959405Y-11337476D01*
X5959405Y-11337476D02*
X5940357Y-11327952D01*
X5940357Y-11327952D02*
X5930833Y-11318428D01*
X5930833Y-11318428D02*
X5921309Y-11299381D01*
X5921309Y-11299381D02*
X5911786Y-11261286D01*
X5911786Y-11261286D02*
X5911786Y-11213667D01*
X5911786Y-11213667D02*
X5921309Y-11175571D01*
X5921309Y-11175571D02*
X5930833Y-11156524D01*
X5930833Y-11156524D02*
X5940357Y-11147000D01*
X5940357Y-11147000D02*
X5959405Y-11137476D01*
X6149881Y-11137476D02*
X6168929Y-11137476D01*
X6168929Y-11137476D02*
X6187976Y-11147000D01*
X6187976Y-11147000D02*
X6197500Y-11156524D01*
X6197500Y-11156524D02*
X6207024Y-11175571D01*
X6207024Y-11175571D02*
X6216548Y-11213667D01*
X6216548Y-11213667D02*
X6216548Y-11261286D01*
X6216548Y-11261286D02*
X6207024Y-11299381D01*
X6207024Y-11299381D02*
X6197500Y-11318428D01*
X6197500Y-11318428D02*
X6187976Y-11327952D01*
X6187976Y-11327952D02*
X6168929Y-11337476D01*
X6168929Y-11337476D02*
X6149881Y-11337476D01*
X6149881Y-11337476D02*
X6130833Y-11327952D01*
X6130833Y-11327952D02*
X6121309Y-11318428D01*
X6121309Y-11318428D02*
X6111786Y-11299381D01*
X6111786Y-11299381D02*
X6102262Y-11261286D01*
X6102262Y-11261286D02*
X6102262Y-11213667D01*
X6102262Y-11213667D02*
X6111786Y-11175571D01*
X6111786Y-11175571D02*
X6121309Y-11156524D01*
X6121309Y-11156524D02*
X6130833Y-11147000D01*
X6130833Y-11147000D02*
X6149881Y-11137476D01*
X6302262Y-11337476D02*
X6302262Y-11204143D01*
X6302262Y-11223190D02*
X6311786Y-11213667D01*
X6311786Y-11213667D02*
X6330833Y-11204143D01*
X6330833Y-11204143D02*
X6359405Y-11204143D01*
X6359405Y-11204143D02*
X6378452Y-11213667D01*
X6378452Y-11213667D02*
X6387976Y-11232714D01*
X6387976Y-11232714D02*
X6387976Y-11337476D01*
X6387976Y-11232714D02*
X6397500Y-11213667D01*
X6397500Y-11213667D02*
X6416548Y-11204143D01*
X6416548Y-11204143D02*
X6445119Y-11204143D01*
X6445119Y-11204143D02*
X6464167Y-11213667D01*
X6464167Y-11213667D02*
X6473690Y-11232714D01*
X6473690Y-11232714D02*
X6473690Y-11337476D01*
X6568929Y-11337476D02*
X6568929Y-11204143D01*
X6568929Y-11223190D02*
X6578452Y-11213667D01*
X6578452Y-11213667D02*
X6597500Y-11204143D01*
X6597500Y-11204143D02*
X6626071Y-11204143D01*
X6626071Y-11204143D02*
X6645119Y-11213667D01*
X6645119Y-11213667D02*
X6654643Y-11232714D01*
X6654643Y-11232714D02*
X6654643Y-11337476D01*
X6654643Y-11232714D02*
X6664167Y-11213667D01*
X6664167Y-11213667D02*
X6683214Y-11204143D01*
X6683214Y-11204143D02*
X6711786Y-11204143D01*
X6711786Y-11204143D02*
X6730833Y-11213667D01*
X6730833Y-11213667D02*
X6740357Y-11232714D01*
X6740357Y-11232714D02*
X6740357Y-11337476D01*
X7098452Y-11127952D02*
X6927024Y-11385095D01*
X7323214Y-11137476D02*
X7342262Y-11137476D01*
X7342262Y-11137476D02*
X7361310Y-11147000D01*
X7361310Y-11147000D02*
X7370833Y-11156524D01*
X7370833Y-11156524D02*
X7380357Y-11175571D01*
X7380357Y-11175571D02*
X7389881Y-11213667D01*
X7389881Y-11213667D02*
X7389881Y-11261286D01*
X7389881Y-11261286D02*
X7380357Y-11299381D01*
X7380357Y-11299381D02*
X7370833Y-11318428D01*
X7370833Y-11318428D02*
X7361310Y-11327952D01*
X7361310Y-11327952D02*
X7342262Y-11337476D01*
X7342262Y-11337476D02*
X7323214Y-11337476D01*
X7323214Y-11337476D02*
X7304167Y-11327952D01*
X7304167Y-11327952D02*
X7294643Y-11318428D01*
X7294643Y-11318428D02*
X7285119Y-11299381D01*
X7285119Y-11299381D02*
X7275595Y-11261286D01*
X7275595Y-11261286D02*
X7275595Y-11213667D01*
X7275595Y-11213667D02*
X7285119Y-11175571D01*
X7285119Y-11175571D02*
X7294643Y-11156524D01*
X7294643Y-11156524D02*
X7304167Y-11147000D01*
X7304167Y-11147000D02*
X7323214Y-11137476D01*
X7475595Y-11318428D02*
X7485119Y-11327952D01*
X7485119Y-11327952D02*
X7475595Y-11337476D01*
X7475595Y-11337476D02*
X7466071Y-11327952D01*
X7466071Y-11327952D02*
X7475595Y-11318428D01*
X7475595Y-11318428D02*
X7475595Y-11337476D01*
X7608929Y-11137476D02*
X7627976Y-11137476D01*
X7627976Y-11137476D02*
X7647024Y-11147000D01*
X7647024Y-11147000D02*
X7656548Y-11156524D01*
X7656548Y-11156524D02*
X7666071Y-11175571D01*
X7666071Y-11175571D02*
X7675595Y-11213667D01*
X7675595Y-11213667D02*
X7675595Y-11261286D01*
X7675595Y-11261286D02*
X7666071Y-11299381D01*
X7666071Y-11299381D02*
X7656548Y-11318428D01*
X7656548Y-11318428D02*
X7647024Y-11327952D01*
X7647024Y-11327952D02*
X7627976Y-11337476D01*
X7627976Y-11337476D02*
X7608929Y-11337476D01*
X7608929Y-11337476D02*
X7589881Y-11327952D01*
X7589881Y-11327952D02*
X7580357Y-11318428D01*
X7580357Y-11318428D02*
X7570833Y-11299381D01*
X7570833Y-11299381D02*
X7561310Y-11261286D01*
X7561310Y-11261286D02*
X7561310Y-11213667D01*
X7561310Y-11213667D02*
X7570833Y-11175571D01*
X7570833Y-11175571D02*
X7580357Y-11156524D01*
X7580357Y-11156524D02*
X7589881Y-11147000D01*
X7589881Y-11147000D02*
X7608929Y-11137476D01*
X7866071Y-11337476D02*
X7751786Y-11337476D01*
X7808929Y-11337476D02*
X7808929Y-11137476D01*
X7808929Y-11137476D02*
X7789881Y-11166048D01*
X7789881Y-11166048D02*
X7770833Y-11185095D01*
X7770833Y-11185095D02*
X7751786Y-11194619D01*
X8047024Y-11137476D02*
X7951786Y-11137476D01*
X7951786Y-11137476D02*
X7942262Y-11232714D01*
X7942262Y-11232714D02*
X7951786Y-11223190D01*
X7951786Y-11223190D02*
X7970833Y-11213667D01*
X7970833Y-11213667D02*
X8018452Y-11213667D01*
X8018452Y-11213667D02*
X8037500Y-11223190D01*
X8037500Y-11223190D02*
X8047024Y-11232714D01*
X8047024Y-11232714D02*
X8056548Y-11251762D01*
X8056548Y-11251762D02*
X8056548Y-11299381D01*
X8056548Y-11299381D02*
X8047024Y-11318428D01*
X8047024Y-11318428D02*
X8037500Y-11327952D01*
X8037500Y-11327952D02*
X8018452Y-11337476D01*
X8018452Y-11337476D02*
X7970833Y-11337476D01*
X7970833Y-11337476D02*
X7951786Y-11327952D01*
X7951786Y-11327952D02*
X7942262Y-11318428D01*
X8123214Y-11137476D02*
X8256548Y-11137476D01*
X8256548Y-11137476D02*
X8170833Y-11337476D01*
X8323214Y-11137476D02*
X8323214Y-11175571D01*
X8399405Y-11137476D02*
X8399405Y-11175571D01*
X8662262Y-11413667D02*
X8652738Y-11404143D01*
X8652738Y-11404143D02*
X8633691Y-11375571D01*
X8633691Y-11375571D02*
X8624167Y-11356524D01*
X8624167Y-11356524D02*
X8614643Y-11327952D01*
X8614643Y-11327952D02*
X8605119Y-11280333D01*
X8605119Y-11280333D02*
X8605119Y-11242238D01*
X8605119Y-11242238D02*
X8614643Y-11194619D01*
X8614643Y-11194619D02*
X8624167Y-11166048D01*
X8624167Y-11166048D02*
X8633691Y-11147000D01*
X8633691Y-11147000D02*
X8652738Y-11118429D01*
X8652738Y-11118429D02*
X8662262Y-11108905D01*
X8824167Y-11204143D02*
X8824167Y-11337476D01*
X8776548Y-11127952D02*
X8728929Y-11270809D01*
X8728929Y-11270809D02*
X8852738Y-11270809D01*
X9033691Y-11337476D02*
X8919405Y-11337476D01*
X8976548Y-11337476D02*
X8976548Y-11137476D01*
X8976548Y-11137476D02*
X8957500Y-11166048D01*
X8957500Y-11166048D02*
X8938453Y-11185095D01*
X8938453Y-11185095D02*
X8919405Y-11194619D01*
X9239405Y-11337476D02*
X9239405Y-11137476D01*
X9325119Y-11337476D02*
X9325119Y-11232714D01*
X9325119Y-11232714D02*
X9315595Y-11213667D01*
X9315595Y-11213667D02*
X9296548Y-11204143D01*
X9296548Y-11204143D02*
X9267976Y-11204143D01*
X9267976Y-11204143D02*
X9248929Y-11213667D01*
X9248929Y-11213667D02*
X9239405Y-11223190D01*
X9448929Y-11337476D02*
X9429881Y-11327952D01*
X9429881Y-11327952D02*
X9420357Y-11318428D01*
X9420357Y-11318428D02*
X9410834Y-11299381D01*
X9410834Y-11299381D02*
X9410834Y-11242238D01*
X9410834Y-11242238D02*
X9420357Y-11223190D01*
X9420357Y-11223190D02*
X9429881Y-11213667D01*
X9429881Y-11213667D02*
X9448929Y-11204143D01*
X9448929Y-11204143D02*
X9477500Y-11204143D01*
X9477500Y-11204143D02*
X9496548Y-11213667D01*
X9496548Y-11213667D02*
X9506072Y-11223190D01*
X9506072Y-11223190D02*
X9515595Y-11242238D01*
X9515595Y-11242238D02*
X9515595Y-11299381D01*
X9515595Y-11299381D02*
X9506072Y-11318428D01*
X9506072Y-11318428D02*
X9496548Y-11327952D01*
X9496548Y-11327952D02*
X9477500Y-11337476D01*
X9477500Y-11337476D02*
X9448929Y-11337476D01*
X9629881Y-11337476D02*
X9610834Y-11327952D01*
X9610834Y-11327952D02*
X9601310Y-11308905D01*
X9601310Y-11308905D02*
X9601310Y-11137476D01*
X9782262Y-11327952D02*
X9763215Y-11337476D01*
X9763215Y-11337476D02*
X9725119Y-11337476D01*
X9725119Y-11337476D02*
X9706072Y-11327952D01*
X9706072Y-11327952D02*
X9696548Y-11308905D01*
X9696548Y-11308905D02*
X9696548Y-11232714D01*
X9696548Y-11232714D02*
X9706072Y-11213667D01*
X9706072Y-11213667D02*
X9725119Y-11204143D01*
X9725119Y-11204143D02*
X9763215Y-11204143D01*
X9763215Y-11204143D02*
X9782262Y-11213667D01*
X9782262Y-11213667D02*
X9791786Y-11232714D01*
X9791786Y-11232714D02*
X9791786Y-11251762D01*
X9791786Y-11251762D02*
X9696548Y-11270809D01*
X9867976Y-11327952D02*
X9887024Y-11337476D01*
X9887024Y-11337476D02*
X9925119Y-11337476D01*
X9925119Y-11337476D02*
X9944167Y-11327952D01*
X9944167Y-11327952D02*
X9953691Y-11308905D01*
X9953691Y-11308905D02*
X9953691Y-11299381D01*
X9953691Y-11299381D02*
X9944167Y-11280333D01*
X9944167Y-11280333D02*
X9925119Y-11270809D01*
X9925119Y-11270809D02*
X9896548Y-11270809D01*
X9896548Y-11270809D02*
X9877500Y-11261286D01*
X9877500Y-11261286D02*
X9867976Y-11242238D01*
X9867976Y-11242238D02*
X9867976Y-11232714D01*
X9867976Y-11232714D02*
X9877500Y-11213667D01*
X9877500Y-11213667D02*
X9896548Y-11204143D01*
X9896548Y-11204143D02*
X9925119Y-11204143D01*
X9925119Y-11204143D02*
X9944167Y-11213667D01*
X10020357Y-11413667D02*
X10029881Y-11404143D01*
X10029881Y-11404143D02*
X10048929Y-11375571D01*
X10048929Y-11375571D02*
X10058453Y-11356524D01*
X10058453Y-11356524D02*
X10067976Y-11327952D01*
X10067976Y-11327952D02*
X10077500Y-11280333D01*
X10077500Y-11280333D02*
X10077500Y-11242238D01*
X10077500Y-11242238D02*
X10067976Y-11194619D01*
X10067976Y-11194619D02*
X10058453Y-11166048D01*
X10058453Y-11166048D02*
X10048929Y-11147000D01*
X10048929Y-11147000D02*
X10029881Y-11118429D01*
X10029881Y-11118429D02*
X10020357Y-11108905D01*
D14*
X5167500Y-11498000D02*
X5167500Y-11558000D01*
X5137500Y-11528000D02*
X5197500Y-11528000D01*
D11*
X5483214Y-11401476D02*
X5502262Y-11401476D01*
X5502262Y-11401476D02*
X5521310Y-11411000D01*
X5521310Y-11411000D02*
X5530833Y-11420524D01*
X5530833Y-11420524D02*
X5540357Y-11439571D01*
X5540357Y-11439571D02*
X5549881Y-11477667D01*
X5549881Y-11477667D02*
X5549881Y-11525286D01*
X5549881Y-11525286D02*
X5540357Y-11563381D01*
X5540357Y-11563381D02*
X5530833Y-11582428D01*
X5530833Y-11582428D02*
X5521310Y-11591952D01*
X5521310Y-11591952D02*
X5502262Y-11601476D01*
X5502262Y-11601476D02*
X5483214Y-11601476D01*
X5483214Y-11601476D02*
X5464167Y-11591952D01*
X5464167Y-11591952D02*
X5454643Y-11582428D01*
X5454643Y-11582428D02*
X5445119Y-11563381D01*
X5445119Y-11563381D02*
X5435595Y-11525286D01*
X5435595Y-11525286D02*
X5435595Y-11477667D01*
X5435595Y-11477667D02*
X5445119Y-11439571D01*
X5445119Y-11439571D02*
X5454643Y-11420524D01*
X5454643Y-11420524D02*
X5464167Y-11411000D01*
X5464167Y-11411000D02*
X5483214Y-11401476D01*
X5635595Y-11582428D02*
X5645119Y-11591952D01*
X5645119Y-11591952D02*
X5635595Y-11601476D01*
X5635595Y-11601476D02*
X5626071Y-11591952D01*
X5626071Y-11591952D02*
X5635595Y-11582428D01*
X5635595Y-11582428D02*
X5635595Y-11601476D01*
X5816548Y-11401476D02*
X5778452Y-11401476D01*
X5778452Y-11401476D02*
X5759405Y-11411000D01*
X5759405Y-11411000D02*
X5749881Y-11420524D01*
X5749881Y-11420524D02*
X5730833Y-11449095D01*
X5730833Y-11449095D02*
X5721309Y-11487190D01*
X5721309Y-11487190D02*
X5721309Y-11563381D01*
X5721309Y-11563381D02*
X5730833Y-11582428D01*
X5730833Y-11582428D02*
X5740357Y-11591952D01*
X5740357Y-11591952D02*
X5759405Y-11601476D01*
X5759405Y-11601476D02*
X5797500Y-11601476D01*
X5797500Y-11601476D02*
X5816548Y-11591952D01*
X5816548Y-11591952D02*
X5826071Y-11582428D01*
X5826071Y-11582428D02*
X5835595Y-11563381D01*
X5835595Y-11563381D02*
X5835595Y-11515762D01*
X5835595Y-11515762D02*
X5826071Y-11496714D01*
X5826071Y-11496714D02*
X5816548Y-11487190D01*
X5816548Y-11487190D02*
X5797500Y-11477667D01*
X5797500Y-11477667D02*
X5759405Y-11477667D01*
X5759405Y-11477667D02*
X5740357Y-11487190D01*
X5740357Y-11487190D02*
X5730833Y-11496714D01*
X5730833Y-11496714D02*
X5721309Y-11515762D01*
X5959405Y-11401476D02*
X5978452Y-11401476D01*
X5978452Y-11401476D02*
X5997500Y-11411000D01*
X5997500Y-11411000D02*
X6007024Y-11420524D01*
X6007024Y-11420524D02*
X6016548Y-11439571D01*
X6016548Y-11439571D02*
X6026071Y-11477667D01*
X6026071Y-11477667D02*
X6026071Y-11525286D01*
X6026071Y-11525286D02*
X6016548Y-11563381D01*
X6016548Y-11563381D02*
X6007024Y-11582428D01*
X6007024Y-11582428D02*
X5997500Y-11591952D01*
X5997500Y-11591952D02*
X5978452Y-11601476D01*
X5978452Y-11601476D02*
X5959405Y-11601476D01*
X5959405Y-11601476D02*
X5940357Y-11591952D01*
X5940357Y-11591952D02*
X5930833Y-11582428D01*
X5930833Y-11582428D02*
X5921309Y-11563381D01*
X5921309Y-11563381D02*
X5911786Y-11525286D01*
X5911786Y-11525286D02*
X5911786Y-11477667D01*
X5911786Y-11477667D02*
X5921309Y-11439571D01*
X5921309Y-11439571D02*
X5930833Y-11420524D01*
X5930833Y-11420524D02*
X5940357Y-11411000D01*
X5940357Y-11411000D02*
X5959405Y-11401476D01*
X6149881Y-11401476D02*
X6168929Y-11401476D01*
X6168929Y-11401476D02*
X6187976Y-11411000D01*
X6187976Y-11411000D02*
X6197500Y-11420524D01*
X6197500Y-11420524D02*
X6207024Y-11439571D01*
X6207024Y-11439571D02*
X6216548Y-11477667D01*
X6216548Y-11477667D02*
X6216548Y-11525286D01*
X6216548Y-11525286D02*
X6207024Y-11563381D01*
X6207024Y-11563381D02*
X6197500Y-11582428D01*
X6197500Y-11582428D02*
X6187976Y-11591952D01*
X6187976Y-11591952D02*
X6168929Y-11601476D01*
X6168929Y-11601476D02*
X6149881Y-11601476D01*
X6149881Y-11601476D02*
X6130833Y-11591952D01*
X6130833Y-11591952D02*
X6121309Y-11582428D01*
X6121309Y-11582428D02*
X6111786Y-11563381D01*
X6111786Y-11563381D02*
X6102262Y-11525286D01*
X6102262Y-11525286D02*
X6102262Y-11477667D01*
X6102262Y-11477667D02*
X6111786Y-11439571D01*
X6111786Y-11439571D02*
X6121309Y-11420524D01*
X6121309Y-11420524D02*
X6130833Y-11411000D01*
X6130833Y-11411000D02*
X6149881Y-11401476D01*
X6302262Y-11601476D02*
X6302262Y-11468143D01*
X6302262Y-11487190D02*
X6311786Y-11477667D01*
X6311786Y-11477667D02*
X6330833Y-11468143D01*
X6330833Y-11468143D02*
X6359405Y-11468143D01*
X6359405Y-11468143D02*
X6378452Y-11477667D01*
X6378452Y-11477667D02*
X6387976Y-11496714D01*
X6387976Y-11496714D02*
X6387976Y-11601476D01*
X6387976Y-11496714D02*
X6397500Y-11477667D01*
X6397500Y-11477667D02*
X6416548Y-11468143D01*
X6416548Y-11468143D02*
X6445119Y-11468143D01*
X6445119Y-11468143D02*
X6464167Y-11477667D01*
X6464167Y-11477667D02*
X6473690Y-11496714D01*
X6473690Y-11496714D02*
X6473690Y-11601476D01*
X6568929Y-11601476D02*
X6568929Y-11468143D01*
X6568929Y-11487190D02*
X6578452Y-11477667D01*
X6578452Y-11477667D02*
X6597500Y-11468143D01*
X6597500Y-11468143D02*
X6626071Y-11468143D01*
X6626071Y-11468143D02*
X6645119Y-11477667D01*
X6645119Y-11477667D02*
X6654643Y-11496714D01*
X6654643Y-11496714D02*
X6654643Y-11601476D01*
X6654643Y-11496714D02*
X6664167Y-11477667D01*
X6664167Y-11477667D02*
X6683214Y-11468143D01*
X6683214Y-11468143D02*
X6711786Y-11468143D01*
X6711786Y-11468143D02*
X6730833Y-11477667D01*
X6730833Y-11477667D02*
X6740357Y-11496714D01*
X6740357Y-11496714D02*
X6740357Y-11601476D01*
X7098452Y-11391952D02*
X6927024Y-11649095D01*
X7323214Y-11401476D02*
X7342262Y-11401476D01*
X7342262Y-11401476D02*
X7361310Y-11411000D01*
X7361310Y-11411000D02*
X7370833Y-11420524D01*
X7370833Y-11420524D02*
X7380357Y-11439571D01*
X7380357Y-11439571D02*
X7389881Y-11477667D01*
X7389881Y-11477667D02*
X7389881Y-11525286D01*
X7389881Y-11525286D02*
X7380357Y-11563381D01*
X7380357Y-11563381D02*
X7370833Y-11582428D01*
X7370833Y-11582428D02*
X7361310Y-11591952D01*
X7361310Y-11591952D02*
X7342262Y-11601476D01*
X7342262Y-11601476D02*
X7323214Y-11601476D01*
X7323214Y-11601476D02*
X7304167Y-11591952D01*
X7304167Y-11591952D02*
X7294643Y-11582428D01*
X7294643Y-11582428D02*
X7285119Y-11563381D01*
X7285119Y-11563381D02*
X7275595Y-11525286D01*
X7275595Y-11525286D02*
X7275595Y-11477667D01*
X7275595Y-11477667D02*
X7285119Y-11439571D01*
X7285119Y-11439571D02*
X7294643Y-11420524D01*
X7294643Y-11420524D02*
X7304167Y-11411000D01*
X7304167Y-11411000D02*
X7323214Y-11401476D01*
X7475595Y-11582428D02*
X7485119Y-11591952D01*
X7485119Y-11591952D02*
X7475595Y-11601476D01*
X7475595Y-11601476D02*
X7466071Y-11591952D01*
X7466071Y-11591952D02*
X7475595Y-11582428D01*
X7475595Y-11582428D02*
X7475595Y-11601476D01*
X7608929Y-11401476D02*
X7627976Y-11401476D01*
X7627976Y-11401476D02*
X7647024Y-11411000D01*
X7647024Y-11411000D02*
X7656548Y-11420524D01*
X7656548Y-11420524D02*
X7666071Y-11439571D01*
X7666071Y-11439571D02*
X7675595Y-11477667D01*
X7675595Y-11477667D02*
X7675595Y-11525286D01*
X7675595Y-11525286D02*
X7666071Y-11563381D01*
X7666071Y-11563381D02*
X7656548Y-11582428D01*
X7656548Y-11582428D02*
X7647024Y-11591952D01*
X7647024Y-11591952D02*
X7627976Y-11601476D01*
X7627976Y-11601476D02*
X7608929Y-11601476D01*
X7608929Y-11601476D02*
X7589881Y-11591952D01*
X7589881Y-11591952D02*
X7580357Y-11582428D01*
X7580357Y-11582428D02*
X7570833Y-11563381D01*
X7570833Y-11563381D02*
X7561310Y-11525286D01*
X7561310Y-11525286D02*
X7561310Y-11477667D01*
X7561310Y-11477667D02*
X7570833Y-11439571D01*
X7570833Y-11439571D02*
X7580357Y-11420524D01*
X7580357Y-11420524D02*
X7589881Y-11411000D01*
X7589881Y-11411000D02*
X7608929Y-11401476D01*
X7751786Y-11420524D02*
X7761310Y-11411000D01*
X7761310Y-11411000D02*
X7780357Y-11401476D01*
X7780357Y-11401476D02*
X7827976Y-11401476D01*
X7827976Y-11401476D02*
X7847024Y-11411000D01*
X7847024Y-11411000D02*
X7856548Y-11420524D01*
X7856548Y-11420524D02*
X7866071Y-11439571D01*
X7866071Y-11439571D02*
X7866071Y-11458619D01*
X7866071Y-11458619D02*
X7856548Y-11487190D01*
X7856548Y-11487190D02*
X7742262Y-11601476D01*
X7742262Y-11601476D02*
X7866071Y-11601476D01*
X7932738Y-11401476D02*
X8056548Y-11401476D01*
X8056548Y-11401476D02*
X7989881Y-11477667D01*
X7989881Y-11477667D02*
X8018452Y-11477667D01*
X8018452Y-11477667D02*
X8037500Y-11487190D01*
X8037500Y-11487190D02*
X8047024Y-11496714D01*
X8047024Y-11496714D02*
X8056548Y-11515762D01*
X8056548Y-11515762D02*
X8056548Y-11563381D01*
X8056548Y-11563381D02*
X8047024Y-11582428D01*
X8047024Y-11582428D02*
X8037500Y-11591952D01*
X8037500Y-11591952D02*
X8018452Y-11601476D01*
X8018452Y-11601476D02*
X7961310Y-11601476D01*
X7961310Y-11601476D02*
X7942262Y-11591952D01*
X7942262Y-11591952D02*
X7932738Y-11582428D01*
X8227976Y-11401476D02*
X8189881Y-11401476D01*
X8189881Y-11401476D02*
X8170833Y-11411000D01*
X8170833Y-11411000D02*
X8161310Y-11420524D01*
X8161310Y-11420524D02*
X8142262Y-11449095D01*
X8142262Y-11449095D02*
X8132738Y-11487190D01*
X8132738Y-11487190D02*
X8132738Y-11563381D01*
X8132738Y-11563381D02*
X8142262Y-11582428D01*
X8142262Y-11582428D02*
X8151786Y-11591952D01*
X8151786Y-11591952D02*
X8170833Y-11601476D01*
X8170833Y-11601476D02*
X8208929Y-11601476D01*
X8208929Y-11601476D02*
X8227976Y-11591952D01*
X8227976Y-11591952D02*
X8237500Y-11582428D01*
X8237500Y-11582428D02*
X8247024Y-11563381D01*
X8247024Y-11563381D02*
X8247024Y-11515762D01*
X8247024Y-11515762D02*
X8237500Y-11496714D01*
X8237500Y-11496714D02*
X8227976Y-11487190D01*
X8227976Y-11487190D02*
X8208929Y-11477667D01*
X8208929Y-11477667D02*
X8170833Y-11477667D01*
X8170833Y-11477667D02*
X8151786Y-11487190D01*
X8151786Y-11487190D02*
X8142262Y-11496714D01*
X8142262Y-11496714D02*
X8132738Y-11515762D01*
X8323214Y-11401476D02*
X8323214Y-11439571D01*
X8399405Y-11401476D02*
X8399405Y-11439571D01*
X8662262Y-11677667D02*
X8652738Y-11668143D01*
X8652738Y-11668143D02*
X8633691Y-11639571D01*
X8633691Y-11639571D02*
X8624167Y-11620524D01*
X8624167Y-11620524D02*
X8614643Y-11591952D01*
X8614643Y-11591952D02*
X8605119Y-11544333D01*
X8605119Y-11544333D02*
X8605119Y-11506238D01*
X8605119Y-11506238D02*
X8614643Y-11458619D01*
X8614643Y-11458619D02*
X8624167Y-11430048D01*
X8624167Y-11430048D02*
X8633691Y-11411000D01*
X8633691Y-11411000D02*
X8652738Y-11382428D01*
X8652738Y-11382428D02*
X8662262Y-11372905D01*
X8728929Y-11420524D02*
X8738453Y-11411000D01*
X8738453Y-11411000D02*
X8757500Y-11401476D01*
X8757500Y-11401476D02*
X8805119Y-11401476D01*
X8805119Y-11401476D02*
X8824167Y-11411000D01*
X8824167Y-11411000D02*
X8833691Y-11420524D01*
X8833691Y-11420524D02*
X8843214Y-11439571D01*
X8843214Y-11439571D02*
X8843214Y-11458619D01*
X8843214Y-11458619D02*
X8833691Y-11487190D01*
X8833691Y-11487190D02*
X8719405Y-11601476D01*
X8719405Y-11601476D02*
X8843214Y-11601476D01*
X8967024Y-11401476D02*
X8986072Y-11401476D01*
X8986072Y-11401476D02*
X9005119Y-11411000D01*
X9005119Y-11411000D02*
X9014643Y-11420524D01*
X9014643Y-11420524D02*
X9024167Y-11439571D01*
X9024167Y-11439571D02*
X9033691Y-11477667D01*
X9033691Y-11477667D02*
X9033691Y-11525286D01*
X9033691Y-11525286D02*
X9024167Y-11563381D01*
X9024167Y-11563381D02*
X9014643Y-11582428D01*
X9014643Y-11582428D02*
X9005119Y-11591952D01*
X9005119Y-11591952D02*
X8986072Y-11601476D01*
X8986072Y-11601476D02*
X8967024Y-11601476D01*
X8967024Y-11601476D02*
X8947976Y-11591952D01*
X8947976Y-11591952D02*
X8938453Y-11582428D01*
X8938453Y-11582428D02*
X8928929Y-11563381D01*
X8928929Y-11563381D02*
X8919405Y-11525286D01*
X8919405Y-11525286D02*
X8919405Y-11477667D01*
X8919405Y-11477667D02*
X8928929Y-11439571D01*
X8928929Y-11439571D02*
X8938453Y-11420524D01*
X8938453Y-11420524D02*
X8947976Y-11411000D01*
X8947976Y-11411000D02*
X8967024Y-11401476D01*
X9239405Y-11601476D02*
X9239405Y-11401476D01*
X9325119Y-11601476D02*
X9325119Y-11496714D01*
X9325119Y-11496714D02*
X9315595Y-11477667D01*
X9315595Y-11477667D02*
X9296548Y-11468143D01*
X9296548Y-11468143D02*
X9267976Y-11468143D01*
X9267976Y-11468143D02*
X9248929Y-11477667D01*
X9248929Y-11477667D02*
X9239405Y-11487190D01*
X9448929Y-11601476D02*
X9429881Y-11591952D01*
X9429881Y-11591952D02*
X9420357Y-11582428D01*
X9420357Y-11582428D02*
X9410834Y-11563381D01*
X9410834Y-11563381D02*
X9410834Y-11506238D01*
X9410834Y-11506238D02*
X9420357Y-11487190D01*
X9420357Y-11487190D02*
X9429881Y-11477667D01*
X9429881Y-11477667D02*
X9448929Y-11468143D01*
X9448929Y-11468143D02*
X9477500Y-11468143D01*
X9477500Y-11468143D02*
X9496548Y-11477667D01*
X9496548Y-11477667D02*
X9506072Y-11487190D01*
X9506072Y-11487190D02*
X9515595Y-11506238D01*
X9515595Y-11506238D02*
X9515595Y-11563381D01*
X9515595Y-11563381D02*
X9506072Y-11582428D01*
X9506072Y-11582428D02*
X9496548Y-11591952D01*
X9496548Y-11591952D02*
X9477500Y-11601476D01*
X9477500Y-11601476D02*
X9448929Y-11601476D01*
X9629881Y-11601476D02*
X9610834Y-11591952D01*
X9610834Y-11591952D02*
X9601310Y-11572905D01*
X9601310Y-11572905D02*
X9601310Y-11401476D01*
X9782262Y-11591952D02*
X9763215Y-11601476D01*
X9763215Y-11601476D02*
X9725119Y-11601476D01*
X9725119Y-11601476D02*
X9706072Y-11591952D01*
X9706072Y-11591952D02*
X9696548Y-11572905D01*
X9696548Y-11572905D02*
X9696548Y-11496714D01*
X9696548Y-11496714D02*
X9706072Y-11477667D01*
X9706072Y-11477667D02*
X9725119Y-11468143D01*
X9725119Y-11468143D02*
X9763215Y-11468143D01*
X9763215Y-11468143D02*
X9782262Y-11477667D01*
X9782262Y-11477667D02*
X9791786Y-11496714D01*
X9791786Y-11496714D02*
X9791786Y-11515762D01*
X9791786Y-11515762D02*
X9696548Y-11534809D01*
X9867976Y-11591952D02*
X9887024Y-11601476D01*
X9887024Y-11601476D02*
X9925119Y-11601476D01*
X9925119Y-11601476D02*
X9944167Y-11591952D01*
X9944167Y-11591952D02*
X9953691Y-11572905D01*
X9953691Y-11572905D02*
X9953691Y-11563381D01*
X9953691Y-11563381D02*
X9944167Y-11544333D01*
X9944167Y-11544333D02*
X9925119Y-11534809D01*
X9925119Y-11534809D02*
X9896548Y-11534809D01*
X9896548Y-11534809D02*
X9877500Y-11525286D01*
X9877500Y-11525286D02*
X9867976Y-11506238D01*
X9867976Y-11506238D02*
X9867976Y-11496714D01*
X9867976Y-11496714D02*
X9877500Y-11477667D01*
X9877500Y-11477667D02*
X9896548Y-11468143D01*
X9896548Y-11468143D02*
X9925119Y-11468143D01*
X9925119Y-11468143D02*
X9944167Y-11477667D01*
X10020357Y-11677667D02*
X10029881Y-11668143D01*
X10029881Y-11668143D02*
X10048929Y-11639571D01*
X10048929Y-11639571D02*
X10058453Y-11620524D01*
X10058453Y-11620524D02*
X10067976Y-11591952D01*
X10067976Y-11591952D02*
X10077500Y-11544333D01*
X10077500Y-11544333D02*
X10077500Y-11506238D01*
X10077500Y-11506238D02*
X10067976Y-11458619D01*
X10067976Y-11458619D02*
X10058453Y-11430048D01*
X10058453Y-11430048D02*
X10048929Y-11411000D01*
X10048929Y-11411000D02*
X10029881Y-11382428D01*
X10029881Y-11382428D02*
X10020357Y-11372905D01*
D15*
X5185785Y-11820284D02*
X5185785Y-11763715D01*
X5129216Y-11763715D01*
X5129216Y-11820284D01*
X5185785Y-11820284D01*
D11*
X5483214Y-11665476D02*
X5502262Y-11665476D01*
X5502262Y-11665476D02*
X5521310Y-11675000D01*
X5521310Y-11675000D02*
X5530833Y-11684524D01*
X5530833Y-11684524D02*
X5540357Y-11703571D01*
X5540357Y-11703571D02*
X5549881Y-11741667D01*
X5549881Y-11741667D02*
X5549881Y-11789286D01*
X5549881Y-11789286D02*
X5540357Y-11827381D01*
X5540357Y-11827381D02*
X5530833Y-11846428D01*
X5530833Y-11846428D02*
X5521310Y-11855952D01*
X5521310Y-11855952D02*
X5502262Y-11865476D01*
X5502262Y-11865476D02*
X5483214Y-11865476D01*
X5483214Y-11865476D02*
X5464167Y-11855952D01*
X5464167Y-11855952D02*
X5454643Y-11846428D01*
X5454643Y-11846428D02*
X5445119Y-11827381D01*
X5445119Y-11827381D02*
X5435595Y-11789286D01*
X5435595Y-11789286D02*
X5435595Y-11741667D01*
X5435595Y-11741667D02*
X5445119Y-11703571D01*
X5445119Y-11703571D02*
X5454643Y-11684524D01*
X5454643Y-11684524D02*
X5464167Y-11675000D01*
X5464167Y-11675000D02*
X5483214Y-11665476D01*
X5635595Y-11846428D02*
X5645119Y-11855952D01*
X5645119Y-11855952D02*
X5635595Y-11865476D01*
X5635595Y-11865476D02*
X5626071Y-11855952D01*
X5626071Y-11855952D02*
X5635595Y-11846428D01*
X5635595Y-11846428D02*
X5635595Y-11865476D01*
X5759405Y-11751190D02*
X5740357Y-11741667D01*
X5740357Y-11741667D02*
X5730833Y-11732143D01*
X5730833Y-11732143D02*
X5721309Y-11713095D01*
X5721309Y-11713095D02*
X5721309Y-11703571D01*
X5721309Y-11703571D02*
X5730833Y-11684524D01*
X5730833Y-11684524D02*
X5740357Y-11675000D01*
X5740357Y-11675000D02*
X5759405Y-11665476D01*
X5759405Y-11665476D02*
X5797500Y-11665476D01*
X5797500Y-11665476D02*
X5816548Y-11675000D01*
X5816548Y-11675000D02*
X5826071Y-11684524D01*
X5826071Y-11684524D02*
X5835595Y-11703571D01*
X5835595Y-11703571D02*
X5835595Y-11713095D01*
X5835595Y-11713095D02*
X5826071Y-11732143D01*
X5826071Y-11732143D02*
X5816548Y-11741667D01*
X5816548Y-11741667D02*
X5797500Y-11751190D01*
X5797500Y-11751190D02*
X5759405Y-11751190D01*
X5759405Y-11751190D02*
X5740357Y-11760714D01*
X5740357Y-11760714D02*
X5730833Y-11770238D01*
X5730833Y-11770238D02*
X5721309Y-11789286D01*
X5721309Y-11789286D02*
X5721309Y-11827381D01*
X5721309Y-11827381D02*
X5730833Y-11846428D01*
X5730833Y-11846428D02*
X5740357Y-11855952D01*
X5740357Y-11855952D02*
X5759405Y-11865476D01*
X5759405Y-11865476D02*
X5797500Y-11865476D01*
X5797500Y-11865476D02*
X5816548Y-11855952D01*
X5816548Y-11855952D02*
X5826071Y-11846428D01*
X5826071Y-11846428D02*
X5835595Y-11827381D01*
X5835595Y-11827381D02*
X5835595Y-11789286D01*
X5835595Y-11789286D02*
X5826071Y-11770238D01*
X5826071Y-11770238D02*
X5816548Y-11760714D01*
X5816548Y-11760714D02*
X5797500Y-11751190D01*
X5959405Y-11665476D02*
X5978452Y-11665476D01*
X5978452Y-11665476D02*
X5997500Y-11675000D01*
X5997500Y-11675000D02*
X6007024Y-11684524D01*
X6007024Y-11684524D02*
X6016548Y-11703571D01*
X6016548Y-11703571D02*
X6026071Y-11741667D01*
X6026071Y-11741667D02*
X6026071Y-11789286D01*
X6026071Y-11789286D02*
X6016548Y-11827381D01*
X6016548Y-11827381D02*
X6007024Y-11846428D01*
X6007024Y-11846428D02*
X5997500Y-11855952D01*
X5997500Y-11855952D02*
X5978452Y-11865476D01*
X5978452Y-11865476D02*
X5959405Y-11865476D01*
X5959405Y-11865476D02*
X5940357Y-11855952D01*
X5940357Y-11855952D02*
X5930833Y-11846428D01*
X5930833Y-11846428D02*
X5921309Y-11827381D01*
X5921309Y-11827381D02*
X5911786Y-11789286D01*
X5911786Y-11789286D02*
X5911786Y-11741667D01*
X5911786Y-11741667D02*
X5921309Y-11703571D01*
X5921309Y-11703571D02*
X5930833Y-11684524D01*
X5930833Y-11684524D02*
X5940357Y-11675000D01*
X5940357Y-11675000D02*
X5959405Y-11665476D01*
X6149881Y-11665476D02*
X6168929Y-11665476D01*
X6168929Y-11665476D02*
X6187976Y-11675000D01*
X6187976Y-11675000D02*
X6197500Y-11684524D01*
X6197500Y-11684524D02*
X6207024Y-11703571D01*
X6207024Y-11703571D02*
X6216548Y-11741667D01*
X6216548Y-11741667D02*
X6216548Y-11789286D01*
X6216548Y-11789286D02*
X6207024Y-11827381D01*
X6207024Y-11827381D02*
X6197500Y-11846428D01*
X6197500Y-11846428D02*
X6187976Y-11855952D01*
X6187976Y-11855952D02*
X6168929Y-11865476D01*
X6168929Y-11865476D02*
X6149881Y-11865476D01*
X6149881Y-11865476D02*
X6130833Y-11855952D01*
X6130833Y-11855952D02*
X6121309Y-11846428D01*
X6121309Y-11846428D02*
X6111786Y-11827381D01*
X6111786Y-11827381D02*
X6102262Y-11789286D01*
X6102262Y-11789286D02*
X6102262Y-11741667D01*
X6102262Y-11741667D02*
X6111786Y-11703571D01*
X6111786Y-11703571D02*
X6121309Y-11684524D01*
X6121309Y-11684524D02*
X6130833Y-11675000D01*
X6130833Y-11675000D02*
X6149881Y-11665476D01*
X6302262Y-11865476D02*
X6302262Y-11732143D01*
X6302262Y-11751190D02*
X6311786Y-11741667D01*
X6311786Y-11741667D02*
X6330833Y-11732143D01*
X6330833Y-11732143D02*
X6359405Y-11732143D01*
X6359405Y-11732143D02*
X6378452Y-11741667D01*
X6378452Y-11741667D02*
X6387976Y-11760714D01*
X6387976Y-11760714D02*
X6387976Y-11865476D01*
X6387976Y-11760714D02*
X6397500Y-11741667D01*
X6397500Y-11741667D02*
X6416548Y-11732143D01*
X6416548Y-11732143D02*
X6445119Y-11732143D01*
X6445119Y-11732143D02*
X6464167Y-11741667D01*
X6464167Y-11741667D02*
X6473690Y-11760714D01*
X6473690Y-11760714D02*
X6473690Y-11865476D01*
X6568929Y-11865476D02*
X6568929Y-11732143D01*
X6568929Y-11751190D02*
X6578452Y-11741667D01*
X6578452Y-11741667D02*
X6597500Y-11732143D01*
X6597500Y-11732143D02*
X6626071Y-11732143D01*
X6626071Y-11732143D02*
X6645119Y-11741667D01*
X6645119Y-11741667D02*
X6654643Y-11760714D01*
X6654643Y-11760714D02*
X6654643Y-11865476D01*
X6654643Y-11760714D02*
X6664167Y-11741667D01*
X6664167Y-11741667D02*
X6683214Y-11732143D01*
X6683214Y-11732143D02*
X6711786Y-11732143D01*
X6711786Y-11732143D02*
X6730833Y-11741667D01*
X6730833Y-11741667D02*
X6740357Y-11760714D01*
X6740357Y-11760714D02*
X6740357Y-11865476D01*
X7098452Y-11655952D02*
X6927024Y-11913095D01*
X7323214Y-11665476D02*
X7342262Y-11665476D01*
X7342262Y-11665476D02*
X7361310Y-11675000D01*
X7361310Y-11675000D02*
X7370833Y-11684524D01*
X7370833Y-11684524D02*
X7380357Y-11703571D01*
X7380357Y-11703571D02*
X7389881Y-11741667D01*
X7389881Y-11741667D02*
X7389881Y-11789286D01*
X7389881Y-11789286D02*
X7380357Y-11827381D01*
X7380357Y-11827381D02*
X7370833Y-11846428D01*
X7370833Y-11846428D02*
X7361310Y-11855952D01*
X7361310Y-11855952D02*
X7342262Y-11865476D01*
X7342262Y-11865476D02*
X7323214Y-11865476D01*
X7323214Y-11865476D02*
X7304167Y-11855952D01*
X7304167Y-11855952D02*
X7294643Y-11846428D01*
X7294643Y-11846428D02*
X7285119Y-11827381D01*
X7285119Y-11827381D02*
X7275595Y-11789286D01*
X7275595Y-11789286D02*
X7275595Y-11741667D01*
X7275595Y-11741667D02*
X7285119Y-11703571D01*
X7285119Y-11703571D02*
X7294643Y-11684524D01*
X7294643Y-11684524D02*
X7304167Y-11675000D01*
X7304167Y-11675000D02*
X7323214Y-11665476D01*
X7475595Y-11846428D02*
X7485119Y-11855952D01*
X7485119Y-11855952D02*
X7475595Y-11865476D01*
X7475595Y-11865476D02*
X7466071Y-11855952D01*
X7466071Y-11855952D02*
X7475595Y-11846428D01*
X7475595Y-11846428D02*
X7475595Y-11865476D01*
X7608929Y-11665476D02*
X7627976Y-11665476D01*
X7627976Y-11665476D02*
X7647024Y-11675000D01*
X7647024Y-11675000D02*
X7656548Y-11684524D01*
X7656548Y-11684524D02*
X7666071Y-11703571D01*
X7666071Y-11703571D02*
X7675595Y-11741667D01*
X7675595Y-11741667D02*
X7675595Y-11789286D01*
X7675595Y-11789286D02*
X7666071Y-11827381D01*
X7666071Y-11827381D02*
X7656548Y-11846428D01*
X7656548Y-11846428D02*
X7647024Y-11855952D01*
X7647024Y-11855952D02*
X7627976Y-11865476D01*
X7627976Y-11865476D02*
X7608929Y-11865476D01*
X7608929Y-11865476D02*
X7589881Y-11855952D01*
X7589881Y-11855952D02*
X7580357Y-11846428D01*
X7580357Y-11846428D02*
X7570833Y-11827381D01*
X7570833Y-11827381D02*
X7561310Y-11789286D01*
X7561310Y-11789286D02*
X7561310Y-11741667D01*
X7561310Y-11741667D02*
X7570833Y-11703571D01*
X7570833Y-11703571D02*
X7580357Y-11684524D01*
X7580357Y-11684524D02*
X7589881Y-11675000D01*
X7589881Y-11675000D02*
X7608929Y-11665476D01*
X7742262Y-11665476D02*
X7866071Y-11665476D01*
X7866071Y-11665476D02*
X7799405Y-11741667D01*
X7799405Y-11741667D02*
X7827976Y-11741667D01*
X7827976Y-11741667D02*
X7847024Y-11751190D01*
X7847024Y-11751190D02*
X7856548Y-11760714D01*
X7856548Y-11760714D02*
X7866071Y-11779762D01*
X7866071Y-11779762D02*
X7866071Y-11827381D01*
X7866071Y-11827381D02*
X7856548Y-11846428D01*
X7856548Y-11846428D02*
X7847024Y-11855952D01*
X7847024Y-11855952D02*
X7827976Y-11865476D01*
X7827976Y-11865476D02*
X7770833Y-11865476D01*
X7770833Y-11865476D02*
X7751786Y-11855952D01*
X7751786Y-11855952D02*
X7742262Y-11846428D01*
X8056548Y-11865476D02*
X7942262Y-11865476D01*
X7999405Y-11865476D02*
X7999405Y-11665476D01*
X7999405Y-11665476D02*
X7980357Y-11694048D01*
X7980357Y-11694048D02*
X7961310Y-11713095D01*
X7961310Y-11713095D02*
X7942262Y-11722619D01*
X8237500Y-11665476D02*
X8142262Y-11665476D01*
X8142262Y-11665476D02*
X8132738Y-11760714D01*
X8132738Y-11760714D02*
X8142262Y-11751190D01*
X8142262Y-11751190D02*
X8161310Y-11741667D01*
X8161310Y-11741667D02*
X8208929Y-11741667D01*
X8208929Y-11741667D02*
X8227976Y-11751190D01*
X8227976Y-11751190D02*
X8237500Y-11760714D01*
X8237500Y-11760714D02*
X8247024Y-11779762D01*
X8247024Y-11779762D02*
X8247024Y-11827381D01*
X8247024Y-11827381D02*
X8237500Y-11846428D01*
X8237500Y-11846428D02*
X8227976Y-11855952D01*
X8227976Y-11855952D02*
X8208929Y-11865476D01*
X8208929Y-11865476D02*
X8161310Y-11865476D01*
X8161310Y-11865476D02*
X8142262Y-11855952D01*
X8142262Y-11855952D02*
X8132738Y-11846428D01*
X8323214Y-11665476D02*
X8323214Y-11703571D01*
X8399405Y-11665476D02*
X8399405Y-11703571D01*
X8662262Y-11941667D02*
X8652738Y-11932143D01*
X8652738Y-11932143D02*
X8633691Y-11903571D01*
X8633691Y-11903571D02*
X8624167Y-11884524D01*
X8624167Y-11884524D02*
X8614643Y-11855952D01*
X8614643Y-11855952D02*
X8605119Y-11808333D01*
X8605119Y-11808333D02*
X8605119Y-11770238D01*
X8605119Y-11770238D02*
X8614643Y-11722619D01*
X8614643Y-11722619D02*
X8624167Y-11694048D01*
X8624167Y-11694048D02*
X8633691Y-11675000D01*
X8633691Y-11675000D02*
X8652738Y-11646428D01*
X8652738Y-11646428D02*
X8662262Y-11636905D01*
X8719405Y-11665476D02*
X8843214Y-11665476D01*
X8843214Y-11665476D02*
X8776548Y-11741667D01*
X8776548Y-11741667D02*
X8805119Y-11741667D01*
X8805119Y-11741667D02*
X8824167Y-11751190D01*
X8824167Y-11751190D02*
X8833691Y-11760714D01*
X8833691Y-11760714D02*
X8843214Y-11779762D01*
X8843214Y-11779762D02*
X8843214Y-11827381D01*
X8843214Y-11827381D02*
X8833691Y-11846428D01*
X8833691Y-11846428D02*
X8824167Y-11855952D01*
X8824167Y-11855952D02*
X8805119Y-11865476D01*
X8805119Y-11865476D02*
X8747976Y-11865476D01*
X8747976Y-11865476D02*
X8728929Y-11855952D01*
X8728929Y-11855952D02*
X8719405Y-11846428D01*
X9014643Y-11665476D02*
X8976548Y-11665476D01*
X8976548Y-11665476D02*
X8957500Y-11675000D01*
X8957500Y-11675000D02*
X8947976Y-11684524D01*
X8947976Y-11684524D02*
X8928929Y-11713095D01*
X8928929Y-11713095D02*
X8919405Y-11751190D01*
X8919405Y-11751190D02*
X8919405Y-11827381D01*
X8919405Y-11827381D02*
X8928929Y-11846428D01*
X8928929Y-11846428D02*
X8938453Y-11855952D01*
X8938453Y-11855952D02*
X8957500Y-11865476D01*
X8957500Y-11865476D02*
X8995595Y-11865476D01*
X8995595Y-11865476D02*
X9014643Y-11855952D01*
X9014643Y-11855952D02*
X9024167Y-11846428D01*
X9024167Y-11846428D02*
X9033691Y-11827381D01*
X9033691Y-11827381D02*
X9033691Y-11779762D01*
X9033691Y-11779762D02*
X9024167Y-11760714D01*
X9024167Y-11760714D02*
X9014643Y-11751190D01*
X9014643Y-11751190D02*
X8995595Y-11741667D01*
X8995595Y-11741667D02*
X8957500Y-11741667D01*
X8957500Y-11741667D02*
X8938453Y-11751190D01*
X8938453Y-11751190D02*
X8928929Y-11760714D01*
X8928929Y-11760714D02*
X8919405Y-11779762D01*
X9239405Y-11865476D02*
X9239405Y-11665476D01*
X9325119Y-11865476D02*
X9325119Y-11760714D01*
X9325119Y-11760714D02*
X9315595Y-11741667D01*
X9315595Y-11741667D02*
X9296548Y-11732143D01*
X9296548Y-11732143D02*
X9267976Y-11732143D01*
X9267976Y-11732143D02*
X9248929Y-11741667D01*
X9248929Y-11741667D02*
X9239405Y-11751190D01*
X9448929Y-11865476D02*
X9429881Y-11855952D01*
X9429881Y-11855952D02*
X9420357Y-11846428D01*
X9420357Y-11846428D02*
X9410834Y-11827381D01*
X9410834Y-11827381D02*
X9410834Y-11770238D01*
X9410834Y-11770238D02*
X9420357Y-11751190D01*
X9420357Y-11751190D02*
X9429881Y-11741667D01*
X9429881Y-11741667D02*
X9448929Y-11732143D01*
X9448929Y-11732143D02*
X9477500Y-11732143D01*
X9477500Y-11732143D02*
X9496548Y-11741667D01*
X9496548Y-11741667D02*
X9506072Y-11751190D01*
X9506072Y-11751190D02*
X9515595Y-11770238D01*
X9515595Y-11770238D02*
X9515595Y-11827381D01*
X9515595Y-11827381D02*
X9506072Y-11846428D01*
X9506072Y-11846428D02*
X9496548Y-11855952D01*
X9496548Y-11855952D02*
X9477500Y-11865476D01*
X9477500Y-11865476D02*
X9448929Y-11865476D01*
X9629881Y-11865476D02*
X9610834Y-11855952D01*
X9610834Y-11855952D02*
X9601310Y-11836905D01*
X9601310Y-11836905D02*
X9601310Y-11665476D01*
X9782262Y-11855952D02*
X9763215Y-11865476D01*
X9763215Y-11865476D02*
X9725119Y-11865476D01*
X9725119Y-11865476D02*
X9706072Y-11855952D01*
X9706072Y-11855952D02*
X9696548Y-11836905D01*
X9696548Y-11836905D02*
X9696548Y-11760714D01*
X9696548Y-11760714D02*
X9706072Y-11741667D01*
X9706072Y-11741667D02*
X9725119Y-11732143D01*
X9725119Y-11732143D02*
X9763215Y-11732143D01*
X9763215Y-11732143D02*
X9782262Y-11741667D01*
X9782262Y-11741667D02*
X9791786Y-11760714D01*
X9791786Y-11760714D02*
X9791786Y-11779762D01*
X9791786Y-11779762D02*
X9696548Y-11798809D01*
X9867976Y-11855952D02*
X9887024Y-11865476D01*
X9887024Y-11865476D02*
X9925119Y-11865476D01*
X9925119Y-11865476D02*
X9944167Y-11855952D01*
X9944167Y-11855952D02*
X9953691Y-11836905D01*
X9953691Y-11836905D02*
X9953691Y-11827381D01*
X9953691Y-11827381D02*
X9944167Y-11808333D01*
X9944167Y-11808333D02*
X9925119Y-11798809D01*
X9925119Y-11798809D02*
X9896548Y-11798809D01*
X9896548Y-11798809D02*
X9877500Y-11789286D01*
X9877500Y-11789286D02*
X9867976Y-11770238D01*
X9867976Y-11770238D02*
X9867976Y-11760714D01*
X9867976Y-11760714D02*
X9877500Y-11741667D01*
X9877500Y-11741667D02*
X9896548Y-11732143D01*
X9896548Y-11732143D02*
X9925119Y-11732143D01*
X9925119Y-11732143D02*
X9944167Y-11741667D01*
X10020357Y-11941667D02*
X10029881Y-11932143D01*
X10029881Y-11932143D02*
X10048929Y-11903571D01*
X10048929Y-11903571D02*
X10058453Y-11884524D01*
X10058453Y-11884524D02*
X10067976Y-11855952D01*
X10067976Y-11855952D02*
X10077500Y-11808333D01*
X10077500Y-11808333D02*
X10077500Y-11770238D01*
X10077500Y-11770238D02*
X10067976Y-11722619D01*
X10067976Y-11722619D02*
X10058453Y-11694048D01*
X10058453Y-11694048D02*
X10048929Y-11675000D01*
X10048929Y-11675000D02*
X10029881Y-11646428D01*
X10029881Y-11646428D02*
X10020357Y-11636905D01*
D10*
X5147500Y-12106000D02*
X5197500Y-12056000D01*
X5147500Y-12006000D01*
X5097500Y-12056000D01*
X5147500Y-12106000D01*
D11*
X5549881Y-12129476D02*
X5435595Y-12129476D01*
X5492738Y-12129476D02*
X5492738Y-11929476D01*
X5492738Y-11929476D02*
X5473690Y-11958048D01*
X5473690Y-11958048D02*
X5454643Y-11977095D01*
X5454643Y-11977095D02*
X5435595Y-11986619D01*
X5635595Y-12110428D02*
X5645119Y-12119952D01*
X5645119Y-12119952D02*
X5635595Y-12129476D01*
X5635595Y-12129476D02*
X5626071Y-12119952D01*
X5626071Y-12119952D02*
X5635595Y-12110428D01*
X5635595Y-12110428D02*
X5635595Y-12129476D01*
X5768928Y-11929476D02*
X5787976Y-11929476D01*
X5787976Y-11929476D02*
X5807024Y-11939000D01*
X5807024Y-11939000D02*
X5816548Y-11948524D01*
X5816548Y-11948524D02*
X5826071Y-11967571D01*
X5826071Y-11967571D02*
X5835595Y-12005667D01*
X5835595Y-12005667D02*
X5835595Y-12053286D01*
X5835595Y-12053286D02*
X5826071Y-12091381D01*
X5826071Y-12091381D02*
X5816548Y-12110428D01*
X5816548Y-12110428D02*
X5807024Y-12119952D01*
X5807024Y-12119952D02*
X5787976Y-12129476D01*
X5787976Y-12129476D02*
X5768928Y-12129476D01*
X5768928Y-12129476D02*
X5749881Y-12119952D01*
X5749881Y-12119952D02*
X5740357Y-12110428D01*
X5740357Y-12110428D02*
X5730833Y-12091381D01*
X5730833Y-12091381D02*
X5721309Y-12053286D01*
X5721309Y-12053286D02*
X5721309Y-12005667D01*
X5721309Y-12005667D02*
X5730833Y-11967571D01*
X5730833Y-11967571D02*
X5740357Y-11948524D01*
X5740357Y-11948524D02*
X5749881Y-11939000D01*
X5749881Y-11939000D02*
X5768928Y-11929476D01*
X5959405Y-11929476D02*
X5978452Y-11929476D01*
X5978452Y-11929476D02*
X5997500Y-11939000D01*
X5997500Y-11939000D02*
X6007024Y-11948524D01*
X6007024Y-11948524D02*
X6016548Y-11967571D01*
X6016548Y-11967571D02*
X6026071Y-12005667D01*
X6026071Y-12005667D02*
X6026071Y-12053286D01*
X6026071Y-12053286D02*
X6016548Y-12091381D01*
X6016548Y-12091381D02*
X6007024Y-12110428D01*
X6007024Y-12110428D02*
X5997500Y-12119952D01*
X5997500Y-12119952D02*
X5978452Y-12129476D01*
X5978452Y-12129476D02*
X5959405Y-12129476D01*
X5959405Y-12129476D02*
X5940357Y-12119952D01*
X5940357Y-12119952D02*
X5930833Y-12110428D01*
X5930833Y-12110428D02*
X5921309Y-12091381D01*
X5921309Y-12091381D02*
X5911786Y-12053286D01*
X5911786Y-12053286D02*
X5911786Y-12005667D01*
X5911786Y-12005667D02*
X5921309Y-11967571D01*
X5921309Y-11967571D02*
X5930833Y-11948524D01*
X5930833Y-11948524D02*
X5940357Y-11939000D01*
X5940357Y-11939000D02*
X5959405Y-11929476D01*
X6149881Y-11929476D02*
X6168929Y-11929476D01*
X6168929Y-11929476D02*
X6187976Y-11939000D01*
X6187976Y-11939000D02*
X6197500Y-11948524D01*
X6197500Y-11948524D02*
X6207024Y-11967571D01*
X6207024Y-11967571D02*
X6216548Y-12005667D01*
X6216548Y-12005667D02*
X6216548Y-12053286D01*
X6216548Y-12053286D02*
X6207024Y-12091381D01*
X6207024Y-12091381D02*
X6197500Y-12110428D01*
X6197500Y-12110428D02*
X6187976Y-12119952D01*
X6187976Y-12119952D02*
X6168929Y-12129476D01*
X6168929Y-12129476D02*
X6149881Y-12129476D01*
X6149881Y-12129476D02*
X6130833Y-12119952D01*
X6130833Y-12119952D02*
X6121309Y-12110428D01*
X6121309Y-12110428D02*
X6111786Y-12091381D01*
X6111786Y-12091381D02*
X6102262Y-12053286D01*
X6102262Y-12053286D02*
X6102262Y-12005667D01*
X6102262Y-12005667D02*
X6111786Y-11967571D01*
X6111786Y-11967571D02*
X6121309Y-11948524D01*
X6121309Y-11948524D02*
X6130833Y-11939000D01*
X6130833Y-11939000D02*
X6149881Y-11929476D01*
X6302262Y-12129476D02*
X6302262Y-11996143D01*
X6302262Y-12015190D02*
X6311786Y-12005667D01*
X6311786Y-12005667D02*
X6330833Y-11996143D01*
X6330833Y-11996143D02*
X6359405Y-11996143D01*
X6359405Y-11996143D02*
X6378452Y-12005667D01*
X6378452Y-12005667D02*
X6387976Y-12024714D01*
X6387976Y-12024714D02*
X6387976Y-12129476D01*
X6387976Y-12024714D02*
X6397500Y-12005667D01*
X6397500Y-12005667D02*
X6416548Y-11996143D01*
X6416548Y-11996143D02*
X6445119Y-11996143D01*
X6445119Y-11996143D02*
X6464167Y-12005667D01*
X6464167Y-12005667D02*
X6473690Y-12024714D01*
X6473690Y-12024714D02*
X6473690Y-12129476D01*
X6568929Y-12129476D02*
X6568929Y-11996143D01*
X6568929Y-12015190D02*
X6578452Y-12005667D01*
X6578452Y-12005667D02*
X6597500Y-11996143D01*
X6597500Y-11996143D02*
X6626071Y-11996143D01*
X6626071Y-11996143D02*
X6645119Y-12005667D01*
X6645119Y-12005667D02*
X6654643Y-12024714D01*
X6654643Y-12024714D02*
X6654643Y-12129476D01*
X6654643Y-12024714D02*
X6664167Y-12005667D01*
X6664167Y-12005667D02*
X6683214Y-11996143D01*
X6683214Y-11996143D02*
X6711786Y-11996143D01*
X6711786Y-11996143D02*
X6730833Y-12005667D01*
X6730833Y-12005667D02*
X6740357Y-12024714D01*
X6740357Y-12024714D02*
X6740357Y-12129476D01*
X7098452Y-11919952D02*
X6927024Y-12177095D01*
X7323214Y-11929476D02*
X7342262Y-11929476D01*
X7342262Y-11929476D02*
X7361310Y-11939000D01*
X7361310Y-11939000D02*
X7370833Y-11948524D01*
X7370833Y-11948524D02*
X7380357Y-11967571D01*
X7380357Y-11967571D02*
X7389881Y-12005667D01*
X7389881Y-12005667D02*
X7389881Y-12053286D01*
X7389881Y-12053286D02*
X7380357Y-12091381D01*
X7380357Y-12091381D02*
X7370833Y-12110428D01*
X7370833Y-12110428D02*
X7361310Y-12119952D01*
X7361310Y-12119952D02*
X7342262Y-12129476D01*
X7342262Y-12129476D02*
X7323214Y-12129476D01*
X7323214Y-12129476D02*
X7304167Y-12119952D01*
X7304167Y-12119952D02*
X7294643Y-12110428D01*
X7294643Y-12110428D02*
X7285119Y-12091381D01*
X7285119Y-12091381D02*
X7275595Y-12053286D01*
X7275595Y-12053286D02*
X7275595Y-12005667D01*
X7275595Y-12005667D02*
X7285119Y-11967571D01*
X7285119Y-11967571D02*
X7294643Y-11948524D01*
X7294643Y-11948524D02*
X7304167Y-11939000D01*
X7304167Y-11939000D02*
X7323214Y-11929476D01*
X7475595Y-12110428D02*
X7485119Y-12119952D01*
X7485119Y-12119952D02*
X7475595Y-12129476D01*
X7475595Y-12129476D02*
X7466071Y-12119952D01*
X7466071Y-12119952D02*
X7475595Y-12110428D01*
X7475595Y-12110428D02*
X7475595Y-12129476D01*
X7608929Y-11929476D02*
X7627976Y-11929476D01*
X7627976Y-11929476D02*
X7647024Y-11939000D01*
X7647024Y-11939000D02*
X7656548Y-11948524D01*
X7656548Y-11948524D02*
X7666071Y-11967571D01*
X7666071Y-11967571D02*
X7675595Y-12005667D01*
X7675595Y-12005667D02*
X7675595Y-12053286D01*
X7675595Y-12053286D02*
X7666071Y-12091381D01*
X7666071Y-12091381D02*
X7656548Y-12110428D01*
X7656548Y-12110428D02*
X7647024Y-12119952D01*
X7647024Y-12119952D02*
X7627976Y-12129476D01*
X7627976Y-12129476D02*
X7608929Y-12129476D01*
X7608929Y-12129476D02*
X7589881Y-12119952D01*
X7589881Y-12119952D02*
X7580357Y-12110428D01*
X7580357Y-12110428D02*
X7570833Y-12091381D01*
X7570833Y-12091381D02*
X7561310Y-12053286D01*
X7561310Y-12053286D02*
X7561310Y-12005667D01*
X7561310Y-12005667D02*
X7570833Y-11967571D01*
X7570833Y-11967571D02*
X7580357Y-11948524D01*
X7580357Y-11948524D02*
X7589881Y-11939000D01*
X7589881Y-11939000D02*
X7608929Y-11929476D01*
X7742262Y-11929476D02*
X7866071Y-11929476D01*
X7866071Y-11929476D02*
X7799405Y-12005667D01*
X7799405Y-12005667D02*
X7827976Y-12005667D01*
X7827976Y-12005667D02*
X7847024Y-12015190D01*
X7847024Y-12015190D02*
X7856548Y-12024714D01*
X7856548Y-12024714D02*
X7866071Y-12043762D01*
X7866071Y-12043762D02*
X7866071Y-12091381D01*
X7866071Y-12091381D02*
X7856548Y-12110428D01*
X7856548Y-12110428D02*
X7847024Y-12119952D01*
X7847024Y-12119952D02*
X7827976Y-12129476D01*
X7827976Y-12129476D02*
X7770833Y-12129476D01*
X7770833Y-12129476D02*
X7751786Y-12119952D01*
X7751786Y-12119952D02*
X7742262Y-12110428D01*
X7961310Y-12129476D02*
X7999405Y-12129476D01*
X7999405Y-12129476D02*
X8018452Y-12119952D01*
X8018452Y-12119952D02*
X8027976Y-12110428D01*
X8027976Y-12110428D02*
X8047024Y-12081857D01*
X8047024Y-12081857D02*
X8056548Y-12043762D01*
X8056548Y-12043762D02*
X8056548Y-11967571D01*
X8056548Y-11967571D02*
X8047024Y-11948524D01*
X8047024Y-11948524D02*
X8037500Y-11939000D01*
X8037500Y-11939000D02*
X8018452Y-11929476D01*
X8018452Y-11929476D02*
X7980357Y-11929476D01*
X7980357Y-11929476D02*
X7961310Y-11939000D01*
X7961310Y-11939000D02*
X7951786Y-11948524D01*
X7951786Y-11948524D02*
X7942262Y-11967571D01*
X7942262Y-11967571D02*
X7942262Y-12015190D01*
X7942262Y-12015190D02*
X7951786Y-12034238D01*
X7951786Y-12034238D02*
X7961310Y-12043762D01*
X7961310Y-12043762D02*
X7980357Y-12053286D01*
X7980357Y-12053286D02*
X8018452Y-12053286D01*
X8018452Y-12053286D02*
X8037500Y-12043762D01*
X8037500Y-12043762D02*
X8047024Y-12034238D01*
X8047024Y-12034238D02*
X8056548Y-12015190D01*
X8227976Y-11996143D02*
X8227976Y-12129476D01*
X8180357Y-11919952D02*
X8132738Y-12062809D01*
X8132738Y-12062809D02*
X8256548Y-12062809D01*
X8323214Y-11929476D02*
X8323214Y-11967571D01*
X8399405Y-11929476D02*
X8399405Y-11967571D01*
X8662262Y-12205667D02*
X8652738Y-12196143D01*
X8652738Y-12196143D02*
X8633691Y-12167571D01*
X8633691Y-12167571D02*
X8624167Y-12148524D01*
X8624167Y-12148524D02*
X8614643Y-12119952D01*
X8614643Y-12119952D02*
X8605119Y-12072333D01*
X8605119Y-12072333D02*
X8605119Y-12034238D01*
X8605119Y-12034238D02*
X8614643Y-11986619D01*
X8614643Y-11986619D02*
X8624167Y-11958048D01*
X8624167Y-11958048D02*
X8633691Y-11939000D01*
X8633691Y-11939000D02*
X8652738Y-11910428D01*
X8652738Y-11910428D02*
X8662262Y-11900905D01*
X8833691Y-11929476D02*
X8738453Y-11929476D01*
X8738453Y-11929476D02*
X8728929Y-12024714D01*
X8728929Y-12024714D02*
X8738453Y-12015190D01*
X8738453Y-12015190D02*
X8757500Y-12005667D01*
X8757500Y-12005667D02*
X8805119Y-12005667D01*
X8805119Y-12005667D02*
X8824167Y-12015190D01*
X8824167Y-12015190D02*
X8833691Y-12024714D01*
X8833691Y-12024714D02*
X8843214Y-12043762D01*
X8843214Y-12043762D02*
X8843214Y-12091381D01*
X8843214Y-12091381D02*
X8833691Y-12110428D01*
X8833691Y-12110428D02*
X8824167Y-12119952D01*
X8824167Y-12119952D02*
X8805119Y-12129476D01*
X8805119Y-12129476D02*
X8757500Y-12129476D01*
X8757500Y-12129476D02*
X8738453Y-12119952D01*
X8738453Y-12119952D02*
X8728929Y-12110428D01*
X8957500Y-12015190D02*
X8938453Y-12005667D01*
X8938453Y-12005667D02*
X8928929Y-11996143D01*
X8928929Y-11996143D02*
X8919405Y-11977095D01*
X8919405Y-11977095D02*
X8919405Y-11967571D01*
X8919405Y-11967571D02*
X8928929Y-11948524D01*
X8928929Y-11948524D02*
X8938453Y-11939000D01*
X8938453Y-11939000D02*
X8957500Y-11929476D01*
X8957500Y-11929476D02*
X8995595Y-11929476D01*
X8995595Y-11929476D02*
X9014643Y-11939000D01*
X9014643Y-11939000D02*
X9024167Y-11948524D01*
X9024167Y-11948524D02*
X9033691Y-11967571D01*
X9033691Y-11967571D02*
X9033691Y-11977095D01*
X9033691Y-11977095D02*
X9024167Y-11996143D01*
X9024167Y-11996143D02*
X9014643Y-12005667D01*
X9014643Y-12005667D02*
X8995595Y-12015190D01*
X8995595Y-12015190D02*
X8957500Y-12015190D01*
X8957500Y-12015190D02*
X8938453Y-12024714D01*
X8938453Y-12024714D02*
X8928929Y-12034238D01*
X8928929Y-12034238D02*
X8919405Y-12053286D01*
X8919405Y-12053286D02*
X8919405Y-12091381D01*
X8919405Y-12091381D02*
X8928929Y-12110428D01*
X8928929Y-12110428D02*
X8938453Y-12119952D01*
X8938453Y-12119952D02*
X8957500Y-12129476D01*
X8957500Y-12129476D02*
X8995595Y-12129476D01*
X8995595Y-12129476D02*
X9014643Y-12119952D01*
X9014643Y-12119952D02*
X9024167Y-12110428D01*
X9024167Y-12110428D02*
X9033691Y-12091381D01*
X9033691Y-12091381D02*
X9033691Y-12053286D01*
X9033691Y-12053286D02*
X9024167Y-12034238D01*
X9024167Y-12034238D02*
X9014643Y-12024714D01*
X9014643Y-12024714D02*
X8995595Y-12015190D01*
X9239405Y-12129476D02*
X9239405Y-11929476D01*
X9325119Y-12129476D02*
X9325119Y-12024714D01*
X9325119Y-12024714D02*
X9315595Y-12005667D01*
X9315595Y-12005667D02*
X9296548Y-11996143D01*
X9296548Y-11996143D02*
X9267976Y-11996143D01*
X9267976Y-11996143D02*
X9248929Y-12005667D01*
X9248929Y-12005667D02*
X9239405Y-12015190D01*
X9448929Y-12129476D02*
X9429881Y-12119952D01*
X9429881Y-12119952D02*
X9420357Y-12110428D01*
X9420357Y-12110428D02*
X9410834Y-12091381D01*
X9410834Y-12091381D02*
X9410834Y-12034238D01*
X9410834Y-12034238D02*
X9420357Y-12015190D01*
X9420357Y-12015190D02*
X9429881Y-12005667D01*
X9429881Y-12005667D02*
X9448929Y-11996143D01*
X9448929Y-11996143D02*
X9477500Y-11996143D01*
X9477500Y-11996143D02*
X9496548Y-12005667D01*
X9496548Y-12005667D02*
X9506072Y-12015190D01*
X9506072Y-12015190D02*
X9515595Y-12034238D01*
X9515595Y-12034238D02*
X9515595Y-12091381D01*
X9515595Y-12091381D02*
X9506072Y-12110428D01*
X9506072Y-12110428D02*
X9496548Y-12119952D01*
X9496548Y-12119952D02*
X9477500Y-12129476D01*
X9477500Y-12129476D02*
X9448929Y-12129476D01*
X9629881Y-12129476D02*
X9610834Y-12119952D01*
X9610834Y-12119952D02*
X9601310Y-12100905D01*
X9601310Y-12100905D02*
X9601310Y-11929476D01*
X9782262Y-12119952D02*
X9763215Y-12129476D01*
X9763215Y-12129476D02*
X9725119Y-12129476D01*
X9725119Y-12129476D02*
X9706072Y-12119952D01*
X9706072Y-12119952D02*
X9696548Y-12100905D01*
X9696548Y-12100905D02*
X9696548Y-12024714D01*
X9696548Y-12024714D02*
X9706072Y-12005667D01*
X9706072Y-12005667D02*
X9725119Y-11996143D01*
X9725119Y-11996143D02*
X9763215Y-11996143D01*
X9763215Y-11996143D02*
X9782262Y-12005667D01*
X9782262Y-12005667D02*
X9791786Y-12024714D01*
X9791786Y-12024714D02*
X9791786Y-12043762D01*
X9791786Y-12043762D02*
X9696548Y-12062809D01*
X9867976Y-12119952D02*
X9887024Y-12129476D01*
X9887024Y-12129476D02*
X9925119Y-12129476D01*
X9925119Y-12129476D02*
X9944167Y-12119952D01*
X9944167Y-12119952D02*
X9953691Y-12100905D01*
X9953691Y-12100905D02*
X9953691Y-12091381D01*
X9953691Y-12091381D02*
X9944167Y-12072333D01*
X9944167Y-12072333D02*
X9925119Y-12062809D01*
X9925119Y-12062809D02*
X9896548Y-12062809D01*
X9896548Y-12062809D02*
X9877500Y-12053286D01*
X9877500Y-12053286D02*
X9867976Y-12034238D01*
X9867976Y-12034238D02*
X9867976Y-12024714D01*
X9867976Y-12024714D02*
X9877500Y-12005667D01*
X9877500Y-12005667D02*
X9896548Y-11996143D01*
X9896548Y-11996143D02*
X9925119Y-11996143D01*
X9925119Y-11996143D02*
X9944167Y-12005667D01*
X10020357Y-12205667D02*
X10029881Y-12196143D01*
X10029881Y-12196143D02*
X10048929Y-12167571D01*
X10048929Y-12167571D02*
X10058453Y-12148524D01*
X10058453Y-12148524D02*
X10067976Y-12119952D01*
X10067976Y-12119952D02*
X10077500Y-12072333D01*
X10077500Y-12072333D02*
X10077500Y-12034238D01*
X10077500Y-12034238D02*
X10067976Y-11986619D01*
X10067976Y-11986619D02*
X10058453Y-11958048D01*
X10058453Y-11958048D02*
X10048929Y-11939000D01*
X10048929Y-11939000D02*
X10029881Y-11910428D01*
X10029881Y-11910428D02*
X10020357Y-11900905D01*
D16*
X5087500Y-12265000D02*
X5197500Y-12375000D01*
X5197500Y-12265000D02*
X5087500Y-12375000D01*
X5197500Y-12320000D02*
G75*
G03*
X5197500Y-12320000I-55000J0D01*
G01*
D11*
X5549881Y-12393476D02*
X5435595Y-12393476D01*
X5492738Y-12393476D02*
X5492738Y-12193476D01*
X5492738Y-12193476D02*
X5473690Y-12222048D01*
X5473690Y-12222048D02*
X5454643Y-12241095D01*
X5454643Y-12241095D02*
X5435595Y-12250619D01*
X5635595Y-12374428D02*
X5645119Y-12383952D01*
X5645119Y-12383952D02*
X5635595Y-12393476D01*
X5635595Y-12393476D02*
X5626071Y-12383952D01*
X5626071Y-12383952D02*
X5635595Y-12374428D01*
X5635595Y-12374428D02*
X5635595Y-12393476D01*
X5835595Y-12393476D02*
X5721309Y-12393476D01*
X5778452Y-12393476D02*
X5778452Y-12193476D01*
X5778452Y-12193476D02*
X5759405Y-12222048D01*
X5759405Y-12222048D02*
X5740357Y-12241095D01*
X5740357Y-12241095D02*
X5721309Y-12250619D01*
X5959405Y-12193476D02*
X5978452Y-12193476D01*
X5978452Y-12193476D02*
X5997500Y-12203000D01*
X5997500Y-12203000D02*
X6007024Y-12212524D01*
X6007024Y-12212524D02*
X6016548Y-12231571D01*
X6016548Y-12231571D02*
X6026071Y-12269667D01*
X6026071Y-12269667D02*
X6026071Y-12317286D01*
X6026071Y-12317286D02*
X6016548Y-12355381D01*
X6016548Y-12355381D02*
X6007024Y-12374428D01*
X6007024Y-12374428D02*
X5997500Y-12383952D01*
X5997500Y-12383952D02*
X5978452Y-12393476D01*
X5978452Y-12393476D02*
X5959405Y-12393476D01*
X5959405Y-12393476D02*
X5940357Y-12383952D01*
X5940357Y-12383952D02*
X5930833Y-12374428D01*
X5930833Y-12374428D02*
X5921309Y-12355381D01*
X5921309Y-12355381D02*
X5911786Y-12317286D01*
X5911786Y-12317286D02*
X5911786Y-12269667D01*
X5911786Y-12269667D02*
X5921309Y-12231571D01*
X5921309Y-12231571D02*
X5930833Y-12212524D01*
X5930833Y-12212524D02*
X5940357Y-12203000D01*
X5940357Y-12203000D02*
X5959405Y-12193476D01*
X6149881Y-12193476D02*
X6168929Y-12193476D01*
X6168929Y-12193476D02*
X6187976Y-12203000D01*
X6187976Y-12203000D02*
X6197500Y-12212524D01*
X6197500Y-12212524D02*
X6207024Y-12231571D01*
X6207024Y-12231571D02*
X6216548Y-12269667D01*
X6216548Y-12269667D02*
X6216548Y-12317286D01*
X6216548Y-12317286D02*
X6207024Y-12355381D01*
X6207024Y-12355381D02*
X6197500Y-12374428D01*
X6197500Y-12374428D02*
X6187976Y-12383952D01*
X6187976Y-12383952D02*
X6168929Y-12393476D01*
X6168929Y-12393476D02*
X6149881Y-12393476D01*
X6149881Y-12393476D02*
X6130833Y-12383952D01*
X6130833Y-12383952D02*
X6121309Y-12374428D01*
X6121309Y-12374428D02*
X6111786Y-12355381D01*
X6111786Y-12355381D02*
X6102262Y-12317286D01*
X6102262Y-12317286D02*
X6102262Y-12269667D01*
X6102262Y-12269667D02*
X6111786Y-12231571D01*
X6111786Y-12231571D02*
X6121309Y-12212524D01*
X6121309Y-12212524D02*
X6130833Y-12203000D01*
X6130833Y-12203000D02*
X6149881Y-12193476D01*
X6302262Y-12393476D02*
X6302262Y-12260143D01*
X6302262Y-12279190D02*
X6311786Y-12269667D01*
X6311786Y-12269667D02*
X6330833Y-12260143D01*
X6330833Y-12260143D02*
X6359405Y-12260143D01*
X6359405Y-12260143D02*
X6378452Y-12269667D01*
X6378452Y-12269667D02*
X6387976Y-12288714D01*
X6387976Y-12288714D02*
X6387976Y-12393476D01*
X6387976Y-12288714D02*
X6397500Y-12269667D01*
X6397500Y-12269667D02*
X6416548Y-12260143D01*
X6416548Y-12260143D02*
X6445119Y-12260143D01*
X6445119Y-12260143D02*
X6464167Y-12269667D01*
X6464167Y-12269667D02*
X6473690Y-12288714D01*
X6473690Y-12288714D02*
X6473690Y-12393476D01*
X6568929Y-12393476D02*
X6568929Y-12260143D01*
X6568929Y-12279190D02*
X6578452Y-12269667D01*
X6578452Y-12269667D02*
X6597500Y-12260143D01*
X6597500Y-12260143D02*
X6626071Y-12260143D01*
X6626071Y-12260143D02*
X6645119Y-12269667D01*
X6645119Y-12269667D02*
X6654643Y-12288714D01*
X6654643Y-12288714D02*
X6654643Y-12393476D01*
X6654643Y-12288714D02*
X6664167Y-12269667D01*
X6664167Y-12269667D02*
X6683214Y-12260143D01*
X6683214Y-12260143D02*
X6711786Y-12260143D01*
X6711786Y-12260143D02*
X6730833Y-12269667D01*
X6730833Y-12269667D02*
X6740357Y-12288714D01*
X6740357Y-12288714D02*
X6740357Y-12393476D01*
X7098452Y-12183952D02*
X6927024Y-12441095D01*
X7323214Y-12193476D02*
X7342262Y-12193476D01*
X7342262Y-12193476D02*
X7361310Y-12203000D01*
X7361310Y-12203000D02*
X7370833Y-12212524D01*
X7370833Y-12212524D02*
X7380357Y-12231571D01*
X7380357Y-12231571D02*
X7389881Y-12269667D01*
X7389881Y-12269667D02*
X7389881Y-12317286D01*
X7389881Y-12317286D02*
X7380357Y-12355381D01*
X7380357Y-12355381D02*
X7370833Y-12374428D01*
X7370833Y-12374428D02*
X7361310Y-12383952D01*
X7361310Y-12383952D02*
X7342262Y-12393476D01*
X7342262Y-12393476D02*
X7323214Y-12393476D01*
X7323214Y-12393476D02*
X7304167Y-12383952D01*
X7304167Y-12383952D02*
X7294643Y-12374428D01*
X7294643Y-12374428D02*
X7285119Y-12355381D01*
X7285119Y-12355381D02*
X7275595Y-12317286D01*
X7275595Y-12317286D02*
X7275595Y-12269667D01*
X7275595Y-12269667D02*
X7285119Y-12231571D01*
X7285119Y-12231571D02*
X7294643Y-12212524D01*
X7294643Y-12212524D02*
X7304167Y-12203000D01*
X7304167Y-12203000D02*
X7323214Y-12193476D01*
X7475595Y-12374428D02*
X7485119Y-12383952D01*
X7485119Y-12383952D02*
X7475595Y-12393476D01*
X7475595Y-12393476D02*
X7466071Y-12383952D01*
X7466071Y-12383952D02*
X7475595Y-12374428D01*
X7475595Y-12374428D02*
X7475595Y-12393476D01*
X7608929Y-12193476D02*
X7627976Y-12193476D01*
X7627976Y-12193476D02*
X7647024Y-12203000D01*
X7647024Y-12203000D02*
X7656548Y-12212524D01*
X7656548Y-12212524D02*
X7666071Y-12231571D01*
X7666071Y-12231571D02*
X7675595Y-12269667D01*
X7675595Y-12269667D02*
X7675595Y-12317286D01*
X7675595Y-12317286D02*
X7666071Y-12355381D01*
X7666071Y-12355381D02*
X7656548Y-12374428D01*
X7656548Y-12374428D02*
X7647024Y-12383952D01*
X7647024Y-12383952D02*
X7627976Y-12393476D01*
X7627976Y-12393476D02*
X7608929Y-12393476D01*
X7608929Y-12393476D02*
X7589881Y-12383952D01*
X7589881Y-12383952D02*
X7580357Y-12374428D01*
X7580357Y-12374428D02*
X7570833Y-12355381D01*
X7570833Y-12355381D02*
X7561310Y-12317286D01*
X7561310Y-12317286D02*
X7561310Y-12269667D01*
X7561310Y-12269667D02*
X7570833Y-12231571D01*
X7570833Y-12231571D02*
X7580357Y-12212524D01*
X7580357Y-12212524D02*
X7589881Y-12203000D01*
X7589881Y-12203000D02*
X7608929Y-12193476D01*
X7847024Y-12260143D02*
X7847024Y-12393476D01*
X7799405Y-12183952D02*
X7751786Y-12326809D01*
X7751786Y-12326809D02*
X7875595Y-12326809D01*
X7932738Y-12193476D02*
X8056548Y-12193476D01*
X8056548Y-12193476D02*
X7989881Y-12269667D01*
X7989881Y-12269667D02*
X8018452Y-12269667D01*
X8018452Y-12269667D02*
X8037500Y-12279190D01*
X8037500Y-12279190D02*
X8047024Y-12288714D01*
X8047024Y-12288714D02*
X8056548Y-12307762D01*
X8056548Y-12307762D02*
X8056548Y-12355381D01*
X8056548Y-12355381D02*
X8047024Y-12374428D01*
X8047024Y-12374428D02*
X8037500Y-12383952D01*
X8037500Y-12383952D02*
X8018452Y-12393476D01*
X8018452Y-12393476D02*
X7961310Y-12393476D01*
X7961310Y-12393476D02*
X7942262Y-12383952D01*
X7942262Y-12383952D02*
X7932738Y-12374428D01*
X8123214Y-12193476D02*
X8247024Y-12193476D01*
X8247024Y-12193476D02*
X8180357Y-12269667D01*
X8180357Y-12269667D02*
X8208929Y-12269667D01*
X8208929Y-12269667D02*
X8227976Y-12279190D01*
X8227976Y-12279190D02*
X8237500Y-12288714D01*
X8237500Y-12288714D02*
X8247024Y-12307762D01*
X8247024Y-12307762D02*
X8247024Y-12355381D01*
X8247024Y-12355381D02*
X8237500Y-12374428D01*
X8237500Y-12374428D02*
X8227976Y-12383952D01*
X8227976Y-12383952D02*
X8208929Y-12393476D01*
X8208929Y-12393476D02*
X8151786Y-12393476D01*
X8151786Y-12393476D02*
X8132738Y-12383952D01*
X8132738Y-12383952D02*
X8123214Y-12374428D01*
X8323214Y-12193476D02*
X8323214Y-12231571D01*
X8399405Y-12193476D02*
X8399405Y-12231571D01*
X8662262Y-12469667D02*
X8652738Y-12460143D01*
X8652738Y-12460143D02*
X8633691Y-12431571D01*
X8633691Y-12431571D02*
X8624167Y-12412524D01*
X8624167Y-12412524D02*
X8614643Y-12383952D01*
X8614643Y-12383952D02*
X8605119Y-12336333D01*
X8605119Y-12336333D02*
X8605119Y-12298238D01*
X8605119Y-12298238D02*
X8614643Y-12250619D01*
X8614643Y-12250619D02*
X8624167Y-12222048D01*
X8624167Y-12222048D02*
X8633691Y-12203000D01*
X8633691Y-12203000D02*
X8652738Y-12174428D01*
X8652738Y-12174428D02*
X8662262Y-12164905D01*
X8824167Y-12260143D02*
X8824167Y-12393476D01*
X8776548Y-12183952D02*
X8728929Y-12326809D01*
X8728929Y-12326809D02*
X8852738Y-12326809D01*
X9048929Y-12393476D02*
X9048929Y-12193476D01*
X9134643Y-12393476D02*
X9134643Y-12288714D01*
X9134643Y-12288714D02*
X9125119Y-12269667D01*
X9125119Y-12269667D02*
X9106072Y-12260143D01*
X9106072Y-12260143D02*
X9077500Y-12260143D01*
X9077500Y-12260143D02*
X9058453Y-12269667D01*
X9058453Y-12269667D02*
X9048929Y-12279190D01*
X9258453Y-12393476D02*
X9239405Y-12383952D01*
X9239405Y-12383952D02*
X9229881Y-12374428D01*
X9229881Y-12374428D02*
X9220357Y-12355381D01*
X9220357Y-12355381D02*
X9220357Y-12298238D01*
X9220357Y-12298238D02*
X9229881Y-12279190D01*
X9229881Y-12279190D02*
X9239405Y-12269667D01*
X9239405Y-12269667D02*
X9258453Y-12260143D01*
X9258453Y-12260143D02*
X9287024Y-12260143D01*
X9287024Y-12260143D02*
X9306072Y-12269667D01*
X9306072Y-12269667D02*
X9315595Y-12279190D01*
X9315595Y-12279190D02*
X9325119Y-12298238D01*
X9325119Y-12298238D02*
X9325119Y-12355381D01*
X9325119Y-12355381D02*
X9315595Y-12374428D01*
X9315595Y-12374428D02*
X9306072Y-12383952D01*
X9306072Y-12383952D02*
X9287024Y-12393476D01*
X9287024Y-12393476D02*
X9258453Y-12393476D01*
X9439405Y-12393476D02*
X9420357Y-12383952D01*
X9420357Y-12383952D02*
X9410834Y-12364905D01*
X9410834Y-12364905D02*
X9410834Y-12193476D01*
X9591786Y-12383952D02*
X9572738Y-12393476D01*
X9572738Y-12393476D02*
X9534643Y-12393476D01*
X9534643Y-12393476D02*
X9515595Y-12383952D01*
X9515595Y-12383952D02*
X9506072Y-12364905D01*
X9506072Y-12364905D02*
X9506072Y-12288714D01*
X9506072Y-12288714D02*
X9515595Y-12269667D01*
X9515595Y-12269667D02*
X9534643Y-12260143D01*
X9534643Y-12260143D02*
X9572738Y-12260143D01*
X9572738Y-12260143D02*
X9591786Y-12269667D01*
X9591786Y-12269667D02*
X9601310Y-12288714D01*
X9601310Y-12288714D02*
X9601310Y-12307762D01*
X9601310Y-12307762D02*
X9506072Y-12326809D01*
X9677500Y-12383952D02*
X9696548Y-12393476D01*
X9696548Y-12393476D02*
X9734643Y-12393476D01*
X9734643Y-12393476D02*
X9753691Y-12383952D01*
X9753691Y-12383952D02*
X9763215Y-12364905D01*
X9763215Y-12364905D02*
X9763215Y-12355381D01*
X9763215Y-12355381D02*
X9753691Y-12336333D01*
X9753691Y-12336333D02*
X9734643Y-12326809D01*
X9734643Y-12326809D02*
X9706072Y-12326809D01*
X9706072Y-12326809D02*
X9687024Y-12317286D01*
X9687024Y-12317286D02*
X9677500Y-12298238D01*
X9677500Y-12298238D02*
X9677500Y-12288714D01*
X9677500Y-12288714D02*
X9687024Y-12269667D01*
X9687024Y-12269667D02*
X9706072Y-12260143D01*
X9706072Y-12260143D02*
X9734643Y-12260143D01*
X9734643Y-12260143D02*
X9753691Y-12269667D01*
X9829881Y-12469667D02*
X9839405Y-12460143D01*
X9839405Y-12460143D02*
X9858453Y-12431571D01*
X9858453Y-12431571D02*
X9867976Y-12412524D01*
X9867976Y-12412524D02*
X9877500Y-12383952D01*
X9877500Y-12383952D02*
X9887024Y-12336333D01*
X9887024Y-12336333D02*
X9887024Y-12298238D01*
X9887024Y-12298238D02*
X9877500Y-12250619D01*
X9877500Y-12250619D02*
X9867976Y-12222048D01*
X9867976Y-12222048D02*
X9858453Y-12203000D01*
X9858453Y-12203000D02*
X9839405Y-12174428D01*
X9839405Y-12174428D02*
X9829881Y-12164905D01*
M02*
