M48
; DRILL file {KiCad (7.0.0)} date Wed Jul  5 19:52:18 2023
; FORMAT={-:-/ absolute / inch / decimal}
; #@! TF.CreationDate,2023-07-05T19:52:18+02:00
; #@! TF.GenerationSoftware,Kicad,Pcbnew,(7.0.0)
; #@! TF.FileFunction,Plated,1,2,PTH
FMAT,2
INCH
; #@! TA.AperFunction,Plated,PTH,ViaDrill
T1C0.0118
; #@! TA.AperFunction,Plated,PTH,ViaDrill
T2C0.0157
; #@! TA.AperFunction,Plated,PTH,ViaDrill
T3C0.0236
; #@! TA.AperFunction,Plated,PTH,ComponentDrill
T4C0.0315
; #@! TA.AperFunction,Plated,PTH,ComponentDrill
T5C0.0394
; #@! TA.AperFunction,Plated,PTH,ComponentDrill
T6C0.0433
%
G90
G05
T1
X2.6683Y-3.0138
X2.685Y-2.875
X2.7795Y-3.5659
X2.9075Y-3.9754
X2.9656Y-3.5689
X2.998Y-3.4636
X3.0069Y-3.9291
T2
X2.0984Y-2.0108
X2.1407Y-2.8455
X2.19Y-3.7333
X2.2254Y-2.9872
X2.2697Y-2.4616
X2.2844Y-3.5344
X2.311Y-3.6575
X2.3189Y-3.7835
X2.3356Y-3.9852
X2.4431Y-3.6055
X2.4449Y-2.0276
X2.5177Y-2.3799
X2.6033Y-3.7116
X2.6093Y-3.8839
X2.6339Y-2.8612
X2.6358Y-2.2785
X2.6821Y-2.3996
X2.8494Y-1.9902
X2.9016Y-2.3642
X2.9281Y-2.2244
X3.0817Y-3.0108
X3.1299Y-2.2717
X3.1614Y-3.0177
X3.2234Y-3.0335
X3.2264Y-3.7205
X3.2913Y-2.8967
X3.3425Y-2.5246
X3.3469Y-3.3804
X3.3484Y-2.7018
X3.374Y-2.1959
X3.4114Y-3.3976
X3.4673Y-3.3967
X3.5148Y-2.7343
X3.5673Y-3.3967
X3.7156Y-2.187
X3.7549Y-3.752
X3.7785Y-2.9843
X4.1624Y-3.7913
X4.2697Y-3.312
X4.3494Y-2.0089
X4.3711Y-3.8671
T3
X2.7382Y-3.5276
X2.7392Y-3.6073
X2.8278Y-3.1368
X2.875Y-3.2844
X2.9272Y-3.312
X2.9281Y-4.0433
X3.0413Y-2.9313
X3.1122Y-2.9313
X3.5138Y-2.628
X3.5453Y-2.5728
X3.6594Y-2.5197
X3.6654Y-3.439
X3.7077Y-2.4409
X3.7618Y-2.3632
X3.7667Y-3.4823
X3.8661Y-3.5187
X3.8957Y-2.9616
X3.936Y-2.8986
X4.1407Y-2.2805
X4.2028Y-2.2441
T4
X2.1841Y-2.7146
X2.1841Y-3.315
X2.2825Y-2.7146
X2.2825Y-2.9181
X2.2825Y-3.1102
X2.2825Y-3.315
X2.3187Y-2.0089
X2.448Y-2.1313
X2.448Y-2.2313
X2.448Y-2.3313
X2.448Y-2.4313
X2.448Y-2.5313
X2.448Y-2.6313
X2.448Y-2.7313
X2.448Y-2.8313
X2.448Y-2.9313
X2.448Y-3.0313
X2.448Y-3.1313
X2.448Y-3.2313
X2.448Y-3.3313
X2.448Y-3.4313
X2.7187Y-2.0089
X2.748Y-2.1313
X2.748Y-2.2313
X2.748Y-2.3313
X2.748Y-2.4313
X2.748Y-2.5313
X2.748Y-2.6313
X2.748Y-2.7313
X2.748Y-2.8313
X2.748Y-2.9313
X2.748Y-3.0313
X2.748Y-3.1313
X2.748Y-3.2313
X2.748Y-3.3313
X2.748Y-3.4313
T5
X3.0443Y-2.1297
X3.0443Y-2.2297
X3.0443Y-2.3297
X3.0443Y-2.4297
X3.0443Y-2.5297
X3.0443Y-2.6297
X3.0443Y-2.7297
X3.0443Y-2.8297
X3.0673Y-3.6102
X3.1673Y-3.6102
X3.1703Y-3.9606
X3.2673Y-3.6102
X3.2703Y-3.9606
X3.3673Y-3.6102
X3.3703Y-3.9606
X3.4673Y-3.6102
X3.4703Y-3.9606
X3.5673Y-3.6102
X3.5703Y-3.9606
X3.6673Y-3.6102
X3.6703Y-3.9606
X3.7557Y-3.0719
X3.7557Y-3.2136
X3.7557Y-3.3553
X3.7673Y-3.6102
X3.8557Y-3.0719
X3.8557Y-3.2136
X3.8557Y-3.3553
X3.8673Y-3.6102
X3.8996Y-3.9606
X3.9557Y-3.0719
X3.9557Y-3.2136
X3.9557Y-3.3553
X3.9673Y-3.6102
X3.9996Y-3.9606
X4.0482Y-2.1297
X4.0482Y-2.2297
X4.0482Y-2.3297
X4.0482Y-2.4297
X4.0482Y-2.5297
X4.0482Y-2.6297
X4.0482Y-2.7297
X4.0482Y-2.8297
X4.0673Y-3.6102
X4.0996Y-3.9606
X4.2766Y-2.3421
X4.2766Y-2.4421
X4.2766Y-2.5421
X4.2766Y-2.6421
X4.2766Y-2.7421
X4.2766Y-2.8829
X4.2766Y-2.9829
X4.2766Y-3.0829
X4.2766Y-3.1829
X4.2766Y-3.4506
X4.2766Y-3.5506
X4.2766Y-3.6506
X4.2766Y-3.7506
T6
X2.1289Y-2.3287
X2.1289Y-2.5846
X2.3061Y-2.3287
X2.3061Y-2.5846
T0
M30
