%TF.GenerationSoftware,KiCad,Pcbnew,(7.0.0)*%
%TF.CreationDate,2023-07-05T19:52:17+02:00*%
%TF.ProjectId,atmega328p-gate_controller,61746d65-6761-4333-9238-702d67617465,rev?*%
%TF.SameCoordinates,Original*%
%TF.FileFunction,Drillmap*%
%TF.FilePolarity,Positive*%
%FSLAX45Y45*%
G04 Gerber Fmt 4.5, Leading zero omitted, Abs format (unit mm)*
G04 Created by KiCad (PCBNEW (7.0.0)) date 2023-07-05 19:52:17*
%MOMM*%
%LPD*%
G01*
G04 APERTURE LIST*
%ADD10C,0.100000*%
%ADD11C,0.200000*%
G04 APERTURE END LIST*
D10*
X5802500Y-5355000D02*
G75*
G03*
X5802500Y-5355000I-200000J0D01*
G01*
X5202500Y-4955000D02*
X11202500Y-4955000D01*
X11202500Y-4955000D02*
X11202500Y-10355000D01*
X11202500Y-10355000D02*
X5202500Y-10355000D01*
X5202500Y-10355000D02*
X5202500Y-4955000D01*
X11002500Y-9955000D02*
G75*
G03*
X11002500Y-9955000I-200000J0D01*
G01*
X11002500Y-5355000D02*
G75*
G03*
X11002500Y-5355000I-200000J0D01*
G01*
X5802500Y-9955000D02*
G75*
G03*
X5802500Y-9955000I-200000J0D01*
G01*
D11*
X5445119Y-10653476D02*
X5445119Y-10453476D01*
X5445119Y-10453476D02*
X5492738Y-10453476D01*
X5492738Y-10453476D02*
X5521310Y-10463000D01*
X5521310Y-10463000D02*
X5540357Y-10482048D01*
X5540357Y-10482048D02*
X5549881Y-10501095D01*
X5549881Y-10501095D02*
X5559405Y-10539190D01*
X5559405Y-10539190D02*
X5559405Y-10567762D01*
X5559405Y-10567762D02*
X5549881Y-10605857D01*
X5549881Y-10605857D02*
X5540357Y-10624905D01*
X5540357Y-10624905D02*
X5521310Y-10643952D01*
X5521310Y-10643952D02*
X5492738Y-10653476D01*
X5492738Y-10653476D02*
X5445119Y-10653476D01*
X5645119Y-10653476D02*
X5645119Y-10520143D01*
X5645119Y-10558238D02*
X5654643Y-10539190D01*
X5654643Y-10539190D02*
X5664167Y-10529667D01*
X5664167Y-10529667D02*
X5683214Y-10520143D01*
X5683214Y-10520143D02*
X5702262Y-10520143D01*
X5768928Y-10653476D02*
X5768928Y-10520143D01*
X5768928Y-10453476D02*
X5759405Y-10463000D01*
X5759405Y-10463000D02*
X5768928Y-10472524D01*
X5768928Y-10472524D02*
X5778452Y-10463000D01*
X5778452Y-10463000D02*
X5768928Y-10453476D01*
X5768928Y-10453476D02*
X5768928Y-10472524D01*
X5892738Y-10653476D02*
X5873690Y-10643952D01*
X5873690Y-10643952D02*
X5864167Y-10624905D01*
X5864167Y-10624905D02*
X5864167Y-10453476D01*
X5997500Y-10653476D02*
X5978452Y-10643952D01*
X5978452Y-10643952D02*
X5968928Y-10624905D01*
X5968928Y-10624905D02*
X5968928Y-10453476D01*
X6193690Y-10653476D02*
X6193690Y-10453476D01*
X6193690Y-10453476D02*
X6260357Y-10596333D01*
X6260357Y-10596333D02*
X6327024Y-10453476D01*
X6327024Y-10453476D02*
X6327024Y-10653476D01*
X6507976Y-10653476D02*
X6507976Y-10548714D01*
X6507976Y-10548714D02*
X6498452Y-10529667D01*
X6498452Y-10529667D02*
X6479405Y-10520143D01*
X6479405Y-10520143D02*
X6441309Y-10520143D01*
X6441309Y-10520143D02*
X6422262Y-10529667D01*
X6507976Y-10643952D02*
X6488928Y-10653476D01*
X6488928Y-10653476D02*
X6441309Y-10653476D01*
X6441309Y-10653476D02*
X6422262Y-10643952D01*
X6422262Y-10643952D02*
X6412738Y-10624905D01*
X6412738Y-10624905D02*
X6412738Y-10605857D01*
X6412738Y-10605857D02*
X6422262Y-10586810D01*
X6422262Y-10586810D02*
X6441309Y-10577286D01*
X6441309Y-10577286D02*
X6488928Y-10577286D01*
X6488928Y-10577286D02*
X6507976Y-10567762D01*
X6603214Y-10520143D02*
X6603214Y-10720143D01*
X6603214Y-10529667D02*
X6622262Y-10520143D01*
X6622262Y-10520143D02*
X6660357Y-10520143D01*
X6660357Y-10520143D02*
X6679405Y-10529667D01*
X6679405Y-10529667D02*
X6688928Y-10539190D01*
X6688928Y-10539190D02*
X6698452Y-10558238D01*
X6698452Y-10558238D02*
X6698452Y-10615381D01*
X6698452Y-10615381D02*
X6688928Y-10634429D01*
X6688928Y-10634429D02*
X6679405Y-10643952D01*
X6679405Y-10643952D02*
X6660357Y-10653476D01*
X6660357Y-10653476D02*
X6622262Y-10653476D01*
X6622262Y-10653476D02*
X6603214Y-10643952D01*
X6784167Y-10634429D02*
X6793690Y-10643952D01*
X6793690Y-10643952D02*
X6784167Y-10653476D01*
X6784167Y-10653476D02*
X6774643Y-10643952D01*
X6774643Y-10643952D02*
X6784167Y-10634429D01*
X6784167Y-10634429D02*
X6784167Y-10653476D01*
X6784167Y-10529667D02*
X6793690Y-10539190D01*
X6793690Y-10539190D02*
X6784167Y-10548714D01*
X6784167Y-10548714D02*
X6774643Y-10539190D01*
X6774643Y-10539190D02*
X6784167Y-10529667D01*
X6784167Y-10529667D02*
X6784167Y-10548714D01*
M02*
