%TF.GenerationSoftware,KiCad,Pcbnew,(7.0.0)*%
%TF.CreationDate,2023-07-05T19:52:24+02:00*%
%TF.ProjectId,atmega328p-gate_controller,61746d65-6761-4333-9238-702d67617465,rev?*%
%TF.SameCoordinates,Original*%
%TF.FileFunction,Copper,L2,Bot*%
%TF.FilePolarity,Positive*%
%FSLAX46Y46*%
G04 Gerber Fmt 4.6, Leading zero omitted, Abs format (unit mm)*
G04 Created by KiCad (PCBNEW (7.0.0)) date 2023-07-05 19:52:24*
%MOMM*%
%LPD*%
G01*
G04 APERTURE LIST*
%TA.AperFunction,ComponentPad*%
%ADD10C,1.600000*%
%TD*%
%TA.AperFunction,ComponentPad*%
%ADD11R,1.700000X1.700000*%
%TD*%
%TA.AperFunction,ComponentPad*%
%ADD12O,1.700000X1.700000*%
%TD*%
%TA.AperFunction,ComponentPad*%
%ADD13C,1.500000*%
%TD*%
%TA.AperFunction,ComponentPad*%
%ADD14R,1.600000X1.600000*%
%TD*%
%TA.AperFunction,ComponentPad*%
%ADD15O,1.600000X1.600000*%
%TD*%
%TA.AperFunction,ComponentPad*%
%ADD16C,2.000000*%
%TD*%
%TA.AperFunction,ViaPad*%
%ADD17C,0.500000*%
%TD*%
%TA.AperFunction,ViaPad*%
%ADD18C,0.800000*%
%TD*%
%TA.AperFunction,ViaPad*%
%ADD19C,1.000000*%
%TD*%
%TA.AperFunction,Conductor*%
%ADD20C,0.500000*%
%TD*%
%TA.AperFunction,Conductor*%
%ADD21C,1.000000*%
%TD*%
G04 APERTURE END LIST*
D10*
%TO.P,C1,1*%
%TO.N,/XTAL1*%
X57975000Y-68950000D03*
%TO.P,C1,2*%
%TO.N,GND*%
X55475000Y-68950000D03*
%TD*%
D11*
%TO.P,UART,1,Pin_1*%
%TO.N,/PD1*%
X108624999Y-95264999D03*
D12*
%TO.P,UART,2,Pin_2*%
%TO.N,/PD0*%
X108624999Y-92724999D03*
%TO.P,UART,3,Pin_3*%
%TO.N,+5V*%
X108624999Y-90184999D03*
%TO.P,UART,4,Pin_4*%
%TO.N,GND*%
X108624999Y-87644999D03*
%TD*%
D11*
%TO.P,SPI,1,Pin_1*%
%TO.N,/MOSI*%
X108624999Y-59489999D03*
D12*
%TO.P,SPI,2,Pin_2*%
%TO.N,/MISO*%
X108624999Y-62029999D03*
%TO.P,SPI,3,Pin_3*%
%TO.N,/PB5*%
X108624999Y-64569999D03*
%TO.P,SPI,4,Pin_4*%
%TO.N,+5V*%
X108624999Y-67109999D03*
%TO.P,SPI,5,Pin_5*%
%TO.N,GND*%
X108624999Y-69649999D03*
%TD*%
D11*
%TO.P,3.3V,1,Pin_1*%
%TO.N,+3.3V*%
X100474999Y-78024999D03*
D12*
%TO.P,3.3V,2,Pin_2*%
X97934999Y-78024999D03*
%TO.P,3.3V,3,Pin_3*%
X95394999Y-78024999D03*
%TD*%
D11*
%TO.P,5V,1,Pin_1*%
%TO.N,+5V*%
X100474999Y-81624999D03*
D12*
%TO.P,5V,2,Pin_2*%
X97934999Y-81624999D03*
%TO.P,5V,3,Pin_3*%
X95394999Y-81624999D03*
%TD*%
D11*
%TO.P,GND,1,Pin_1*%
%TO.N,GND*%
X100474999Y-85224999D03*
D12*
%TO.P,GND,2,Pin_2*%
X97934999Y-85224999D03*
%TO.P,GND,3,Pin_3*%
X95394999Y-85224999D03*
%TD*%
D11*
%TO.P,ISP,1,Pin_1*%
%TO.N,/MOSI*%
X80524999Y-100599999D03*
D12*
%TO.P,ISP,2,Pin_2*%
%TO.N,/MISO*%
X83064999Y-100599999D03*
%TO.P,ISP,3,Pin_3*%
%TO.N,/PB5*%
X85604999Y-100599999D03*
%TO.P,ISP,4,Pin_4*%
%TO.N,/RESET*%
X88144999Y-100599999D03*
%TO.P,ISP,5,Pin_5*%
%TO.N,+5V*%
X90684999Y-100599999D03*
%TO.P,ISP,6,Pin_6*%
%TO.N,GND*%
X93224999Y-100599999D03*
%TD*%
D11*
%TO.P,EXTRA,1,Pin_1*%
%TO.N,/DIO5*%
X77909999Y-91699999D03*
D12*
%TO.P,EXTRA,2,Pin_2*%
%TO.N,/DIO4*%
X80449999Y-91699999D03*
%TO.P,EXTRA,3,Pin_3*%
%TO.N,/DIO3*%
X82989999Y-91699999D03*
%TO.P,EXTRA,4,Pin_4*%
%TO.N,/DIO2*%
X85529999Y-91699999D03*
%TO.P,EXTRA,5,Pin_5*%
%TO.N,/DIO1*%
X88069999Y-91699999D03*
%TO.P,EXTRA,6,Pin_6*%
%TO.N,/DIO0*%
X90609999Y-91699999D03*
%TO.P,EXTRA,7,Pin_7*%
%TO.N,/PC3*%
X93149999Y-91699999D03*
%TO.P,EXTRA,8,Pin_8*%
%TO.N,/PC2*%
X95689999Y-91699999D03*
%TO.P,EXTRA,9,Pin_9*%
%TO.N,/PC1*%
X98229999Y-91699999D03*
%TO.P,EXTRA,10,Pin_10*%
%TO.N,/PC0*%
X100769999Y-91699999D03*
%TO.P,EXTRA,11,Pin_11*%
%TO.N,/PB0*%
X103309999Y-91699999D03*
%TD*%
D13*
%TO.P,Y1,1,1*%
%TO.N,/XTAL1*%
X57975000Y-74120000D03*
%TO.P,Y1,2,2*%
%TO.N,/XTAL2*%
X57975000Y-79000000D03*
%TD*%
D14*
%TO.P,U1,1,~{RESET}/PC6*%
%TO.N,/RESET*%
X62179999Y-54134999D03*
D15*
%TO.P,U1,2,PD0*%
%TO.N,/PD0*%
X62179999Y-56674999D03*
%TO.P,U1,3,PD1*%
%TO.N,/PD1*%
X62179999Y-59214999D03*
%TO.P,U1,4,PD2*%
%TO.N,/DIO0*%
X62179999Y-61754999D03*
%TO.P,U1,5,PD3*%
%TO.N,/DIO1*%
X62179999Y-64294999D03*
%TO.P,U1,6,PD4*%
%TO.N,/DIO2*%
X62179999Y-66834999D03*
%TO.P,U1,7,VCC*%
%TO.N,+5V*%
X62179999Y-69374999D03*
%TO.P,U1,8,GND*%
%TO.N,GND*%
X62179999Y-71914999D03*
%TO.P,U1,9,XTAL1/PB6*%
%TO.N,/XTAL1*%
X62179999Y-74454999D03*
%TO.P,U1,10,XTAL2/PB7*%
%TO.N,/XTAL2*%
X62179999Y-76994999D03*
%TO.P,U1,11,PD5*%
%TO.N,/DIO3*%
X62179999Y-79534999D03*
%TO.P,U1,12,PD6*%
%TO.N,/DIO4*%
X62179999Y-82074999D03*
%TO.P,U1,13,PD7*%
%TO.N,/DIO5*%
X62179999Y-84614999D03*
%TO.P,U1,14,PB0*%
%TO.N,/PB0*%
X62179999Y-87154999D03*
%TO.P,U1,15,PB1*%
%TO.N,/PB1*%
X69799999Y-87154999D03*
%TO.P,U1,16,PB2*%
%TO.N,/CS*%
X69799999Y-84614999D03*
%TO.P,U1,17,PB3*%
%TO.N,/MOSI*%
X69799999Y-82074999D03*
%TO.P,U1,18,PB4*%
%TO.N,/MISO*%
X69799999Y-79534999D03*
%TO.P,U1,19,PB5*%
%TO.N,/PB5*%
X69799999Y-76994999D03*
%TO.P,U1,20,AVCC*%
%TO.N,+5V*%
X69799999Y-74454999D03*
%TO.P,U1,21,AREF*%
X69799999Y-71914999D03*
%TO.P,U1,22,GND*%
%TO.N,GND*%
X69799999Y-69374999D03*
%TO.P,U1,23,PC0*%
%TO.N,/PC0*%
X69799999Y-66834999D03*
%TO.P,U1,24,PC1*%
%TO.N,/PC1*%
X69799999Y-64294999D03*
%TO.P,U1,25,PC2*%
%TO.N,/PC2*%
X69799999Y-61754999D03*
%TO.P,U1,26,PC3*%
%TO.N,/PC3*%
X69799999Y-59214999D03*
%TO.P,U1,27,PC4*%
%TO.N,/PC4*%
X69799999Y-56674999D03*
%TO.P,U1,28,PC5*%
%TO.N,/PC5*%
X69799999Y-54134999D03*
%TD*%
D11*
%TO.P,J4,1,Pin_1*%
%TO.N,GND*%
X102824999Y-71874999D03*
D12*
%TO.P,J4,2,Pin_2*%
%TO.N,/DIO4*%
X102824999Y-69334999D03*
%TO.P,J4,3,Pin_3*%
%TO.N,/DIO5*%
X102824999Y-66794999D03*
%TO.P,J4,4,Pin_4*%
%TO.N,/PB5*%
X102824999Y-64254999D03*
%TO.P,J4,5,Pin_5*%
%TO.N,/MISO*%
X102824999Y-61714999D03*
%TO.P,J4,6,Pin_6*%
%TO.N,/MOSI*%
X102824999Y-59174999D03*
%TO.P,J4,7,Pin_7*%
%TO.N,/CS*%
X102824999Y-56634999D03*
%TO.P,J4,8,Pin_8*%
%TO.N,GND*%
X102824999Y-54094999D03*
%TD*%
D11*
%TO.P,I2C,1,Pin_1*%
%TO.N,/PC4*%
X108624999Y-80844999D03*
D12*
%TO.P,I2C,2,Pin_2*%
%TO.N,/PC5*%
X108624999Y-78304999D03*
%TO.P,I2C,3,Pin_3*%
%TO.N,+5V*%
X108624999Y-75764999D03*
%TO.P,I2C,4,Pin_4*%
%TO.N,GND*%
X108624999Y-73224999D03*
%TD*%
D10*
%TO.P,R1,1*%
%TO.N,/RESET*%
X58895000Y-51025000D03*
D15*
%TO.P,R1,2*%
%TO.N,+5V*%
X69054999Y-51024999D03*
%TD*%
D11*
%TO.P,RELAY,1,Pin_1*%
%TO.N,/PB0*%
X99049999Y-100599999D03*
D12*
%TO.P,RELAY,2,Pin_2*%
%TO.N,+5V*%
X101589999Y-100599999D03*
%TO.P,RELAY,3,Pin_3*%
%TO.N,GND*%
X104129999Y-100599999D03*
%TD*%
D16*
%TO.P,RESET,1,1*%
%TO.N,/RESET*%
X54075000Y-65650000D03*
X54075000Y-59150000D03*
%TO.P,RESET,2,2*%
%TO.N,GND*%
X58575000Y-65650000D03*
X58575000Y-59150000D03*
%TD*%
D11*
%TO.P,J9,1,Pin_1*%
%TO.N,/DIO3*%
X77324999Y-71874999D03*
D12*
%TO.P,J9,2,Pin_2*%
%TO.N,/DIO2*%
X77324999Y-69334999D03*
%TO.P,J9,3,Pin_3*%
%TO.N,/DIO1*%
X77324999Y-66794999D03*
%TO.P,J9,4,Pin_4*%
%TO.N,/DIO0*%
X77324999Y-64254999D03*
%TO.P,J9,5,Pin_5*%
%TO.N,/PB1*%
X77324999Y-61714999D03*
%TO.P,J9,6,Pin_6*%
%TO.N,+3.3V*%
X77324999Y-59174999D03*
%TO.P,J9,7,Pin_7*%
%TO.N,GND*%
X77324999Y-56634999D03*
%TO.P,J9,8,Pin_8*%
X77324999Y-54094999D03*
%TD*%
D10*
%TO.P,C2,1*%
%TO.N,GND*%
X55475000Y-84200000D03*
%TO.P,C2,2*%
%TO.N,/XTAL2*%
X57975000Y-84200000D03*
%TD*%
D17*
%TO.N,GND*%
X76150000Y-87975000D03*
X75325000Y-90650000D03*
X70600000Y-90575000D03*
X76375000Y-99800000D03*
X73850000Y-100975000D03*
X67775000Y-76550000D03*
X68200000Y-73025000D03*
D18*
X59325000Y-101225000D03*
X62054211Y-91580167D03*
X58700000Y-92900000D03*
X58900000Y-96100000D03*
X66275000Y-98650000D03*
X66125000Y-94275000D03*
X108450000Y-84125000D03*
X95975000Y-75800000D03*
X83600000Y-73575000D03*
X79500000Y-57700000D03*
X68125000Y-60950000D03*
X63950000Y-60450000D03*
X74375000Y-56500000D03*
X66950000Y-57875000D03*
X73700000Y-60050000D03*
X72375000Y-50550000D03*
X62100000Y-51500000D03*
X53300000Y-51075000D03*
X57650000Y-62525000D03*
X54375000Y-72275000D03*
X56525000Y-75875000D03*
X58025000Y-89775000D03*
X55625000Y-94825000D03*
X81950000Y-94500000D03*
X95375000Y-95300000D03*
X105725000Y-96300000D03*
X111025000Y-98225000D03*
X110475000Y-51025000D03*
X94375000Y-55550000D03*
X85700000Y-55775000D03*
X89275000Y-69450000D03*
X85050000Y-68625000D03*
X84900000Y-64125000D03*
%TO.N,/DIO0*%
X81875000Y-77050000D03*
%TO.N,/DIO1*%
X80300000Y-76650000D03*
%TO.N,/DIO2*%
X78275000Y-76475000D03*
%TO.N,/DIO0*%
X90610000Y-86275000D03*
%TO.N,/DIO1*%
X88070000Y-86275000D03*
%TO.N,/DIO2*%
X86650000Y-86300000D03*
%TO.N,/DIO3*%
X85012500Y-85862500D03*
%TO.N,/PB1*%
X66900000Y-72675000D03*
D19*
%TO.N,/MOSI*%
X95550000Y-60025000D03*
%TO.N,/MISO*%
X94175000Y-62000000D03*
X73025000Y-83425000D03*
%TO.N,/PB5*%
X74350000Y-84125000D03*
X71825000Y-79675000D03*
X92950000Y-64000000D03*
%TO.N,/RESET*%
X74375000Y-102700000D03*
%TO.N,+5V*%
X79050000Y-74455000D03*
X77250000Y-74455000D03*
%TO.N,/PC4*%
X105175000Y-57925000D03*
%TO.N,/PC5*%
X106750000Y-57000000D03*
%TO.N,/PD1*%
X98950000Y-75225000D03*
X89250000Y-66750000D03*
%TO.N,/PD0*%
X90050000Y-65350000D03*
X99975000Y-73625000D03*
%TO.N,/DIO4*%
X69550000Y-89600000D03*
%TO.N,/DIO5*%
X69575000Y-91625000D03*
%TO.N,/PC3*%
X93100000Y-87350000D03*
%TO.N,/PC2*%
X95675000Y-88450500D03*
%TO.N,/PC1*%
X98200000Y-89375000D03*
%TD*%
D20*
%TO.N,/PB1*%
X66525000Y-73050000D02*
X66525000Y-83880000D01*
X66525000Y-83880000D02*
X69800000Y-87155000D01*
X66900000Y-72675000D02*
X66525000Y-73050000D01*
%TO.N,/DIO3*%
X82990000Y-87885000D02*
X82990000Y-91700000D01*
X85012500Y-85862500D02*
X82990000Y-87885000D01*
D21*
%TO.N,+5V*%
X79050000Y-74455000D02*
X69800000Y-74455000D01*
D20*
%TO.N,/DIO2*%
X78750000Y-76475000D02*
X78275000Y-76475000D01*
X80550000Y-74675000D02*
X78750000Y-76475000D01*
X80550000Y-72560000D02*
X80550000Y-74675000D01*
X77325000Y-69335000D02*
X80550000Y-72560000D01*
%TO.N,/DIO0*%
X82075000Y-76850000D02*
X82075000Y-69005000D01*
X81875000Y-77050000D02*
X82075000Y-76850000D01*
X82075000Y-69005000D02*
X77325000Y-64255000D01*
%TO.N,/DIO1*%
X81250000Y-75700000D02*
X81250000Y-70720000D01*
X80300000Y-76650000D02*
X81250000Y-75700000D01*
X80300000Y-76650000D02*
X80575000Y-76375000D01*
X81250000Y-70720000D02*
X77325000Y-66795000D01*
%TO.N,/DIO2*%
X85530000Y-87420000D02*
X85530000Y-91700000D01*
X86650000Y-86300000D02*
X85530000Y-87420000D01*
%TO.N,/PB5*%
X92950000Y-70075000D02*
X92950000Y-64000000D01*
X83475000Y-79550000D02*
X92950000Y-70075000D01*
X71950000Y-79550000D02*
X83475000Y-79550000D01*
X71825000Y-79675000D02*
X71950000Y-79550000D01*
%TO.N,/DIO2*%
X78250000Y-76475000D02*
X78325000Y-76400000D01*
X78275000Y-76475000D02*
X78250000Y-76475000D01*
%TO.N,/DIO0*%
X90610000Y-86275000D02*
X90610000Y-91700000D01*
%TO.N,/DIO1*%
X88070000Y-86275000D02*
X88070000Y-91700000D01*
%TO.N,/DIO5*%
X102825000Y-66795000D02*
X100505000Y-66795000D01*
X100505000Y-66795000D02*
X77910000Y-89390000D01*
X77910000Y-89390000D02*
X77910000Y-91700000D01*
%TO.N,/DIO4*%
X99665000Y-69335000D02*
X80450000Y-88550000D01*
X102825000Y-69335000D02*
X99665000Y-69335000D01*
X80450000Y-88550000D02*
X80450000Y-91700000D01*
%TO.N,/CS*%
X96940000Y-56635000D02*
X102825000Y-56635000D01*
X83290000Y-78285000D02*
X91400000Y-70175000D01*
X69282233Y-78285000D02*
X83290000Y-78285000D01*
X91400000Y-70175000D02*
X91400000Y-62175000D01*
X91400000Y-62175000D02*
X96940000Y-56635000D01*
X68075000Y-79492233D02*
X69282233Y-78285000D01*
X68075000Y-82890000D02*
X68075000Y-79492233D01*
X69800000Y-84615000D02*
X68075000Y-82890000D01*
%TO.N,/MISO*%
X83550000Y-80850000D02*
X71115000Y-80850000D01*
X71115000Y-80850000D02*
X69800000Y-79535000D01*
X94175000Y-70225000D02*
X83550000Y-80850000D01*
X94175000Y-62000000D02*
X94175000Y-70225000D01*
%TO.N,/MOSI*%
X83750000Y-82075000D02*
X72075000Y-82075000D01*
X95550000Y-70275000D02*
X83750000Y-82075000D01*
X95550000Y-60025000D02*
X95550000Y-70275000D01*
%TO.N,/PD1*%
X65995000Y-55400000D02*
X62180000Y-59215000D01*
X70725000Y-55400000D02*
X65995000Y-55400000D01*
X77863478Y-52795000D02*
X73330000Y-52795000D01*
X86850000Y-64350000D02*
X86850000Y-61781522D01*
X73330000Y-52795000D02*
X70725000Y-55400000D01*
X89250000Y-66750000D02*
X86850000Y-64350000D01*
X86850000Y-61781522D02*
X77863478Y-52795000D01*
%TO.N,/PD0*%
X66430000Y-52425000D02*
X62180000Y-56675000D01*
X72125000Y-52425000D02*
X66430000Y-52425000D01*
X72675000Y-51875000D02*
X72125000Y-52425000D01*
X78300000Y-51875000D02*
X72675000Y-51875000D01*
X88400000Y-61975000D02*
X78300000Y-51875000D01*
X88400000Y-63700000D02*
X88400000Y-61975000D01*
X90050000Y-65350000D02*
X88400000Y-63700000D01*
%TO.N,/DIO3*%
X65025000Y-76690000D02*
X62180000Y-79535000D01*
X65025000Y-72150000D02*
X65025000Y-76690000D01*
X66510000Y-70665000D02*
X65025000Y-72150000D01*
X77325000Y-71875000D02*
X76115000Y-70665000D01*
X76115000Y-70665000D02*
X66510000Y-70665000D01*
%TO.N,/MOSI*%
X80525000Y-100600000D02*
X78900000Y-100600000D01*
X71650000Y-82475000D02*
X71250000Y-82075000D01*
X71250000Y-82075000D02*
X69800000Y-82075000D01*
X71650000Y-82550000D02*
X71650000Y-82075000D01*
X71650000Y-82075000D02*
X71250000Y-82075000D01*
X72075000Y-82075000D02*
X71650000Y-82075000D01*
X71650000Y-82550000D02*
X71650000Y-82475000D01*
X78900000Y-100600000D02*
X71650000Y-93350000D01*
X71650000Y-82500000D02*
X72075000Y-82075000D01*
X71650000Y-93350000D02*
X71650000Y-82550000D01*
X71650000Y-82550000D02*
X71650000Y-82500000D01*
%TO.N,/MISO*%
X73025000Y-83425000D02*
X73025000Y-92375000D01*
X73025000Y-92375000D02*
X79575000Y-98925000D01*
X73025000Y-83425000D02*
X73025000Y-85279699D01*
X81390000Y-98925000D02*
X83065000Y-100600000D01*
X79575000Y-98925000D02*
X81390000Y-98925000D01*
%TO.N,/PB5*%
X79950000Y-97300000D02*
X82125000Y-97300000D01*
X74350000Y-91700000D02*
X79950000Y-97300000D01*
X74350000Y-84125000D02*
X74350000Y-91700000D01*
X85425000Y-100600000D02*
X85605000Y-100600000D01*
X82125000Y-97300000D02*
X85425000Y-100600000D01*
%TO.N,/RESET*%
X54725000Y-102700000D02*
X52875000Y-100850000D01*
X74375000Y-102700000D02*
X54725000Y-102700000D01*
X52875000Y-100850000D02*
X52875000Y-66850000D01*
X52875000Y-66850000D02*
X54075000Y-65650000D01*
%TO.N,/PC4*%
X105175000Y-77395000D02*
X108625000Y-80845000D01*
X105175000Y-57925000D02*
X105175000Y-77395000D01*
%TO.N,/PC5*%
X106750000Y-76430000D02*
X108625000Y-78305000D01*
X106750000Y-57000000D02*
X106750000Y-76430000D01*
%TO.N,/PD1*%
X108625000Y-95176522D02*
X108625000Y-95265000D01*
X105325000Y-91876522D02*
X108625000Y-95176522D01*
X98950000Y-75225000D02*
X100275000Y-75225000D01*
X100275000Y-75225000D02*
X105325000Y-80275000D01*
X105325000Y-80275000D02*
X105325000Y-91876522D01*
%TO.N,/PD0*%
X106500000Y-90600000D02*
X108625000Y-92725000D01*
X106500000Y-80150000D02*
X106500000Y-90600000D01*
X99975000Y-73625000D02*
X106500000Y-80150000D01*
%TO.N,/DIO4*%
X69550000Y-89445000D02*
X62180000Y-82075000D01*
X69550000Y-89600000D02*
X69550000Y-89445000D01*
%TO.N,/DIO5*%
X69575000Y-91625000D02*
X69190000Y-91625000D01*
X69190000Y-91625000D02*
X62180000Y-84615000D01*
%TO.N,/DIO2*%
X63470000Y-68125000D02*
X62180000Y-66835000D01*
X77325000Y-69335000D02*
X76115000Y-68125000D01*
X76115000Y-68125000D02*
X63470000Y-68125000D01*
%TO.N,/DIO1*%
X76115000Y-65585000D02*
X63470000Y-65585000D01*
X63470000Y-65585000D02*
X62180000Y-64295000D01*
X77325000Y-66795000D02*
X76115000Y-65585000D01*
%TO.N,/DIO0*%
X63470000Y-63045000D02*
X62180000Y-61755000D01*
X76115000Y-63045000D02*
X63470000Y-63045000D01*
X77325000Y-64255000D02*
X76115000Y-63045000D01*
%TO.N,/PB0*%
X62180000Y-87155000D02*
X77475000Y-102450000D01*
X97200000Y-102450000D02*
X99050000Y-100600000D01*
X77475000Y-102450000D02*
X97200000Y-102450000D01*
%TO.N,/PC3*%
X93100000Y-87350000D02*
X93100000Y-91650000D01*
X93100000Y-91650000D02*
X93150000Y-91700000D01*
%TO.N,/PC2*%
X95675000Y-88450500D02*
X95675000Y-91685000D01*
X95675000Y-91685000D02*
X95690000Y-91700000D01*
%TO.N,/PC1*%
X98200000Y-89375000D02*
X98200000Y-91670000D01*
X98200000Y-91670000D02*
X98230000Y-91700000D01*
%TD*%
%TA.AperFunction,Conductor*%
%TO.N,GND*%
G36*
X111662500Y-49867113D02*
G01*
X111707887Y-49912500D01*
X111724500Y-49974500D01*
X111724500Y-103125500D01*
X111707887Y-103187500D01*
X111662500Y-103232887D01*
X111600500Y-103249500D01*
X97762094Y-103249500D01*
X97703879Y-103234985D01*
X97659293Y-103194840D01*
X97638773Y-103138461D01*
X97647123Y-103079049D01*
X97681700Y-103031457D01*
X97685696Y-103028830D01*
X97737185Y-102974253D01*
X97739630Y-102971736D01*
X98724549Y-101986818D01*
X98764777Y-101959938D01*
X98812230Y-101950499D01*
X99944561Y-101950499D01*
X99947872Y-101950499D01*
X100007483Y-101944091D01*
X100142331Y-101893796D01*
X100257546Y-101807546D01*
X100343796Y-101692331D01*
X100392810Y-101560916D01*
X100427789Y-101510537D01*
X100482634Y-101483084D01*
X100543927Y-101485273D01*
X100596673Y-101516569D01*
X100718599Y-101638495D01*
X100723031Y-101641598D01*
X100723033Y-101641600D01*
X100805723Y-101699500D01*
X100912170Y-101774035D01*
X100917070Y-101776320D01*
X100917072Y-101776321D01*
X100934511Y-101784453D01*
X101126337Y-101873903D01*
X101354592Y-101935063D01*
X101590000Y-101955659D01*
X101825408Y-101935063D01*
X102053663Y-101873903D01*
X102267830Y-101774035D01*
X102461401Y-101638495D01*
X102628495Y-101471401D01*
X102758730Y-101285405D01*
X102803048Y-101246540D01*
X102860305Y-101232529D01*
X102917562Y-101246540D01*
X102961880Y-101285405D01*
X103088784Y-101466643D01*
X103095721Y-101474909D01*
X103255090Y-101634278D01*
X103263356Y-101641215D01*
X103447991Y-101770498D01*
X103457323Y-101775886D01*
X103661602Y-101871143D01*
X103671736Y-101874831D01*
X103866219Y-101926943D01*
X103877448Y-101927311D01*
X103880000Y-101916369D01*
X104380000Y-101916369D01*
X104382551Y-101927311D01*
X104393780Y-101926943D01*
X104588263Y-101874831D01*
X104598397Y-101871143D01*
X104802676Y-101775886D01*
X104812008Y-101770498D01*
X104996643Y-101641215D01*
X105004909Y-101634278D01*
X105164278Y-101474909D01*
X105171215Y-101466643D01*
X105300498Y-101282008D01*
X105305886Y-101272676D01*
X105401143Y-101068397D01*
X105404831Y-101058263D01*
X105456943Y-100863780D01*
X105457311Y-100852551D01*
X105446369Y-100850000D01*
X104396326Y-100850000D01*
X104383450Y-100853450D01*
X104380000Y-100866326D01*
X104380000Y-101916369D01*
X103880000Y-101916369D01*
X103880000Y-100333674D01*
X104380000Y-100333674D01*
X104383450Y-100346549D01*
X104396326Y-100350000D01*
X105446369Y-100350000D01*
X105457311Y-100347448D01*
X105456943Y-100336219D01*
X105404831Y-100141736D01*
X105401143Y-100131602D01*
X105305889Y-99927332D01*
X105300491Y-99917982D01*
X105171215Y-99733357D01*
X105164280Y-99725092D01*
X105004909Y-99565721D01*
X104996643Y-99558784D01*
X104984098Y-99550000D01*
X105719564Y-99550000D01*
X105739287Y-99850920D01*
X105740077Y-99854891D01*
X105740078Y-99854899D01*
X105797327Y-100142707D01*
X105797329Y-100142714D01*
X105798120Y-100146691D01*
X105799425Y-100150535D01*
X105872087Y-100364592D01*
X105895055Y-100432252D01*
X105896850Y-100435893D01*
X105896851Y-100435894D01*
X105962562Y-100569144D01*
X106028434Y-100702718D01*
X106030685Y-100706087D01*
X106030688Y-100706092D01*
X106193715Y-100950079D01*
X106195975Y-100953461D01*
X106394811Y-101180189D01*
X106621539Y-101379025D01*
X106624921Y-101381284D01*
X106624920Y-101381284D01*
X106867392Y-101543299D01*
X106872282Y-101546566D01*
X107142748Y-101679945D01*
X107428309Y-101776880D01*
X107724080Y-101835713D01*
X108025000Y-101855436D01*
X108325920Y-101835713D01*
X108621691Y-101776880D01*
X108907252Y-101679945D01*
X109177718Y-101546566D01*
X109428461Y-101379025D01*
X109655189Y-101180189D01*
X109854025Y-100953461D01*
X110021566Y-100702718D01*
X110154945Y-100432252D01*
X110251880Y-100146691D01*
X110310713Y-99850920D01*
X110330436Y-99550000D01*
X110310713Y-99249080D01*
X110251880Y-98953309D01*
X110154945Y-98667748D01*
X110021566Y-98397282D01*
X109854025Y-98146539D01*
X109655189Y-97919811D01*
X109624742Y-97893110D01*
X109431518Y-97723656D01*
X109428461Y-97720975D01*
X109425079Y-97718715D01*
X109181092Y-97555688D01*
X109181087Y-97555685D01*
X109177718Y-97553434D01*
X109174082Y-97551641D01*
X109174077Y-97551638D01*
X108910894Y-97421851D01*
X108910893Y-97421850D01*
X108907252Y-97420055D01*
X108621691Y-97323120D01*
X108617714Y-97322329D01*
X108617707Y-97322327D01*
X108329899Y-97265078D01*
X108329891Y-97265077D01*
X108325920Y-97264287D01*
X108025000Y-97244564D01*
X108020957Y-97244829D01*
X107728122Y-97264022D01*
X107728120Y-97264022D01*
X107724080Y-97264287D01*
X107720110Y-97265076D01*
X107720100Y-97265078D01*
X107432292Y-97322327D01*
X107432281Y-97322329D01*
X107428309Y-97323120D01*
X107424466Y-97324424D01*
X107424464Y-97324425D01*
X107146594Y-97418749D01*
X107146587Y-97418751D01*
X107142748Y-97420055D01*
X107139111Y-97421848D01*
X107139105Y-97421851D01*
X106875922Y-97551638D01*
X106875910Y-97551644D01*
X106872282Y-97553434D01*
X106868919Y-97555681D01*
X106868907Y-97555688D01*
X106624920Y-97718715D01*
X106624911Y-97718721D01*
X106621539Y-97720975D01*
X106618488Y-97723650D01*
X106618481Y-97723656D01*
X106397859Y-97917137D01*
X106397851Y-97917144D01*
X106394811Y-97919811D01*
X106392144Y-97922851D01*
X106392137Y-97922859D01*
X106198656Y-98143481D01*
X106198650Y-98143488D01*
X106195975Y-98146539D01*
X106193721Y-98149911D01*
X106193715Y-98149920D01*
X106030688Y-98393907D01*
X106030681Y-98393919D01*
X106028434Y-98397282D01*
X106026644Y-98400910D01*
X106026638Y-98400922D01*
X105896851Y-98664105D01*
X105896848Y-98664111D01*
X105895055Y-98667748D01*
X105798120Y-98953309D01*
X105797329Y-98957281D01*
X105797327Y-98957292D01*
X105740078Y-99245100D01*
X105740076Y-99245110D01*
X105739287Y-99249080D01*
X105739022Y-99253120D01*
X105739022Y-99253122D01*
X105737022Y-99283631D01*
X105719564Y-99550000D01*
X104984098Y-99550000D01*
X104812008Y-99429501D01*
X104802676Y-99424113D01*
X104598397Y-99328856D01*
X104588263Y-99325168D01*
X104393780Y-99273056D01*
X104382551Y-99272688D01*
X104380000Y-99283631D01*
X104380000Y-100333674D01*
X103880000Y-100333674D01*
X103880000Y-99283631D01*
X103877448Y-99272688D01*
X103866219Y-99273056D01*
X103671736Y-99325168D01*
X103661602Y-99328856D01*
X103457332Y-99424110D01*
X103447982Y-99429508D01*
X103263357Y-99558784D01*
X103255092Y-99565719D01*
X103095719Y-99725092D01*
X103088788Y-99733352D01*
X102961880Y-99914596D01*
X102917562Y-99953461D01*
X102860305Y-99967472D01*
X102803048Y-99953461D01*
X102758730Y-99914595D01*
X102716931Y-99854899D01*
X102628495Y-99728599D01*
X102461401Y-99561505D01*
X102456970Y-99558402D01*
X102456966Y-99558399D01*
X102272259Y-99429066D01*
X102272257Y-99429064D01*
X102267830Y-99425965D01*
X102262933Y-99423681D01*
X102262927Y-99423678D01*
X102058572Y-99328386D01*
X102058570Y-99328385D01*
X102053663Y-99326097D01*
X102048438Y-99324697D01*
X102048430Y-99324694D01*
X101830634Y-99266337D01*
X101830630Y-99266336D01*
X101825408Y-99264937D01*
X101820020Y-99264465D01*
X101820017Y-99264465D01*
X101595395Y-99244813D01*
X101590000Y-99244341D01*
X101584605Y-99244813D01*
X101359982Y-99264465D01*
X101359977Y-99264465D01*
X101354592Y-99264937D01*
X101349371Y-99266335D01*
X101349365Y-99266337D01*
X101131569Y-99324694D01*
X101131557Y-99324698D01*
X101126337Y-99326097D01*
X101121432Y-99328383D01*
X101121427Y-99328386D01*
X100917081Y-99423675D01*
X100917077Y-99423677D01*
X100912171Y-99425965D01*
X100907738Y-99429068D01*
X100907731Y-99429073D01*
X100723034Y-99558399D01*
X100723029Y-99558402D01*
X100718599Y-99561505D01*
X100714775Y-99565328D01*
X100714775Y-99565329D01*
X100596673Y-99683431D01*
X100543926Y-99714726D01*
X100482633Y-99716915D01*
X100427789Y-99689462D01*
X100392810Y-99639082D01*
X100384725Y-99617405D01*
X100343796Y-99507669D01*
X100257546Y-99392454D01*
X100167030Y-99324694D01*
X100149431Y-99311519D01*
X100149430Y-99311518D01*
X100142331Y-99306204D01*
X100053457Y-99273056D01*
X100014752Y-99258620D01*
X100014750Y-99258619D01*
X100007483Y-99255909D01*
X99999770Y-99255079D01*
X99999767Y-99255079D01*
X99951180Y-99249855D01*
X99951169Y-99249854D01*
X99947873Y-99249500D01*
X99944550Y-99249500D01*
X98155439Y-99249500D01*
X98155420Y-99249500D01*
X98152128Y-99249501D01*
X98148850Y-99249853D01*
X98148838Y-99249854D01*
X98100231Y-99255079D01*
X98100225Y-99255080D01*
X98092517Y-99255909D01*
X98085252Y-99258618D01*
X98085246Y-99258620D01*
X97965980Y-99303104D01*
X97965978Y-99303104D01*
X97957669Y-99306204D01*
X97950572Y-99311516D01*
X97950568Y-99311519D01*
X97849550Y-99387141D01*
X97849546Y-99387144D01*
X97842454Y-99392454D01*
X97837144Y-99399546D01*
X97837141Y-99399550D01*
X97761519Y-99500568D01*
X97761516Y-99500572D01*
X97756204Y-99507669D01*
X97753104Y-99515978D01*
X97753104Y-99515980D01*
X97708620Y-99635247D01*
X97708619Y-99635250D01*
X97705909Y-99642517D01*
X97705079Y-99650227D01*
X97705079Y-99650232D01*
X97699855Y-99698819D01*
X97699854Y-99698831D01*
X97699500Y-99702127D01*
X97699500Y-99705449D01*
X97699500Y-100837769D01*
X97690061Y-100885222D01*
X97663181Y-100925450D01*
X96925451Y-101663181D01*
X96885223Y-101690061D01*
X96837770Y-101699500D01*
X94334050Y-101699500D01*
X94277755Y-101685985D01*
X94233732Y-101648385D01*
X94211577Y-101594898D01*
X94216119Y-101537182D01*
X94246369Y-101487819D01*
X94259278Y-101474909D01*
X94266215Y-101466643D01*
X94395498Y-101282008D01*
X94400886Y-101272676D01*
X94496143Y-101068397D01*
X94499831Y-101058263D01*
X94551943Y-100863780D01*
X94552311Y-100852551D01*
X94541369Y-100850000D01*
X93099000Y-100850000D01*
X93037000Y-100833387D01*
X92991613Y-100788000D01*
X92975000Y-100726000D01*
X92975000Y-100333674D01*
X93475000Y-100333674D01*
X93478450Y-100346549D01*
X93491326Y-100350000D01*
X94541369Y-100350000D01*
X94552311Y-100347448D01*
X94551943Y-100336219D01*
X94499831Y-100141736D01*
X94496143Y-100131602D01*
X94400889Y-99927332D01*
X94395491Y-99917982D01*
X94266215Y-99733357D01*
X94259280Y-99725092D01*
X94099909Y-99565721D01*
X94091643Y-99558784D01*
X93907008Y-99429501D01*
X93897676Y-99424113D01*
X93693397Y-99328856D01*
X93683263Y-99325168D01*
X93488780Y-99273056D01*
X93477551Y-99272688D01*
X93475000Y-99283631D01*
X93475000Y-100333674D01*
X92975000Y-100333674D01*
X92975000Y-99283631D01*
X92972448Y-99272688D01*
X92961219Y-99273056D01*
X92766736Y-99325168D01*
X92756602Y-99328856D01*
X92552332Y-99424110D01*
X92542982Y-99429508D01*
X92358357Y-99558784D01*
X92350092Y-99565719D01*
X92190719Y-99725092D01*
X92183788Y-99733352D01*
X92056880Y-99914596D01*
X92012562Y-99953461D01*
X91955305Y-99967472D01*
X91898048Y-99953461D01*
X91853730Y-99914595D01*
X91811931Y-99854899D01*
X91723495Y-99728599D01*
X91556401Y-99561505D01*
X91551970Y-99558402D01*
X91551966Y-99558399D01*
X91367259Y-99429066D01*
X91367257Y-99429064D01*
X91362830Y-99425965D01*
X91357933Y-99423681D01*
X91357927Y-99423678D01*
X91153572Y-99328386D01*
X91153570Y-99328385D01*
X91148663Y-99326097D01*
X91143438Y-99324697D01*
X91143430Y-99324694D01*
X90925634Y-99266337D01*
X90925630Y-99266336D01*
X90920408Y-99264937D01*
X90915020Y-99264465D01*
X90915017Y-99264465D01*
X90690395Y-99244813D01*
X90685000Y-99244341D01*
X90679605Y-99244813D01*
X90454982Y-99264465D01*
X90454977Y-99264465D01*
X90449592Y-99264937D01*
X90444371Y-99266335D01*
X90444365Y-99266337D01*
X90226569Y-99324694D01*
X90226557Y-99324698D01*
X90221337Y-99326097D01*
X90216432Y-99328383D01*
X90216427Y-99328386D01*
X90012081Y-99423675D01*
X90012077Y-99423677D01*
X90007171Y-99425965D01*
X90002738Y-99429068D01*
X90002731Y-99429073D01*
X89818034Y-99558399D01*
X89818029Y-99558402D01*
X89813599Y-99561505D01*
X89809775Y-99565328D01*
X89809769Y-99565334D01*
X89650334Y-99724769D01*
X89650328Y-99724775D01*
X89646505Y-99728599D01*
X89643402Y-99733029D01*
X89643399Y-99733034D01*
X89516575Y-99914159D01*
X89472257Y-99953025D01*
X89415000Y-99967036D01*
X89357743Y-99953025D01*
X89313425Y-99914159D01*
X89235799Y-99803297D01*
X89183495Y-99728599D01*
X89016401Y-99561505D01*
X89011970Y-99558402D01*
X89011966Y-99558399D01*
X88827259Y-99429066D01*
X88827257Y-99429064D01*
X88822830Y-99425965D01*
X88817933Y-99423681D01*
X88817927Y-99423678D01*
X88613572Y-99328386D01*
X88613570Y-99328385D01*
X88608663Y-99326097D01*
X88603438Y-99324697D01*
X88603430Y-99324694D01*
X88385634Y-99266337D01*
X88385630Y-99266336D01*
X88380408Y-99264937D01*
X88375020Y-99264465D01*
X88375017Y-99264465D01*
X88150395Y-99244813D01*
X88145000Y-99244341D01*
X88139605Y-99244813D01*
X87914982Y-99264465D01*
X87914977Y-99264465D01*
X87909592Y-99264937D01*
X87904371Y-99266335D01*
X87904365Y-99266337D01*
X87686569Y-99324694D01*
X87686557Y-99324698D01*
X87681337Y-99326097D01*
X87676432Y-99328383D01*
X87676427Y-99328386D01*
X87472081Y-99423675D01*
X87472077Y-99423677D01*
X87467171Y-99425965D01*
X87462738Y-99429068D01*
X87462731Y-99429073D01*
X87278034Y-99558399D01*
X87278029Y-99558402D01*
X87273599Y-99561505D01*
X87269775Y-99565328D01*
X87269769Y-99565334D01*
X87110334Y-99724769D01*
X87110328Y-99724775D01*
X87106505Y-99728599D01*
X87103402Y-99733029D01*
X87103399Y-99733034D01*
X86976575Y-99914159D01*
X86932257Y-99953025D01*
X86875000Y-99967036D01*
X86817743Y-99953025D01*
X86773425Y-99914159D01*
X86695799Y-99803297D01*
X86643495Y-99728599D01*
X86476401Y-99561505D01*
X86471970Y-99558402D01*
X86471966Y-99558399D01*
X86287259Y-99429066D01*
X86287257Y-99429064D01*
X86282830Y-99425965D01*
X86277933Y-99423681D01*
X86277927Y-99423678D01*
X86073572Y-99328386D01*
X86073570Y-99328385D01*
X86068663Y-99326097D01*
X86063438Y-99324697D01*
X86063430Y-99324694D01*
X85845634Y-99266337D01*
X85845630Y-99266336D01*
X85840408Y-99264937D01*
X85835020Y-99264465D01*
X85835017Y-99264465D01*
X85610395Y-99244813D01*
X85605000Y-99244341D01*
X85599605Y-99244813D01*
X85374982Y-99264465D01*
X85374977Y-99264465D01*
X85369592Y-99264937D01*
X85364370Y-99266335D01*
X85364365Y-99266337D01*
X85266584Y-99292537D01*
X85202397Y-99292537D01*
X85146810Y-99260443D01*
X83939101Y-98052734D01*
X82700729Y-96814361D01*
X82688947Y-96800727D01*
X82678925Y-96787265D01*
X82678921Y-96787261D01*
X82674610Y-96781470D01*
X82636667Y-96749631D01*
X82628691Y-96742323D01*
X82627329Y-96740961D01*
X82627328Y-96740960D01*
X82624777Y-96738409D01*
X82621953Y-96736176D01*
X82621944Y-96736168D01*
X82600445Y-96719170D01*
X82597674Y-96716913D01*
X82540214Y-96668698D01*
X82533760Y-96665456D01*
X82530859Y-96663548D01*
X82530588Y-96663352D01*
X82530292Y-96663187D01*
X82527339Y-96661366D01*
X82521677Y-96656889D01*
X82515134Y-96653838D01*
X82515131Y-96653836D01*
X82453692Y-96625186D01*
X82450446Y-96623615D01*
X82389884Y-96593200D01*
X82389885Y-96593200D01*
X82383433Y-96589960D01*
X82376409Y-96588295D01*
X82373151Y-96587109D01*
X82372832Y-96586977D01*
X82372504Y-96586884D01*
X82369218Y-96585795D01*
X82362673Y-96582743D01*
X82355604Y-96581283D01*
X82355600Y-96581282D01*
X82289212Y-96567574D01*
X82285691Y-96566794D01*
X82219741Y-96551163D01*
X82219734Y-96551162D01*
X82212721Y-96549500D01*
X82205510Y-96549500D01*
X82202061Y-96549097D01*
X82201727Y-96549043D01*
X82201374Y-96549028D01*
X82197929Y-96548726D01*
X82190856Y-96547266D01*
X82183638Y-96547476D01*
X82115870Y-96549448D01*
X82112263Y-96549500D01*
X80312229Y-96549500D01*
X80264776Y-96540061D01*
X80224548Y-96513181D01*
X76973548Y-93262180D01*
X76943298Y-93212817D01*
X76938756Y-93155101D01*
X76960911Y-93101614D01*
X77004934Y-93064014D01*
X77061224Y-93050499D01*
X78807872Y-93050499D01*
X78867483Y-93044091D01*
X79002331Y-92993796D01*
X79117546Y-92907546D01*
X79203796Y-92792331D01*
X79252810Y-92660916D01*
X79287789Y-92610537D01*
X79342634Y-92583084D01*
X79403927Y-92585273D01*
X79456673Y-92616569D01*
X79578599Y-92738495D01*
X79583031Y-92741598D01*
X79583033Y-92741600D01*
X79727260Y-92842589D01*
X79772170Y-92874035D01*
X79986337Y-92973903D01*
X80214592Y-93035063D01*
X80450000Y-93055659D01*
X80685408Y-93035063D01*
X80913663Y-92973903D01*
X81127830Y-92874035D01*
X81321401Y-92738495D01*
X81488495Y-92571401D01*
X81618424Y-92385842D01*
X81662743Y-92346976D01*
X81720000Y-92332965D01*
X81777257Y-92346976D01*
X81821575Y-92385842D01*
X81948395Y-92566961D01*
X81948401Y-92566968D01*
X81951505Y-92571401D01*
X82118599Y-92738495D01*
X82123031Y-92741598D01*
X82123033Y-92741600D01*
X82267260Y-92842589D01*
X82312170Y-92874035D01*
X82526337Y-92973903D01*
X82754592Y-93035063D01*
X82990000Y-93055659D01*
X83225408Y-93035063D01*
X83453663Y-92973903D01*
X83667830Y-92874035D01*
X83861401Y-92738495D01*
X84028495Y-92571401D01*
X84158424Y-92385842D01*
X84202743Y-92346976D01*
X84260000Y-92332965D01*
X84317257Y-92346976D01*
X84361575Y-92385842D01*
X84488395Y-92566961D01*
X84488401Y-92566968D01*
X84491505Y-92571401D01*
X84658599Y-92738495D01*
X84663031Y-92741598D01*
X84663033Y-92741600D01*
X84807260Y-92842589D01*
X84852170Y-92874035D01*
X85066337Y-92973903D01*
X85294592Y-93035063D01*
X85530000Y-93055659D01*
X85765408Y-93035063D01*
X85993663Y-92973903D01*
X86207830Y-92874035D01*
X86401401Y-92738495D01*
X86568495Y-92571401D01*
X86698424Y-92385842D01*
X86742743Y-92346976D01*
X86800000Y-92332965D01*
X86857257Y-92346976D01*
X86901575Y-92385842D01*
X87028395Y-92566961D01*
X87028401Y-92566968D01*
X87031505Y-92571401D01*
X87198599Y-92738495D01*
X87203031Y-92741598D01*
X87203033Y-92741600D01*
X87347260Y-92842589D01*
X87392170Y-92874035D01*
X87606337Y-92973903D01*
X87834592Y-93035063D01*
X88070000Y-93055659D01*
X88305408Y-93035063D01*
X88533663Y-92973903D01*
X88747830Y-92874035D01*
X88941401Y-92738495D01*
X89108495Y-92571401D01*
X89238424Y-92385842D01*
X89282743Y-92346976D01*
X89340000Y-92332965D01*
X89397257Y-92346976D01*
X89441575Y-92385842D01*
X89568395Y-92566961D01*
X89568401Y-92566968D01*
X89571505Y-92571401D01*
X89738599Y-92738495D01*
X89743031Y-92741598D01*
X89743033Y-92741600D01*
X89887260Y-92842589D01*
X89932170Y-92874035D01*
X90146337Y-92973903D01*
X90374592Y-93035063D01*
X90610000Y-93055659D01*
X90845408Y-93035063D01*
X91073663Y-92973903D01*
X91287830Y-92874035D01*
X91481401Y-92738495D01*
X91648495Y-92571401D01*
X91778424Y-92385842D01*
X91822743Y-92346976D01*
X91880000Y-92332965D01*
X91937257Y-92346976D01*
X91981575Y-92385842D01*
X92108395Y-92566961D01*
X92108401Y-92566968D01*
X92111505Y-92571401D01*
X92278599Y-92738495D01*
X92283031Y-92741598D01*
X92283033Y-92741600D01*
X92427260Y-92842589D01*
X92472170Y-92874035D01*
X92686337Y-92973903D01*
X92914592Y-93035063D01*
X93150000Y-93055659D01*
X93385408Y-93035063D01*
X93613663Y-92973903D01*
X93827830Y-92874035D01*
X94021401Y-92738495D01*
X94188495Y-92571401D01*
X94318424Y-92385842D01*
X94362743Y-92346976D01*
X94420000Y-92332965D01*
X94477257Y-92346976D01*
X94521575Y-92385842D01*
X94648395Y-92566961D01*
X94648401Y-92566968D01*
X94651505Y-92571401D01*
X94818599Y-92738495D01*
X94823031Y-92741598D01*
X94823033Y-92741600D01*
X94967260Y-92842589D01*
X95012170Y-92874035D01*
X95226337Y-92973903D01*
X95454592Y-93035063D01*
X95690000Y-93055659D01*
X95925408Y-93035063D01*
X96153663Y-92973903D01*
X96367830Y-92874035D01*
X96561401Y-92738495D01*
X96728495Y-92571401D01*
X96858424Y-92385842D01*
X96902743Y-92346976D01*
X96960000Y-92332965D01*
X97017257Y-92346976D01*
X97061575Y-92385842D01*
X97188395Y-92566961D01*
X97188401Y-92566968D01*
X97191505Y-92571401D01*
X97358599Y-92738495D01*
X97363031Y-92741598D01*
X97363033Y-92741600D01*
X97507260Y-92842589D01*
X97552170Y-92874035D01*
X97766337Y-92973903D01*
X97994592Y-93035063D01*
X98230000Y-93055659D01*
X98465408Y-93035063D01*
X98693663Y-92973903D01*
X98907830Y-92874035D01*
X99101401Y-92738495D01*
X99268495Y-92571401D01*
X99398424Y-92385842D01*
X99442743Y-92346976D01*
X99500000Y-92332965D01*
X99557257Y-92346976D01*
X99601575Y-92385842D01*
X99728395Y-92566961D01*
X99728401Y-92566968D01*
X99731505Y-92571401D01*
X99898599Y-92738495D01*
X99903031Y-92741598D01*
X99903033Y-92741600D01*
X100047260Y-92842589D01*
X100092170Y-92874035D01*
X100306337Y-92973903D01*
X100534592Y-93035063D01*
X100770000Y-93055659D01*
X101005408Y-93035063D01*
X101233663Y-92973903D01*
X101447830Y-92874035D01*
X101641401Y-92738495D01*
X101808495Y-92571401D01*
X101938424Y-92385842D01*
X101982743Y-92346976D01*
X102040000Y-92332965D01*
X102097257Y-92346976D01*
X102141575Y-92385842D01*
X102268395Y-92566961D01*
X102268401Y-92566968D01*
X102271505Y-92571401D01*
X102438599Y-92738495D01*
X102443031Y-92741598D01*
X102443033Y-92741600D01*
X102587260Y-92842589D01*
X102632170Y-92874035D01*
X102846337Y-92973903D01*
X103074592Y-93035063D01*
X103310000Y-93055659D01*
X103545408Y-93035063D01*
X103773663Y-92973903D01*
X103987830Y-92874035D01*
X104181401Y-92738495D01*
X104348495Y-92571401D01*
X104484035Y-92377830D01*
X104502395Y-92338456D01*
X104545136Y-92288265D01*
X104607564Y-92267073D01*
X104672031Y-92280873D01*
X104720313Y-92325764D01*
X104728143Y-92338459D01*
X104732288Y-92345178D01*
X104737392Y-92350282D01*
X104739542Y-92353001D01*
X104739739Y-92353274D01*
X104739973Y-92353529D01*
X104742202Y-92356185D01*
X104746170Y-92362218D01*
X104751423Y-92367174D01*
X104751424Y-92367175D01*
X104800708Y-92413672D01*
X104803295Y-92416185D01*
X107238181Y-94851071D01*
X107265061Y-94891299D01*
X107274500Y-94938752D01*
X107274500Y-96159560D01*
X107274500Y-96159578D01*
X107274501Y-96162872D01*
X107274853Y-96166150D01*
X107274854Y-96166161D01*
X107280079Y-96214768D01*
X107280080Y-96214773D01*
X107280909Y-96222483D01*
X107283619Y-96229749D01*
X107283620Y-96229753D01*
X107317217Y-96319831D01*
X107331204Y-96357331D01*
X107417454Y-96472546D01*
X107532669Y-96558796D01*
X107667517Y-96609091D01*
X107727127Y-96615500D01*
X109522872Y-96615499D01*
X109582483Y-96609091D01*
X109717331Y-96558796D01*
X109832546Y-96472546D01*
X109918796Y-96357331D01*
X109969091Y-96222483D01*
X109975500Y-96162873D01*
X109975499Y-94367128D01*
X109969091Y-94307517D01*
X109918796Y-94172669D01*
X109832546Y-94057454D01*
X109717331Y-93971204D01*
X109647359Y-93945106D01*
X109585916Y-93922189D01*
X109535537Y-93887210D01*
X109508084Y-93832365D01*
X109510273Y-93771072D01*
X109541566Y-93718329D01*
X109663495Y-93596401D01*
X109799035Y-93402830D01*
X109898903Y-93188663D01*
X109960063Y-92960408D01*
X109980659Y-92725000D01*
X109960063Y-92489592D01*
X109898903Y-92261337D01*
X109799035Y-92047171D01*
X109663495Y-91853599D01*
X109496401Y-91686505D01*
X109491968Y-91683401D01*
X109491961Y-91683395D01*
X109310842Y-91556575D01*
X109271976Y-91512257D01*
X109257965Y-91455000D01*
X109271976Y-91397743D01*
X109310842Y-91353425D01*
X109491961Y-91226604D01*
X109491961Y-91226603D01*
X109496401Y-91223495D01*
X109663495Y-91056401D01*
X109799035Y-90862830D01*
X109898903Y-90648663D01*
X109960063Y-90420408D01*
X109980659Y-90185000D01*
X109960063Y-89949592D01*
X109898903Y-89721337D01*
X109799035Y-89507171D01*
X109663495Y-89313599D01*
X109496401Y-89146505D01*
X109491970Y-89143402D01*
X109491966Y-89143399D01*
X109310405Y-89016269D01*
X109271540Y-88971951D01*
X109257529Y-88914694D01*
X109271540Y-88857437D01*
X109310406Y-88813119D01*
X109491638Y-88686219D01*
X109499909Y-88679278D01*
X109659278Y-88519909D01*
X109666215Y-88511643D01*
X109795498Y-88327008D01*
X109800886Y-88317676D01*
X109896143Y-88113397D01*
X109899831Y-88103263D01*
X109951943Y-87908780D01*
X109952311Y-87897551D01*
X109941369Y-87895000D01*
X108499000Y-87895000D01*
X108437000Y-87878387D01*
X108391613Y-87833000D01*
X108375000Y-87771000D01*
X108375000Y-87378674D01*
X108875000Y-87378674D01*
X108878450Y-87391549D01*
X108891326Y-87395000D01*
X109941369Y-87395000D01*
X109952311Y-87392448D01*
X109951943Y-87381219D01*
X109899831Y-87186736D01*
X109896143Y-87176602D01*
X109800889Y-86972332D01*
X109795491Y-86962982D01*
X109666215Y-86778357D01*
X109659280Y-86770092D01*
X109499909Y-86610721D01*
X109491643Y-86603784D01*
X109307008Y-86474501D01*
X109297676Y-86469113D01*
X109093397Y-86373856D01*
X109083263Y-86370168D01*
X108888780Y-86318056D01*
X108877551Y-86317688D01*
X108875000Y-86328631D01*
X108875000Y-87378674D01*
X108375000Y-87378674D01*
X108375000Y-86328631D01*
X108372448Y-86317688D01*
X108361219Y-86318056D01*
X108166736Y-86370168D01*
X108156602Y-86373856D01*
X107952332Y-86469110D01*
X107942982Y-86474508D01*
X107758357Y-86603784D01*
X107750092Y-86610719D01*
X107590719Y-86770092D01*
X107583788Y-86778352D01*
X107476075Y-86932183D01*
X107428858Y-86972509D01*
X107368010Y-86984889D01*
X107308790Y-86966217D01*
X107266047Y-86921175D01*
X107250500Y-86861059D01*
X107250500Y-82175287D01*
X107269005Y-82110120D01*
X107318996Y-82064403D01*
X107385553Y-82051781D01*
X107448811Y-82076020D01*
X107532669Y-82138796D01*
X107667517Y-82189091D01*
X107727127Y-82195500D01*
X109522872Y-82195499D01*
X109582483Y-82189091D01*
X109717331Y-82138796D01*
X109832546Y-82052546D01*
X109918796Y-81937331D01*
X109969091Y-81802483D01*
X109975500Y-81742873D01*
X109975499Y-79947128D01*
X109969091Y-79887517D01*
X109918796Y-79752669D01*
X109832546Y-79637454D01*
X109812885Y-79622736D01*
X109724431Y-79556519D01*
X109724430Y-79556518D01*
X109717331Y-79551204D01*
X109647359Y-79525106D01*
X109585916Y-79502189D01*
X109535537Y-79467210D01*
X109508084Y-79412365D01*
X109510273Y-79351072D01*
X109541566Y-79298329D01*
X109663495Y-79176401D01*
X109799035Y-78982830D01*
X109898903Y-78768663D01*
X109960063Y-78540408D01*
X109980659Y-78305000D01*
X109960063Y-78069592D01*
X109898903Y-77841337D01*
X109799035Y-77627171D01*
X109663495Y-77433599D01*
X109496401Y-77266505D01*
X109491968Y-77263401D01*
X109491961Y-77263395D01*
X109310842Y-77136575D01*
X109271976Y-77092257D01*
X109257965Y-77035000D01*
X109271976Y-76977743D01*
X109310842Y-76933425D01*
X109491961Y-76806604D01*
X109491961Y-76806603D01*
X109496401Y-76803495D01*
X109663495Y-76636401D01*
X109799035Y-76442830D01*
X109898903Y-76228663D01*
X109960063Y-76000408D01*
X109980659Y-75765000D01*
X109960063Y-75529592D01*
X109898903Y-75301337D01*
X109799035Y-75087171D01*
X109663495Y-74893599D01*
X109496401Y-74726505D01*
X109491970Y-74723402D01*
X109491966Y-74723399D01*
X109310405Y-74596269D01*
X109271540Y-74551951D01*
X109257529Y-74494694D01*
X109271540Y-74437437D01*
X109310406Y-74393119D01*
X109491638Y-74266219D01*
X109499909Y-74259278D01*
X109659278Y-74099909D01*
X109666215Y-74091643D01*
X109795498Y-73907008D01*
X109800886Y-73897676D01*
X109896143Y-73693397D01*
X109899831Y-73683263D01*
X109951943Y-73488780D01*
X109952311Y-73477551D01*
X109941369Y-73475000D01*
X108499000Y-73475000D01*
X108437000Y-73458387D01*
X108391613Y-73413000D01*
X108375000Y-73351000D01*
X108375000Y-72958674D01*
X108875000Y-72958674D01*
X108878450Y-72971549D01*
X108891326Y-72975000D01*
X109941369Y-72975000D01*
X109952311Y-72972448D01*
X109951943Y-72961219D01*
X109899831Y-72766736D01*
X109896143Y-72756602D01*
X109800889Y-72552332D01*
X109795491Y-72542982D01*
X109666215Y-72358357D01*
X109659280Y-72350092D01*
X109499909Y-72190721D01*
X109491643Y-72183784D01*
X109307008Y-72054501D01*
X109297676Y-72049113D01*
X109093397Y-71953856D01*
X109083263Y-71950168D01*
X108888780Y-71898056D01*
X108877551Y-71897688D01*
X108875000Y-71908631D01*
X108875000Y-72958674D01*
X108375000Y-72958674D01*
X108375000Y-71908631D01*
X108372448Y-71897688D01*
X108361219Y-71898056D01*
X108166736Y-71950168D01*
X108156602Y-71953856D01*
X107952332Y-72049110D01*
X107942982Y-72054508D01*
X107758357Y-72183784D01*
X107750092Y-72190719D01*
X107712181Y-72228631D01*
X107662818Y-72258881D01*
X107605102Y-72263423D01*
X107551615Y-72241268D01*
X107514015Y-72197245D01*
X107500500Y-72140950D01*
X107500500Y-70734050D01*
X107514015Y-70677755D01*
X107551615Y-70633732D01*
X107605102Y-70611577D01*
X107662818Y-70616119D01*
X107712181Y-70646369D01*
X107750090Y-70684278D01*
X107758356Y-70691215D01*
X107942991Y-70820498D01*
X107952323Y-70825886D01*
X108156602Y-70921143D01*
X108166736Y-70924831D01*
X108361219Y-70976943D01*
X108372448Y-70977311D01*
X108375000Y-70966369D01*
X108875000Y-70966369D01*
X108877551Y-70977311D01*
X108888780Y-70976943D01*
X109083263Y-70924831D01*
X109093397Y-70921143D01*
X109297676Y-70825886D01*
X109307008Y-70820498D01*
X109491643Y-70691215D01*
X109499909Y-70684278D01*
X109659278Y-70524909D01*
X109666215Y-70516643D01*
X109795498Y-70332008D01*
X109800886Y-70322676D01*
X109896143Y-70118397D01*
X109899831Y-70108263D01*
X109951943Y-69913780D01*
X109952311Y-69902551D01*
X109941369Y-69900000D01*
X108891326Y-69900000D01*
X108878450Y-69903450D01*
X108875000Y-69916326D01*
X108875000Y-70966369D01*
X108375000Y-70966369D01*
X108375000Y-69524000D01*
X108391613Y-69462000D01*
X108437000Y-69416613D01*
X108499000Y-69400000D01*
X109941369Y-69400000D01*
X109952311Y-69397448D01*
X109951943Y-69386219D01*
X109899831Y-69191736D01*
X109896143Y-69181602D01*
X109800889Y-68977332D01*
X109795491Y-68967982D01*
X109666215Y-68783357D01*
X109659280Y-68775092D01*
X109499909Y-68615721D01*
X109491643Y-68608784D01*
X109310405Y-68481880D01*
X109271540Y-68437562D01*
X109257529Y-68380305D01*
X109271540Y-68323048D01*
X109310406Y-68278730D01*
X109374105Y-68234128D01*
X109496401Y-68148495D01*
X109663495Y-67981401D01*
X109799035Y-67787830D01*
X109898903Y-67573663D01*
X109960063Y-67345408D01*
X109980659Y-67110000D01*
X109960063Y-66874592D01*
X109898903Y-66646337D01*
X109799035Y-66432171D01*
X109663495Y-66238599D01*
X109496401Y-66071505D01*
X109491968Y-66068401D01*
X109491961Y-66068395D01*
X109310842Y-65941575D01*
X109271976Y-65897257D01*
X109257965Y-65840000D01*
X109271976Y-65782743D01*
X109310842Y-65738425D01*
X109491961Y-65611604D01*
X109491961Y-65611603D01*
X109496401Y-65608495D01*
X109663495Y-65441401D01*
X109799035Y-65247830D01*
X109898903Y-65033663D01*
X109960063Y-64805408D01*
X109980659Y-64570000D01*
X109960063Y-64334592D01*
X109910828Y-64150844D01*
X109900305Y-64111569D01*
X109900304Y-64111567D01*
X109898903Y-64106337D01*
X109799035Y-63892171D01*
X109663495Y-63698599D01*
X109496401Y-63531505D01*
X109491970Y-63528402D01*
X109491966Y-63528399D01*
X109310841Y-63401574D01*
X109271976Y-63357256D01*
X109257965Y-63299999D01*
X109271976Y-63242742D01*
X109310839Y-63198426D01*
X109496401Y-63068495D01*
X109663495Y-62901401D01*
X109799035Y-62707830D01*
X109898903Y-62493663D01*
X109960063Y-62265408D01*
X109980659Y-62030000D01*
X109960063Y-61794592D01*
X109898903Y-61566337D01*
X109799035Y-61352171D01*
X109663495Y-61158599D01*
X109541569Y-61036672D01*
X109510273Y-60983927D01*
X109508084Y-60922634D01*
X109535537Y-60867789D01*
X109585916Y-60832810D01*
X109717331Y-60783796D01*
X109832546Y-60697546D01*
X109918796Y-60582331D01*
X109969091Y-60447483D01*
X109975500Y-60387873D01*
X109975499Y-58592128D01*
X109969091Y-58532517D01*
X109918796Y-58397669D01*
X109832546Y-58282454D01*
X109742376Y-58214953D01*
X109724431Y-58201519D01*
X109724430Y-58201518D01*
X109717331Y-58196204D01*
X109582483Y-58145909D01*
X109574770Y-58145079D01*
X109574767Y-58145079D01*
X109526180Y-58139855D01*
X109526169Y-58139854D01*
X109522873Y-58139500D01*
X109519550Y-58139500D01*
X107730439Y-58139500D01*
X107730420Y-58139500D01*
X107727128Y-58139501D01*
X107723850Y-58139853D01*
X107723838Y-58139854D01*
X107675229Y-58145079D01*
X107675221Y-58145080D01*
X107667517Y-58145909D01*
X107660252Y-58148618D01*
X107653015Y-58150329D01*
X107597600Y-58150699D01*
X107547558Y-58126894D01*
X107512883Y-58083667D01*
X107500500Y-58029652D01*
X107500500Y-57706978D01*
X107507749Y-57665204D01*
X107528647Y-57628313D01*
X107532568Y-57623534D01*
X107585910Y-57558538D01*
X107678814Y-57384727D01*
X107736024Y-57196132D01*
X107755341Y-57000000D01*
X107736024Y-56803868D01*
X107678814Y-56615273D01*
X107621549Y-56508138D01*
X107588784Y-56446838D01*
X107588781Y-56446834D01*
X107585910Y-56441462D01*
X107460883Y-56289117D01*
X107323744Y-56176569D01*
X107313250Y-56167957D01*
X107313249Y-56167956D01*
X107308538Y-56164090D01*
X107303167Y-56161219D01*
X107303161Y-56161215D01*
X107140099Y-56074057D01*
X107140095Y-56074055D01*
X107134727Y-56071186D01*
X107102530Y-56061419D01*
X106951962Y-56015744D01*
X106951957Y-56015743D01*
X106946132Y-56013976D01*
X106940073Y-56013379D01*
X106940067Y-56013378D01*
X106756062Y-55995256D01*
X106750000Y-55994659D01*
X106743938Y-55995256D01*
X106559932Y-56013378D01*
X106559924Y-56013379D01*
X106553868Y-56013976D01*
X106548044Y-56015742D01*
X106548037Y-56015744D01*
X106371100Y-56069418D01*
X106371096Y-56069419D01*
X106365273Y-56071186D01*
X106359907Y-56074053D01*
X106359900Y-56074057D01*
X106196838Y-56161215D01*
X106196827Y-56161222D01*
X106191462Y-56164090D01*
X106186754Y-56167953D01*
X106186749Y-56167957D01*
X106043823Y-56285254D01*
X106043818Y-56285258D01*
X106039117Y-56289117D01*
X106035258Y-56293818D01*
X106035254Y-56293823D01*
X105917957Y-56436749D01*
X105917953Y-56436754D01*
X105914090Y-56441462D01*
X105911222Y-56446827D01*
X105911215Y-56446838D01*
X105824057Y-56609900D01*
X105824053Y-56609907D01*
X105821186Y-56615273D01*
X105819419Y-56621096D01*
X105819418Y-56621100D01*
X105765744Y-56798037D01*
X105765742Y-56798044D01*
X105763976Y-56803868D01*
X105763379Y-56809924D01*
X105763378Y-56809932D01*
X105753956Y-56905596D01*
X105733655Y-56962331D01*
X105689008Y-57002799D01*
X105630556Y-57017441D01*
X105572103Y-57002801D01*
X105565098Y-56999057D01*
X105565099Y-56999057D01*
X105559727Y-56996186D01*
X105553899Y-56994418D01*
X105376962Y-56940744D01*
X105376957Y-56940743D01*
X105371132Y-56938976D01*
X105365073Y-56938379D01*
X105365067Y-56938378D01*
X105181062Y-56920256D01*
X105175000Y-56919659D01*
X105168938Y-56920256D01*
X104984932Y-56938378D01*
X104984924Y-56938379D01*
X104978868Y-56938976D01*
X104973044Y-56940742D01*
X104973037Y-56940744D01*
X104796100Y-56994418D01*
X104796096Y-56994419D01*
X104790273Y-56996186D01*
X104784907Y-56999053D01*
X104784900Y-56999057D01*
X104621838Y-57086215D01*
X104621827Y-57086222D01*
X104616462Y-57089090D01*
X104611754Y-57092953D01*
X104611749Y-57092957D01*
X104468823Y-57210254D01*
X104468818Y-57210258D01*
X104464117Y-57214117D01*
X104460258Y-57218818D01*
X104460254Y-57218823D01*
X104342957Y-57361749D01*
X104342953Y-57361754D01*
X104339090Y-57366462D01*
X104336222Y-57371827D01*
X104336215Y-57371838D01*
X104249057Y-57534900D01*
X104249053Y-57534907D01*
X104246186Y-57540273D01*
X104244419Y-57546096D01*
X104244418Y-57546100D01*
X104190744Y-57723037D01*
X104190742Y-57723044D01*
X104188976Y-57728868D01*
X104188379Y-57734924D01*
X104188378Y-57734932D01*
X104177298Y-57847437D01*
X104169659Y-57925000D01*
X104170256Y-57931062D01*
X104188378Y-58115067D01*
X104188379Y-58115073D01*
X104188976Y-58121132D01*
X104190743Y-58126957D01*
X104190744Y-58126962D01*
X104211749Y-58196204D01*
X104246186Y-58309727D01*
X104249055Y-58315095D01*
X104249057Y-58315099D01*
X104336215Y-58478161D01*
X104336219Y-58478167D01*
X104339090Y-58483538D01*
X104342956Y-58488249D01*
X104342957Y-58488250D01*
X104396353Y-58553313D01*
X104417251Y-58590204D01*
X104424500Y-58631978D01*
X104424500Y-59122050D01*
X104410724Y-59174999D01*
X104424500Y-59227950D01*
X104424500Y-61662050D01*
X104410724Y-61715000D01*
X104424500Y-61767950D01*
X104424500Y-64202050D01*
X104410724Y-64255000D01*
X104424500Y-64307950D01*
X104424500Y-66742050D01*
X104410724Y-66795000D01*
X104424500Y-66847950D01*
X104424500Y-69282050D01*
X104410724Y-69335000D01*
X104424500Y-69387950D01*
X104424500Y-76713771D01*
X104410985Y-76770066D01*
X104373385Y-76814089D01*
X104319898Y-76836244D01*
X104262182Y-76831702D01*
X104212819Y-76801452D01*
X102642429Y-75231062D01*
X101005593Y-73594225D01*
X100981179Y-73559561D01*
X100969871Y-73518697D01*
X100969548Y-73515417D01*
X100961024Y-73428868D01*
X100903814Y-73240273D01*
X100867265Y-73171895D01*
X100813784Y-73071838D01*
X100813781Y-73071834D01*
X100810910Y-73066462D01*
X100685883Y-72914117D01*
X100681176Y-72910254D01*
X100538250Y-72792957D01*
X100538249Y-72792956D01*
X100533538Y-72789090D01*
X100528167Y-72786219D01*
X100528161Y-72786215D01*
X100496923Y-72769518D01*
X101475000Y-72769518D01*
X101475353Y-72776114D01*
X101480573Y-72824667D01*
X101484111Y-72839641D01*
X101528547Y-72958777D01*
X101536962Y-72974189D01*
X101612498Y-73075092D01*
X101624907Y-73087501D01*
X101725810Y-73163037D01*
X101741222Y-73171452D01*
X101860358Y-73215888D01*
X101875332Y-73219426D01*
X101923885Y-73224646D01*
X101930482Y-73225000D01*
X102558674Y-73225000D01*
X102571549Y-73221549D01*
X102575000Y-73208674D01*
X103075000Y-73208674D01*
X103078450Y-73221549D01*
X103091326Y-73225000D01*
X103719518Y-73225000D01*
X103726114Y-73224646D01*
X103774667Y-73219426D01*
X103789641Y-73215888D01*
X103908777Y-73171452D01*
X103924189Y-73163037D01*
X104025092Y-73087501D01*
X104037501Y-73075092D01*
X104113037Y-72974189D01*
X104121452Y-72958777D01*
X104165888Y-72839641D01*
X104169426Y-72824667D01*
X104174646Y-72776114D01*
X104175000Y-72769518D01*
X104175000Y-72141326D01*
X104171549Y-72128450D01*
X104158674Y-72125000D01*
X103091326Y-72125000D01*
X103078450Y-72128450D01*
X103075000Y-72141326D01*
X103075000Y-73208674D01*
X102575000Y-73208674D01*
X102575000Y-72141326D01*
X102571549Y-72128450D01*
X102558674Y-72125000D01*
X101491326Y-72125000D01*
X101478450Y-72128450D01*
X101475000Y-72141326D01*
X101475000Y-72769518D01*
X100496923Y-72769518D01*
X100365099Y-72699057D01*
X100365095Y-72699055D01*
X100359727Y-72696186D01*
X100353899Y-72694418D01*
X100176962Y-72640744D01*
X100176957Y-72640743D01*
X100171132Y-72638976D01*
X100165073Y-72638379D01*
X100165067Y-72638378D01*
X99981062Y-72620256D01*
X99975000Y-72619659D01*
X99968938Y-72620256D01*
X99784932Y-72638378D01*
X99784924Y-72638379D01*
X99778868Y-72638976D01*
X99773044Y-72640742D01*
X99773037Y-72640744D01*
X99596100Y-72694418D01*
X99596096Y-72694419D01*
X99590273Y-72696186D01*
X99584907Y-72699053D01*
X99584900Y-72699057D01*
X99421838Y-72786215D01*
X99421827Y-72786222D01*
X99416462Y-72789090D01*
X99411754Y-72792953D01*
X99411749Y-72792957D01*
X99268823Y-72910254D01*
X99268818Y-72910258D01*
X99264117Y-72914117D01*
X99260258Y-72918818D01*
X99260254Y-72918823D01*
X99142957Y-73061749D01*
X99142953Y-73061754D01*
X99139090Y-73066462D01*
X99136222Y-73071827D01*
X99136215Y-73071838D01*
X99049057Y-73234900D01*
X99049053Y-73234907D01*
X99046186Y-73240273D01*
X99044419Y-73246096D01*
X99044418Y-73246100D01*
X98990744Y-73423037D01*
X98990742Y-73423044D01*
X98988976Y-73428868D01*
X98988379Y-73434924D01*
X98988378Y-73434932D01*
X98970936Y-73612031D01*
X98969659Y-73625000D01*
X98970256Y-73631062D01*
X98988378Y-73815067D01*
X98988379Y-73815073D01*
X98988976Y-73821132D01*
X98990743Y-73826957D01*
X98990744Y-73826962D01*
X99044418Y-74003899D01*
X99046186Y-74009727D01*
X99049055Y-74015095D01*
X99049057Y-74015099D01*
X99061193Y-74037803D01*
X99075798Y-74099299D01*
X99058193Y-74160005D01*
X99012954Y-74204147D01*
X98952984Y-74219952D01*
X98950000Y-74219659D01*
X98943938Y-74220256D01*
X98759932Y-74238378D01*
X98759924Y-74238379D01*
X98753868Y-74238976D01*
X98748044Y-74240742D01*
X98748037Y-74240744D01*
X98571100Y-74294418D01*
X98571096Y-74294419D01*
X98565273Y-74296186D01*
X98559907Y-74299053D01*
X98559900Y-74299057D01*
X98396838Y-74386215D01*
X98396827Y-74386222D01*
X98391462Y-74389090D01*
X98386754Y-74392953D01*
X98386749Y-74392957D01*
X98243823Y-74510254D01*
X98243818Y-74510258D01*
X98239117Y-74514117D01*
X98235258Y-74518818D01*
X98235254Y-74518823D01*
X98117957Y-74661749D01*
X98117953Y-74661754D01*
X98114090Y-74666462D01*
X98111222Y-74671827D01*
X98111215Y-74671838D01*
X98024057Y-74834900D01*
X98024053Y-74834907D01*
X98021186Y-74840273D01*
X98019419Y-74846096D01*
X98019418Y-74846100D01*
X97965744Y-75023037D01*
X97965742Y-75023044D01*
X97963976Y-75028868D01*
X97963379Y-75034924D01*
X97963378Y-75034932D01*
X97955771Y-75112173D01*
X97944659Y-75225000D01*
X97945256Y-75231062D01*
X97963378Y-75415067D01*
X97963379Y-75415073D01*
X97963976Y-75421132D01*
X97965743Y-75426957D01*
X97965744Y-75426962D01*
X97996877Y-75529592D01*
X98021186Y-75609727D01*
X98024055Y-75615095D01*
X98024057Y-75615099D01*
X98111215Y-75778161D01*
X98111219Y-75778167D01*
X98114090Y-75783538D01*
X98239117Y-75935883D01*
X98391462Y-76060910D01*
X98396834Y-76063781D01*
X98396838Y-76063784D01*
X98477159Y-76106716D01*
X98565273Y-76153814D01*
X98753868Y-76211024D01*
X98915030Y-76226896D01*
X98932962Y-76228663D01*
X98950000Y-76230341D01*
X98967038Y-76228663D01*
X98977587Y-76227623D01*
X99146132Y-76211024D01*
X99334727Y-76153814D01*
X99508538Y-76060910D01*
X99578312Y-76003647D01*
X99615204Y-75982749D01*
X99656978Y-75975500D01*
X99912770Y-75975500D01*
X99960223Y-75984939D01*
X100000451Y-76011819D01*
X100451451Y-76462819D01*
X100481701Y-76512182D01*
X100486243Y-76569898D01*
X100464088Y-76623385D01*
X100420065Y-76660985D01*
X100363770Y-76674500D01*
X99580439Y-76674500D01*
X99580420Y-76674500D01*
X99577128Y-76674501D01*
X99573850Y-76674853D01*
X99573838Y-76674854D01*
X99525231Y-76680079D01*
X99525225Y-76680080D01*
X99517517Y-76680909D01*
X99510252Y-76683618D01*
X99510246Y-76683620D01*
X99390980Y-76728104D01*
X99390978Y-76728104D01*
X99382669Y-76731204D01*
X99375572Y-76736516D01*
X99375568Y-76736519D01*
X99274550Y-76812141D01*
X99274546Y-76812144D01*
X99267454Y-76817454D01*
X99262144Y-76824546D01*
X99262141Y-76824550D01*
X99186519Y-76925568D01*
X99186516Y-76925572D01*
X99181204Y-76932669D01*
X99178104Y-76940978D01*
X99178105Y-76940978D01*
X99132189Y-77064083D01*
X99097210Y-77114462D01*
X99042365Y-77141915D01*
X98981072Y-77139726D01*
X98928326Y-77108430D01*
X98810232Y-76990336D01*
X98810230Y-76990334D01*
X98806401Y-76986505D01*
X98801970Y-76983402D01*
X98801966Y-76983399D01*
X98617259Y-76854066D01*
X98617257Y-76854064D01*
X98612830Y-76850965D01*
X98607933Y-76848681D01*
X98607927Y-76848678D01*
X98403572Y-76753386D01*
X98403570Y-76753385D01*
X98398663Y-76751097D01*
X98393438Y-76749697D01*
X98393430Y-76749694D01*
X98175634Y-76691337D01*
X98175630Y-76691336D01*
X98170408Y-76689937D01*
X98165020Y-76689465D01*
X98165017Y-76689465D01*
X97940395Y-76669813D01*
X97935000Y-76669341D01*
X97929605Y-76669813D01*
X97704982Y-76689465D01*
X97704977Y-76689465D01*
X97699592Y-76689937D01*
X97694371Y-76691335D01*
X97694365Y-76691337D01*
X97476569Y-76749694D01*
X97476557Y-76749698D01*
X97471337Y-76751097D01*
X97466432Y-76753383D01*
X97466427Y-76753386D01*
X97262081Y-76848675D01*
X97262077Y-76848677D01*
X97257171Y-76850965D01*
X97252738Y-76854068D01*
X97252731Y-76854073D01*
X97068034Y-76983399D01*
X97068029Y-76983402D01*
X97063599Y-76986505D01*
X97059775Y-76990328D01*
X97059769Y-76990334D01*
X96900334Y-77149769D01*
X96900328Y-77149775D01*
X96896505Y-77153599D01*
X96893402Y-77158029D01*
X96893399Y-77158034D01*
X96766575Y-77339159D01*
X96722257Y-77378025D01*
X96665000Y-77392036D01*
X96607743Y-77378025D01*
X96563425Y-77339159D01*
X96504728Y-77255331D01*
X96433495Y-77153599D01*
X96266401Y-76986505D01*
X96261970Y-76983402D01*
X96261966Y-76983399D01*
X96077259Y-76854066D01*
X96077257Y-76854064D01*
X96072830Y-76850965D01*
X96067933Y-76848681D01*
X96067927Y-76848678D01*
X95863572Y-76753386D01*
X95863570Y-76753385D01*
X95858663Y-76751097D01*
X95853438Y-76749697D01*
X95853430Y-76749694D01*
X95635634Y-76691337D01*
X95635630Y-76691336D01*
X95630408Y-76689937D01*
X95625020Y-76689465D01*
X95625017Y-76689465D01*
X95400395Y-76669813D01*
X95395000Y-76669341D01*
X95389605Y-76669813D01*
X95164982Y-76689465D01*
X95164977Y-76689465D01*
X95159592Y-76689937D01*
X95154371Y-76691335D01*
X95154365Y-76691337D01*
X94936569Y-76749694D01*
X94936557Y-76749698D01*
X94931337Y-76751097D01*
X94926432Y-76753383D01*
X94926427Y-76753386D01*
X94722081Y-76848675D01*
X94722077Y-76848677D01*
X94717171Y-76850965D01*
X94712738Y-76854068D01*
X94712731Y-76854073D01*
X94528034Y-76983399D01*
X94528029Y-76983402D01*
X94523599Y-76986505D01*
X94519775Y-76990328D01*
X94519769Y-76990334D01*
X94360334Y-77149769D01*
X94360328Y-77149775D01*
X94356505Y-77153599D01*
X94353402Y-77158029D01*
X94353399Y-77158034D01*
X94224073Y-77342731D01*
X94224068Y-77342738D01*
X94220965Y-77347171D01*
X94218677Y-77352077D01*
X94218675Y-77352081D01*
X94123386Y-77556427D01*
X94123383Y-77556432D01*
X94121097Y-77561337D01*
X94119698Y-77566557D01*
X94119694Y-77566569D01*
X94061337Y-77784365D01*
X94061335Y-77784371D01*
X94059937Y-77789592D01*
X94059465Y-77794977D01*
X94059465Y-77794982D01*
X94048877Y-77916006D01*
X94039341Y-78025000D01*
X94039813Y-78030395D01*
X94057280Y-78230048D01*
X94059937Y-78260408D01*
X94061336Y-78265630D01*
X94061337Y-78265634D01*
X94119694Y-78483430D01*
X94119697Y-78483438D01*
X94121097Y-78488663D01*
X94123385Y-78493570D01*
X94123386Y-78493572D01*
X94218678Y-78697927D01*
X94218681Y-78697933D01*
X94220965Y-78702830D01*
X94224064Y-78707257D01*
X94224066Y-78707259D01*
X94353399Y-78891966D01*
X94353402Y-78891970D01*
X94356505Y-78896401D01*
X94523599Y-79063495D01*
X94528031Y-79066598D01*
X94528033Y-79066600D01*
X94668813Y-79165175D01*
X94717170Y-79199035D01*
X94931337Y-79298903D01*
X95159592Y-79360063D01*
X95395000Y-79380659D01*
X95630408Y-79360063D01*
X95858663Y-79298903D01*
X96072830Y-79199035D01*
X96266401Y-79063495D01*
X96433495Y-78896401D01*
X96443393Y-78882266D01*
X96563425Y-78710842D01*
X96607743Y-78671976D01*
X96665000Y-78657965D01*
X96722257Y-78671976D01*
X96766575Y-78710842D01*
X96893395Y-78891961D01*
X96893401Y-78891968D01*
X96896505Y-78896401D01*
X97063599Y-79063495D01*
X97068031Y-79066598D01*
X97068033Y-79066600D01*
X97208813Y-79165175D01*
X97257170Y-79199035D01*
X97471337Y-79298903D01*
X97699592Y-79360063D01*
X97935000Y-79380659D01*
X98170408Y-79360063D01*
X98398663Y-79298903D01*
X98612830Y-79199035D01*
X98806401Y-79063495D01*
X98928329Y-78941566D01*
X98981072Y-78910273D01*
X99042365Y-78908084D01*
X99097210Y-78935537D01*
X99132189Y-78985916D01*
X99150683Y-79035500D01*
X99181204Y-79117331D01*
X99186518Y-79124430D01*
X99186519Y-79124431D01*
X99256547Y-79217977D01*
X99267454Y-79232546D01*
X99382669Y-79318796D01*
X99517517Y-79369091D01*
X99577127Y-79375500D01*
X101372872Y-79375499D01*
X101432483Y-79369091D01*
X101567331Y-79318796D01*
X101682546Y-79232546D01*
X101768796Y-79117331D01*
X101819091Y-78982483D01*
X101825500Y-78922873D01*
X101825499Y-78136226D01*
X101839014Y-78079933D01*
X101876614Y-78035910D01*
X101930101Y-78013755D01*
X101987817Y-78018297D01*
X102037180Y-78048547D01*
X104538181Y-80549548D01*
X104565061Y-80589776D01*
X104574500Y-80637229D01*
X104574500Y-90758090D01*
X104558954Y-90818205D01*
X104516213Y-90863246D01*
X104456996Y-90881920D01*
X104396149Y-90869544D01*
X104356680Y-90835839D01*
X104355081Y-90837182D01*
X104351600Y-90833034D01*
X104348495Y-90828599D01*
X104181401Y-90661505D01*
X104176968Y-90658401D01*
X104176966Y-90658399D01*
X103992259Y-90529066D01*
X103992257Y-90529064D01*
X103987830Y-90525965D01*
X103982933Y-90523681D01*
X103982927Y-90523678D01*
X103778572Y-90428386D01*
X103778570Y-90428385D01*
X103773663Y-90426097D01*
X103768438Y-90424697D01*
X103768430Y-90424694D01*
X103550634Y-90366337D01*
X103550630Y-90366336D01*
X103545408Y-90364937D01*
X103540020Y-90364465D01*
X103540017Y-90364465D01*
X103315395Y-90344813D01*
X103310000Y-90344341D01*
X103304605Y-90344813D01*
X103079982Y-90364465D01*
X103079977Y-90364465D01*
X103074592Y-90364937D01*
X103069371Y-90366335D01*
X103069365Y-90366337D01*
X102851569Y-90424694D01*
X102851557Y-90424698D01*
X102846337Y-90426097D01*
X102841432Y-90428383D01*
X102841427Y-90428386D01*
X102637081Y-90523675D01*
X102637077Y-90523677D01*
X102632171Y-90525965D01*
X102627738Y-90529068D01*
X102627731Y-90529073D01*
X102443034Y-90658399D01*
X102443032Y-90658401D01*
X102438599Y-90661505D01*
X102434775Y-90665328D01*
X102434769Y-90665334D01*
X102275334Y-90824769D01*
X102275328Y-90824775D01*
X102271505Y-90828599D01*
X102268402Y-90833029D01*
X102268399Y-90833034D01*
X102141575Y-91014159D01*
X102097257Y-91053025D01*
X102040000Y-91067036D01*
X101982743Y-91053025D01*
X101938425Y-91014159D01*
X101865670Y-90910254D01*
X101808495Y-90828599D01*
X101641401Y-90661505D01*
X101636968Y-90658401D01*
X101636966Y-90658399D01*
X101452259Y-90529066D01*
X101452257Y-90529064D01*
X101447830Y-90525965D01*
X101442933Y-90523681D01*
X101442927Y-90523678D01*
X101238572Y-90428386D01*
X101238570Y-90428385D01*
X101233663Y-90426097D01*
X101228438Y-90424697D01*
X101228430Y-90424694D01*
X101010634Y-90366337D01*
X101010630Y-90366336D01*
X101005408Y-90364937D01*
X101000020Y-90364465D01*
X101000017Y-90364465D01*
X100775395Y-90344813D01*
X100770000Y-90344341D01*
X100764605Y-90344813D01*
X100539982Y-90364465D01*
X100539977Y-90364465D01*
X100534592Y-90364937D01*
X100529371Y-90366335D01*
X100529365Y-90366337D01*
X100311569Y-90424694D01*
X100311557Y-90424698D01*
X100306337Y-90426097D01*
X100301432Y-90428383D01*
X100301427Y-90428386D01*
X100097081Y-90523675D01*
X100097077Y-90523677D01*
X100092171Y-90525965D01*
X100087738Y-90529068D01*
X100087731Y-90529073D01*
X99903034Y-90658399D01*
X99903032Y-90658401D01*
X99898599Y-90661505D01*
X99894775Y-90665328D01*
X99894769Y-90665334D01*
X99735334Y-90824769D01*
X99735328Y-90824775D01*
X99731505Y-90828599D01*
X99728402Y-90833029D01*
X99728399Y-90833034D01*
X99601575Y-91014159D01*
X99557257Y-91053025D01*
X99500000Y-91067036D01*
X99442743Y-91053025D01*
X99398425Y-91014159D01*
X99325670Y-90910254D01*
X99268495Y-90828599D01*
X99101401Y-90661505D01*
X99003376Y-90592867D01*
X98964511Y-90548550D01*
X98950500Y-90491293D01*
X98950500Y-90081978D01*
X98957749Y-90040204D01*
X98978647Y-90003313D01*
X99018311Y-89954982D01*
X99035910Y-89933538D01*
X99128814Y-89759727D01*
X99186024Y-89571132D01*
X99205341Y-89375000D01*
X99186024Y-89178868D01*
X99128814Y-88990273D01*
X99083200Y-88904935D01*
X99038784Y-88821838D01*
X99038781Y-88821834D01*
X99035910Y-88816462D01*
X98910883Y-88664117D01*
X98758538Y-88539090D01*
X98753167Y-88536219D01*
X98753161Y-88536215D01*
X98590099Y-88449057D01*
X98590095Y-88449055D01*
X98584727Y-88446186D01*
X98577076Y-88443865D01*
X98401962Y-88390744D01*
X98401957Y-88390743D01*
X98396132Y-88388976D01*
X98390073Y-88388379D01*
X98390067Y-88388378D01*
X98206062Y-88370256D01*
X98200000Y-88369659D01*
X98193938Y-88370256D01*
X98009932Y-88388378D01*
X98009924Y-88388379D01*
X98003868Y-88388976D01*
X97998044Y-88390742D01*
X97998037Y-88390744D01*
X97821100Y-88444418D01*
X97821096Y-88444419D01*
X97815273Y-88446186D01*
X97809907Y-88449053D01*
X97809900Y-88449057D01*
X97646838Y-88536215D01*
X97646827Y-88536222D01*
X97641462Y-88539090D01*
X97636754Y-88542953D01*
X97636749Y-88542957D01*
X97493823Y-88660254D01*
X97493818Y-88660258D01*
X97489117Y-88664117D01*
X97485258Y-88668818D01*
X97485254Y-88668823D01*
X97367957Y-88811749D01*
X97367953Y-88811754D01*
X97364090Y-88816462D01*
X97361222Y-88821827D01*
X97361215Y-88821838D01*
X97274057Y-88984900D01*
X97274053Y-88984907D01*
X97271186Y-88990273D01*
X97269419Y-88996096D01*
X97269418Y-88996100D01*
X97215744Y-89173037D01*
X97215742Y-89173044D01*
X97213976Y-89178868D01*
X97213379Y-89184924D01*
X97213378Y-89184932D01*
X97199668Y-89324144D01*
X97194659Y-89375000D01*
X97195256Y-89381062D01*
X97213378Y-89565067D01*
X97213379Y-89565073D01*
X97213976Y-89571132D01*
X97215743Y-89576957D01*
X97215744Y-89576962D01*
X97264896Y-89738991D01*
X97271186Y-89759727D01*
X97274055Y-89765095D01*
X97274057Y-89765099D01*
X97361215Y-89928161D01*
X97361219Y-89928167D01*
X97364090Y-89933538D01*
X97367956Y-89938249D01*
X97367957Y-89938250D01*
X97421353Y-90003313D01*
X97442251Y-90040204D01*
X97449500Y-90081978D01*
X97449500Y-90533306D01*
X97435489Y-90590563D01*
X97396623Y-90634880D01*
X97384413Y-90643430D01*
X97363031Y-90658401D01*
X97363025Y-90658405D01*
X97358599Y-90661505D01*
X97354775Y-90665328D01*
X97354769Y-90665334D01*
X97195334Y-90824769D01*
X97195328Y-90824775D01*
X97191505Y-90828599D01*
X97188402Y-90833029D01*
X97188399Y-90833034D01*
X97061575Y-91014159D01*
X97017257Y-91053025D01*
X96960000Y-91067036D01*
X96902743Y-91053025D01*
X96858425Y-91014159D01*
X96785670Y-90910254D01*
X96728495Y-90828599D01*
X96561401Y-90661505D01*
X96556968Y-90658401D01*
X96556966Y-90658399D01*
X96478376Y-90603370D01*
X96439511Y-90559052D01*
X96425500Y-90501795D01*
X96425500Y-89157478D01*
X96432749Y-89115704D01*
X96453647Y-89078813D01*
X96484300Y-89041462D01*
X96510910Y-89009038D01*
X96603814Y-88835227D01*
X96661024Y-88646632D01*
X96680341Y-88450500D01*
X96661024Y-88254368D01*
X96603814Y-88065773D01*
X96575398Y-88012610D01*
X96513784Y-87897338D01*
X96513781Y-87897334D01*
X96510910Y-87891962D01*
X96385883Y-87739617D01*
X96381176Y-87735754D01*
X96238250Y-87618457D01*
X96238249Y-87618456D01*
X96233538Y-87614590D01*
X96228167Y-87611719D01*
X96228161Y-87611715D01*
X96065099Y-87524557D01*
X96065095Y-87524555D01*
X96059727Y-87521686D01*
X96053899Y-87519918D01*
X95876962Y-87466244D01*
X95876957Y-87466243D01*
X95871132Y-87464476D01*
X95865073Y-87463879D01*
X95865067Y-87463878D01*
X95681062Y-87445756D01*
X95675000Y-87445159D01*
X95668938Y-87445756D01*
X95484932Y-87463878D01*
X95484924Y-87463879D01*
X95478868Y-87464476D01*
X95473044Y-87466242D01*
X95473037Y-87466244D01*
X95296100Y-87519918D01*
X95296096Y-87519919D01*
X95290273Y-87521686D01*
X95284907Y-87524553D01*
X95284900Y-87524557D01*
X95121838Y-87611715D01*
X95121827Y-87611722D01*
X95116462Y-87614590D01*
X95111754Y-87618453D01*
X95111749Y-87618457D01*
X94968823Y-87735754D01*
X94968818Y-87735758D01*
X94964117Y-87739617D01*
X94960258Y-87744318D01*
X94960254Y-87744323D01*
X94842957Y-87887249D01*
X94842953Y-87887254D01*
X94839090Y-87891962D01*
X94836222Y-87897327D01*
X94836215Y-87897338D01*
X94749057Y-88060400D01*
X94749053Y-88060407D01*
X94746186Y-88065773D01*
X94744419Y-88071596D01*
X94744418Y-88071600D01*
X94690744Y-88248537D01*
X94690742Y-88248544D01*
X94688976Y-88254368D01*
X94688379Y-88260424D01*
X94688378Y-88260432D01*
X94678787Y-88357818D01*
X94669659Y-88450500D01*
X94670256Y-88456562D01*
X94688378Y-88640567D01*
X94688379Y-88640573D01*
X94688976Y-88646632D01*
X94690743Y-88652457D01*
X94690744Y-88652462D01*
X94739480Y-88813120D01*
X94746186Y-88835227D01*
X94749055Y-88840595D01*
X94749057Y-88840599D01*
X94836215Y-89003661D01*
X94836219Y-89003667D01*
X94839090Y-89009038D01*
X94842956Y-89013749D01*
X94842957Y-89013750D01*
X94896353Y-89078813D01*
X94917251Y-89115704D01*
X94924500Y-89157478D01*
X94924500Y-90522803D01*
X94910489Y-90580060D01*
X94871623Y-90624377D01*
X94856621Y-90634882D01*
X94823031Y-90658401D01*
X94823025Y-90658405D01*
X94818599Y-90661505D01*
X94814775Y-90665328D01*
X94814769Y-90665334D01*
X94655334Y-90824769D01*
X94655328Y-90824775D01*
X94651505Y-90828599D01*
X94648402Y-90833029D01*
X94648399Y-90833034D01*
X94521575Y-91014159D01*
X94477257Y-91053025D01*
X94420000Y-91067036D01*
X94362743Y-91053025D01*
X94318425Y-91014159D01*
X94245670Y-90910254D01*
X94188495Y-90828599D01*
X94021401Y-90661505D01*
X93903376Y-90578863D01*
X93864511Y-90534546D01*
X93850500Y-90477289D01*
X93850500Y-88056978D01*
X93857749Y-88015204D01*
X93878647Y-87978313D01*
X93882568Y-87973534D01*
X93935910Y-87908538D01*
X94028814Y-87734727D01*
X94086024Y-87546132D01*
X94105341Y-87350000D01*
X94104188Y-87338298D01*
X94087615Y-87170022D01*
X94086024Y-87153868D01*
X94028814Y-86965273D01*
X93988393Y-86889650D01*
X93938784Y-86796838D01*
X93938781Y-86796834D01*
X93935910Y-86791462D01*
X93810883Y-86639117D01*
X93721654Y-86565888D01*
X93663250Y-86517957D01*
X93663249Y-86517956D01*
X93658538Y-86514090D01*
X93653167Y-86511219D01*
X93653161Y-86511215D01*
X93490099Y-86424057D01*
X93490095Y-86424055D01*
X93484727Y-86421186D01*
X93478899Y-86419418D01*
X93301962Y-86365744D01*
X93301957Y-86365743D01*
X93296132Y-86363976D01*
X93290073Y-86363379D01*
X93290067Y-86363378D01*
X93106062Y-86345256D01*
X93100000Y-86344659D01*
X93093938Y-86345256D01*
X92909932Y-86363378D01*
X92909924Y-86363379D01*
X92903868Y-86363976D01*
X92898044Y-86365742D01*
X92898037Y-86365744D01*
X92721100Y-86419418D01*
X92721096Y-86419419D01*
X92715273Y-86421186D01*
X92709907Y-86424053D01*
X92709900Y-86424057D01*
X92546838Y-86511215D01*
X92546827Y-86511222D01*
X92541462Y-86514090D01*
X92536754Y-86517953D01*
X92536749Y-86517957D01*
X92393823Y-86635254D01*
X92393818Y-86635258D01*
X92389117Y-86639117D01*
X92385258Y-86643818D01*
X92385254Y-86643823D01*
X92267957Y-86786749D01*
X92267953Y-86786754D01*
X92264090Y-86791462D01*
X92261222Y-86796827D01*
X92261215Y-86796838D01*
X92174057Y-86959900D01*
X92174053Y-86959907D01*
X92171186Y-86965273D01*
X92169419Y-86971096D01*
X92169418Y-86971100D01*
X92115744Y-87148037D01*
X92115742Y-87148044D01*
X92113976Y-87153868D01*
X92113379Y-87159924D01*
X92113378Y-87159932D01*
X92095316Y-87343325D01*
X92094659Y-87350000D01*
X92095256Y-87356062D01*
X92113378Y-87540067D01*
X92113379Y-87540073D01*
X92113976Y-87546132D01*
X92115743Y-87551957D01*
X92115744Y-87551962D01*
X92158998Y-87694549D01*
X92171186Y-87734727D01*
X92174055Y-87740095D01*
X92174057Y-87740099D01*
X92261215Y-87903161D01*
X92261219Y-87903167D01*
X92264090Y-87908538D01*
X92267956Y-87913249D01*
X92267957Y-87913250D01*
X92321353Y-87978313D01*
X92342251Y-88015204D01*
X92349500Y-88056978D01*
X92349500Y-90547310D01*
X92335489Y-90604568D01*
X92296621Y-90648886D01*
X92283036Y-90658397D01*
X92283027Y-90658404D01*
X92278599Y-90661505D01*
X92274775Y-90665328D01*
X92274769Y-90665334D01*
X92115334Y-90824769D01*
X92115328Y-90824775D01*
X92111505Y-90828599D01*
X92108402Y-90833029D01*
X92108399Y-90833034D01*
X91981575Y-91014159D01*
X91937257Y-91053025D01*
X91880000Y-91067036D01*
X91822743Y-91053025D01*
X91778425Y-91014159D01*
X91705670Y-90910254D01*
X91648495Y-90828599D01*
X91481401Y-90661505D01*
X91476968Y-90658401D01*
X91476966Y-90658399D01*
X91413376Y-90613873D01*
X91374511Y-90569555D01*
X91360500Y-90512298D01*
X91360500Y-86809321D01*
X91377113Y-86747321D01*
X91437179Y-86643284D01*
X91495674Y-86463256D01*
X91515460Y-86275000D01*
X91504915Y-86174667D01*
X91496353Y-86093204D01*
X91496352Y-86093203D01*
X91495674Y-86086744D01*
X91437179Y-85906716D01*
X91342533Y-85742784D01*
X91249263Y-85639198D01*
X91220220Y-85606942D01*
X91220219Y-85606941D01*
X91215871Y-85602112D01*
X91210612Y-85598291D01*
X91210611Y-85598290D01*
X91067988Y-85494669D01*
X91067987Y-85494668D01*
X91062730Y-85490849D01*
X91056792Y-85488205D01*
X91032863Y-85477551D01*
X94067688Y-85477551D01*
X94068056Y-85488780D01*
X94120168Y-85683263D01*
X94123856Y-85693397D01*
X94219113Y-85897676D01*
X94224501Y-85907008D01*
X94353784Y-86091643D01*
X94360721Y-86099909D01*
X94520090Y-86259278D01*
X94528356Y-86266215D01*
X94712991Y-86395498D01*
X94722323Y-86400886D01*
X94926602Y-86496143D01*
X94936736Y-86499831D01*
X95131219Y-86551943D01*
X95142448Y-86552311D01*
X95145000Y-86541369D01*
X95645000Y-86541369D01*
X95647551Y-86552311D01*
X95658780Y-86551943D01*
X95853263Y-86499831D01*
X95863397Y-86496143D01*
X96067676Y-86400886D01*
X96077008Y-86395498D01*
X96261643Y-86266215D01*
X96269909Y-86259278D01*
X96429278Y-86099909D01*
X96436215Y-86091643D01*
X96563425Y-85909969D01*
X96607743Y-85871104D01*
X96665000Y-85857093D01*
X96722257Y-85871104D01*
X96766575Y-85909969D01*
X96893784Y-86091643D01*
X96900721Y-86099909D01*
X97060090Y-86259278D01*
X97068356Y-86266215D01*
X97252991Y-86395498D01*
X97262323Y-86400886D01*
X97466602Y-86496143D01*
X97476736Y-86499831D01*
X97671219Y-86551943D01*
X97682448Y-86552311D01*
X97685000Y-86541369D01*
X98185000Y-86541369D01*
X98187551Y-86552311D01*
X98198780Y-86551943D01*
X98393263Y-86499831D01*
X98403397Y-86496143D01*
X98607676Y-86400886D01*
X98617008Y-86395498D01*
X98801643Y-86266215D01*
X98809902Y-86259284D01*
X98928521Y-86140665D01*
X98981268Y-86109369D01*
X99042561Y-86107180D01*
X99097406Y-86134633D01*
X99132385Y-86185012D01*
X99178548Y-86308779D01*
X99186962Y-86324189D01*
X99262498Y-86425092D01*
X99274907Y-86437501D01*
X99375810Y-86513037D01*
X99391222Y-86521452D01*
X99510358Y-86565888D01*
X99525332Y-86569426D01*
X99573885Y-86574646D01*
X99580482Y-86575000D01*
X100208674Y-86575000D01*
X100221549Y-86571549D01*
X100225000Y-86558674D01*
X100725000Y-86558674D01*
X100728450Y-86571549D01*
X100741326Y-86575000D01*
X101369518Y-86575000D01*
X101376114Y-86574646D01*
X101424667Y-86569426D01*
X101439641Y-86565888D01*
X101558777Y-86521452D01*
X101574189Y-86513037D01*
X101675092Y-86437501D01*
X101687501Y-86425092D01*
X101763037Y-86324189D01*
X101771452Y-86308777D01*
X101815888Y-86189641D01*
X101819426Y-86174667D01*
X101824646Y-86126114D01*
X101825000Y-86119518D01*
X101825000Y-85491326D01*
X101821549Y-85478450D01*
X101808674Y-85475000D01*
X100741326Y-85475000D01*
X100728450Y-85478450D01*
X100725000Y-85491326D01*
X100725000Y-86558674D01*
X100225000Y-86558674D01*
X100225000Y-85491326D01*
X100221549Y-85478450D01*
X100208674Y-85475000D01*
X98201326Y-85475000D01*
X98188450Y-85478450D01*
X98185000Y-85491326D01*
X98185000Y-86541369D01*
X97685000Y-86541369D01*
X97685000Y-85491326D01*
X97681549Y-85478450D01*
X97668674Y-85475000D01*
X95661326Y-85475000D01*
X95648450Y-85478450D01*
X95645000Y-85491326D01*
X95645000Y-86541369D01*
X95145000Y-86541369D01*
X95145000Y-85491326D01*
X95141549Y-85478450D01*
X95128674Y-85475000D01*
X94078631Y-85475000D01*
X94067688Y-85477551D01*
X91032863Y-85477551D01*
X90895745Y-85416501D01*
X90895740Y-85416499D01*
X90889803Y-85413856D01*
X90883444Y-85412504D01*
X90883440Y-85412503D01*
X90711008Y-85375852D01*
X90711005Y-85375851D01*
X90704646Y-85374500D01*
X90515354Y-85374500D01*
X90508995Y-85375851D01*
X90508991Y-85375852D01*
X90336559Y-85412503D01*
X90336552Y-85412505D01*
X90330197Y-85413856D01*
X90324262Y-85416498D01*
X90324254Y-85416501D01*
X90163207Y-85488205D01*
X90163202Y-85488207D01*
X90157270Y-85490849D01*
X90152016Y-85494665D01*
X90152011Y-85494669D01*
X90009388Y-85598290D01*
X90009381Y-85598295D01*
X90004129Y-85602112D01*
X89999784Y-85606937D01*
X89999779Y-85606942D01*
X89881813Y-85737956D01*
X89881808Y-85737962D01*
X89877467Y-85742784D01*
X89874222Y-85748404D01*
X89874218Y-85748410D01*
X89786069Y-85901089D01*
X89786066Y-85901094D01*
X89782821Y-85906716D01*
X89780815Y-85912888D01*
X89780813Y-85912894D01*
X89726333Y-86080564D01*
X89726331Y-86080573D01*
X89724326Y-86086744D01*
X89723648Y-86093194D01*
X89723646Y-86093204D01*
X89708861Y-86233883D01*
X89704540Y-86275000D01*
X89705219Y-86281460D01*
X89723646Y-86456795D01*
X89723647Y-86456803D01*
X89724326Y-86463256D01*
X89726331Y-86469428D01*
X89726333Y-86469435D01*
X89780212Y-86635254D01*
X89782821Y-86643284D01*
X89823496Y-86713736D01*
X89842887Y-86747321D01*
X89859500Y-86809321D01*
X89859500Y-90512300D01*
X89845489Y-90569557D01*
X89806624Y-90613873D01*
X89798362Y-90619659D01*
X89743033Y-90658399D01*
X89743023Y-90658406D01*
X89738599Y-90661505D01*
X89734775Y-90665328D01*
X89734769Y-90665334D01*
X89575334Y-90824769D01*
X89575328Y-90824775D01*
X89571505Y-90828599D01*
X89568402Y-90833029D01*
X89568399Y-90833034D01*
X89441575Y-91014159D01*
X89397257Y-91053025D01*
X89340000Y-91067036D01*
X89282743Y-91053025D01*
X89238425Y-91014159D01*
X89165670Y-90910254D01*
X89108495Y-90828599D01*
X88941401Y-90661505D01*
X88936968Y-90658401D01*
X88936966Y-90658399D01*
X88873376Y-90613873D01*
X88834511Y-90569555D01*
X88820500Y-90512298D01*
X88820500Y-86809321D01*
X88837113Y-86747321D01*
X88897179Y-86643284D01*
X88955674Y-86463256D01*
X88975460Y-86275000D01*
X88964915Y-86174667D01*
X88956353Y-86093204D01*
X88956352Y-86093203D01*
X88955674Y-86086744D01*
X88897179Y-85906716D01*
X88802533Y-85742784D01*
X88709263Y-85639198D01*
X88680220Y-85606942D01*
X88680219Y-85606941D01*
X88675871Y-85602112D01*
X88670612Y-85598291D01*
X88670611Y-85598290D01*
X88527988Y-85494669D01*
X88527987Y-85494668D01*
X88522730Y-85490849D01*
X88516792Y-85488205D01*
X88355745Y-85416501D01*
X88355740Y-85416499D01*
X88349803Y-85413856D01*
X88343444Y-85412504D01*
X88343440Y-85412503D01*
X88171008Y-85375852D01*
X88171005Y-85375851D01*
X88164646Y-85374500D01*
X87975354Y-85374500D01*
X87968995Y-85375851D01*
X87968991Y-85375852D01*
X87796559Y-85412503D01*
X87796552Y-85412505D01*
X87790197Y-85413856D01*
X87784262Y-85416498D01*
X87784254Y-85416501D01*
X87623207Y-85488205D01*
X87623202Y-85488207D01*
X87617270Y-85490849D01*
X87612016Y-85494665D01*
X87612011Y-85494669D01*
X87469388Y-85598291D01*
X87464129Y-85602112D01*
X87459782Y-85606938D01*
X87459776Y-85606945D01*
X87440890Y-85627919D01*
X87382919Y-85664141D01*
X87314562Y-85664139D01*
X87266831Y-85634312D01*
X87265050Y-85636291D01*
X87260219Y-85631941D01*
X87255871Y-85627112D01*
X87250613Y-85623292D01*
X87250611Y-85623290D01*
X87107988Y-85519669D01*
X87107987Y-85519668D01*
X87102730Y-85515849D01*
X87096792Y-85513205D01*
X86935745Y-85441501D01*
X86935740Y-85441499D01*
X86929803Y-85438856D01*
X86923444Y-85437504D01*
X86923440Y-85437503D01*
X86751008Y-85400852D01*
X86751005Y-85400851D01*
X86744646Y-85399500D01*
X86555354Y-85399500D01*
X86548995Y-85400851D01*
X86548991Y-85400852D01*
X86376559Y-85437503D01*
X86376552Y-85437505D01*
X86370197Y-85438856D01*
X86364262Y-85441498D01*
X86364254Y-85441501D01*
X86203207Y-85513205D01*
X86203202Y-85513207D01*
X86197270Y-85515849D01*
X86192020Y-85519663D01*
X86192017Y-85519665D01*
X86051735Y-85621586D01*
X85998247Y-85643740D01*
X85940532Y-85639198D01*
X85891169Y-85608948D01*
X85860919Y-85559586D01*
X85859016Y-85553730D01*
X85839679Y-85494216D01*
X85745033Y-85330284D01*
X85692709Y-85272173D01*
X85622720Y-85194442D01*
X85622719Y-85194441D01*
X85618371Y-85189612D01*
X85613113Y-85185792D01*
X85613111Y-85185790D01*
X85470488Y-85082169D01*
X85470487Y-85082168D01*
X85465230Y-85078349D01*
X85415625Y-85056263D01*
X85296395Y-85003177D01*
X85256886Y-84972448D01*
X94067688Y-84972448D01*
X94078631Y-84975000D01*
X95128674Y-84975000D01*
X95141549Y-84971549D01*
X95145000Y-84958674D01*
X95645000Y-84958674D01*
X95648450Y-84971549D01*
X95661326Y-84975000D01*
X97668674Y-84975000D01*
X97681549Y-84971549D01*
X97685000Y-84958674D01*
X98185000Y-84958674D01*
X98188450Y-84971549D01*
X98201326Y-84975000D01*
X100208674Y-84975000D01*
X100221549Y-84971549D01*
X100225000Y-84958674D01*
X100725000Y-84958674D01*
X100728450Y-84971549D01*
X100741326Y-84975000D01*
X101808674Y-84975000D01*
X101821549Y-84971549D01*
X101825000Y-84958674D01*
X101825000Y-84330482D01*
X101824646Y-84323885D01*
X101819426Y-84275332D01*
X101815888Y-84260358D01*
X101771452Y-84141222D01*
X101763037Y-84125810D01*
X101687501Y-84024907D01*
X101675092Y-84012498D01*
X101574189Y-83936962D01*
X101558777Y-83928547D01*
X101439641Y-83884111D01*
X101424667Y-83880573D01*
X101376114Y-83875353D01*
X101369518Y-83875000D01*
X100741326Y-83875000D01*
X100728450Y-83878450D01*
X100725000Y-83891326D01*
X100725000Y-84958674D01*
X100225000Y-84958674D01*
X100225000Y-83891326D01*
X100221549Y-83878450D01*
X100208674Y-83875000D01*
X99580482Y-83875000D01*
X99573885Y-83875353D01*
X99525332Y-83880573D01*
X99510358Y-83884111D01*
X99391222Y-83928547D01*
X99375810Y-83936962D01*
X99274907Y-84012498D01*
X99262498Y-84024907D01*
X99186962Y-84125810D01*
X99178548Y-84141220D01*
X99132385Y-84264987D01*
X99097405Y-84315366D01*
X99042561Y-84342819D01*
X98981268Y-84340630D01*
X98928522Y-84309334D01*
X98809909Y-84190721D01*
X98801643Y-84183784D01*
X98617008Y-84054501D01*
X98607676Y-84049113D01*
X98403397Y-83953856D01*
X98393263Y-83950168D01*
X98198780Y-83898056D01*
X98187551Y-83897688D01*
X98185000Y-83908631D01*
X98185000Y-84958674D01*
X97685000Y-84958674D01*
X97685000Y-83908631D01*
X97682448Y-83897688D01*
X97671219Y-83898056D01*
X97476736Y-83950168D01*
X97466602Y-83953856D01*
X97262332Y-84049110D01*
X97252982Y-84054508D01*
X97068357Y-84183784D01*
X97060092Y-84190719D01*
X96900719Y-84350092D01*
X96893788Y-84358352D01*
X96766575Y-84540032D01*
X96722257Y-84578897D01*
X96665000Y-84592908D01*
X96607743Y-84578897D01*
X96563425Y-84540032D01*
X96436211Y-84358352D01*
X96429280Y-84350092D01*
X96269909Y-84190721D01*
X96261643Y-84183784D01*
X96077008Y-84054501D01*
X96067676Y-84049113D01*
X95863397Y-83953856D01*
X95853263Y-83950168D01*
X95658780Y-83898056D01*
X95647551Y-83897688D01*
X95645000Y-83908631D01*
X95645000Y-84958674D01*
X95145000Y-84958674D01*
X95145000Y-83908631D01*
X95142448Y-83897688D01*
X95131219Y-83898056D01*
X94936736Y-83950168D01*
X94926602Y-83953856D01*
X94722332Y-84049110D01*
X94712982Y-84054508D01*
X94528357Y-84183784D01*
X94520092Y-84190719D01*
X94360719Y-84350092D01*
X94353784Y-84358357D01*
X94224508Y-84542982D01*
X94219110Y-84552332D01*
X94123856Y-84756602D01*
X94120168Y-84766736D01*
X94068056Y-84961219D01*
X94067688Y-84972448D01*
X85256886Y-84972448D01*
X85249451Y-84966665D01*
X85224907Y-84912495D01*
X85228409Y-84853127D01*
X85259148Y-84802219D01*
X88436367Y-81625000D01*
X94039341Y-81625000D01*
X94059937Y-81860408D01*
X94061336Y-81865630D01*
X94061337Y-81865634D01*
X94119694Y-82083430D01*
X94119697Y-82083438D01*
X94121097Y-82088663D01*
X94123385Y-82093570D01*
X94123386Y-82093572D01*
X94218678Y-82297927D01*
X94218681Y-82297933D01*
X94220965Y-82302830D01*
X94224064Y-82307257D01*
X94224066Y-82307259D01*
X94353399Y-82491966D01*
X94353402Y-82491970D01*
X94356505Y-82496401D01*
X94523599Y-82663495D01*
X94528031Y-82666598D01*
X94528033Y-82666600D01*
X94615342Y-82727734D01*
X94717170Y-82799035D01*
X94931337Y-82898903D01*
X95159592Y-82960063D01*
X95395000Y-82980659D01*
X95630408Y-82960063D01*
X95858663Y-82898903D01*
X96072830Y-82799035D01*
X96266401Y-82663495D01*
X96433495Y-82496401D01*
X96563424Y-82310842D01*
X96607743Y-82271976D01*
X96665000Y-82257965D01*
X96722257Y-82271976D01*
X96766575Y-82310842D01*
X96893395Y-82491961D01*
X96893401Y-82491968D01*
X96896505Y-82496401D01*
X97063599Y-82663495D01*
X97068031Y-82666598D01*
X97068033Y-82666600D01*
X97155342Y-82727734D01*
X97257170Y-82799035D01*
X97471337Y-82898903D01*
X97699592Y-82960063D01*
X97935000Y-82980659D01*
X98170408Y-82960063D01*
X98398663Y-82898903D01*
X98612830Y-82799035D01*
X98806401Y-82663495D01*
X98928329Y-82541566D01*
X98981072Y-82510273D01*
X99042365Y-82508084D01*
X99097210Y-82535537D01*
X99132189Y-82585916D01*
X99181204Y-82717331D01*
X99186518Y-82724430D01*
X99186519Y-82724431D01*
X99242367Y-82799035D01*
X99267454Y-82832546D01*
X99382669Y-82918796D01*
X99517517Y-82969091D01*
X99577127Y-82975500D01*
X101372872Y-82975499D01*
X101432483Y-82969091D01*
X101567331Y-82918796D01*
X101682546Y-82832546D01*
X101768796Y-82717331D01*
X101819091Y-82582483D01*
X101825500Y-82522873D01*
X101825499Y-80727128D01*
X101819091Y-80667517D01*
X101768796Y-80532669D01*
X101682546Y-80417454D01*
X101592030Y-80349694D01*
X101574431Y-80336519D01*
X101574430Y-80336518D01*
X101567331Y-80331204D01*
X101460442Y-80291337D01*
X101439752Y-80283620D01*
X101439750Y-80283619D01*
X101432483Y-80280909D01*
X101424770Y-80280079D01*
X101424767Y-80280079D01*
X101376180Y-80274855D01*
X101376169Y-80274854D01*
X101372873Y-80274500D01*
X101369550Y-80274500D01*
X99580439Y-80274500D01*
X99580420Y-80274500D01*
X99577128Y-80274501D01*
X99573850Y-80274853D01*
X99573838Y-80274854D01*
X99525231Y-80280079D01*
X99525225Y-80280080D01*
X99517517Y-80280909D01*
X99510252Y-80283618D01*
X99510246Y-80283620D01*
X99390980Y-80328104D01*
X99390978Y-80328104D01*
X99382669Y-80331204D01*
X99375572Y-80336516D01*
X99375568Y-80336519D01*
X99274550Y-80412141D01*
X99274546Y-80412144D01*
X99267454Y-80417454D01*
X99262144Y-80424546D01*
X99262141Y-80424550D01*
X99186519Y-80525568D01*
X99186516Y-80525572D01*
X99181204Y-80532669D01*
X99178104Y-80540978D01*
X99178105Y-80540978D01*
X99132189Y-80664083D01*
X99097210Y-80714462D01*
X99042365Y-80741915D01*
X98981072Y-80739726D01*
X98928326Y-80708430D01*
X98810232Y-80590336D01*
X98810230Y-80590334D01*
X98806401Y-80586505D01*
X98801970Y-80583402D01*
X98801966Y-80583399D01*
X98617259Y-80454066D01*
X98617257Y-80454064D01*
X98612830Y-80450965D01*
X98607933Y-80448681D01*
X98607927Y-80448678D01*
X98403572Y-80353386D01*
X98403570Y-80353385D01*
X98398663Y-80351097D01*
X98393438Y-80349697D01*
X98393430Y-80349694D01*
X98175634Y-80291337D01*
X98175630Y-80291336D01*
X98170408Y-80289937D01*
X98165020Y-80289465D01*
X98165017Y-80289465D01*
X97940395Y-80269813D01*
X97935000Y-80269341D01*
X97929605Y-80269813D01*
X97704982Y-80289465D01*
X97704977Y-80289465D01*
X97699592Y-80289937D01*
X97694371Y-80291335D01*
X97694365Y-80291337D01*
X97476569Y-80349694D01*
X97476557Y-80349698D01*
X97471337Y-80351097D01*
X97466432Y-80353383D01*
X97466427Y-80353386D01*
X97262081Y-80448675D01*
X97262077Y-80448677D01*
X97257171Y-80450965D01*
X97252738Y-80454068D01*
X97252731Y-80454073D01*
X97068034Y-80583399D01*
X97068029Y-80583402D01*
X97063599Y-80586505D01*
X97059775Y-80590328D01*
X97059769Y-80590334D01*
X96900334Y-80749769D01*
X96900328Y-80749775D01*
X96896505Y-80753599D01*
X96893402Y-80758029D01*
X96893399Y-80758034D01*
X96766575Y-80939159D01*
X96722257Y-80978025D01*
X96665000Y-80992036D01*
X96607743Y-80978025D01*
X96563425Y-80939159D01*
X96469486Y-80805000D01*
X96433495Y-80753599D01*
X96266401Y-80586505D01*
X96261970Y-80583402D01*
X96261966Y-80583399D01*
X96077259Y-80454066D01*
X96077257Y-80454064D01*
X96072830Y-80450965D01*
X96067933Y-80448681D01*
X96067927Y-80448678D01*
X95863572Y-80353386D01*
X95863570Y-80353385D01*
X95858663Y-80351097D01*
X95853438Y-80349697D01*
X95853430Y-80349694D01*
X95635634Y-80291337D01*
X95635630Y-80291336D01*
X95630408Y-80289937D01*
X95625020Y-80289465D01*
X95625017Y-80289465D01*
X95400395Y-80269813D01*
X95395000Y-80269341D01*
X95389605Y-80269813D01*
X95164982Y-80289465D01*
X95164977Y-80289465D01*
X95159592Y-80289937D01*
X95154371Y-80291335D01*
X95154365Y-80291337D01*
X94936569Y-80349694D01*
X94936557Y-80349698D01*
X94931337Y-80351097D01*
X94926432Y-80353383D01*
X94926427Y-80353386D01*
X94722081Y-80448675D01*
X94722077Y-80448677D01*
X94717171Y-80450965D01*
X94712738Y-80454068D01*
X94712731Y-80454073D01*
X94528034Y-80583399D01*
X94528029Y-80583402D01*
X94523599Y-80586505D01*
X94519775Y-80590328D01*
X94519769Y-80590334D01*
X94360334Y-80749769D01*
X94360328Y-80749775D01*
X94356505Y-80753599D01*
X94353402Y-80758029D01*
X94353399Y-80758034D01*
X94224073Y-80942731D01*
X94224068Y-80942738D01*
X94220965Y-80947171D01*
X94218677Y-80952077D01*
X94218675Y-80952081D01*
X94123386Y-81156427D01*
X94123383Y-81156432D01*
X94121097Y-81161337D01*
X94119698Y-81166557D01*
X94119694Y-81166569D01*
X94061337Y-81384365D01*
X94061335Y-81384371D01*
X94059937Y-81389592D01*
X94059465Y-81394977D01*
X94059465Y-81394982D01*
X94039813Y-81619605D01*
X94039341Y-81625000D01*
X88436367Y-81625000D01*
X99939548Y-70121818D01*
X99979776Y-70094939D01*
X100027229Y-70085500D01*
X101637298Y-70085500D01*
X101694555Y-70099511D01*
X101738873Y-70138376D01*
X101783399Y-70201966D01*
X101783402Y-70201970D01*
X101786505Y-70206401D01*
X101790336Y-70210232D01*
X101908818Y-70328714D01*
X101940114Y-70381460D01*
X101942303Y-70442753D01*
X101914850Y-70497597D01*
X101864471Y-70532576D01*
X101741226Y-70578544D01*
X101725810Y-70586962D01*
X101624907Y-70662498D01*
X101612498Y-70674907D01*
X101536962Y-70775810D01*
X101528547Y-70791222D01*
X101484111Y-70910358D01*
X101480573Y-70925332D01*
X101475353Y-70973885D01*
X101475000Y-70980482D01*
X101475000Y-71608674D01*
X101478450Y-71621549D01*
X101491326Y-71625000D01*
X104158674Y-71625000D01*
X104171549Y-71621549D01*
X104175000Y-71608674D01*
X104175000Y-70980482D01*
X104174646Y-70973885D01*
X104169426Y-70925332D01*
X104165888Y-70910358D01*
X104121452Y-70791222D01*
X104113037Y-70775810D01*
X104037501Y-70674907D01*
X104025092Y-70662498D01*
X103924189Y-70586962D01*
X103908779Y-70578548D01*
X103785528Y-70532577D01*
X103735149Y-70497597D01*
X103707696Y-70442753D01*
X103709885Y-70381460D01*
X103741178Y-70328717D01*
X103863495Y-70206401D01*
X103999035Y-70012830D01*
X104098903Y-69798663D01*
X104160063Y-69570408D01*
X104176971Y-69377142D01*
X104191964Y-69334999D01*
X104176972Y-69292858D01*
X104168868Y-69200235D01*
X104160063Y-69099592D01*
X104098903Y-68871337D01*
X103999035Y-68657171D01*
X103863495Y-68463599D01*
X103696401Y-68296505D01*
X103691968Y-68293401D01*
X103691961Y-68293395D01*
X103510842Y-68166575D01*
X103471976Y-68122257D01*
X103457965Y-68065000D01*
X103471976Y-68007743D01*
X103510842Y-67963425D01*
X103691961Y-67836604D01*
X103691961Y-67836603D01*
X103696401Y-67833495D01*
X103863495Y-67666401D01*
X103999035Y-67472830D01*
X104098903Y-67258663D01*
X104160063Y-67030408D01*
X104176971Y-66837142D01*
X104191964Y-66795000D01*
X104176972Y-66752858D01*
X104167652Y-66646337D01*
X104160063Y-66559592D01*
X104107030Y-66361669D01*
X104100305Y-66336569D01*
X104100304Y-66336567D01*
X104098903Y-66331337D01*
X103999035Y-66117171D01*
X103863495Y-65923599D01*
X103696401Y-65756505D01*
X103691968Y-65753401D01*
X103691961Y-65753395D01*
X103510842Y-65626575D01*
X103471976Y-65582257D01*
X103457965Y-65525000D01*
X103471976Y-65467743D01*
X103510842Y-65423425D01*
X103691961Y-65296604D01*
X103691961Y-65296603D01*
X103696401Y-65293495D01*
X103863495Y-65126401D01*
X103999035Y-64932830D01*
X104098903Y-64718663D01*
X104160063Y-64490408D01*
X104176971Y-64297142D01*
X104191964Y-64255000D01*
X104176972Y-64212858D01*
X104174936Y-64189585D01*
X104160063Y-64019592D01*
X104109750Y-63831819D01*
X104100305Y-63796569D01*
X104100304Y-63796567D01*
X104098903Y-63791337D01*
X103999035Y-63577171D01*
X103863495Y-63383599D01*
X103696401Y-63216505D01*
X103691970Y-63213402D01*
X103691966Y-63213399D01*
X103510841Y-63086574D01*
X103471976Y-63042256D01*
X103457965Y-62984999D01*
X103471976Y-62927742D01*
X103510839Y-62883426D01*
X103696401Y-62753495D01*
X103863495Y-62586401D01*
X103999035Y-62392830D01*
X104098903Y-62178663D01*
X104160063Y-61950408D01*
X104176971Y-61757142D01*
X104191964Y-61715000D01*
X104176972Y-61672858D01*
X104172819Y-61625390D01*
X104160063Y-61479592D01*
X104109026Y-61289117D01*
X104100305Y-61256569D01*
X104100304Y-61256567D01*
X104098903Y-61251337D01*
X103999035Y-61037171D01*
X103863495Y-60843599D01*
X103696401Y-60676505D01*
X103691968Y-60673401D01*
X103691961Y-60673395D01*
X103510842Y-60546575D01*
X103471976Y-60502257D01*
X103457965Y-60445000D01*
X103471976Y-60387743D01*
X103510842Y-60343425D01*
X103691961Y-60216604D01*
X103691961Y-60216603D01*
X103696401Y-60213495D01*
X103863495Y-60046401D01*
X103999035Y-59852830D01*
X104098903Y-59638663D01*
X104160063Y-59410408D01*
X104176971Y-59217142D01*
X104191964Y-59174999D01*
X104176972Y-59132858D01*
X104174015Y-59099057D01*
X104160063Y-58939592D01*
X104098903Y-58711337D01*
X103999035Y-58497171D01*
X103863495Y-58303599D01*
X103696401Y-58136505D01*
X103691968Y-58133401D01*
X103691961Y-58133395D01*
X103510842Y-58006575D01*
X103471976Y-57962257D01*
X103457965Y-57905000D01*
X103471976Y-57847743D01*
X103510842Y-57803425D01*
X103691961Y-57676604D01*
X103691961Y-57676603D01*
X103696401Y-57673495D01*
X103863495Y-57506401D01*
X103999035Y-57312830D01*
X104098903Y-57098663D01*
X104160063Y-56870408D01*
X104180659Y-56635000D01*
X104160063Y-56399592D01*
X104098903Y-56171337D01*
X103999035Y-55957171D01*
X103863495Y-55763599D01*
X103696401Y-55596505D01*
X103691970Y-55593402D01*
X103691966Y-55593399D01*
X103510405Y-55466269D01*
X103471540Y-55421951D01*
X103457529Y-55364694D01*
X103471540Y-55307437D01*
X103510406Y-55263119D01*
X103691638Y-55136219D01*
X103699909Y-55129278D01*
X103859278Y-54969909D01*
X103866215Y-54961643D01*
X103995498Y-54777008D01*
X104000886Y-54767676D01*
X104096143Y-54563397D01*
X104099831Y-54553263D01*
X104151943Y-54358780D01*
X104152311Y-54347551D01*
X104141369Y-54345000D01*
X101508631Y-54345000D01*
X101497688Y-54347551D01*
X101498056Y-54358780D01*
X101550168Y-54553263D01*
X101553856Y-54563397D01*
X101649113Y-54767676D01*
X101654501Y-54777008D01*
X101783784Y-54961643D01*
X101790721Y-54969909D01*
X101950090Y-55129278D01*
X101958356Y-55136215D01*
X102139595Y-55263120D01*
X102178460Y-55307438D01*
X102192471Y-55364695D01*
X102178460Y-55421952D01*
X102139594Y-55466270D01*
X101958034Y-55593399D01*
X101958029Y-55593402D01*
X101953599Y-55596505D01*
X101949775Y-55600328D01*
X101949769Y-55600334D01*
X101790334Y-55759769D01*
X101790328Y-55759775D01*
X101786505Y-55763599D01*
X101783406Y-55768023D01*
X101783399Y-55768033D01*
X101738875Y-55831623D01*
X101694557Y-55870489D01*
X101637300Y-55884500D01*
X97003707Y-55884500D01*
X96985736Y-55883191D01*
X96969126Y-55880758D01*
X96969124Y-55880757D01*
X96961977Y-55879711D01*
X96954785Y-55880340D01*
X96954778Y-55880340D01*
X96912634Y-55884028D01*
X96901827Y-55884500D01*
X96896291Y-55884500D01*
X96892717Y-55884917D01*
X96892711Y-55884918D01*
X96865487Y-55888099D01*
X96861906Y-55888465D01*
X96794397Y-55894372D01*
X96794392Y-55894372D01*
X96787203Y-55895002D01*
X96780351Y-55897271D01*
X96776951Y-55897974D01*
X96776619Y-55898027D01*
X96776304Y-55898117D01*
X96772913Y-55898920D01*
X96765745Y-55899759D01*
X96695253Y-55925414D01*
X96691867Y-55926592D01*
X96627512Y-55947917D01*
X96627508Y-55947918D01*
X96620666Y-55950186D01*
X96614529Y-55953969D01*
X96611355Y-55955450D01*
X96611063Y-55955570D01*
X96610780Y-55955729D01*
X96607663Y-55957294D01*
X96600883Y-55959763D01*
X96594855Y-55963727D01*
X96594852Y-55963729D01*
X96538228Y-56000970D01*
X96535190Y-56002905D01*
X96477487Y-56038498D01*
X96477482Y-56038501D01*
X96471344Y-56042288D01*
X96466246Y-56047385D01*
X96463503Y-56049554D01*
X96463247Y-56049739D01*
X96462997Y-56049968D01*
X96460330Y-56052205D01*
X96454304Y-56056170D01*
X96427279Y-56084814D01*
X96402849Y-56110708D01*
X96400337Y-56113293D01*
X90914358Y-61599272D01*
X90900730Y-61611050D01*
X90887263Y-61621076D01*
X90887257Y-61621081D01*
X90881470Y-61625390D01*
X90876832Y-61630916D01*
X90876830Y-61630919D01*
X90849633Y-61663330D01*
X90842350Y-61671280D01*
X90840969Y-61672661D01*
X90840955Y-61672676D01*
X90838409Y-61675223D01*
X90836173Y-61678050D01*
X90836171Y-61678053D01*
X90819176Y-61699546D01*
X90816902Y-61702337D01*
X90773339Y-61754254D01*
X90773335Y-61754258D01*
X90768698Y-61759786D01*
X90765460Y-61766230D01*
X90763537Y-61769155D01*
X90763352Y-61769411D01*
X90763192Y-61769698D01*
X90761363Y-61772663D01*
X90756889Y-61778323D01*
X90753839Y-61784862D01*
X90753838Y-61784865D01*
X90725192Y-61846294D01*
X90723623Y-61849536D01*
X90693196Y-61910122D01*
X90693194Y-61910127D01*
X90689960Y-61916567D01*
X90688296Y-61923584D01*
X90687109Y-61926847D01*
X90686977Y-61927163D01*
X90686888Y-61927480D01*
X90685791Y-61930787D01*
X90682743Y-61937327D01*
X90681284Y-61944390D01*
X90681283Y-61944395D01*
X90667574Y-62010787D01*
X90666794Y-62014306D01*
X90651164Y-62080255D01*
X90651163Y-62080260D01*
X90649500Y-62087279D01*
X90649500Y-62094491D01*
X90649097Y-62097939D01*
X90649043Y-62098273D01*
X90649028Y-62098626D01*
X90648726Y-62102070D01*
X90647266Y-62109144D01*
X90647476Y-62116360D01*
X90647476Y-62116361D01*
X90649448Y-62184130D01*
X90649500Y-62187737D01*
X90649500Y-64329103D01*
X90633391Y-64390222D01*
X90589249Y-64435461D01*
X90528544Y-64453066D01*
X90467048Y-64438462D01*
X90434727Y-64421186D01*
X90416181Y-64415560D01*
X90251954Y-64365742D01*
X90251953Y-64365741D01*
X90246132Y-64363976D01*
X90240081Y-64363380D01*
X90240076Y-64363379D01*
X90156298Y-64355127D01*
X90115436Y-64343818D01*
X90080773Y-64319405D01*
X89186819Y-63425451D01*
X89159939Y-63385223D01*
X89150500Y-63337770D01*
X89150500Y-62038707D01*
X89151809Y-62020736D01*
X89152297Y-62017396D01*
X89155289Y-61996977D01*
X89150972Y-61947631D01*
X89150500Y-61936824D01*
X89150500Y-61934901D01*
X89150500Y-61931291D01*
X89146903Y-61900520D01*
X89146536Y-61896929D01*
X89142390Y-61849536D01*
X89139999Y-61822203D01*
X89137726Y-61815345D01*
X89137027Y-61811957D01*
X89136972Y-61811619D01*
X89136878Y-61811286D01*
X89136079Y-61807915D01*
X89135241Y-61800745D01*
X89123926Y-61769658D01*
X89109592Y-61730274D01*
X89108408Y-61726868D01*
X89092232Y-61678053D01*
X89084814Y-61655666D01*
X89081023Y-61649520D01*
X89079559Y-61646379D01*
X89079430Y-61646069D01*
X89079261Y-61645765D01*
X89077709Y-61642675D01*
X89075237Y-61635883D01*
X89034019Y-61573215D01*
X89032087Y-61570181D01*
X89029716Y-61566337D01*
X88992712Y-61506344D01*
X88987604Y-61501236D01*
X88985459Y-61498523D01*
X88985257Y-61498244D01*
X88985022Y-61497987D01*
X88982796Y-61495334D01*
X88978830Y-61489304D01*
X88924290Y-61437848D01*
X88921703Y-61435335D01*
X81328816Y-53842448D01*
X101497688Y-53842448D01*
X101508631Y-53845000D01*
X102558674Y-53845000D01*
X102571549Y-53841549D01*
X102575000Y-53828674D01*
X103075000Y-53828674D01*
X103078450Y-53841549D01*
X103091326Y-53845000D01*
X104141369Y-53845000D01*
X104152311Y-53842448D01*
X104151943Y-53831219D01*
X104099831Y-53636736D01*
X104096143Y-53626602D01*
X104060422Y-53550000D01*
X105719564Y-53550000D01*
X105739287Y-53850920D01*
X105740077Y-53854891D01*
X105740078Y-53854899D01*
X105797327Y-54142707D01*
X105797329Y-54142714D01*
X105798120Y-54146691D01*
X105895055Y-54432252D01*
X105896850Y-54435893D01*
X105896851Y-54435894D01*
X106022952Y-54691603D01*
X106028434Y-54702718D01*
X106030685Y-54706087D01*
X106030688Y-54706092D01*
X106193715Y-54950079D01*
X106195975Y-54953461D01*
X106394811Y-55180189D01*
X106621539Y-55379025D01*
X106872282Y-55546566D01*
X107142748Y-55679945D01*
X107428309Y-55776880D01*
X107724080Y-55835713D01*
X108025000Y-55855436D01*
X108325920Y-55835713D01*
X108621691Y-55776880D01*
X108907252Y-55679945D01*
X109177718Y-55546566D01*
X109428461Y-55379025D01*
X109655189Y-55180189D01*
X109854025Y-54953461D01*
X110021566Y-54702718D01*
X110154945Y-54432252D01*
X110251880Y-54146691D01*
X110310713Y-53850920D01*
X110330436Y-53550000D01*
X110310713Y-53249080D01*
X110251880Y-52953309D01*
X110154945Y-52667748D01*
X110021566Y-52397282D01*
X109854025Y-52146539D01*
X109655189Y-51919811D01*
X109636374Y-51903311D01*
X109450367Y-51740186D01*
X109428461Y-51720975D01*
X109379823Y-51688476D01*
X109181092Y-51555688D01*
X109181087Y-51555685D01*
X109177718Y-51553434D01*
X109174082Y-51551641D01*
X109174077Y-51551638D01*
X108910894Y-51421851D01*
X108910893Y-51421850D01*
X108907252Y-51420055D01*
X108816830Y-51389361D01*
X108625535Y-51324425D01*
X108625536Y-51324425D01*
X108621691Y-51323120D01*
X108617714Y-51322329D01*
X108617707Y-51322327D01*
X108329899Y-51265078D01*
X108329891Y-51265077D01*
X108325920Y-51264287D01*
X108025000Y-51244564D01*
X108020957Y-51244829D01*
X107728122Y-51264022D01*
X107728120Y-51264022D01*
X107724080Y-51264287D01*
X107720110Y-51265076D01*
X107720100Y-51265078D01*
X107432292Y-51322327D01*
X107432281Y-51322329D01*
X107428309Y-51323120D01*
X107424466Y-51324424D01*
X107424464Y-51324425D01*
X107146594Y-51418749D01*
X107146587Y-51418751D01*
X107142748Y-51420055D01*
X107139111Y-51421848D01*
X107139105Y-51421851D01*
X106875922Y-51551638D01*
X106875910Y-51551644D01*
X106872282Y-51553434D01*
X106868919Y-51555681D01*
X106868907Y-51555688D01*
X106624920Y-51718715D01*
X106624911Y-51718721D01*
X106621539Y-51720975D01*
X106618488Y-51723650D01*
X106618481Y-51723656D01*
X106397859Y-51917137D01*
X106397851Y-51917144D01*
X106394811Y-51919811D01*
X106392144Y-51922851D01*
X106392137Y-51922859D01*
X106198656Y-52143481D01*
X106198650Y-52143488D01*
X106195975Y-52146539D01*
X106193721Y-52149911D01*
X106193715Y-52149920D01*
X106030688Y-52393907D01*
X106030681Y-52393919D01*
X106028434Y-52397282D01*
X106026644Y-52400910D01*
X106026638Y-52400922D01*
X105896851Y-52664105D01*
X105896848Y-52664111D01*
X105895055Y-52667748D01*
X105893751Y-52671587D01*
X105893749Y-52671594D01*
X105799425Y-52949464D01*
X105798120Y-52953309D01*
X105797329Y-52957281D01*
X105797327Y-52957292D01*
X105740078Y-53245100D01*
X105740076Y-53245110D01*
X105739287Y-53249080D01*
X105719564Y-53550000D01*
X104060422Y-53550000D01*
X104000889Y-53422332D01*
X103995491Y-53412982D01*
X103866215Y-53228357D01*
X103859280Y-53220092D01*
X103699909Y-53060721D01*
X103691643Y-53053784D01*
X103507008Y-52924501D01*
X103497676Y-52919113D01*
X103293397Y-52823856D01*
X103283263Y-52820168D01*
X103088780Y-52768056D01*
X103077551Y-52767688D01*
X103075000Y-52778631D01*
X103075000Y-53828674D01*
X102575000Y-53828674D01*
X102575000Y-52778631D01*
X102572448Y-52767688D01*
X102561219Y-52768056D01*
X102366736Y-52820168D01*
X102356602Y-52823856D01*
X102152332Y-52919110D01*
X102142982Y-52924508D01*
X101958357Y-53053784D01*
X101950092Y-53060719D01*
X101790719Y-53220092D01*
X101783784Y-53228357D01*
X101654508Y-53412982D01*
X101649110Y-53422332D01*
X101553856Y-53626602D01*
X101550168Y-53636736D01*
X101498056Y-53831219D01*
X101497688Y-53842448D01*
X81328816Y-53842448D01*
X78875729Y-51389361D01*
X78863947Y-51375727D01*
X78853925Y-51362265D01*
X78853921Y-51362261D01*
X78849610Y-51356470D01*
X78811667Y-51324631D01*
X78803691Y-51317323D01*
X78802329Y-51315961D01*
X78802329Y-51315960D01*
X78799777Y-51313409D01*
X78796953Y-51311176D01*
X78796944Y-51311168D01*
X78775445Y-51294170D01*
X78772674Y-51291913D01*
X78715214Y-51243698D01*
X78708760Y-51240456D01*
X78705859Y-51238548D01*
X78705588Y-51238352D01*
X78705292Y-51238187D01*
X78702339Y-51236366D01*
X78696677Y-51231889D01*
X78690134Y-51228838D01*
X78690131Y-51228836D01*
X78628692Y-51200186D01*
X78625446Y-51198615D01*
X78620207Y-51195984D01*
X78558433Y-51164960D01*
X78551409Y-51163295D01*
X78548151Y-51162109D01*
X78547832Y-51161977D01*
X78547504Y-51161884D01*
X78544218Y-51160795D01*
X78537673Y-51157743D01*
X78530604Y-51156283D01*
X78530600Y-51156282D01*
X78464212Y-51142574D01*
X78460691Y-51141794D01*
X78394741Y-51126163D01*
X78394734Y-51126162D01*
X78387721Y-51124500D01*
X78380510Y-51124500D01*
X78377061Y-51124097D01*
X78376727Y-51124043D01*
X78376374Y-51124028D01*
X78372929Y-51123726D01*
X78365856Y-51122266D01*
X78358638Y-51122476D01*
X78290870Y-51124448D01*
X78287263Y-51124500D01*
X72738707Y-51124500D01*
X72720736Y-51123191D01*
X72704126Y-51120758D01*
X72704124Y-51120757D01*
X72696977Y-51119711D01*
X72689785Y-51120340D01*
X72689778Y-51120340D01*
X72647634Y-51124028D01*
X72636827Y-51124500D01*
X72631291Y-51124500D01*
X72627730Y-51124916D01*
X72627715Y-51124917D01*
X72600484Y-51128100D01*
X72596900Y-51128466D01*
X72529395Y-51134372D01*
X72529389Y-51134373D01*
X72522202Y-51135002D01*
X72515351Y-51137271D01*
X72511949Y-51137974D01*
X72511619Y-51138027D01*
X72511300Y-51138118D01*
X72507912Y-51138920D01*
X72500745Y-51139759D01*
X72493968Y-51142225D01*
X72493957Y-51142228D01*
X72430270Y-51165407D01*
X72426869Y-51166589D01*
X72362516Y-51187914D01*
X72362503Y-51187920D01*
X72355665Y-51190186D01*
X72349531Y-51193968D01*
X72346356Y-51195449D01*
X72346064Y-51195569D01*
X72345772Y-51195733D01*
X72342662Y-51197294D01*
X72335883Y-51199763D01*
X72329852Y-51203729D01*
X72329853Y-51203729D01*
X72273236Y-51240965D01*
X72270199Y-51242900D01*
X72212486Y-51278499D01*
X72212477Y-51278505D01*
X72206344Y-51282289D01*
X72201245Y-51287386D01*
X72198506Y-51289553D01*
X72198237Y-51289747D01*
X72197994Y-51289970D01*
X72195326Y-51292208D01*
X72189304Y-51296170D01*
X72184361Y-51301408D01*
X72184354Y-51301415D01*
X72137816Y-51350742D01*
X72135304Y-51353327D01*
X71850451Y-51638181D01*
X71810223Y-51665061D01*
X71762770Y-51674500D01*
X70381718Y-51674500D01*
X70322076Y-51659214D01*
X70277138Y-51617126D01*
X70257984Y-51558611D01*
X70269335Y-51498096D01*
X70281739Y-51471496D01*
X70340635Y-51251692D01*
X70360468Y-51025000D01*
X70340635Y-50798308D01*
X70281739Y-50578504D01*
X70185568Y-50372266D01*
X70055047Y-50185861D01*
X69931367Y-50062180D01*
X69901117Y-50012818D01*
X69896575Y-49955102D01*
X69918730Y-49901615D01*
X69962753Y-49864015D01*
X70019048Y-49850500D01*
X111600500Y-49850500D01*
X111662500Y-49867113D01*
G37*
%TD.AperFunction*%
%TA.AperFunction,Conductor*%
G36*
X57987247Y-49864015D02*
G01*
X58031270Y-49901615D01*
X58053425Y-49955102D01*
X58048883Y-50012818D01*
X58018633Y-50062181D01*
X57898782Y-50182031D01*
X57898776Y-50182037D01*
X57894953Y-50185861D01*
X57891850Y-50190291D01*
X57891847Y-50190296D01*
X57767540Y-50367826D01*
X57767535Y-50367833D01*
X57764432Y-50372266D01*
X57762144Y-50377172D01*
X57762142Y-50377176D01*
X57670550Y-50573594D01*
X57670547Y-50573599D01*
X57668261Y-50578504D01*
X57666862Y-50583724D01*
X57666858Y-50583736D01*
X57610764Y-50793083D01*
X57610762Y-50793094D01*
X57609365Y-50798308D01*
X57589532Y-51025000D01*
X57590004Y-51030395D01*
X57608764Y-51244829D01*
X57609365Y-51251692D01*
X57610762Y-51256907D01*
X57610764Y-51256916D01*
X57666858Y-51466263D01*
X57666861Y-51466271D01*
X57668261Y-51471496D01*
X57764432Y-51677734D01*
X57767539Y-51682171D01*
X57767540Y-51682173D01*
X57787563Y-51710769D01*
X57808985Y-51766155D01*
X57802198Y-51825149D01*
X57768759Y-51874223D01*
X57716336Y-51902121D01*
X57656953Y-51902445D01*
X57604229Y-51875120D01*
X57450367Y-51740186D01*
X57428461Y-51720975D01*
X57379823Y-51688476D01*
X57181092Y-51555688D01*
X57181087Y-51555685D01*
X57177718Y-51553434D01*
X57174082Y-51551641D01*
X57174077Y-51551638D01*
X56910894Y-51421851D01*
X56910893Y-51421850D01*
X56907252Y-51420055D01*
X56816830Y-51389361D01*
X56625535Y-51324425D01*
X56625536Y-51324425D01*
X56621691Y-51323120D01*
X56617714Y-51322329D01*
X56617707Y-51322327D01*
X56329899Y-51265078D01*
X56329891Y-51265077D01*
X56325920Y-51264287D01*
X56025000Y-51244564D01*
X56020957Y-51244829D01*
X55728122Y-51264022D01*
X55728120Y-51264022D01*
X55724080Y-51264287D01*
X55720110Y-51265076D01*
X55720100Y-51265078D01*
X55432292Y-51322327D01*
X55432281Y-51322329D01*
X55428309Y-51323120D01*
X55424466Y-51324424D01*
X55424464Y-51324425D01*
X55146594Y-51418749D01*
X55146587Y-51418751D01*
X55142748Y-51420055D01*
X55139111Y-51421848D01*
X55139105Y-51421851D01*
X54875922Y-51551638D01*
X54875910Y-51551644D01*
X54872282Y-51553434D01*
X54868919Y-51555681D01*
X54868907Y-51555688D01*
X54624920Y-51718715D01*
X54624911Y-51718721D01*
X54621539Y-51720975D01*
X54618488Y-51723650D01*
X54618481Y-51723656D01*
X54397859Y-51917137D01*
X54397851Y-51917144D01*
X54394811Y-51919811D01*
X54392144Y-51922851D01*
X54392137Y-51922859D01*
X54198656Y-52143481D01*
X54198650Y-52143488D01*
X54195975Y-52146539D01*
X54193721Y-52149911D01*
X54193715Y-52149920D01*
X54030688Y-52393907D01*
X54030681Y-52393919D01*
X54028434Y-52397282D01*
X54026644Y-52400910D01*
X54026638Y-52400922D01*
X53896851Y-52664105D01*
X53896848Y-52664111D01*
X53895055Y-52667748D01*
X53893751Y-52671587D01*
X53893749Y-52671594D01*
X53799425Y-52949464D01*
X53798120Y-52953309D01*
X53797329Y-52957281D01*
X53797327Y-52957292D01*
X53740078Y-53245100D01*
X53740076Y-53245110D01*
X53739287Y-53249080D01*
X53719564Y-53550000D01*
X53739287Y-53850920D01*
X53740077Y-53854891D01*
X53740078Y-53854899D01*
X53797327Y-54142707D01*
X53797329Y-54142714D01*
X53798120Y-54146691D01*
X53895055Y-54432252D01*
X53896850Y-54435893D01*
X53896851Y-54435894D01*
X54022952Y-54691603D01*
X54028434Y-54702718D01*
X54030685Y-54706087D01*
X54030688Y-54706092D01*
X54193715Y-54950079D01*
X54195975Y-54953461D01*
X54394811Y-55180189D01*
X54621539Y-55379025D01*
X54872282Y-55546566D01*
X55142748Y-55679945D01*
X55428309Y-55776880D01*
X55724080Y-55835713D01*
X56025000Y-55855436D01*
X56325920Y-55835713D01*
X56621691Y-55776880D01*
X56907252Y-55679945D01*
X57177718Y-55546566D01*
X57428461Y-55379025D01*
X57655189Y-55180189D01*
X57854025Y-54953461D01*
X58021566Y-54702718D01*
X58154945Y-54432252D01*
X58251880Y-54146691D01*
X58310713Y-53850920D01*
X58330436Y-53550000D01*
X58310713Y-53249080D01*
X58251880Y-52953309D01*
X58154945Y-52667748D01*
X58021566Y-52397282D01*
X58019311Y-52393907D01*
X57891243Y-52202239D01*
X57870421Y-52137675D01*
X57886688Y-52071817D01*
X57935177Y-52024375D01*
X58001375Y-52009547D01*
X58065465Y-52031772D01*
X58242266Y-52155568D01*
X58448504Y-52251739D01*
X58668308Y-52310635D01*
X58895000Y-52330468D01*
X59121692Y-52310635D01*
X59341496Y-52251739D01*
X59547734Y-52155568D01*
X59734139Y-52025047D01*
X59895047Y-51864139D01*
X60025568Y-51677734D01*
X60121739Y-51471496D01*
X60180635Y-51251692D01*
X60200468Y-51025000D01*
X60180635Y-50798308D01*
X60121739Y-50578504D01*
X60025568Y-50372266D01*
X59895047Y-50185861D01*
X59771367Y-50062181D01*
X59741117Y-50012818D01*
X59736575Y-49955102D01*
X59758730Y-49901615D01*
X59802753Y-49864015D01*
X59859048Y-49850500D01*
X68090952Y-49850500D01*
X68147247Y-49864015D01*
X68191270Y-49901615D01*
X68213425Y-49955102D01*
X68208883Y-50012818D01*
X68178633Y-50062181D01*
X68058782Y-50182031D01*
X68058776Y-50182037D01*
X68054953Y-50185861D01*
X68051850Y-50190291D01*
X68051847Y-50190296D01*
X67927540Y-50367826D01*
X67927535Y-50367833D01*
X67924432Y-50372266D01*
X67922144Y-50377172D01*
X67922142Y-50377176D01*
X67830550Y-50573594D01*
X67830547Y-50573599D01*
X67828261Y-50578504D01*
X67826862Y-50583724D01*
X67826858Y-50583736D01*
X67770764Y-50793083D01*
X67770762Y-50793094D01*
X67769365Y-50798308D01*
X67749532Y-51025000D01*
X67750004Y-51030395D01*
X67768764Y-51244829D01*
X67769365Y-51251692D01*
X67770762Y-51256907D01*
X67770764Y-51256916D01*
X67826858Y-51466263D01*
X67826861Y-51466271D01*
X67828261Y-51471496D01*
X67830547Y-51476398D01*
X67830548Y-51476401D01*
X67840665Y-51498096D01*
X67852016Y-51558611D01*
X67832862Y-51617126D01*
X67787924Y-51659214D01*
X67728282Y-51674500D01*
X66493707Y-51674500D01*
X66475736Y-51673191D01*
X66459126Y-51670758D01*
X66459124Y-51670757D01*
X66451977Y-51669711D01*
X66444784Y-51670340D01*
X66444778Y-51670340D01*
X66402631Y-51674028D01*
X66391824Y-51674500D01*
X66386291Y-51674500D01*
X66382730Y-51674916D01*
X66382715Y-51674917D01*
X66355501Y-51678098D01*
X66351916Y-51678464D01*
X66284393Y-51684371D01*
X66284385Y-51684372D01*
X66277203Y-51685001D01*
X66270352Y-51687270D01*
X66266935Y-51687976D01*
X66266619Y-51688027D01*
X66266295Y-51688119D01*
X66262913Y-51688920D01*
X66255745Y-51689759D01*
X66248968Y-51692225D01*
X66248957Y-51692228D01*
X66185231Y-51715421D01*
X66181831Y-51716603D01*
X66160548Y-51723656D01*
X66110666Y-51740186D01*
X66104528Y-51743971D01*
X66101367Y-51745445D01*
X66101061Y-51745571D01*
X66100781Y-51745728D01*
X66097659Y-51747296D01*
X66090883Y-51749763D01*
X66084855Y-51753727D01*
X66084854Y-51753728D01*
X66028220Y-51790976D01*
X66025182Y-51792911D01*
X65967492Y-51828495D01*
X65967483Y-51828501D01*
X65961345Y-51832288D01*
X65956243Y-51837389D01*
X65953504Y-51839555D01*
X65953239Y-51839745D01*
X65952995Y-51839970D01*
X65950331Y-51842205D01*
X65944304Y-51846170D01*
X65939355Y-51851414D01*
X65939353Y-51851417D01*
X65892832Y-51900726D01*
X65890320Y-51903311D01*
X63692180Y-54101451D01*
X63642817Y-54131701D01*
X63585101Y-54136243D01*
X63531614Y-54114088D01*
X63494014Y-54070065D01*
X63480499Y-54013770D01*
X63480499Y-53290439D01*
X63480499Y-53287128D01*
X63474091Y-53227517D01*
X63423796Y-53092669D01*
X63337546Y-52977454D01*
X63305292Y-52953309D01*
X63229431Y-52896519D01*
X63229430Y-52896518D01*
X63222331Y-52891204D01*
X63087483Y-52840909D01*
X63079770Y-52840079D01*
X63079767Y-52840079D01*
X63031180Y-52834855D01*
X63031169Y-52834854D01*
X63027873Y-52834500D01*
X63024550Y-52834500D01*
X61335439Y-52834500D01*
X61335420Y-52834500D01*
X61332128Y-52834501D01*
X61328850Y-52834853D01*
X61328838Y-52834854D01*
X61280231Y-52840079D01*
X61280225Y-52840080D01*
X61272517Y-52840909D01*
X61265252Y-52843618D01*
X61265246Y-52843620D01*
X61145980Y-52888104D01*
X61145978Y-52888104D01*
X61137669Y-52891204D01*
X61130572Y-52896516D01*
X61130568Y-52896519D01*
X61029550Y-52972141D01*
X61029546Y-52972144D01*
X61022454Y-52977454D01*
X61017144Y-52984546D01*
X61017141Y-52984550D01*
X60941519Y-53085568D01*
X60941516Y-53085572D01*
X60936204Y-53092669D01*
X60933104Y-53100978D01*
X60933104Y-53100980D01*
X60888620Y-53220247D01*
X60888619Y-53220250D01*
X60885909Y-53227517D01*
X60885079Y-53235227D01*
X60885079Y-53235232D01*
X60879855Y-53283819D01*
X60879854Y-53283831D01*
X60879500Y-53287127D01*
X60879500Y-53290448D01*
X60879500Y-53290449D01*
X60879500Y-54979560D01*
X60879500Y-54979578D01*
X60879501Y-54982872D01*
X60879853Y-54986150D01*
X60879854Y-54986161D01*
X60885079Y-55034768D01*
X60885080Y-55034773D01*
X60885909Y-55042483D01*
X60888619Y-55049749D01*
X60888620Y-55049753D01*
X60918281Y-55129278D01*
X60936204Y-55177331D01*
X61022454Y-55292546D01*
X61137669Y-55378796D01*
X61272517Y-55429091D01*
X61307599Y-55432862D01*
X61363516Y-55453240D01*
X61403500Y-55497328D01*
X61418334Y-55554969D01*
X61404601Y-55612882D01*
X61365464Y-55657725D01*
X61340861Y-55674953D01*
X61337037Y-55678776D01*
X61337031Y-55678782D01*
X61183782Y-55832031D01*
X61183776Y-55832037D01*
X61179953Y-55835861D01*
X61176850Y-55840291D01*
X61176847Y-55840296D01*
X61052540Y-56017826D01*
X61052535Y-56017833D01*
X61049432Y-56022266D01*
X61047144Y-56027172D01*
X61047142Y-56027176D01*
X60955550Y-56223594D01*
X60955547Y-56223599D01*
X60953261Y-56228504D01*
X60951862Y-56233724D01*
X60951858Y-56233736D01*
X60895764Y-56443083D01*
X60895762Y-56443094D01*
X60894365Y-56448308D01*
X60893893Y-56453693D01*
X60893893Y-56453698D01*
X60877052Y-56646199D01*
X60874532Y-56675000D01*
X60875004Y-56680395D01*
X60893127Y-56887551D01*
X60894365Y-56901692D01*
X60895762Y-56906907D01*
X60895764Y-56906916D01*
X60951858Y-57116263D01*
X60951861Y-57116271D01*
X60953261Y-57121496D01*
X61049432Y-57327734D01*
X61052539Y-57332171D01*
X61052540Y-57332173D01*
X61089880Y-57385500D01*
X61179953Y-57514139D01*
X61340861Y-57675047D01*
X61527266Y-57805568D01*
X61532172Y-57807855D01*
X61532176Y-57807858D01*
X61585274Y-57832618D01*
X61637450Y-57878375D01*
X61656869Y-57945000D01*
X61637450Y-58011625D01*
X61585274Y-58057382D01*
X61532176Y-58082141D01*
X61532163Y-58082148D01*
X61527266Y-58084432D01*
X61522833Y-58087535D01*
X61522826Y-58087540D01*
X61345296Y-58211847D01*
X61345291Y-58211850D01*
X61340861Y-58214953D01*
X61337037Y-58218776D01*
X61337031Y-58218782D01*
X61183782Y-58372031D01*
X61183776Y-58372037D01*
X61179953Y-58375861D01*
X61176850Y-58380291D01*
X61176847Y-58380296D01*
X61052540Y-58557826D01*
X61052535Y-58557833D01*
X61049432Y-58562266D01*
X61047144Y-58567172D01*
X61047142Y-58567176D01*
X60955550Y-58763594D01*
X60955547Y-58763599D01*
X60953261Y-58768504D01*
X60951862Y-58773724D01*
X60951858Y-58773736D01*
X60895764Y-58983083D01*
X60895762Y-58983094D01*
X60894365Y-58988308D01*
X60893893Y-58993693D01*
X60893893Y-58993698D01*
X60876292Y-59194882D01*
X60874532Y-59215000D01*
X60875004Y-59220395D01*
X60890954Y-59402712D01*
X60894365Y-59441692D01*
X60895762Y-59446907D01*
X60895764Y-59446916D01*
X60951858Y-59656263D01*
X60951861Y-59656271D01*
X60953261Y-59661496D01*
X61049432Y-59867734D01*
X61179953Y-60054139D01*
X61340861Y-60215047D01*
X61527266Y-60345568D01*
X61532172Y-60347855D01*
X61532176Y-60347858D01*
X61585274Y-60372618D01*
X61637450Y-60418375D01*
X61656869Y-60485000D01*
X61637450Y-60551625D01*
X61585274Y-60597382D01*
X61532176Y-60622141D01*
X61532163Y-60622148D01*
X61527266Y-60624432D01*
X61522833Y-60627535D01*
X61522826Y-60627540D01*
X61345296Y-60751847D01*
X61345291Y-60751850D01*
X61340861Y-60754953D01*
X61337037Y-60758776D01*
X61337031Y-60758782D01*
X61183782Y-60912031D01*
X61183776Y-60912037D01*
X61179953Y-60915861D01*
X61176850Y-60920291D01*
X61176847Y-60920296D01*
X61052540Y-61097826D01*
X61052535Y-61097833D01*
X61049432Y-61102266D01*
X61047144Y-61107172D01*
X61047142Y-61107176D01*
X60955550Y-61303594D01*
X60955547Y-61303599D01*
X60953261Y-61308504D01*
X60951862Y-61313724D01*
X60951858Y-61313736D01*
X60895764Y-61523083D01*
X60895762Y-61523094D01*
X60894365Y-61528308D01*
X60893893Y-61533693D01*
X60893893Y-61533698D01*
X60876993Y-61726868D01*
X60874532Y-61755000D01*
X60875004Y-61760394D01*
X60875004Y-61760395D01*
X60890483Y-61937327D01*
X60894365Y-61981692D01*
X60895762Y-61986907D01*
X60895764Y-61986916D01*
X60951858Y-62196263D01*
X60951861Y-62196271D01*
X60953261Y-62201496D01*
X61049432Y-62407734D01*
X61052539Y-62412171D01*
X61052540Y-62412173D01*
X61105935Y-62488430D01*
X61179953Y-62594139D01*
X61340861Y-62755047D01*
X61527266Y-62885568D01*
X61585276Y-62912618D01*
X61637449Y-62958373D01*
X61656869Y-63024997D01*
X61637451Y-63091622D01*
X61585276Y-63137380D01*
X61532178Y-63162141D01*
X61532173Y-63162143D01*
X61527266Y-63164432D01*
X61522833Y-63167535D01*
X61522826Y-63167540D01*
X61345296Y-63291847D01*
X61345291Y-63291850D01*
X61340861Y-63294953D01*
X61337037Y-63298776D01*
X61337031Y-63298782D01*
X61183782Y-63452031D01*
X61183776Y-63452037D01*
X61179953Y-63455861D01*
X61176850Y-63460291D01*
X61176847Y-63460296D01*
X61052540Y-63637826D01*
X61052535Y-63637833D01*
X61049432Y-63642266D01*
X61047144Y-63647172D01*
X61047142Y-63647176D01*
X60955550Y-63843594D01*
X60955547Y-63843599D01*
X60953261Y-63848504D01*
X60951862Y-63853724D01*
X60951858Y-63853736D01*
X60895764Y-64063083D01*
X60895762Y-64063094D01*
X60894365Y-64068308D01*
X60893893Y-64073693D01*
X60893893Y-64073698D01*
X60876762Y-64269507D01*
X60874532Y-64295000D01*
X60875004Y-64300394D01*
X60875004Y-64300395D01*
X60893666Y-64513709D01*
X60894365Y-64521692D01*
X60895762Y-64526907D01*
X60895764Y-64526916D01*
X60951858Y-64736263D01*
X60951861Y-64736271D01*
X60953261Y-64741496D01*
X60955549Y-64746403D01*
X60955550Y-64746405D01*
X60990667Y-64821712D01*
X61049432Y-64947734D01*
X61179953Y-65134139D01*
X61340861Y-65295047D01*
X61527266Y-65425568D01*
X61532172Y-65427855D01*
X61532176Y-65427858D01*
X61585274Y-65452618D01*
X61637450Y-65498375D01*
X61656869Y-65565000D01*
X61637450Y-65631625D01*
X61585274Y-65677382D01*
X61532176Y-65702141D01*
X61532163Y-65702148D01*
X61527266Y-65704432D01*
X61522833Y-65707535D01*
X61522826Y-65707540D01*
X61345296Y-65831847D01*
X61345291Y-65831850D01*
X61340861Y-65834953D01*
X61337037Y-65838776D01*
X61337031Y-65838782D01*
X61183782Y-65992031D01*
X61183776Y-65992037D01*
X61179953Y-65995861D01*
X61176850Y-66000291D01*
X61176847Y-66000296D01*
X61052540Y-66177826D01*
X61052535Y-66177833D01*
X61049432Y-66182266D01*
X61047144Y-66187172D01*
X61047142Y-66187176D01*
X60955550Y-66383594D01*
X60955547Y-66383599D01*
X60953261Y-66388504D01*
X60951862Y-66393724D01*
X60951858Y-66393736D01*
X60895764Y-66603083D01*
X60895762Y-66603094D01*
X60894365Y-66608308D01*
X60893893Y-66613693D01*
X60893893Y-66613698D01*
X60876531Y-66812147D01*
X60874532Y-66835000D01*
X60875004Y-66840394D01*
X60875004Y-66840395D01*
X60891489Y-67028828D01*
X60894365Y-67061692D01*
X60895762Y-67066907D01*
X60895764Y-67066916D01*
X60951858Y-67276263D01*
X60951861Y-67276271D01*
X60953261Y-67281496D01*
X61049432Y-67487734D01*
X61179953Y-67674139D01*
X61340861Y-67835047D01*
X61527266Y-67965568D01*
X61532172Y-67967855D01*
X61532176Y-67967858D01*
X61585274Y-67992618D01*
X61637450Y-68038375D01*
X61656869Y-68105000D01*
X61637450Y-68171625D01*
X61585274Y-68217382D01*
X61532176Y-68242141D01*
X61532163Y-68242148D01*
X61527266Y-68244432D01*
X61522833Y-68247535D01*
X61522826Y-68247540D01*
X61345296Y-68371847D01*
X61345291Y-68371850D01*
X61340861Y-68374953D01*
X61337037Y-68378776D01*
X61337031Y-68378782D01*
X61183782Y-68532031D01*
X61183776Y-68532037D01*
X61179953Y-68535861D01*
X61176850Y-68540291D01*
X61176847Y-68540296D01*
X61052540Y-68717826D01*
X61052535Y-68717833D01*
X61049432Y-68722266D01*
X61047144Y-68727172D01*
X61047142Y-68727176D01*
X60955550Y-68923594D01*
X60955547Y-68923599D01*
X60953261Y-68928504D01*
X60951862Y-68933724D01*
X60951858Y-68933736D01*
X60895764Y-69143083D01*
X60895762Y-69143094D01*
X60894365Y-69148308D01*
X60893893Y-69153693D01*
X60893893Y-69153698D01*
X60875212Y-69367229D01*
X60874532Y-69375000D01*
X60875004Y-69380395D01*
X60893081Y-69587023D01*
X60894365Y-69601692D01*
X60895762Y-69606907D01*
X60895764Y-69606916D01*
X60951858Y-69816263D01*
X60951861Y-69816271D01*
X60953261Y-69821496D01*
X60955549Y-69826403D01*
X60955550Y-69826405D01*
X61007650Y-69938133D01*
X61049432Y-70027734D01*
X61052539Y-70032171D01*
X61052540Y-70032173D01*
X61112914Y-70118397D01*
X61179953Y-70214139D01*
X61340861Y-70375047D01*
X61527266Y-70505568D01*
X61733504Y-70601739D01*
X61738734Y-70603140D01*
X61738736Y-70603141D01*
X61770220Y-70611577D01*
X61953308Y-70660635D01*
X62180000Y-70680468D01*
X62406692Y-70660635D01*
X62626496Y-70601739D01*
X62832734Y-70505568D01*
X63019139Y-70375047D01*
X63180047Y-70214139D01*
X63310568Y-70027734D01*
X63406739Y-69821496D01*
X63465635Y-69601692D01*
X63485468Y-69375000D01*
X63465635Y-69148308D01*
X63434360Y-69031590D01*
X63432519Y-68975309D01*
X63455760Y-68924014D01*
X63499292Y-68888288D01*
X63554136Y-68875500D01*
X75752770Y-68875500D01*
X75800223Y-68884939D01*
X75840451Y-68911819D01*
X75952130Y-69023498D01*
X75980971Y-69068768D01*
X75987977Y-69121986D01*
X75971015Y-69315867D01*
X75969341Y-69335000D01*
X75969813Y-69340395D01*
X75988697Y-69556243D01*
X75989937Y-69570408D01*
X75991336Y-69575630D01*
X75991337Y-69575634D01*
X75999719Y-69606916D01*
X76035134Y-69739089D01*
X76040311Y-69758407D01*
X76042153Y-69814691D01*
X76018912Y-69865986D01*
X75975380Y-69901712D01*
X75920536Y-69914500D01*
X66573707Y-69914500D01*
X66555736Y-69913191D01*
X66539126Y-69910758D01*
X66539124Y-69910757D01*
X66531977Y-69909711D01*
X66524785Y-69910340D01*
X66524778Y-69910340D01*
X66482634Y-69914028D01*
X66471827Y-69914500D01*
X66466291Y-69914500D01*
X66462717Y-69914917D01*
X66462711Y-69914918D01*
X66435487Y-69918099D01*
X66431906Y-69918465D01*
X66364397Y-69924372D01*
X66364392Y-69924372D01*
X66357203Y-69925002D01*
X66350351Y-69927271D01*
X66346951Y-69927974D01*
X66346619Y-69928027D01*
X66346304Y-69928117D01*
X66342913Y-69928920D01*
X66335745Y-69929759D01*
X66265253Y-69955414D01*
X66261867Y-69956592D01*
X66197512Y-69977917D01*
X66197508Y-69977918D01*
X66190666Y-69980186D01*
X66184529Y-69983969D01*
X66181355Y-69985450D01*
X66181063Y-69985570D01*
X66180780Y-69985729D01*
X66177663Y-69987294D01*
X66170883Y-69989763D01*
X66164855Y-69993727D01*
X66164852Y-69993729D01*
X66108228Y-70030970D01*
X66105190Y-70032905D01*
X66047487Y-70068498D01*
X66047482Y-70068501D01*
X66041344Y-70072288D01*
X66036246Y-70077385D01*
X66033503Y-70079554D01*
X66033247Y-70079739D01*
X66032997Y-70079968D01*
X66030330Y-70082205D01*
X66024304Y-70086170D01*
X66019352Y-70091419D01*
X65972849Y-70140708D01*
X65970337Y-70143293D01*
X64539358Y-71574272D01*
X64525730Y-71586050D01*
X64512263Y-71596076D01*
X64512257Y-71596081D01*
X64506470Y-71600390D01*
X64501832Y-71605916D01*
X64501830Y-71605919D01*
X64474633Y-71638330D01*
X64467350Y-71646280D01*
X64465969Y-71647661D01*
X64465955Y-71647676D01*
X64463409Y-71650223D01*
X64461173Y-71653050D01*
X64461171Y-71653053D01*
X64444176Y-71674546D01*
X64441902Y-71677337D01*
X64398339Y-71729254D01*
X64398335Y-71729258D01*
X64393698Y-71734786D01*
X64390460Y-71741230D01*
X64388537Y-71744155D01*
X64388352Y-71744411D01*
X64388192Y-71744698D01*
X64386363Y-71747663D01*
X64381889Y-71753323D01*
X64378839Y-71759862D01*
X64378838Y-71759865D01*
X64350192Y-71821294D01*
X64348623Y-71824536D01*
X64318196Y-71885122D01*
X64318194Y-71885127D01*
X64314960Y-71891567D01*
X64313296Y-71898584D01*
X64312109Y-71901847D01*
X64311977Y-71902163D01*
X64311888Y-71902480D01*
X64310791Y-71905787D01*
X64307743Y-71912327D01*
X64306284Y-71919390D01*
X64306283Y-71919395D01*
X64292574Y-71985787D01*
X64291794Y-71989306D01*
X64276164Y-72055255D01*
X64276163Y-72055260D01*
X64274500Y-72062279D01*
X64274500Y-72069491D01*
X64274097Y-72072939D01*
X64274043Y-72073273D01*
X64274028Y-72073626D01*
X64273726Y-72077070D01*
X64272266Y-72084144D01*
X64272476Y-72091360D01*
X64272476Y-72091361D01*
X64274448Y-72159130D01*
X64274500Y-72162737D01*
X64274500Y-76327771D01*
X64265061Y-76375224D01*
X64238181Y-76415452D01*
X63687431Y-76966200D01*
X63626588Y-76999580D01*
X63557339Y-76995041D01*
X63501374Y-76954005D01*
X63476222Y-76889328D01*
X63465635Y-76768308D01*
X63440499Y-76674500D01*
X63408141Y-76553736D01*
X63408140Y-76553734D01*
X63406739Y-76548504D01*
X63310568Y-76342266D01*
X63180047Y-76155861D01*
X63019139Y-75994953D01*
X62832734Y-75864432D01*
X62774724Y-75837381D01*
X62722549Y-75791625D01*
X62703130Y-75725000D01*
X62722549Y-75658375D01*
X62774725Y-75612618D01*
X62780925Y-75609727D01*
X62832734Y-75585568D01*
X63019139Y-75455047D01*
X63180047Y-75294139D01*
X63310568Y-75107734D01*
X63406739Y-74901496D01*
X63465635Y-74681692D01*
X63485468Y-74455000D01*
X63465635Y-74228308D01*
X63463776Y-74221369D01*
X63408141Y-74013736D01*
X63408140Y-74013734D01*
X63406739Y-74008504D01*
X63310568Y-73802266D01*
X63180047Y-73615861D01*
X63019139Y-73454953D01*
X62871690Y-73351709D01*
X62837173Y-73327540D01*
X62837171Y-73327539D01*
X62832734Y-73324432D01*
X62652256Y-73240273D01*
X62631405Y-73230550D01*
X62631403Y-73230549D01*
X62626496Y-73228261D01*
X62621271Y-73226861D01*
X62621263Y-73226858D01*
X62411916Y-73170764D01*
X62411907Y-73170762D01*
X62406692Y-73169365D01*
X62401304Y-73168893D01*
X62401301Y-73168893D01*
X62185395Y-73150004D01*
X62180000Y-73149532D01*
X62174605Y-73150004D01*
X61958698Y-73168893D01*
X61958693Y-73168893D01*
X61953308Y-73169365D01*
X61948094Y-73170762D01*
X61948083Y-73170764D01*
X61738736Y-73226858D01*
X61738724Y-73226862D01*
X61733504Y-73228261D01*
X61728599Y-73230547D01*
X61728594Y-73230550D01*
X61532176Y-73322142D01*
X61532172Y-73322144D01*
X61527266Y-73324432D01*
X61522833Y-73327535D01*
X61522826Y-73327540D01*
X61345296Y-73451847D01*
X61345291Y-73451850D01*
X61340861Y-73454953D01*
X61337037Y-73458776D01*
X61337031Y-73458782D01*
X61183782Y-73612031D01*
X61183776Y-73612037D01*
X61179953Y-73615861D01*
X61176850Y-73620291D01*
X61176847Y-73620296D01*
X61052540Y-73797826D01*
X61052535Y-73797833D01*
X61049432Y-73802266D01*
X61047144Y-73807172D01*
X61047142Y-73807176D01*
X60955550Y-74003594D01*
X60955547Y-74003599D01*
X60953261Y-74008504D01*
X60951862Y-74013724D01*
X60951858Y-74013736D01*
X60895764Y-74223083D01*
X60895762Y-74223094D01*
X60894365Y-74228308D01*
X60893893Y-74233693D01*
X60893893Y-74233698D01*
X60884770Y-74337977D01*
X60874532Y-74455000D01*
X60875004Y-74460395D01*
X60893032Y-74666462D01*
X60894365Y-74681692D01*
X60895762Y-74686907D01*
X60895764Y-74686916D01*
X60951858Y-74896263D01*
X60951861Y-74896271D01*
X60953261Y-74901496D01*
X61049432Y-75107734D01*
X61179953Y-75294139D01*
X61340861Y-75455047D01*
X61527266Y-75585568D01*
X61532172Y-75587855D01*
X61532176Y-75587858D01*
X61585274Y-75612618D01*
X61637450Y-75658375D01*
X61656869Y-75725000D01*
X61637450Y-75791625D01*
X61585274Y-75837382D01*
X61532176Y-75862141D01*
X61532163Y-75862148D01*
X61527266Y-75864432D01*
X61522833Y-75867535D01*
X61522826Y-75867540D01*
X61345296Y-75991847D01*
X61345291Y-75991850D01*
X61340861Y-75994953D01*
X61337037Y-75998776D01*
X61337031Y-75998782D01*
X61183782Y-76152031D01*
X61183776Y-76152037D01*
X61179953Y-76155861D01*
X61176850Y-76160291D01*
X61176847Y-76160296D01*
X61052540Y-76337826D01*
X61052535Y-76337833D01*
X61049432Y-76342266D01*
X61047144Y-76347172D01*
X61047142Y-76347176D01*
X60955550Y-76543594D01*
X60955547Y-76543599D01*
X60953261Y-76548504D01*
X60951862Y-76553724D01*
X60951858Y-76553736D01*
X60895764Y-76763083D01*
X60895762Y-76763094D01*
X60894365Y-76768308D01*
X60893893Y-76773693D01*
X60893893Y-76773698D01*
X60880536Y-76926373D01*
X60874532Y-76995000D01*
X60875004Y-77000395D01*
X60893514Y-77211973D01*
X60894365Y-77221692D01*
X60895762Y-77226907D01*
X60895764Y-77226916D01*
X60951858Y-77436263D01*
X60951861Y-77436271D01*
X60953261Y-77441496D01*
X60955549Y-77446403D01*
X60955550Y-77446405D01*
X60972794Y-77483385D01*
X61049432Y-77647734D01*
X61179953Y-77834139D01*
X61340861Y-77995047D01*
X61527266Y-78125568D01*
X61532172Y-78127855D01*
X61532176Y-78127858D01*
X61585274Y-78152618D01*
X61637450Y-78198375D01*
X61656869Y-78265000D01*
X61637450Y-78331625D01*
X61585274Y-78377382D01*
X61532176Y-78402141D01*
X61532163Y-78402148D01*
X61527266Y-78404432D01*
X61522833Y-78407535D01*
X61522826Y-78407540D01*
X61345296Y-78531847D01*
X61345291Y-78531850D01*
X61340861Y-78534953D01*
X61337037Y-78538776D01*
X61337031Y-78538782D01*
X61183782Y-78692031D01*
X61183776Y-78692037D01*
X61179953Y-78695861D01*
X61176850Y-78700291D01*
X61176847Y-78700296D01*
X61052540Y-78877826D01*
X61052535Y-78877833D01*
X61049432Y-78882266D01*
X61047144Y-78887172D01*
X61047142Y-78887176D01*
X60955550Y-79083594D01*
X60955547Y-79083599D01*
X60953261Y-79088504D01*
X60951862Y-79093724D01*
X60951858Y-79093736D01*
X60895764Y-79303083D01*
X60895762Y-79303094D01*
X60894365Y-79308308D01*
X60893893Y-79313693D01*
X60893893Y-79313698D01*
X60875004Y-79529605D01*
X60874532Y-79535000D01*
X60875004Y-79540395D01*
X60893575Y-79752669D01*
X60894365Y-79761692D01*
X60895762Y-79766907D01*
X60895764Y-79766916D01*
X60951858Y-79976263D01*
X60951861Y-79976271D01*
X60953261Y-79981496D01*
X61049432Y-80187734D01*
X61052539Y-80192171D01*
X61052540Y-80192173D01*
X61110434Y-80274855D01*
X61179953Y-80374139D01*
X61340861Y-80535047D01*
X61527266Y-80665568D01*
X61532172Y-80667855D01*
X61532176Y-80667858D01*
X61585274Y-80692618D01*
X61637450Y-80738375D01*
X61656869Y-80805000D01*
X61637450Y-80871625D01*
X61585274Y-80917382D01*
X61532176Y-80942141D01*
X61532163Y-80942148D01*
X61527266Y-80944432D01*
X61522833Y-80947535D01*
X61522826Y-80947540D01*
X61345296Y-81071847D01*
X61345291Y-81071850D01*
X61340861Y-81074953D01*
X61337037Y-81078776D01*
X61337031Y-81078782D01*
X61183782Y-81232031D01*
X61183776Y-81232037D01*
X61179953Y-81235861D01*
X61176850Y-81240291D01*
X61176847Y-81240296D01*
X61052540Y-81417826D01*
X61052535Y-81417833D01*
X61049432Y-81422266D01*
X61047144Y-81427172D01*
X61047142Y-81427176D01*
X60955550Y-81623594D01*
X60955547Y-81623599D01*
X60953261Y-81628504D01*
X60951862Y-81633724D01*
X60951858Y-81633736D01*
X60895764Y-81843083D01*
X60895762Y-81843094D01*
X60894365Y-81848308D01*
X60893893Y-81853693D01*
X60893893Y-81853698D01*
X60886576Y-81937331D01*
X60874532Y-82075000D01*
X60875004Y-82080394D01*
X60875004Y-82080395D01*
X60880384Y-82141895D01*
X60894365Y-82301692D01*
X60895762Y-82306907D01*
X60895764Y-82306916D01*
X60951858Y-82516263D01*
X60951861Y-82516271D01*
X60953261Y-82521496D01*
X60955549Y-82526403D01*
X60955550Y-82526405D01*
X61017690Y-82659663D01*
X61049432Y-82727734D01*
X61179953Y-82914139D01*
X61340861Y-83075047D01*
X61527266Y-83205568D01*
X61585276Y-83232618D01*
X61637449Y-83278373D01*
X61656869Y-83344997D01*
X61637451Y-83411622D01*
X61585276Y-83457380D01*
X61532178Y-83482141D01*
X61532173Y-83482143D01*
X61527266Y-83484432D01*
X61522833Y-83487535D01*
X61522826Y-83487540D01*
X61345296Y-83611847D01*
X61345291Y-83611850D01*
X61340861Y-83614953D01*
X61337037Y-83618776D01*
X61337031Y-83618782D01*
X61183782Y-83772031D01*
X61183776Y-83772037D01*
X61179953Y-83775861D01*
X61176850Y-83780291D01*
X61176847Y-83780296D01*
X61052540Y-83957826D01*
X61052535Y-83957833D01*
X61049432Y-83962266D01*
X61047144Y-83967172D01*
X61047142Y-83967176D01*
X60955550Y-84163594D01*
X60955547Y-84163599D01*
X60953261Y-84168504D01*
X60951862Y-84173724D01*
X60951858Y-84173736D01*
X60895764Y-84383083D01*
X60895762Y-84383094D01*
X60894365Y-84388308D01*
X60893893Y-84393693D01*
X60893893Y-84393698D01*
X60884252Y-84503899D01*
X60874532Y-84615000D01*
X60875004Y-84620395D01*
X60889391Y-84784847D01*
X60894365Y-84841692D01*
X60895762Y-84846907D01*
X60895764Y-84846916D01*
X60951858Y-85056263D01*
X60951861Y-85056271D01*
X60953261Y-85061496D01*
X61049432Y-85267734D01*
X61052539Y-85272171D01*
X61052540Y-85272173D01*
X61093428Y-85330568D01*
X61179953Y-85454139D01*
X61340861Y-85615047D01*
X61527266Y-85745568D01*
X61532172Y-85747855D01*
X61532176Y-85747858D01*
X61585274Y-85772618D01*
X61637450Y-85818375D01*
X61656869Y-85885000D01*
X61637450Y-85951625D01*
X61585274Y-85997382D01*
X61532176Y-86022141D01*
X61532163Y-86022148D01*
X61527266Y-86024432D01*
X61522833Y-86027535D01*
X61522826Y-86027540D01*
X61345296Y-86151847D01*
X61345291Y-86151850D01*
X61340861Y-86154953D01*
X61337037Y-86158776D01*
X61337031Y-86158782D01*
X61183782Y-86312031D01*
X61183776Y-86312037D01*
X61179953Y-86315861D01*
X61176850Y-86320291D01*
X61176847Y-86320296D01*
X61052540Y-86497826D01*
X61052535Y-86497833D01*
X61049432Y-86502266D01*
X61047144Y-86507172D01*
X61047142Y-86507176D01*
X60955550Y-86703594D01*
X60955547Y-86703599D01*
X60953261Y-86708504D01*
X60951862Y-86713724D01*
X60951858Y-86713736D01*
X60895764Y-86923083D01*
X60895762Y-86923094D01*
X60894365Y-86928308D01*
X60893893Y-86933693D01*
X60893893Y-86933698D01*
X60881764Y-87072333D01*
X60874532Y-87155000D01*
X60875004Y-87160395D01*
X60892122Y-87356062D01*
X60894365Y-87381692D01*
X60895762Y-87386907D01*
X60895764Y-87386916D01*
X60951858Y-87596263D01*
X60951861Y-87596271D01*
X60953261Y-87601496D01*
X61049432Y-87807734D01*
X61052539Y-87812171D01*
X61052540Y-87812173D01*
X61123314Y-87913250D01*
X61179953Y-87994139D01*
X61340861Y-88155047D01*
X61527266Y-88285568D01*
X61733504Y-88381739D01*
X61953308Y-88440635D01*
X62180000Y-88460468D01*
X62346861Y-88445869D01*
X62400077Y-88452875D01*
X62445348Y-88481716D01*
X76899267Y-102935634D01*
X76911049Y-102949267D01*
X76921077Y-102962738D01*
X76921081Y-102962742D01*
X76925390Y-102968530D01*
X76963352Y-103000384D01*
X76971314Y-103007681D01*
X76975223Y-103011590D01*
X76978055Y-103013829D01*
X76978065Y-103013838D01*
X76996269Y-103028231D01*
X77033220Y-103076384D01*
X77042890Y-103136306D01*
X77022963Y-103193638D01*
X76978213Y-103234645D01*
X76919362Y-103249500D01*
X75420496Y-103249500D01*
X75362043Y-103234859D01*
X75317394Y-103194392D01*
X75297093Y-103137656D01*
X75304895Y-103085054D01*
X75303814Y-103084727D01*
X75318043Y-103037819D01*
X75361024Y-102896132D01*
X75380341Y-102700000D01*
X75361024Y-102503868D01*
X75303814Y-102315273D01*
X75210910Y-102141462D01*
X75085883Y-101989117D01*
X75081176Y-101985254D01*
X74938250Y-101867957D01*
X74938249Y-101867956D01*
X74933538Y-101864090D01*
X74928167Y-101861219D01*
X74928161Y-101861215D01*
X74765099Y-101774057D01*
X74765095Y-101774055D01*
X74759727Y-101771186D01*
X74681527Y-101747464D01*
X74576962Y-101715744D01*
X74576957Y-101715743D01*
X74571132Y-101713976D01*
X74565073Y-101713379D01*
X74565067Y-101713378D01*
X74381062Y-101695256D01*
X74375000Y-101694659D01*
X74368938Y-101695256D01*
X74184932Y-101713378D01*
X74184924Y-101713379D01*
X74178868Y-101713976D01*
X74173044Y-101715742D01*
X74173037Y-101715744D01*
X73996100Y-101769418D01*
X73996096Y-101769419D01*
X73990273Y-101771186D01*
X73984907Y-101774053D01*
X73984900Y-101774057D01*
X73821838Y-101861215D01*
X73821827Y-101861222D01*
X73816462Y-101864090D01*
X73811754Y-101867953D01*
X73811749Y-101867957D01*
X73746687Y-101921353D01*
X73709796Y-101942251D01*
X73668022Y-101949500D01*
X56864225Y-101949500D01*
X56798057Y-101930370D01*
X56752304Y-101878883D01*
X56741085Y-101810925D01*
X56767859Y-101747464D01*
X56824367Y-101708081D01*
X56886127Y-101687116D01*
X56907252Y-101679945D01*
X57177718Y-101546566D01*
X57428461Y-101379025D01*
X57655189Y-101180189D01*
X57854025Y-100953461D01*
X58021566Y-100702718D01*
X58154945Y-100432252D01*
X58251880Y-100146691D01*
X58310713Y-99850920D01*
X58330436Y-99550000D01*
X58310713Y-99249080D01*
X58251880Y-98953309D01*
X58154945Y-98667748D01*
X58021566Y-98397282D01*
X57854025Y-98146539D01*
X57655189Y-97919811D01*
X57624742Y-97893110D01*
X57431518Y-97723656D01*
X57428461Y-97720975D01*
X57425079Y-97718715D01*
X57181092Y-97555688D01*
X57181087Y-97555685D01*
X57177718Y-97553434D01*
X57174082Y-97551641D01*
X57174077Y-97551638D01*
X56910894Y-97421851D01*
X56910893Y-97421850D01*
X56907252Y-97420055D01*
X56621691Y-97323120D01*
X56617714Y-97322329D01*
X56617707Y-97322327D01*
X56329899Y-97265078D01*
X56329891Y-97265077D01*
X56325920Y-97264287D01*
X56025000Y-97244564D01*
X56020957Y-97244829D01*
X55728122Y-97264022D01*
X55728120Y-97264022D01*
X55724080Y-97264287D01*
X55720110Y-97265076D01*
X55720100Y-97265078D01*
X55432292Y-97322327D01*
X55432281Y-97322329D01*
X55428309Y-97323120D01*
X55424466Y-97324424D01*
X55424464Y-97324425D01*
X55146594Y-97418749D01*
X55146587Y-97418751D01*
X55142748Y-97420055D01*
X55139111Y-97421848D01*
X55139105Y-97421851D01*
X54875922Y-97551638D01*
X54875910Y-97551644D01*
X54872282Y-97553434D01*
X54868919Y-97555681D01*
X54868907Y-97555688D01*
X54624920Y-97718715D01*
X54624911Y-97718721D01*
X54621539Y-97720975D01*
X54618488Y-97723650D01*
X54618481Y-97723656D01*
X54397859Y-97917137D01*
X54397851Y-97917144D01*
X54394811Y-97919811D01*
X54392144Y-97922851D01*
X54392137Y-97922859D01*
X54198656Y-98143481D01*
X54198650Y-98143488D01*
X54195975Y-98146539D01*
X54193721Y-98149911D01*
X54193715Y-98149920D01*
X54030688Y-98393907D01*
X54030681Y-98393919D01*
X54028434Y-98397282D01*
X54026644Y-98400910D01*
X54026638Y-98400922D01*
X53896851Y-98664105D01*
X53896848Y-98664111D01*
X53895055Y-98667748D01*
X53893753Y-98671583D01*
X53893747Y-98671598D01*
X53866919Y-98750633D01*
X53827536Y-98807141D01*
X53764075Y-98833915D01*
X53696117Y-98822696D01*
X53644630Y-98776943D01*
X53625500Y-98710775D01*
X53625500Y-85278703D01*
X54753217Y-85278703D01*
X54760650Y-85286814D01*
X54818077Y-85327025D01*
X54827427Y-85332423D01*
X55023768Y-85423979D01*
X55033902Y-85427667D01*
X55243162Y-85483739D01*
X55253793Y-85485613D01*
X55469605Y-85504494D01*
X55480395Y-85504494D01*
X55696206Y-85485613D01*
X55706837Y-85483739D01*
X55916097Y-85427667D01*
X55926231Y-85423979D01*
X56122575Y-85332422D01*
X56131920Y-85327026D01*
X56189348Y-85286814D01*
X56196780Y-85278703D01*
X56190867Y-85269421D01*
X55486542Y-84565095D01*
X55475000Y-84558431D01*
X55463457Y-84565095D01*
X54759128Y-85269424D01*
X54753217Y-85278703D01*
X53625500Y-85278703D01*
X53625500Y-84205395D01*
X54170506Y-84205395D01*
X54189386Y-84421206D01*
X54191260Y-84431837D01*
X54247332Y-84641097D01*
X54251020Y-84651231D01*
X54342576Y-84847572D01*
X54347974Y-84856922D01*
X54388184Y-84914348D01*
X54396295Y-84921781D01*
X54405574Y-84915870D01*
X55109903Y-84211542D01*
X55116567Y-84200000D01*
X55116566Y-84199999D01*
X55833431Y-84199999D01*
X55840095Y-84211541D01*
X56544421Y-84915867D01*
X56553703Y-84921780D01*
X56561814Y-84914348D01*
X56602026Y-84856920D01*
X56607420Y-84847578D01*
X56612340Y-84837028D01*
X56658096Y-84784850D01*
X56724721Y-84765429D01*
X56791347Y-84784847D01*
X56837105Y-84837023D01*
X56842138Y-84847817D01*
X56842143Y-84847827D01*
X56844432Y-84852734D01*
X56974953Y-85039139D01*
X57135861Y-85200047D01*
X57322266Y-85330568D01*
X57528504Y-85426739D01*
X57533734Y-85428140D01*
X57533736Y-85428141D01*
X57645053Y-85457968D01*
X57748308Y-85485635D01*
X57975000Y-85505468D01*
X58201692Y-85485635D01*
X58421496Y-85426739D01*
X58627734Y-85330568D01*
X58814139Y-85200047D01*
X58975047Y-85039139D01*
X59105568Y-84852734D01*
X59201739Y-84646496D01*
X59260635Y-84426692D01*
X59280468Y-84200000D01*
X59260635Y-83973308D01*
X59245863Y-83918176D01*
X59203141Y-83758736D01*
X59203140Y-83758734D01*
X59201739Y-83753504D01*
X59105568Y-83547266D01*
X58975047Y-83360861D01*
X58814139Y-83199953D01*
X58690219Y-83113184D01*
X58632173Y-83072540D01*
X58632171Y-83072539D01*
X58627734Y-83069432D01*
X58535381Y-83026367D01*
X58426405Y-82975550D01*
X58426403Y-82975549D01*
X58421496Y-82973261D01*
X58416271Y-82971861D01*
X58416263Y-82971858D01*
X58206916Y-82915764D01*
X58206907Y-82915762D01*
X58201692Y-82914365D01*
X58196304Y-82913893D01*
X58196301Y-82913893D01*
X57980395Y-82895004D01*
X57975000Y-82894532D01*
X57969605Y-82895004D01*
X57753698Y-82913893D01*
X57753693Y-82913893D01*
X57748308Y-82914365D01*
X57743094Y-82915762D01*
X57743083Y-82915764D01*
X57533736Y-82971858D01*
X57533724Y-82971862D01*
X57528504Y-82973261D01*
X57523599Y-82975547D01*
X57523594Y-82975550D01*
X57327176Y-83067142D01*
X57327172Y-83067144D01*
X57322266Y-83069432D01*
X57317833Y-83072535D01*
X57317826Y-83072540D01*
X57140296Y-83196847D01*
X57140291Y-83196850D01*
X57135861Y-83199953D01*
X57132037Y-83203776D01*
X57132031Y-83203782D01*
X56978782Y-83357031D01*
X56978776Y-83357037D01*
X56974953Y-83360861D01*
X56971850Y-83365291D01*
X56971847Y-83365296D01*
X56847540Y-83542826D01*
X56847535Y-83542833D01*
X56844432Y-83547266D01*
X56842142Y-83552175D01*
X56842140Y-83552180D01*
X56837104Y-83562979D01*
X56791346Y-83615153D01*
X56724721Y-83634570D01*
X56658097Y-83615149D01*
X56612341Y-83562974D01*
X56607420Y-83552422D01*
X56602025Y-83543077D01*
X56561814Y-83485650D01*
X56553703Y-83478217D01*
X56544424Y-83484128D01*
X55840095Y-84188456D01*
X55833431Y-84199999D01*
X55116566Y-84199999D01*
X55109903Y-84188457D01*
X54405574Y-83484128D01*
X54396296Y-83478217D01*
X54388183Y-83485651D01*
X54347971Y-83543081D01*
X54342577Y-83552425D01*
X54251020Y-83748768D01*
X54247332Y-83758902D01*
X54191260Y-83968162D01*
X54189386Y-83978793D01*
X54170506Y-84194605D01*
X54170506Y-84205395D01*
X53625500Y-84205395D01*
X53625500Y-83121296D01*
X54753217Y-83121296D01*
X54759128Y-83130574D01*
X55463457Y-83834903D01*
X55475000Y-83841567D01*
X55486542Y-83834903D01*
X56190870Y-83130574D01*
X56196781Y-83121295D01*
X56189348Y-83113184D01*
X56131922Y-83072974D01*
X56122572Y-83067576D01*
X55926231Y-82976020D01*
X55916097Y-82972332D01*
X55706837Y-82916260D01*
X55696206Y-82914386D01*
X55480395Y-82895506D01*
X55469605Y-82895506D01*
X55253793Y-82914386D01*
X55243162Y-82916260D01*
X55033902Y-82972332D01*
X55023768Y-82976020D01*
X54827425Y-83067577D01*
X54818081Y-83072971D01*
X54760651Y-83113183D01*
X54753217Y-83121296D01*
X53625500Y-83121296D01*
X53625500Y-79000000D01*
X56719723Y-79000000D01*
X56720195Y-79005395D01*
X56738320Y-79212578D01*
X56738321Y-79212585D01*
X56738793Y-79217977D01*
X56740192Y-79223199D01*
X56740194Y-79223209D01*
X56788775Y-79404512D01*
X56795425Y-79429330D01*
X56797709Y-79434229D01*
X56797712Y-79434236D01*
X56885611Y-79622736D01*
X56885614Y-79622742D01*
X56887898Y-79627639D01*
X56890997Y-79632066D01*
X56890999Y-79632068D01*
X57010296Y-79802442D01*
X57010299Y-79802446D01*
X57013402Y-79806877D01*
X57168123Y-79961598D01*
X57172555Y-79964701D01*
X57172557Y-79964703D01*
X57196540Y-79981496D01*
X57347361Y-80087102D01*
X57545670Y-80179575D01*
X57703522Y-80221871D01*
X57751790Y-80234805D01*
X57751791Y-80234805D01*
X57757023Y-80236207D01*
X57975000Y-80255277D01*
X58192977Y-80236207D01*
X58404330Y-80179575D01*
X58602639Y-80087102D01*
X58781877Y-79961598D01*
X58936598Y-79806877D01*
X59062102Y-79627639D01*
X59154575Y-79429330D01*
X59211207Y-79217977D01*
X59230277Y-79000000D01*
X59211207Y-78782023D01*
X59154575Y-78570670D01*
X59142900Y-78545634D01*
X59093532Y-78439764D01*
X59062102Y-78372362D01*
X58936598Y-78193123D01*
X58781877Y-78038402D01*
X58777446Y-78035299D01*
X58777442Y-78035296D01*
X58607068Y-77915999D01*
X58607066Y-77915997D01*
X58602639Y-77912898D01*
X58597742Y-77910614D01*
X58597736Y-77910611D01*
X58409236Y-77822712D01*
X58409229Y-77822709D01*
X58404330Y-77820425D01*
X58399103Y-77819024D01*
X58399102Y-77819024D01*
X58198209Y-77765194D01*
X58198199Y-77765192D01*
X58192977Y-77763793D01*
X58187585Y-77763321D01*
X58187578Y-77763320D01*
X57980395Y-77745195D01*
X57975000Y-77744723D01*
X57969605Y-77745195D01*
X57762421Y-77763320D01*
X57762412Y-77763321D01*
X57757023Y-77763793D01*
X57751802Y-77765191D01*
X57751790Y-77765194D01*
X57550897Y-77819024D01*
X57550892Y-77819025D01*
X57545670Y-77820425D01*
X57540774Y-77822707D01*
X57540763Y-77822712D01*
X57352272Y-77910608D01*
X57352268Y-77910610D01*
X57347362Y-77912898D01*
X57342929Y-77916001D01*
X57342922Y-77916006D01*
X57172558Y-78035296D01*
X57172553Y-78035299D01*
X57168123Y-78038402D01*
X57164299Y-78042225D01*
X57164293Y-78042231D01*
X57017231Y-78189293D01*
X57017225Y-78189299D01*
X57013402Y-78193123D01*
X57010299Y-78197553D01*
X57010296Y-78197558D01*
X56891006Y-78367922D01*
X56891001Y-78367929D01*
X56887898Y-78372362D01*
X56885610Y-78377268D01*
X56885608Y-78377272D01*
X56797712Y-78565763D01*
X56797707Y-78565774D01*
X56795425Y-78570670D01*
X56794025Y-78575892D01*
X56794024Y-78575897D01*
X56740194Y-78776790D01*
X56740191Y-78776802D01*
X56738793Y-78782023D01*
X56738321Y-78787412D01*
X56738320Y-78787421D01*
X56721654Y-78977927D01*
X56719723Y-79000000D01*
X53625500Y-79000000D01*
X53625500Y-74120000D01*
X56719723Y-74120000D01*
X56720195Y-74125395D01*
X56738320Y-74332578D01*
X56738321Y-74332585D01*
X56738793Y-74337977D01*
X56740192Y-74343199D01*
X56740194Y-74343209D01*
X56794024Y-74544102D01*
X56795425Y-74549330D01*
X56797709Y-74554229D01*
X56797712Y-74554236D01*
X56885611Y-74742736D01*
X56885614Y-74742742D01*
X56887898Y-74747639D01*
X56890997Y-74752066D01*
X56890999Y-74752068D01*
X57010296Y-74922442D01*
X57010299Y-74922446D01*
X57013402Y-74926877D01*
X57168123Y-75081598D01*
X57172555Y-75084701D01*
X57172557Y-75084703D01*
X57306159Y-75178252D01*
X57347361Y-75207102D01*
X57545670Y-75299575D01*
X57703522Y-75341871D01*
X57751790Y-75354805D01*
X57751791Y-75354805D01*
X57757023Y-75356207D01*
X57975000Y-75375277D01*
X58192977Y-75356207D01*
X58404330Y-75299575D01*
X58602639Y-75207102D01*
X58781877Y-75081598D01*
X58936598Y-74926877D01*
X59062102Y-74747639D01*
X59154575Y-74549330D01*
X59211207Y-74337977D01*
X59230277Y-74120000D01*
X59211207Y-73902023D01*
X59154575Y-73690670D01*
X59062102Y-73492362D01*
X58936598Y-73313123D01*
X58781877Y-73158402D01*
X58777446Y-73155299D01*
X58777442Y-73155296D01*
X58607068Y-73035999D01*
X58607066Y-73035997D01*
X58602639Y-73032898D01*
X58597742Y-73030614D01*
X58597736Y-73030611D01*
X58409236Y-72942712D01*
X58409229Y-72942709D01*
X58404330Y-72940425D01*
X58399103Y-72939024D01*
X58399102Y-72939024D01*
X58198209Y-72885194D01*
X58198199Y-72885192D01*
X58192977Y-72883793D01*
X58187585Y-72883321D01*
X58187578Y-72883320D01*
X57980395Y-72865195D01*
X57975000Y-72864723D01*
X57969605Y-72865195D01*
X57762421Y-72883320D01*
X57762412Y-72883321D01*
X57757023Y-72883793D01*
X57751802Y-72885191D01*
X57751790Y-72885194D01*
X57550897Y-72939024D01*
X57550892Y-72939025D01*
X57545670Y-72940425D01*
X57540774Y-72942707D01*
X57540763Y-72942712D01*
X57352272Y-73030608D01*
X57352268Y-73030610D01*
X57347362Y-73032898D01*
X57342929Y-73036001D01*
X57342922Y-73036006D01*
X57172558Y-73155296D01*
X57172553Y-73155299D01*
X57168123Y-73158402D01*
X57164299Y-73162225D01*
X57164293Y-73162231D01*
X57017231Y-73309293D01*
X57017225Y-73309299D01*
X57013402Y-73313123D01*
X57010299Y-73317553D01*
X57010296Y-73317558D01*
X56891006Y-73487922D01*
X56891001Y-73487929D01*
X56887898Y-73492362D01*
X56885610Y-73497268D01*
X56885608Y-73497272D01*
X56797712Y-73685763D01*
X56797707Y-73685774D01*
X56795425Y-73690670D01*
X56794025Y-73695892D01*
X56794024Y-73695897D01*
X56740194Y-73896790D01*
X56740191Y-73896802D01*
X56738793Y-73902023D01*
X56738321Y-73907412D01*
X56738320Y-73907421D01*
X56728900Y-74015099D01*
X56719723Y-74120000D01*
X53625500Y-74120000D01*
X53625500Y-70028703D01*
X54753217Y-70028703D01*
X54760650Y-70036814D01*
X54818077Y-70077025D01*
X54827427Y-70082423D01*
X55023768Y-70173979D01*
X55033902Y-70177667D01*
X55243162Y-70233739D01*
X55253793Y-70235613D01*
X55469605Y-70254494D01*
X55480395Y-70254494D01*
X55696206Y-70235613D01*
X55706837Y-70233739D01*
X55916097Y-70177667D01*
X55926231Y-70173979D01*
X56122575Y-70082422D01*
X56131920Y-70077026D01*
X56189348Y-70036814D01*
X56196780Y-70028703D01*
X56190867Y-70019421D01*
X55486542Y-69315095D01*
X55475000Y-69308431D01*
X55463457Y-69315095D01*
X54759128Y-70019424D01*
X54753217Y-70028703D01*
X53625500Y-70028703D01*
X53625500Y-68955395D01*
X54170506Y-68955395D01*
X54189386Y-69171206D01*
X54191260Y-69181837D01*
X54247332Y-69391097D01*
X54251020Y-69401231D01*
X54342576Y-69597572D01*
X54347974Y-69606922D01*
X54388184Y-69664348D01*
X54396295Y-69671781D01*
X54405574Y-69665870D01*
X55109903Y-68961542D01*
X55116567Y-68950000D01*
X55833431Y-68950000D01*
X55840095Y-68961542D01*
X56544421Y-69665867D01*
X56553703Y-69671780D01*
X56561814Y-69664348D01*
X56602026Y-69606920D01*
X56607420Y-69597578D01*
X56612340Y-69587028D01*
X56658096Y-69534850D01*
X56724721Y-69515429D01*
X56791347Y-69534847D01*
X56837105Y-69587023D01*
X56842138Y-69597817D01*
X56842143Y-69597827D01*
X56844432Y-69602734D01*
X56974953Y-69789139D01*
X57135861Y-69950047D01*
X57322266Y-70080568D01*
X57528504Y-70176739D01*
X57533734Y-70178140D01*
X57533736Y-70178141D01*
X57741232Y-70233739D01*
X57748308Y-70235635D01*
X57975000Y-70255468D01*
X58201692Y-70235635D01*
X58421496Y-70176739D01*
X58627734Y-70080568D01*
X58814139Y-69950047D01*
X58975047Y-69789139D01*
X59105568Y-69602734D01*
X59201739Y-69396496D01*
X59260635Y-69176692D01*
X59280468Y-68950000D01*
X59260635Y-68723308D01*
X59250071Y-68683881D01*
X59203141Y-68508736D01*
X59203140Y-68508734D01*
X59201739Y-68503504D01*
X59105568Y-68297266D01*
X58975047Y-68110861D01*
X58814139Y-67949953D01*
X58690219Y-67863184D01*
X58632173Y-67822540D01*
X58632171Y-67822539D01*
X58627734Y-67819432D01*
X58489011Y-67754744D01*
X58426405Y-67725550D01*
X58426403Y-67725549D01*
X58421496Y-67723261D01*
X58416271Y-67721861D01*
X58416263Y-67721858D01*
X58206916Y-67665764D01*
X58206907Y-67665762D01*
X58201692Y-67664365D01*
X58196304Y-67663893D01*
X58196301Y-67663893D01*
X57980395Y-67645004D01*
X57975000Y-67644532D01*
X57969605Y-67645004D01*
X57753698Y-67663893D01*
X57753693Y-67663893D01*
X57748308Y-67664365D01*
X57743094Y-67665762D01*
X57743083Y-67665764D01*
X57533736Y-67721858D01*
X57533724Y-67721862D01*
X57528504Y-67723261D01*
X57523599Y-67725547D01*
X57523594Y-67725550D01*
X57327176Y-67817142D01*
X57327172Y-67817144D01*
X57322266Y-67819432D01*
X57317833Y-67822535D01*
X57317826Y-67822540D01*
X57140296Y-67946847D01*
X57140291Y-67946850D01*
X57135861Y-67949953D01*
X57132037Y-67953776D01*
X57132031Y-67953782D01*
X56978782Y-68107031D01*
X56978776Y-68107037D01*
X56974953Y-68110861D01*
X56971850Y-68115291D01*
X56971847Y-68115296D01*
X56847540Y-68292826D01*
X56847535Y-68292833D01*
X56844432Y-68297266D01*
X56842142Y-68302175D01*
X56842140Y-68302180D01*
X56837104Y-68312979D01*
X56791346Y-68365153D01*
X56724721Y-68384570D01*
X56658097Y-68365149D01*
X56612341Y-68312974D01*
X56607420Y-68302422D01*
X56602025Y-68293077D01*
X56561814Y-68235650D01*
X56553703Y-68228217D01*
X56544424Y-68234128D01*
X55840095Y-68938457D01*
X55833431Y-68950000D01*
X55116567Y-68950000D01*
X55109903Y-68938457D01*
X54405574Y-68234128D01*
X54396296Y-68228217D01*
X54388183Y-68235651D01*
X54347971Y-68293081D01*
X54342577Y-68302425D01*
X54251020Y-68498768D01*
X54247332Y-68508902D01*
X54191260Y-68718162D01*
X54189386Y-68728793D01*
X54170506Y-68944605D01*
X54170506Y-68955395D01*
X53625500Y-68955395D01*
X53625500Y-67871296D01*
X54753217Y-67871296D01*
X54759128Y-67880574D01*
X55463457Y-68584903D01*
X55475000Y-68591567D01*
X55486542Y-68584903D01*
X56190870Y-67880574D01*
X56196781Y-67871295D01*
X56189348Y-67863184D01*
X56131922Y-67822974D01*
X56122572Y-67817576D01*
X55926231Y-67726020D01*
X55916097Y-67722332D01*
X55706837Y-67666260D01*
X55696206Y-67664386D01*
X55480395Y-67645506D01*
X55469605Y-67645506D01*
X55253793Y-67664386D01*
X55243162Y-67666260D01*
X55033902Y-67722332D01*
X55023768Y-67726020D01*
X54827425Y-67817577D01*
X54818081Y-67822971D01*
X54760651Y-67863183D01*
X54753217Y-67871296D01*
X53625500Y-67871296D01*
X53625500Y-67242647D01*
X53636998Y-67190501D01*
X53669359Y-67148025D01*
X53716582Y-67123096D01*
X53769909Y-67120338D01*
X53935833Y-67148025D01*
X53950665Y-67150500D01*
X54194201Y-67150500D01*
X54199335Y-67150500D01*
X54444614Y-67109571D01*
X54679810Y-67028828D01*
X54898509Y-66910474D01*
X54946337Y-66873248D01*
X57710749Y-66873248D01*
X57718855Y-66884439D01*
X57747717Y-66906903D01*
X57756279Y-66912496D01*
X57965885Y-67025929D01*
X57975239Y-67030032D01*
X58200656Y-67107417D01*
X58210568Y-67109928D01*
X58445643Y-67149155D01*
X58455839Y-67150000D01*
X58694161Y-67150000D01*
X58704356Y-67149155D01*
X58939431Y-67109928D01*
X58949343Y-67107417D01*
X59174760Y-67030032D01*
X59184114Y-67025929D01*
X59393723Y-66912495D01*
X59402281Y-66906903D01*
X59431146Y-66884437D01*
X59439250Y-66873250D01*
X59432589Y-66861142D01*
X58586542Y-66015095D01*
X58575000Y-66008431D01*
X58563457Y-66015095D01*
X57717408Y-66861143D01*
X57710749Y-66873248D01*
X54946337Y-66873248D01*
X55094744Y-66757738D01*
X55263164Y-66574785D01*
X55399173Y-66366607D01*
X55499063Y-66138881D01*
X55560108Y-65897821D01*
X55580219Y-65655117D01*
X57070283Y-65655117D01*
X57089962Y-65892618D01*
X57091646Y-65902712D01*
X57150153Y-66133747D01*
X57153472Y-66143414D01*
X57249208Y-66361673D01*
X57254070Y-66370656D01*
X57343999Y-66508304D01*
X57351963Y-66516024D01*
X57361345Y-66510100D01*
X58209904Y-65661542D01*
X58216567Y-65650000D01*
X58933431Y-65650000D01*
X58940095Y-65661542D01*
X59788653Y-66510100D01*
X59798034Y-66516024D01*
X59806002Y-66508299D01*
X59895924Y-66370664D01*
X59900792Y-66361669D01*
X59996527Y-66143414D01*
X59999846Y-66133747D01*
X60058353Y-65902712D01*
X60060037Y-65892618D01*
X60079717Y-65655117D01*
X60079717Y-65644883D01*
X60060037Y-65407381D01*
X60058353Y-65397287D01*
X59999846Y-65166252D01*
X59996527Y-65156585D01*
X59900792Y-64938330D01*
X59895924Y-64929335D01*
X59806002Y-64791699D01*
X59798034Y-64783974D01*
X59788653Y-64789898D01*
X58940095Y-65638457D01*
X58933431Y-65650000D01*
X58216567Y-65650000D01*
X58216568Y-65649999D01*
X58209904Y-65638457D01*
X57361345Y-64789898D01*
X57351964Y-64783974D01*
X57343997Y-64791699D01*
X57254072Y-64929338D01*
X57249207Y-64938328D01*
X57153472Y-65156585D01*
X57150153Y-65166252D01*
X57091646Y-65397287D01*
X57089962Y-65407381D01*
X57070283Y-65644883D01*
X57070283Y-65655117D01*
X55580219Y-65655117D01*
X55580643Y-65650000D01*
X55560108Y-65402179D01*
X55499063Y-65161119D01*
X55405464Y-64947734D01*
X55401233Y-64938089D01*
X55401232Y-64938087D01*
X55399173Y-64933393D01*
X55263164Y-64725215D01*
X55259688Y-64721439D01*
X55098215Y-64546032D01*
X55098211Y-64546029D01*
X55094744Y-64542262D01*
X54946333Y-64426749D01*
X57710748Y-64426749D01*
X57717408Y-64438855D01*
X58563457Y-65284904D01*
X58575000Y-65291568D01*
X58586542Y-65284904D01*
X59432590Y-64438855D01*
X59439250Y-64426749D01*
X59431143Y-64415559D01*
X59402286Y-64393099D01*
X59393719Y-64387503D01*
X59184114Y-64274070D01*
X59174760Y-64269967D01*
X58949343Y-64192582D01*
X58939431Y-64190071D01*
X58704356Y-64150844D01*
X58694161Y-64150000D01*
X58455839Y-64150000D01*
X58445643Y-64150844D01*
X58210568Y-64190071D01*
X58200656Y-64192582D01*
X57975239Y-64269967D01*
X57965885Y-64274070D01*
X57756276Y-64387504D01*
X57747717Y-64393096D01*
X57718854Y-64415560D01*
X57710748Y-64426749D01*
X54946333Y-64426749D01*
X54945724Y-64426275D01*
X54902559Y-64392678D01*
X54902557Y-64392676D01*
X54898509Y-64389526D01*
X54876045Y-64377369D01*
X54684316Y-64273610D01*
X54684310Y-64273607D01*
X54679810Y-64271172D01*
X54674969Y-64269510D01*
X54674962Y-64269507D01*
X54449465Y-64192094D01*
X54449461Y-64192093D01*
X54444614Y-64190429D01*
X54435768Y-64188952D01*
X54204398Y-64150344D01*
X54204387Y-64150343D01*
X54199335Y-64149500D01*
X53950665Y-64149500D01*
X53945613Y-64150343D01*
X53945601Y-64150344D01*
X53710443Y-64189585D01*
X53710441Y-64189585D01*
X53705386Y-64190429D01*
X53700541Y-64192092D01*
X53700534Y-64192094D01*
X53475037Y-64269507D01*
X53475026Y-64269511D01*
X53470190Y-64271172D01*
X53465693Y-64273605D01*
X53465683Y-64273610D01*
X53256002Y-64387084D01*
X53255995Y-64387088D01*
X53251491Y-64389526D01*
X53247448Y-64392672D01*
X53247440Y-64392678D01*
X53059304Y-64539111D01*
X53055256Y-64542262D01*
X53051793Y-64546023D01*
X53051784Y-64546032D01*
X52890311Y-64721439D01*
X52890305Y-64721446D01*
X52886836Y-64725215D01*
X52884031Y-64729506D01*
X52884028Y-64729512D01*
X52753631Y-64929099D01*
X52753624Y-64929111D01*
X52750827Y-64933393D01*
X52748772Y-64938077D01*
X52748766Y-64938089D01*
X52661092Y-65137968D01*
X52650937Y-65161119D01*
X52649679Y-65166084D01*
X52649678Y-65166089D01*
X52591151Y-65397204D01*
X52591149Y-65397213D01*
X52589892Y-65402179D01*
X52589468Y-65407288D01*
X52589467Y-65407298D01*
X52573076Y-65605118D01*
X52557321Y-65650000D01*
X52573076Y-65694882D01*
X52589467Y-65892701D01*
X52589468Y-65892709D01*
X52589892Y-65897821D01*
X52591150Y-65902791D01*
X52591152Y-65902799D01*
X52608142Y-65969893D01*
X52607487Y-66033250D01*
X52575618Y-66088012D01*
X52537182Y-66126449D01*
X52487819Y-66156700D01*
X52430103Y-66161243D01*
X52376615Y-66139087D01*
X52339015Y-66095064D01*
X52325500Y-66038769D01*
X52325500Y-65705122D01*
X52339863Y-65649999D01*
X52325500Y-65594878D01*
X52325500Y-59205122D01*
X52339863Y-59150000D01*
X52557321Y-59150000D01*
X52573076Y-59194882D01*
X52589467Y-59392701D01*
X52589468Y-59392709D01*
X52589892Y-59397821D01*
X52591149Y-59402788D01*
X52591151Y-59402795D01*
X52649637Y-59633747D01*
X52650937Y-59638881D01*
X52660857Y-59661496D01*
X52748766Y-59861910D01*
X52748769Y-59861916D01*
X52750827Y-59866607D01*
X52753627Y-59870893D01*
X52753631Y-59870900D01*
X52850349Y-60018938D01*
X52886836Y-60074785D01*
X52890310Y-60078559D01*
X52890311Y-60078560D01*
X53051784Y-60253967D01*
X53051787Y-60253970D01*
X53055256Y-60257738D01*
X53251491Y-60410474D01*
X53470190Y-60528828D01*
X53705386Y-60609571D01*
X53950665Y-60650500D01*
X54194201Y-60650500D01*
X54199335Y-60650500D01*
X54444614Y-60609571D01*
X54679810Y-60528828D01*
X54898509Y-60410474D01*
X54946337Y-60373248D01*
X57710749Y-60373248D01*
X57718855Y-60384439D01*
X57747717Y-60406903D01*
X57756279Y-60412496D01*
X57965885Y-60525929D01*
X57975239Y-60530032D01*
X58200656Y-60607417D01*
X58210568Y-60609928D01*
X58445643Y-60649155D01*
X58455839Y-60650000D01*
X58694161Y-60650000D01*
X58704356Y-60649155D01*
X58939431Y-60609928D01*
X58949343Y-60607417D01*
X59174760Y-60530032D01*
X59184114Y-60525929D01*
X59393723Y-60412495D01*
X59402281Y-60406903D01*
X59431146Y-60384437D01*
X59439250Y-60373250D01*
X59432589Y-60361142D01*
X58586542Y-59515095D01*
X58574999Y-59508431D01*
X58563457Y-59515095D01*
X57717408Y-60361143D01*
X57710749Y-60373248D01*
X54946337Y-60373248D01*
X55094744Y-60257738D01*
X55263164Y-60074785D01*
X55399173Y-59866607D01*
X55499063Y-59638881D01*
X55560108Y-59397821D01*
X55580219Y-59155117D01*
X57070283Y-59155117D01*
X57089962Y-59392618D01*
X57091646Y-59402712D01*
X57150153Y-59633747D01*
X57153472Y-59643414D01*
X57249208Y-59861673D01*
X57254070Y-59870656D01*
X57343999Y-60008304D01*
X57351963Y-60016024D01*
X57361345Y-60010100D01*
X58209904Y-59161542D01*
X58216568Y-59150000D01*
X58933431Y-59150000D01*
X58940095Y-59161542D01*
X59788653Y-60010100D01*
X59798034Y-60016024D01*
X59806002Y-60008299D01*
X59895924Y-59870664D01*
X59900792Y-59861669D01*
X59996527Y-59643414D01*
X59999846Y-59633747D01*
X60058353Y-59402712D01*
X60060037Y-59392618D01*
X60079717Y-59155117D01*
X60079717Y-59144883D01*
X60060037Y-58907381D01*
X60058353Y-58897287D01*
X59999846Y-58666252D01*
X59996527Y-58656585D01*
X59900792Y-58438330D01*
X59895924Y-58429335D01*
X59806002Y-58291699D01*
X59798034Y-58283974D01*
X59788653Y-58289898D01*
X58940095Y-59138457D01*
X58933431Y-59150000D01*
X58216568Y-59150000D01*
X58209904Y-59138457D01*
X57361345Y-58289898D01*
X57351964Y-58283974D01*
X57343997Y-58291699D01*
X57254072Y-58429338D01*
X57249207Y-58438328D01*
X57153472Y-58656585D01*
X57150153Y-58666252D01*
X57091646Y-58897287D01*
X57089962Y-58907381D01*
X57070283Y-59144883D01*
X57070283Y-59155117D01*
X55580219Y-59155117D01*
X55580643Y-59150000D01*
X55560108Y-58902179D01*
X55499063Y-58661119D01*
X55399173Y-58433393D01*
X55381263Y-58405980D01*
X55265971Y-58229512D01*
X55263164Y-58225215D01*
X55194227Y-58150329D01*
X55098215Y-58046032D01*
X55098211Y-58046029D01*
X55094744Y-58042262D01*
X54946333Y-57926749D01*
X57710748Y-57926749D01*
X57717408Y-57938855D01*
X58563457Y-58784904D01*
X58574999Y-58791568D01*
X58586542Y-58784904D01*
X59432590Y-57938855D01*
X59439250Y-57926749D01*
X59431143Y-57915559D01*
X59402286Y-57893099D01*
X59393719Y-57887503D01*
X59184114Y-57774070D01*
X59174760Y-57769967D01*
X58949343Y-57692582D01*
X58939431Y-57690071D01*
X58704356Y-57650844D01*
X58694161Y-57650000D01*
X58455839Y-57650000D01*
X58445643Y-57650844D01*
X58210568Y-57690071D01*
X58200656Y-57692582D01*
X57975239Y-57769967D01*
X57965885Y-57774070D01*
X57756276Y-57887504D01*
X57747717Y-57893096D01*
X57718854Y-57915560D01*
X57710748Y-57926749D01*
X54946333Y-57926749D01*
X54944086Y-57925000D01*
X54902559Y-57892678D01*
X54902557Y-57892676D01*
X54898509Y-57889526D01*
X54821301Y-57847743D01*
X54684316Y-57773610D01*
X54684310Y-57773607D01*
X54679810Y-57771172D01*
X54674969Y-57769510D01*
X54674962Y-57769507D01*
X54449465Y-57692094D01*
X54449461Y-57692093D01*
X54444614Y-57690429D01*
X54435768Y-57688952D01*
X54204398Y-57650344D01*
X54204387Y-57650343D01*
X54199335Y-57649500D01*
X53950665Y-57649500D01*
X53945613Y-57650343D01*
X53945601Y-57650344D01*
X53710443Y-57689585D01*
X53710441Y-57689585D01*
X53705386Y-57690429D01*
X53700541Y-57692092D01*
X53700534Y-57692094D01*
X53475037Y-57769507D01*
X53475026Y-57769511D01*
X53470190Y-57771172D01*
X53465693Y-57773605D01*
X53465683Y-57773610D01*
X53256002Y-57887084D01*
X53255995Y-57887088D01*
X53251491Y-57889526D01*
X53247448Y-57892672D01*
X53247440Y-57892678D01*
X53094618Y-58011625D01*
X53055256Y-58042262D01*
X53051793Y-58046023D01*
X53051784Y-58046032D01*
X52890311Y-58221439D01*
X52890305Y-58221446D01*
X52886836Y-58225215D01*
X52884031Y-58229506D01*
X52884028Y-58229512D01*
X52753631Y-58429099D01*
X52753624Y-58429111D01*
X52750827Y-58433393D01*
X52748772Y-58438077D01*
X52748766Y-58438089D01*
X52663719Y-58631978D01*
X52650937Y-58661119D01*
X52649679Y-58666084D01*
X52649678Y-58666089D01*
X52591151Y-58897204D01*
X52591149Y-58897213D01*
X52589892Y-58902179D01*
X52589468Y-58907288D01*
X52589467Y-58907298D01*
X52573076Y-59105118D01*
X52557321Y-59150000D01*
X52339863Y-59150000D01*
X52325500Y-59094878D01*
X52325500Y-49974500D01*
X52342113Y-49912500D01*
X52387500Y-49867113D01*
X52449500Y-49850500D01*
X57930952Y-49850500D01*
X57987247Y-49864015D01*
G37*
%TD.AperFunction*%
%TA.AperFunction,Conductor*%
G36*
X63687431Y-87183799D02*
G01*
X68614270Y-92110638D01*
X68626052Y-92124271D01*
X68640390Y-92143530D01*
X68645917Y-92148167D01*
X68645922Y-92148173D01*
X68678337Y-92175372D01*
X68686312Y-92182680D01*
X68690223Y-92186591D01*
X68714556Y-92205831D01*
X68717310Y-92208073D01*
X68774786Y-92256302D01*
X68781245Y-92259546D01*
X68784134Y-92261446D01*
X68784419Y-92261652D01*
X68784711Y-92261815D01*
X68787662Y-92263635D01*
X68793323Y-92268111D01*
X68799861Y-92271160D01*
X68804795Y-92274203D01*
X68835550Y-92301075D01*
X68855812Y-92325764D01*
X68864117Y-92335883D01*
X69016462Y-92460910D01*
X69021834Y-92463781D01*
X69021838Y-92463784D01*
X69060343Y-92484365D01*
X69190273Y-92553814D01*
X69378868Y-92611024D01*
X69575000Y-92630341D01*
X69771132Y-92611024D01*
X69959727Y-92553814D01*
X70133538Y-92460910D01*
X70285883Y-92335883D01*
X70410910Y-92183538D01*
X70503814Y-92009727D01*
X70561024Y-91821132D01*
X70580341Y-91625000D01*
X70561024Y-91428868D01*
X70503814Y-91240273D01*
X70410910Y-91066462D01*
X70285883Y-90914117D01*
X70133538Y-90789090D01*
X70128162Y-90786216D01*
X70128160Y-90786215D01*
X69995255Y-90715176D01*
X69947349Y-90669566D01*
X69929708Y-90605817D01*
X69947350Y-90542069D01*
X69995252Y-90496462D01*
X70108538Y-90435910D01*
X70260883Y-90310883D01*
X70385910Y-90158538D01*
X70478814Y-89984727D01*
X70536024Y-89796132D01*
X70555341Y-89600000D01*
X70536024Y-89403868D01*
X70478814Y-89215273D01*
X70445169Y-89152327D01*
X70388784Y-89046838D01*
X70388781Y-89046834D01*
X70385910Y-89041462D01*
X70260883Y-88889117D01*
X70108538Y-88764090D01*
X70103162Y-88761216D01*
X70103160Y-88761215D01*
X69944714Y-88676524D01*
X69898586Y-88633791D01*
X69879351Y-88573925D01*
X69891955Y-88512321D01*
X69933157Y-88464820D01*
X69992360Y-88443638D01*
X70026692Y-88440635D01*
X70246496Y-88381739D01*
X70452734Y-88285568D01*
X70639139Y-88155047D01*
X70687819Y-88106367D01*
X70737182Y-88076117D01*
X70794898Y-88071575D01*
X70848385Y-88093730D01*
X70885985Y-88137753D01*
X70899500Y-88194048D01*
X70899500Y-93286293D01*
X70898191Y-93304264D01*
X70894711Y-93328023D01*
X70895340Y-93335214D01*
X70895340Y-93335221D01*
X70899028Y-93377369D01*
X70899500Y-93388176D01*
X70899500Y-93393709D01*
X70899916Y-93397272D01*
X70899917Y-93397282D01*
X70903098Y-93424496D01*
X70903464Y-93428082D01*
X70909371Y-93495604D01*
X70909372Y-93495609D01*
X70910001Y-93502797D01*
X70912271Y-93509649D01*
X70912976Y-93513063D01*
X70913028Y-93513386D01*
X70913119Y-93513707D01*
X70913920Y-93517090D01*
X70914759Y-93524255D01*
X70917225Y-93531031D01*
X70917227Y-93531038D01*
X70940403Y-93594714D01*
X70941586Y-93598119D01*
X70962913Y-93662479D01*
X70962917Y-93662489D01*
X70965186Y-93669334D01*
X70968970Y-93675470D01*
X70970444Y-93678631D01*
X70970570Y-93678935D01*
X70970729Y-93679220D01*
X70972295Y-93682338D01*
X70974763Y-93689117D01*
X70978727Y-93695144D01*
X70978729Y-93695148D01*
X71015979Y-93751784D01*
X71017900Y-93754799D01*
X71057288Y-93818656D01*
X71062392Y-93823760D01*
X71064542Y-93826479D01*
X71064739Y-93826752D01*
X71064973Y-93827007D01*
X71067202Y-93829663D01*
X71071170Y-93835696D01*
X71076423Y-93840652D01*
X71076424Y-93840653D01*
X71125709Y-93887151D01*
X71128296Y-93889664D01*
X78324267Y-101085634D01*
X78336049Y-101099267D01*
X78346077Y-101112738D01*
X78346081Y-101112742D01*
X78350390Y-101118530D01*
X78388352Y-101150384D01*
X78396314Y-101157681D01*
X78400223Y-101161590D01*
X78403055Y-101163829D01*
X78403065Y-101163838D01*
X78424542Y-101180819D01*
X78427298Y-101183063D01*
X78484786Y-101231302D01*
X78491245Y-101234546D01*
X78494134Y-101236446D01*
X78494417Y-101236650D01*
X78494710Y-101236814D01*
X78497659Y-101238632D01*
X78503323Y-101243111D01*
X78571357Y-101274835D01*
X78574483Y-101276348D01*
X78641567Y-101310040D01*
X78648597Y-101311705D01*
X78651831Y-101312883D01*
X78652163Y-101313020D01*
X78652493Y-101313114D01*
X78655781Y-101314203D01*
X78662327Y-101317256D01*
X78735862Y-101332439D01*
X78739223Y-101333184D01*
X78812279Y-101350500D01*
X78819509Y-101350500D01*
X78822949Y-101350902D01*
X78823286Y-101350956D01*
X78823640Y-101350972D01*
X78827066Y-101351271D01*
X78834144Y-101352733D01*
X78909110Y-101350552D01*
X78912717Y-101350500D01*
X79050501Y-101350500D01*
X79112501Y-101367113D01*
X79157888Y-101412500D01*
X79174501Y-101474500D01*
X79174501Y-101497872D01*
X79174853Y-101501150D01*
X79174854Y-101501161D01*
X79180909Y-101557483D01*
X79179491Y-101557635D01*
X79179793Y-101602394D01*
X79155989Y-101652439D01*
X79112761Y-101687116D01*
X79058745Y-101699500D01*
X77837229Y-101699500D01*
X77789776Y-101690061D01*
X77749548Y-101663181D01*
X63506716Y-87420348D01*
X63477875Y-87375078D01*
X63470869Y-87321862D01*
X63476222Y-87260670D01*
X63501374Y-87195994D01*
X63557339Y-87154958D01*
X63626588Y-87150419D01*
X63687431Y-87183799D01*
G37*
%TD.AperFunction*%
%TA.AperFunction,Conductor*%
G36*
X83170065Y-82839015D02*
G01*
X83214088Y-82876615D01*
X83236243Y-82930102D01*
X83231701Y-82987818D01*
X83201451Y-83037181D01*
X77424358Y-88814272D01*
X77410730Y-88826050D01*
X77397263Y-88836076D01*
X77397257Y-88836081D01*
X77391470Y-88840390D01*
X77386832Y-88845916D01*
X77386830Y-88845919D01*
X77359633Y-88878330D01*
X77352350Y-88886280D01*
X77350969Y-88887661D01*
X77350955Y-88887676D01*
X77348409Y-88890223D01*
X77346173Y-88893050D01*
X77346171Y-88893053D01*
X77329176Y-88914546D01*
X77326902Y-88917337D01*
X77283339Y-88969254D01*
X77283335Y-88969258D01*
X77278698Y-88974786D01*
X77275460Y-88981230D01*
X77273537Y-88984155D01*
X77273352Y-88984411D01*
X77273192Y-88984698D01*
X77271363Y-88987663D01*
X77266889Y-88993323D01*
X77263839Y-88999862D01*
X77263838Y-88999865D01*
X77235192Y-89061294D01*
X77233623Y-89064536D01*
X77203196Y-89125122D01*
X77203194Y-89125127D01*
X77199960Y-89131567D01*
X77198296Y-89138584D01*
X77197109Y-89141847D01*
X77196977Y-89142163D01*
X77196888Y-89142480D01*
X77195791Y-89145787D01*
X77192743Y-89152327D01*
X77191284Y-89159390D01*
X77191283Y-89159395D01*
X77177574Y-89225787D01*
X77176794Y-89229306D01*
X77161164Y-89295255D01*
X77161163Y-89295260D01*
X77159500Y-89302279D01*
X77159500Y-89309491D01*
X77159097Y-89312939D01*
X77159043Y-89313273D01*
X77159028Y-89313626D01*
X77158726Y-89317070D01*
X77157266Y-89324144D01*
X77157476Y-89331360D01*
X77157476Y-89331361D01*
X77159448Y-89399130D01*
X77159500Y-89402737D01*
X77159500Y-90225501D01*
X77142887Y-90287501D01*
X77097500Y-90332888D01*
X77035500Y-90349501D01*
X77012128Y-90349501D01*
X77008850Y-90349853D01*
X77008838Y-90349854D01*
X76960231Y-90355079D01*
X76960225Y-90355080D01*
X76952517Y-90355909D01*
X76945252Y-90358618D01*
X76945246Y-90358620D01*
X76825980Y-90403104D01*
X76825978Y-90403104D01*
X76817669Y-90406204D01*
X76810572Y-90411516D01*
X76810568Y-90411519D01*
X76709550Y-90487141D01*
X76709546Y-90487144D01*
X76702454Y-90492454D01*
X76697144Y-90499546D01*
X76697141Y-90499550D01*
X76621519Y-90600568D01*
X76621516Y-90600572D01*
X76616204Y-90607669D01*
X76613104Y-90615978D01*
X76613104Y-90615980D01*
X76568620Y-90735247D01*
X76568619Y-90735250D01*
X76565909Y-90742517D01*
X76565079Y-90750227D01*
X76565079Y-90750232D01*
X76559855Y-90798819D01*
X76559854Y-90798831D01*
X76559500Y-90802127D01*
X76559500Y-90805448D01*
X76559500Y-90805449D01*
X76559500Y-92548771D01*
X76545985Y-92605066D01*
X76508385Y-92649089D01*
X76454898Y-92671244D01*
X76397182Y-92666702D01*
X76347820Y-92636453D01*
X75136819Y-91425451D01*
X75109939Y-91385223D01*
X75100500Y-91337770D01*
X75100500Y-84831978D01*
X75107749Y-84790204D01*
X75128647Y-84753313D01*
X75155434Y-84720673D01*
X75185910Y-84683538D01*
X75278814Y-84509727D01*
X75336024Y-84321132D01*
X75353743Y-84141222D01*
X75354744Y-84131062D01*
X75355341Y-84125000D01*
X75336024Y-83928868D01*
X75278814Y-83740273D01*
X75185910Y-83566462D01*
X75060883Y-83414117D01*
X75056176Y-83410254D01*
X74913250Y-83292957D01*
X74913249Y-83292956D01*
X74908538Y-83289090D01*
X74903167Y-83286219D01*
X74903161Y-83286215D01*
X74740099Y-83199057D01*
X74740095Y-83199055D01*
X74734727Y-83196186D01*
X74701907Y-83186230D01*
X74551962Y-83140744D01*
X74551957Y-83140743D01*
X74546132Y-83138976D01*
X74540073Y-83138379D01*
X74540067Y-83138378D01*
X74356062Y-83120256D01*
X74350000Y-83119659D01*
X74343938Y-83120256D01*
X74159932Y-83138378D01*
X74159924Y-83138379D01*
X74153868Y-83138976D01*
X74148038Y-83140744D01*
X74148030Y-83140746D01*
X74116748Y-83150235D01*
X74052596Y-83152334D01*
X73995988Y-83122076D01*
X73962094Y-83067567D01*
X73955583Y-83046103D01*
X73955581Y-83046098D01*
X73953814Y-83040273D01*
X73936537Y-83007951D01*
X73921934Y-82946456D01*
X73939539Y-82885751D01*
X73984778Y-82841609D01*
X74045897Y-82825500D01*
X83113770Y-82825500D01*
X83170065Y-82839015D01*
G37*
%TD.AperFunction*%
%TA.AperFunction,Conductor*%
G36*
X68480708Y-71428288D02*
G01*
X68524240Y-71464014D01*
X68547481Y-71515309D01*
X68545639Y-71571590D01*
X68522696Y-71657215D01*
X68517305Y-71677337D01*
X68514365Y-71688308D01*
X68513893Y-71693693D01*
X68513893Y-71693698D01*
X68497146Y-71885122D01*
X68494532Y-71915000D01*
X68495004Y-71920395D01*
X68512904Y-72125000D01*
X68514365Y-72141692D01*
X68515762Y-72146907D01*
X68515764Y-72146916D01*
X68571858Y-72356263D01*
X68571861Y-72356271D01*
X68573261Y-72361496D01*
X68669432Y-72567734D01*
X68672539Y-72572171D01*
X68672540Y-72572173D01*
X68740016Y-72668540D01*
X68799953Y-72754139D01*
X68960861Y-72915047D01*
X69147266Y-73045568D01*
X69152172Y-73047855D01*
X69152176Y-73047858D01*
X69205274Y-73072618D01*
X69257450Y-73118375D01*
X69276869Y-73185000D01*
X69257450Y-73251625D01*
X69205274Y-73297382D01*
X69152176Y-73322141D01*
X69152163Y-73322148D01*
X69147266Y-73324432D01*
X69142833Y-73327535D01*
X69142826Y-73327540D01*
X68965296Y-73451847D01*
X68965291Y-73451850D01*
X68960861Y-73454953D01*
X68957037Y-73458776D01*
X68957031Y-73458782D01*
X68803782Y-73612031D01*
X68803776Y-73612037D01*
X68799953Y-73615861D01*
X68796850Y-73620291D01*
X68796847Y-73620296D01*
X68672540Y-73797826D01*
X68672535Y-73797833D01*
X68669432Y-73802266D01*
X68667144Y-73807172D01*
X68667142Y-73807176D01*
X68575550Y-74003594D01*
X68575547Y-74003599D01*
X68573261Y-74008504D01*
X68571862Y-74013724D01*
X68571858Y-74013736D01*
X68515764Y-74223083D01*
X68515762Y-74223094D01*
X68514365Y-74228308D01*
X68513893Y-74233693D01*
X68513893Y-74233698D01*
X68504770Y-74337977D01*
X68494532Y-74455000D01*
X68495004Y-74460395D01*
X68513032Y-74666462D01*
X68514365Y-74681692D01*
X68515762Y-74686907D01*
X68515764Y-74686916D01*
X68571858Y-74896263D01*
X68571861Y-74896271D01*
X68573261Y-74901496D01*
X68669432Y-75107734D01*
X68799953Y-75294139D01*
X68960861Y-75455047D01*
X69147266Y-75585568D01*
X69152172Y-75587855D01*
X69152176Y-75587858D01*
X69205274Y-75612618D01*
X69257450Y-75658375D01*
X69276869Y-75725000D01*
X69257450Y-75791625D01*
X69205274Y-75837382D01*
X69152176Y-75862141D01*
X69152163Y-75862148D01*
X69147266Y-75864432D01*
X69142833Y-75867535D01*
X69142826Y-75867540D01*
X68965296Y-75991847D01*
X68965291Y-75991850D01*
X68960861Y-75994953D01*
X68957037Y-75998776D01*
X68957031Y-75998782D01*
X68803782Y-76152031D01*
X68803776Y-76152037D01*
X68799953Y-76155861D01*
X68796850Y-76160291D01*
X68796847Y-76160296D01*
X68672540Y-76337826D01*
X68672535Y-76337833D01*
X68669432Y-76342266D01*
X68667144Y-76347172D01*
X68667142Y-76347176D01*
X68575550Y-76543594D01*
X68575547Y-76543599D01*
X68573261Y-76548504D01*
X68571862Y-76553724D01*
X68571858Y-76553736D01*
X68515764Y-76763083D01*
X68515762Y-76763094D01*
X68514365Y-76768308D01*
X68513893Y-76773693D01*
X68513893Y-76773698D01*
X68500536Y-76926373D01*
X68494532Y-76995000D01*
X68495004Y-77000395D01*
X68513514Y-77211973D01*
X68514365Y-77221692D01*
X68515762Y-77226907D01*
X68515764Y-77226916D01*
X68571858Y-77436263D01*
X68571861Y-77436271D01*
X68573261Y-77441496D01*
X68575549Y-77446403D01*
X68575550Y-77446405D01*
X68592794Y-77483385D01*
X68669432Y-77647734D01*
X68672539Y-77652171D01*
X68672540Y-77652173D01*
X68687465Y-77673488D01*
X68708581Y-77726640D01*
X68703596Y-77783615D01*
X68673571Y-77832292D01*
X67589358Y-78916505D01*
X67575730Y-78928283D01*
X67562263Y-78938309D01*
X67562257Y-78938314D01*
X67556470Y-78942623D01*
X67551832Y-78948149D01*
X67551830Y-78948152D01*
X67524633Y-78980563D01*
X67517350Y-78988513D01*
X67515969Y-78989894D01*
X67515955Y-78989909D01*
X67513409Y-78992456D01*
X67511175Y-78995281D01*
X67511169Y-78995288D01*
X67496767Y-79013503D01*
X67448613Y-79050452D01*
X67388692Y-79060121D01*
X67331360Y-79040193D01*
X67290355Y-78995443D01*
X67275500Y-78936593D01*
X67275500Y-73574063D01*
X67284528Y-73527614D01*
X67310299Y-73487929D01*
X67341685Y-73465949D01*
X67341163Y-73465045D01*
X67346791Y-73461794D01*
X67352730Y-73459151D01*
X67505871Y-73347888D01*
X67632533Y-73207216D01*
X67727179Y-73043284D01*
X67785674Y-72863256D01*
X67805460Y-72675000D01*
X67785674Y-72486744D01*
X67727179Y-72306716D01*
X67632533Y-72142784D01*
X67586231Y-72091361D01*
X67510220Y-72006942D01*
X67510219Y-72006941D01*
X67505871Y-72002112D01*
X67500613Y-71998292D01*
X67500611Y-71998290D01*
X67357988Y-71894669D01*
X67357987Y-71894668D01*
X67352730Y-71890849D01*
X67346792Y-71888205D01*
X67185745Y-71816501D01*
X67185740Y-71816499D01*
X67179803Y-71813856D01*
X67173444Y-71812504D01*
X67173440Y-71812503D01*
X67001008Y-71775852D01*
X67001005Y-71775851D01*
X66994646Y-71774500D01*
X66805354Y-71774500D01*
X66798996Y-71775851D01*
X66798990Y-71775852D01*
X66778617Y-71780183D01*
X66715755Y-71777219D01*
X66662444Y-71743777D01*
X66632415Y-71688471D01*
X66633404Y-71625547D01*
X66665155Y-71571212D01*
X66784548Y-71451819D01*
X66824776Y-71424939D01*
X66872229Y-71415500D01*
X68425864Y-71415500D01*
X68480708Y-71428288D01*
G37*
%TD.AperFunction*%
%TA.AperFunction,Conductor*%
G36*
X75967859Y-53558288D02*
G01*
X76011391Y-53594014D01*
X76034632Y-53645309D01*
X76032790Y-53701594D01*
X75998056Y-53831219D01*
X75997688Y-53842448D01*
X76008631Y-53845000D01*
X77451000Y-53845000D01*
X77513000Y-53861613D01*
X77558387Y-53907000D01*
X77575000Y-53969000D01*
X77575000Y-56368674D01*
X77578450Y-56381549D01*
X77591326Y-56385000D01*
X78641369Y-56385000D01*
X78652311Y-56382448D01*
X78651943Y-56371219D01*
X78599831Y-56176736D01*
X78596143Y-56166602D01*
X78500889Y-55962332D01*
X78495491Y-55952982D01*
X78366215Y-55768357D01*
X78359280Y-55760092D01*
X78199909Y-55600721D01*
X78191643Y-55593784D01*
X78009969Y-55466575D01*
X77971104Y-55422257D01*
X77957093Y-55365000D01*
X77971104Y-55307743D01*
X78009969Y-55263425D01*
X78191643Y-55136215D01*
X78199909Y-55129278D01*
X78359278Y-54969909D01*
X78366215Y-54961643D01*
X78495492Y-54777016D01*
X78500887Y-54767671D01*
X78513146Y-54741381D01*
X78550041Y-54695408D01*
X78603996Y-54671666D01*
X78662817Y-54675521D01*
X78713211Y-54706101D01*
X86063181Y-62056070D01*
X86090061Y-62096298D01*
X86099500Y-62143751D01*
X86099500Y-64286293D01*
X86098191Y-64304264D01*
X86094711Y-64328023D01*
X86095340Y-64335214D01*
X86095340Y-64335221D01*
X86099028Y-64377369D01*
X86099500Y-64388176D01*
X86099500Y-64393709D01*
X86099916Y-64397272D01*
X86099917Y-64397282D01*
X86103098Y-64424496D01*
X86103464Y-64428082D01*
X86109371Y-64495604D01*
X86109372Y-64495609D01*
X86110001Y-64502797D01*
X86112271Y-64509649D01*
X86112976Y-64513063D01*
X86113028Y-64513384D01*
X86113120Y-64513709D01*
X86113920Y-64517085D01*
X86114759Y-64524255D01*
X86140413Y-64594742D01*
X86141582Y-64598108D01*
X86162913Y-64662479D01*
X86162917Y-64662489D01*
X86165186Y-64669334D01*
X86168971Y-64675472D01*
X86170443Y-64678628D01*
X86170570Y-64678935D01*
X86170729Y-64679220D01*
X86172295Y-64682338D01*
X86174763Y-64689117D01*
X86178727Y-64695144D01*
X86178729Y-64695148D01*
X86215979Y-64751784D01*
X86217900Y-64754799D01*
X86257288Y-64818656D01*
X86262392Y-64823760D01*
X86264542Y-64826479D01*
X86264739Y-64826752D01*
X86264973Y-64827007D01*
X86267202Y-64829663D01*
X86271170Y-64835696D01*
X86276423Y-64840652D01*
X86276424Y-64840653D01*
X86325709Y-64887151D01*
X86328296Y-64889664D01*
X88219405Y-66780773D01*
X88243818Y-66815436D01*
X88255127Y-66856298D01*
X88263379Y-66940076D01*
X88263380Y-66940081D01*
X88263976Y-66946132D01*
X88265741Y-66951953D01*
X88265742Y-66951954D01*
X88313050Y-67107905D01*
X88321186Y-67134727D01*
X88324055Y-67140095D01*
X88324057Y-67140099D01*
X88411215Y-67303161D01*
X88411219Y-67303167D01*
X88414090Y-67308538D01*
X88417956Y-67313249D01*
X88417957Y-67313250D01*
X88439924Y-67340017D01*
X88539117Y-67460883D01*
X88691462Y-67585910D01*
X88696834Y-67588781D01*
X88696838Y-67588784D01*
X88801136Y-67644532D01*
X88865273Y-67678814D01*
X89053868Y-67736024D01*
X89250000Y-67755341D01*
X89446132Y-67736024D01*
X89634727Y-67678814D01*
X89808538Y-67585910D01*
X89960883Y-67460883D01*
X90085910Y-67308538D01*
X90178814Y-67134727D01*
X90236024Y-66946132D01*
X90255341Y-66750000D01*
X90236024Y-66553868D01*
X90217133Y-66491594D01*
X90212357Y-66475848D01*
X90210257Y-66411695D01*
X90240515Y-66355087D01*
X90295019Y-66321193D01*
X90434727Y-66278814D01*
X90467048Y-66261537D01*
X90528544Y-66246934D01*
X90589249Y-66264539D01*
X90633391Y-66309778D01*
X90649500Y-66370897D01*
X90649500Y-69812770D01*
X90640061Y-69860223D01*
X90613181Y-69900451D01*
X83015451Y-77498181D01*
X82975223Y-77525061D01*
X82927770Y-77534500D01*
X82835090Y-77534500D01*
X82778795Y-77520985D01*
X82734772Y-77483385D01*
X82712617Y-77429898D01*
X82717159Y-77372182D01*
X82742005Y-77295710D01*
X82760674Y-77238256D01*
X82769118Y-77157910D01*
X82779699Y-77121815D01*
X82779326Y-77121680D01*
X82781449Y-77115845D01*
X82781634Y-77115214D01*
X82785040Y-77108433D01*
X82786707Y-77101396D01*
X82787879Y-77098177D01*
X82788020Y-77097835D01*
X82788118Y-77097492D01*
X82789199Y-77094227D01*
X82792257Y-77087673D01*
X82807435Y-77014157D01*
X82808197Y-77010722D01*
X82825500Y-76937721D01*
X82825500Y-76930501D01*
X82825902Y-76927062D01*
X82825956Y-76926723D01*
X82825972Y-76926373D01*
X82826273Y-76922928D01*
X82827734Y-76915855D01*
X82825552Y-76840861D01*
X82825500Y-76837255D01*
X82825500Y-69068707D01*
X82826809Y-69050736D01*
X82827297Y-69047396D01*
X82830289Y-69026977D01*
X82825971Y-68977633D01*
X82825500Y-68966827D01*
X82825500Y-68964901D01*
X82825500Y-68961291D01*
X82821898Y-68930478D01*
X82821534Y-68926915D01*
X82821280Y-68924014D01*
X82814998Y-68852202D01*
X82812724Y-68845340D01*
X82812027Y-68841964D01*
X82811970Y-68841614D01*
X82811875Y-68841277D01*
X82811079Y-68837920D01*
X82810241Y-68830745D01*
X82784579Y-68760238D01*
X82783403Y-68756854D01*
X82774073Y-68728698D01*
X82759814Y-68685665D01*
X82756022Y-68679518D01*
X82754559Y-68676379D01*
X82754431Y-68676069D01*
X82754257Y-68675758D01*
X82752710Y-68672678D01*
X82750237Y-68665883D01*
X82709014Y-68603207D01*
X82707082Y-68600174D01*
X82671505Y-68542495D01*
X82667711Y-68536344D01*
X82662601Y-68531234D01*
X82660463Y-68528530D01*
X82660254Y-68528241D01*
X82660027Y-68527993D01*
X82657796Y-68525334D01*
X82653830Y-68519304D01*
X82648581Y-68514352D01*
X82648578Y-68514348D01*
X82599272Y-68467831D01*
X82596685Y-68465318D01*
X78697869Y-64566501D01*
X78669028Y-64521230D01*
X78662022Y-64468012D01*
X78662561Y-64461859D01*
X78680659Y-64255000D01*
X78660063Y-64019592D01*
X78609750Y-63831819D01*
X78600305Y-63796569D01*
X78600304Y-63796567D01*
X78598903Y-63791337D01*
X78499035Y-63577171D01*
X78363495Y-63383599D01*
X78196401Y-63216505D01*
X78191970Y-63213402D01*
X78191966Y-63213399D01*
X78010841Y-63086574D01*
X77971976Y-63042256D01*
X77957965Y-62984999D01*
X77971976Y-62927742D01*
X78010839Y-62883426D01*
X78196401Y-62753495D01*
X78363495Y-62586401D01*
X78499035Y-62392830D01*
X78598903Y-62178663D01*
X78660063Y-61950408D01*
X78680659Y-61715000D01*
X78660063Y-61479592D01*
X78609026Y-61289117D01*
X78600305Y-61256569D01*
X78600304Y-61256567D01*
X78598903Y-61251337D01*
X78499035Y-61037171D01*
X78363495Y-60843599D01*
X78196401Y-60676505D01*
X78191968Y-60673401D01*
X78191961Y-60673395D01*
X78010842Y-60546575D01*
X77971976Y-60502257D01*
X77957965Y-60445000D01*
X77971976Y-60387743D01*
X78010842Y-60343425D01*
X78191961Y-60216604D01*
X78191961Y-60216603D01*
X78196401Y-60213495D01*
X78363495Y-60046401D01*
X78499035Y-59852830D01*
X78598903Y-59638663D01*
X78660063Y-59410408D01*
X78680659Y-59175000D01*
X78660063Y-58939592D01*
X78598903Y-58711337D01*
X78499035Y-58497171D01*
X78363495Y-58303599D01*
X78196401Y-58136505D01*
X78191970Y-58133402D01*
X78191966Y-58133399D01*
X78010405Y-58006269D01*
X77971540Y-57961951D01*
X77957529Y-57904694D01*
X77971540Y-57847437D01*
X78010406Y-57803119D01*
X78191638Y-57676219D01*
X78199909Y-57669278D01*
X78359278Y-57509909D01*
X78366215Y-57501643D01*
X78495498Y-57317008D01*
X78500886Y-57307676D01*
X78596143Y-57103397D01*
X78599831Y-57093263D01*
X78651943Y-56898780D01*
X78652311Y-56887551D01*
X78641369Y-56885000D01*
X76008631Y-56885000D01*
X75997688Y-56887551D01*
X75998056Y-56898780D01*
X76050168Y-57093263D01*
X76053856Y-57103397D01*
X76149113Y-57307676D01*
X76154501Y-57317008D01*
X76283784Y-57501643D01*
X76290721Y-57509909D01*
X76450090Y-57669278D01*
X76458356Y-57676215D01*
X76639595Y-57803120D01*
X76678460Y-57847438D01*
X76692471Y-57904695D01*
X76678460Y-57961952D01*
X76639594Y-58006270D01*
X76458034Y-58133399D01*
X76458029Y-58133402D01*
X76453599Y-58136505D01*
X76449775Y-58140328D01*
X76449769Y-58140334D01*
X76290334Y-58299769D01*
X76290328Y-58299775D01*
X76286505Y-58303599D01*
X76283402Y-58308029D01*
X76283399Y-58308034D01*
X76154073Y-58492731D01*
X76154068Y-58492738D01*
X76150965Y-58497171D01*
X76148677Y-58502077D01*
X76148675Y-58502081D01*
X76053386Y-58706427D01*
X76053383Y-58706432D01*
X76051097Y-58711337D01*
X76049698Y-58716557D01*
X76049694Y-58716569D01*
X75991337Y-58934365D01*
X75991335Y-58934371D01*
X75989937Y-58939592D01*
X75989465Y-58944977D01*
X75989465Y-58944982D01*
X75981917Y-59031254D01*
X75969341Y-59175000D01*
X75969813Y-59180395D01*
X75989263Y-59402712D01*
X75989937Y-59410408D01*
X75991336Y-59415630D01*
X75991337Y-59415634D01*
X76049694Y-59633430D01*
X76049697Y-59633438D01*
X76051097Y-59638663D01*
X76053385Y-59643570D01*
X76053386Y-59643572D01*
X76148678Y-59847927D01*
X76148681Y-59847933D01*
X76150965Y-59852830D01*
X76154064Y-59857257D01*
X76154066Y-59857259D01*
X76283399Y-60041966D01*
X76283402Y-60041970D01*
X76286505Y-60046401D01*
X76453599Y-60213495D01*
X76458032Y-60216599D01*
X76458038Y-60216604D01*
X76639158Y-60343425D01*
X76678024Y-60387743D01*
X76692035Y-60445000D01*
X76678024Y-60502257D01*
X76639159Y-60546575D01*
X76458041Y-60673395D01*
X76453599Y-60676505D01*
X76449775Y-60680328D01*
X76449769Y-60680334D01*
X76290334Y-60839769D01*
X76290328Y-60839775D01*
X76286505Y-60843599D01*
X76283402Y-60848029D01*
X76283399Y-60848034D01*
X76154073Y-61032731D01*
X76154068Y-61032738D01*
X76150965Y-61037171D01*
X76148677Y-61042077D01*
X76148675Y-61042081D01*
X76053386Y-61246427D01*
X76053383Y-61246432D01*
X76051097Y-61251337D01*
X76049698Y-61256557D01*
X76049694Y-61256569D01*
X75991337Y-61474365D01*
X75991335Y-61474371D01*
X75989937Y-61479592D01*
X75989465Y-61484977D01*
X75989465Y-61484982D01*
X75970693Y-61699546D01*
X75969341Y-61715000D01*
X75969813Y-61720395D01*
X75988792Y-61937327D01*
X75989937Y-61950408D01*
X75991336Y-61955630D01*
X75991337Y-61955634D01*
X76004849Y-62006062D01*
X76034403Y-62116361D01*
X76040311Y-62138407D01*
X76042153Y-62194691D01*
X76018912Y-62245986D01*
X75975380Y-62281712D01*
X75920536Y-62294500D01*
X71163419Y-62294500D01*
X71108575Y-62281712D01*
X71065043Y-62245987D01*
X71041802Y-62194692D01*
X71043644Y-62138407D01*
X71059225Y-62080255D01*
X71085635Y-61981692D01*
X71105468Y-61755000D01*
X71085635Y-61528308D01*
X71039755Y-61357081D01*
X71028141Y-61313736D01*
X71028140Y-61313734D01*
X71026739Y-61308504D01*
X70930568Y-61102266D01*
X70800047Y-60915861D01*
X70639139Y-60754953D01*
X70527103Y-60676505D01*
X70457173Y-60627540D01*
X70457171Y-60627539D01*
X70452734Y-60624432D01*
X70394724Y-60597381D01*
X70342549Y-60551625D01*
X70323130Y-60485000D01*
X70342549Y-60418375D01*
X70394725Y-60372618D01*
X70452734Y-60345568D01*
X70639139Y-60215047D01*
X70800047Y-60054139D01*
X70930568Y-59867734D01*
X71026739Y-59661496D01*
X71085635Y-59441692D01*
X71105468Y-59215000D01*
X71085635Y-58988308D01*
X71026739Y-58768504D01*
X70930568Y-58562266D01*
X70800047Y-58375861D01*
X70639139Y-58214953D01*
X70531886Y-58139854D01*
X70457173Y-58087540D01*
X70457171Y-58087539D01*
X70452734Y-58084432D01*
X70394724Y-58057381D01*
X70342549Y-58011625D01*
X70323130Y-57945000D01*
X70342549Y-57878375D01*
X70394725Y-57832618D01*
X70452734Y-57805568D01*
X70639139Y-57675047D01*
X70800047Y-57514139D01*
X70930568Y-57327734D01*
X71026739Y-57121496D01*
X71085635Y-56901692D01*
X71105468Y-56675000D01*
X71085635Y-56448308D01*
X71067988Y-56382448D01*
X75997688Y-56382448D01*
X76008631Y-56385000D01*
X77058674Y-56385000D01*
X77071549Y-56381549D01*
X77075000Y-56368674D01*
X77075000Y-54361326D01*
X77071549Y-54348450D01*
X77058674Y-54345000D01*
X76008631Y-54345000D01*
X75997688Y-54347551D01*
X75998056Y-54358780D01*
X76050168Y-54553263D01*
X76053856Y-54563397D01*
X76149113Y-54767676D01*
X76154501Y-54777008D01*
X76283784Y-54961643D01*
X76290721Y-54969909D01*
X76450090Y-55129278D01*
X76458356Y-55136215D01*
X76640031Y-55263425D01*
X76678896Y-55307743D01*
X76692907Y-55365000D01*
X76678896Y-55422257D01*
X76640031Y-55466575D01*
X76458352Y-55593788D01*
X76450092Y-55600719D01*
X76290719Y-55760092D01*
X76283784Y-55768357D01*
X76154508Y-55952982D01*
X76149110Y-55962332D01*
X76053856Y-56166602D01*
X76050168Y-56176736D01*
X75998056Y-56371219D01*
X75997688Y-56382448D01*
X71067988Y-56382448D01*
X71026739Y-56228504D01*
X71024449Y-56223594D01*
X71022599Y-56218510D01*
X71024242Y-56217911D01*
X71014581Y-56169923D01*
X71030505Y-56113781D01*
X71070346Y-56071140D01*
X71072964Y-56069418D01*
X71126837Y-56033984D01*
X71129732Y-56032140D01*
X71193656Y-55992712D01*
X71198763Y-55987603D01*
X71201476Y-55985459D01*
X71201758Y-55985254D01*
X71202029Y-55985007D01*
X71204658Y-55982800D01*
X71210696Y-55978830D01*
X71262186Y-55924252D01*
X71264631Y-55921735D01*
X73604548Y-53581819D01*
X73644776Y-53554939D01*
X73692229Y-53545500D01*
X75913015Y-53545500D01*
X75967859Y-53558288D01*
G37*
%TD.AperFunction*%
%TA.AperFunction,Conductor*%
G36*
X68487406Y-56163288D02*
G01*
X68530938Y-56199013D01*
X68554179Y-56250309D01*
X68552336Y-56306593D01*
X68514365Y-56448308D01*
X68513893Y-56453693D01*
X68513893Y-56453698D01*
X68497052Y-56646199D01*
X68494532Y-56675000D01*
X68495004Y-56680395D01*
X68513127Y-56887551D01*
X68514365Y-56901692D01*
X68515762Y-56906907D01*
X68515764Y-56906916D01*
X68571858Y-57116263D01*
X68571861Y-57116271D01*
X68573261Y-57121496D01*
X68669432Y-57327734D01*
X68672539Y-57332171D01*
X68672540Y-57332173D01*
X68709880Y-57385500D01*
X68799953Y-57514139D01*
X68960861Y-57675047D01*
X69147266Y-57805568D01*
X69152172Y-57807855D01*
X69152176Y-57807858D01*
X69205274Y-57832618D01*
X69257450Y-57878375D01*
X69276869Y-57945000D01*
X69257450Y-58011625D01*
X69205274Y-58057382D01*
X69152176Y-58082141D01*
X69152163Y-58082148D01*
X69147266Y-58084432D01*
X69142833Y-58087535D01*
X69142826Y-58087540D01*
X68965296Y-58211847D01*
X68965291Y-58211850D01*
X68960861Y-58214953D01*
X68957037Y-58218776D01*
X68957031Y-58218782D01*
X68803782Y-58372031D01*
X68803776Y-58372037D01*
X68799953Y-58375861D01*
X68796850Y-58380291D01*
X68796847Y-58380296D01*
X68672540Y-58557826D01*
X68672535Y-58557833D01*
X68669432Y-58562266D01*
X68667144Y-58567172D01*
X68667142Y-58567176D01*
X68575550Y-58763594D01*
X68575547Y-58763599D01*
X68573261Y-58768504D01*
X68571862Y-58773724D01*
X68571858Y-58773736D01*
X68515764Y-58983083D01*
X68515762Y-58983094D01*
X68514365Y-58988308D01*
X68513893Y-58993693D01*
X68513893Y-58993698D01*
X68496292Y-59194882D01*
X68494532Y-59215000D01*
X68495004Y-59220395D01*
X68510954Y-59402712D01*
X68514365Y-59441692D01*
X68515762Y-59446907D01*
X68515764Y-59446916D01*
X68571858Y-59656263D01*
X68571861Y-59656271D01*
X68573261Y-59661496D01*
X68669432Y-59867734D01*
X68799953Y-60054139D01*
X68960861Y-60215047D01*
X69147266Y-60345568D01*
X69152172Y-60347855D01*
X69152176Y-60347858D01*
X69205274Y-60372618D01*
X69257450Y-60418375D01*
X69276869Y-60485000D01*
X69257450Y-60551625D01*
X69205274Y-60597382D01*
X69152176Y-60622141D01*
X69152163Y-60622148D01*
X69147266Y-60624432D01*
X69142833Y-60627535D01*
X69142826Y-60627540D01*
X68965296Y-60751847D01*
X68965291Y-60751850D01*
X68960861Y-60754953D01*
X68957037Y-60758776D01*
X68957031Y-60758782D01*
X68803782Y-60912031D01*
X68803776Y-60912037D01*
X68799953Y-60915861D01*
X68796850Y-60920291D01*
X68796847Y-60920296D01*
X68672540Y-61097826D01*
X68672535Y-61097833D01*
X68669432Y-61102266D01*
X68667144Y-61107172D01*
X68667142Y-61107176D01*
X68575550Y-61303594D01*
X68575547Y-61303599D01*
X68573261Y-61308504D01*
X68571862Y-61313724D01*
X68571858Y-61313736D01*
X68515764Y-61523083D01*
X68515762Y-61523094D01*
X68514365Y-61528308D01*
X68513893Y-61533693D01*
X68513893Y-61533698D01*
X68496993Y-61726868D01*
X68494532Y-61755000D01*
X68495004Y-61760394D01*
X68495004Y-61760395D01*
X68510483Y-61937327D01*
X68514365Y-61981692D01*
X68515764Y-61986916D01*
X68515765Y-61986917D01*
X68556356Y-62138407D01*
X68558198Y-62194692D01*
X68534957Y-62245987D01*
X68491425Y-62281712D01*
X68436581Y-62294500D01*
X63832229Y-62294500D01*
X63784776Y-62285061D01*
X63744548Y-62258181D01*
X63506716Y-62020348D01*
X63477875Y-61975077D01*
X63470869Y-61921861D01*
X63485468Y-61755000D01*
X63465635Y-61528308D01*
X63419755Y-61357081D01*
X63408141Y-61313736D01*
X63408140Y-61313734D01*
X63406739Y-61308504D01*
X63310568Y-61102266D01*
X63180047Y-60915861D01*
X63019139Y-60754953D01*
X62907103Y-60676505D01*
X62837173Y-60627540D01*
X62837171Y-60627539D01*
X62832734Y-60624432D01*
X62774724Y-60597381D01*
X62722549Y-60551625D01*
X62703130Y-60485000D01*
X62722549Y-60418375D01*
X62774725Y-60372618D01*
X62832734Y-60345568D01*
X63019139Y-60215047D01*
X63180047Y-60054139D01*
X63310568Y-59867734D01*
X63406739Y-59661496D01*
X63465635Y-59441692D01*
X63485468Y-59215000D01*
X63470869Y-59048136D01*
X63477875Y-58994921D01*
X63506714Y-58949652D01*
X66269548Y-56186819D01*
X66309777Y-56159939D01*
X66357230Y-56150500D01*
X68432562Y-56150500D01*
X68487406Y-56163288D01*
G37*
%TD.AperFunction*%
%TD*%
M02*
