%TF.GenerationSoftware,KiCad,Pcbnew,(7.0.0)*%
%TF.CreationDate,2023-07-05T19:52:24+02:00*%
%TF.ProjectId,atmega328p-gate_controller,61746d65-6761-4333-9238-702d67617465,rev?*%
%TF.SameCoordinates,Original*%
%TF.FileFunction,Legend,Top*%
%TF.FilePolarity,Positive*%
%FSLAX46Y46*%
G04 Gerber Fmt 4.6, Leading zero omitted, Abs format (unit mm)*
G04 Created by KiCad (PCBNEW (7.0.0)) date 2023-07-05 19:52:24*
%MOMM*%
%LPD*%
G01*
G04 APERTURE LIST*
%ADD10C,0.150000*%
%ADD11C,0.120000*%
G04 APERTURE END LIST*
D10*
X110928571Y-58959880D02*
X111119047Y-58959880D01*
X111119047Y-58959880D02*
X111214285Y-59007500D01*
X111214285Y-59007500D02*
X111309523Y-59102738D01*
X111309523Y-59102738D02*
X111357142Y-59293214D01*
X111357142Y-59293214D02*
X111357142Y-59626547D01*
X111357142Y-59626547D02*
X111309523Y-59817023D01*
X111309523Y-59817023D02*
X111214285Y-59912261D01*
X111214285Y-59912261D02*
X111119047Y-59959880D01*
X111119047Y-59959880D02*
X110928571Y-59959880D01*
X110928571Y-59959880D02*
X110833333Y-59912261D01*
X110833333Y-59912261D02*
X110738095Y-59817023D01*
X110738095Y-59817023D02*
X110690476Y-59626547D01*
X110690476Y-59626547D02*
X110690476Y-59293214D01*
X110690476Y-59293214D02*
X110738095Y-59102738D01*
X110738095Y-59102738D02*
X110833333Y-59007500D01*
X110833333Y-59007500D02*
X110928571Y-58959880D01*
X111023809Y-62499880D02*
X111023809Y-61499880D01*
X111333332Y-64944642D02*
X111285713Y-64992261D01*
X111285713Y-64992261D02*
X111142856Y-65039880D01*
X111142856Y-65039880D02*
X111047618Y-65039880D01*
X111047618Y-65039880D02*
X110904761Y-64992261D01*
X110904761Y-64992261D02*
X110809523Y-64897023D01*
X110809523Y-64897023D02*
X110761904Y-64801785D01*
X110761904Y-64801785D02*
X110714285Y-64611309D01*
X110714285Y-64611309D02*
X110714285Y-64468452D01*
X110714285Y-64468452D02*
X110761904Y-64277976D01*
X110761904Y-64277976D02*
X110809523Y-64182738D01*
X110809523Y-64182738D02*
X110904761Y-64087500D01*
X110904761Y-64087500D02*
X111047618Y-64039880D01*
X111047618Y-64039880D02*
X111142856Y-64039880D01*
X111142856Y-64039880D02*
X111285713Y-64087500D01*
X111285713Y-64087500D02*
X111333332Y-64135119D01*
X111579761Y-67021071D02*
X110817857Y-67021071D01*
X111198809Y-66640119D02*
X111198809Y-67402023D01*
X111579761Y-69561071D02*
X110817857Y-69561071D01*
X111409523Y-78679642D02*
X111361904Y-78727261D01*
X111361904Y-78727261D02*
X111219047Y-78774880D01*
X111219047Y-78774880D02*
X111123809Y-78774880D01*
X111123809Y-78774880D02*
X110980952Y-78727261D01*
X110980952Y-78727261D02*
X110885714Y-78632023D01*
X110885714Y-78632023D02*
X110838095Y-78536785D01*
X110838095Y-78536785D02*
X110790476Y-78346309D01*
X110790476Y-78346309D02*
X110790476Y-78203452D01*
X110790476Y-78203452D02*
X110838095Y-78012976D01*
X110838095Y-78012976D02*
X110885714Y-77917738D01*
X110885714Y-77917738D02*
X110980952Y-77822500D01*
X110980952Y-77822500D02*
X111123809Y-77774880D01*
X111123809Y-77774880D02*
X111219047Y-77774880D01*
X111219047Y-77774880D02*
X111361904Y-77822500D01*
X111361904Y-77822500D02*
X111409523Y-77870119D01*
X110861905Y-81029166D02*
X111338095Y-81029166D01*
X110766667Y-81314880D02*
X111100000Y-80314880D01*
X111100000Y-80314880D02*
X111433333Y-81314880D01*
X110719048Y-75853928D02*
X111480953Y-75853928D01*
X111100000Y-76234880D02*
X111100000Y-75472976D01*
X110719048Y-73313928D02*
X111480953Y-73313928D01*
X88006390Y-98548700D02*
X87433971Y-98447685D01*
X87602329Y-98952761D02*
X86895223Y-98245654D01*
X86895223Y-98245654D02*
X87164597Y-97976280D01*
X87164597Y-97976280D02*
X87265612Y-97942608D01*
X87265612Y-97942608D02*
X87332955Y-97942608D01*
X87332955Y-97942608D02*
X87433971Y-97976280D01*
X87433971Y-97976280D02*
X87534986Y-98077295D01*
X87534986Y-98077295D02*
X87568658Y-98178311D01*
X87568658Y-98178311D02*
X87568658Y-98245654D01*
X87568658Y-98245654D02*
X87534986Y-98346669D01*
X87534986Y-98346669D02*
X87265612Y-98616043D01*
X88242093Y-98245654D02*
X88376780Y-98178311D01*
X88376780Y-98178311D02*
X88545138Y-98009952D01*
X88545138Y-98009952D02*
X88578810Y-97908937D01*
X88578810Y-97908937D02*
X88578810Y-97841593D01*
X88578810Y-97841593D02*
X88545138Y-97740578D01*
X88545138Y-97740578D02*
X88477795Y-97673234D01*
X88477795Y-97673234D02*
X88376780Y-97639563D01*
X88376780Y-97639563D02*
X88309436Y-97639563D01*
X88309436Y-97639563D02*
X88208421Y-97673234D01*
X88208421Y-97673234D02*
X88040062Y-97774250D01*
X88040062Y-97774250D02*
X87939047Y-97807921D01*
X87939047Y-97807921D02*
X87871703Y-97807921D01*
X87871703Y-97807921D02*
X87770688Y-97774250D01*
X87770688Y-97774250D02*
X87703345Y-97706906D01*
X87703345Y-97706906D02*
X87669673Y-97605891D01*
X87669673Y-97605891D02*
X87669673Y-97538547D01*
X87669673Y-97538547D02*
X87703345Y-97437532D01*
X87703345Y-97437532D02*
X87871703Y-97269173D01*
X87871703Y-97269173D02*
X88006390Y-97201830D01*
X88174749Y-96966127D02*
X88578810Y-96562066D01*
X89083886Y-97471204D02*
X88376780Y-96764097D01*
X110708333Y-92172380D02*
X111279761Y-92172380D01*
X110994047Y-93172380D02*
X110994047Y-92172380D01*
X92261433Y-97908937D02*
X92160417Y-97942608D01*
X92160417Y-97942608D02*
X92059402Y-98043624D01*
X92059402Y-98043624D02*
X91992059Y-98178311D01*
X91992059Y-98178311D02*
X91992059Y-98312998D01*
X91992059Y-98312998D02*
X92025730Y-98414013D01*
X92025730Y-98414013D02*
X92126746Y-98582372D01*
X92126746Y-98582372D02*
X92227761Y-98683387D01*
X92227761Y-98683387D02*
X92396120Y-98784402D01*
X92396120Y-98784402D02*
X92497135Y-98818074D01*
X92497135Y-98818074D02*
X92631822Y-98818074D01*
X92631822Y-98818074D02*
X92766509Y-98750730D01*
X92766509Y-98750730D02*
X92833852Y-98683387D01*
X92833852Y-98683387D02*
X92901196Y-98548700D01*
X92901196Y-98548700D02*
X92901196Y-98481356D01*
X92901196Y-98481356D02*
X92665494Y-98245654D01*
X92665494Y-98245654D02*
X92530807Y-98380341D01*
X93271585Y-98245654D02*
X92564478Y-97538547D01*
X92564478Y-97538547D02*
X93675646Y-97841593D01*
X93675646Y-97841593D02*
X92968539Y-97134486D01*
X94012364Y-97504876D02*
X93305257Y-96797769D01*
X93305257Y-96797769D02*
X93473616Y-96629410D01*
X93473616Y-96629410D02*
X93608303Y-96562067D01*
X93608303Y-96562067D02*
X93742990Y-96562067D01*
X93742990Y-96562067D02*
X93844005Y-96595738D01*
X93844005Y-96595738D02*
X94012364Y-96696754D01*
X94012364Y-96696754D02*
X94113379Y-96797769D01*
X94113379Y-96797769D02*
X94214394Y-96966128D01*
X94214394Y-96966128D02*
X94248066Y-97067143D01*
X94248066Y-97067143D02*
X94248066Y-97201830D01*
X94248066Y-97201830D02*
X94180722Y-97336517D01*
X94180722Y-97336517D02*
X94012364Y-97504876D01*
X97624918Y-90027761D02*
X96917812Y-89320654D01*
X96917812Y-89320654D02*
X97187186Y-89051280D01*
X97187186Y-89051280D02*
X97288201Y-89017608D01*
X97288201Y-89017608D02*
X97355544Y-89017608D01*
X97355544Y-89017608D02*
X97456560Y-89051280D01*
X97456560Y-89051280D02*
X97557575Y-89152295D01*
X97557575Y-89152295D02*
X97591247Y-89253311D01*
X97591247Y-89253311D02*
X97591247Y-89320654D01*
X97591247Y-89320654D02*
X97557575Y-89421669D01*
X97557575Y-89421669D02*
X97288201Y-89691043D01*
X98668743Y-88849250D02*
X98668743Y-88916593D01*
X98668743Y-88916593D02*
X98601399Y-89051280D01*
X98601399Y-89051280D02*
X98534056Y-89118624D01*
X98534056Y-89118624D02*
X98399369Y-89185967D01*
X98399369Y-89185967D02*
X98264682Y-89185967D01*
X98264682Y-89185967D02*
X98163666Y-89152295D01*
X98163666Y-89152295D02*
X97995308Y-89051280D01*
X97995308Y-89051280D02*
X97894292Y-88950265D01*
X97894292Y-88950265D02*
X97793277Y-88781906D01*
X97793277Y-88781906D02*
X97759605Y-88680891D01*
X97759605Y-88680891D02*
X97759605Y-88546204D01*
X97759605Y-88546204D02*
X97826949Y-88411517D01*
X97826949Y-88411517D02*
X97894292Y-88344173D01*
X97894292Y-88344173D02*
X98028979Y-88276830D01*
X98028979Y-88276830D02*
X98096323Y-88276830D01*
X99409521Y-88243158D02*
X99005460Y-88647219D01*
X99207491Y-88445189D02*
X98500384Y-87738082D01*
X98500384Y-87738082D02*
X98534056Y-87906440D01*
X98534056Y-87906440D02*
X98534056Y-88041128D01*
X98534056Y-88041128D02*
X98500384Y-88142143D01*
X84910807Y-98952761D02*
X85045494Y-98885417D01*
X85045494Y-98885417D02*
X85213853Y-98717059D01*
X85213853Y-98717059D02*
X85247524Y-98616043D01*
X85247524Y-98616043D02*
X85247524Y-98548700D01*
X85247524Y-98548700D02*
X85213853Y-98447685D01*
X85213853Y-98447685D02*
X85146509Y-98380341D01*
X85146509Y-98380341D02*
X85045494Y-98346669D01*
X85045494Y-98346669D02*
X84978150Y-98346669D01*
X84978150Y-98346669D02*
X84877135Y-98380341D01*
X84877135Y-98380341D02*
X84708776Y-98481356D01*
X84708776Y-98481356D02*
X84607761Y-98515028D01*
X84607761Y-98515028D02*
X84540418Y-98515028D01*
X84540418Y-98515028D02*
X84439402Y-98481356D01*
X84439402Y-98481356D02*
X84372059Y-98414013D01*
X84372059Y-98414013D02*
X84338387Y-98312998D01*
X84338387Y-98312998D02*
X84338387Y-98245654D01*
X84338387Y-98245654D02*
X84372059Y-98144639D01*
X84372059Y-98144639D02*
X84540418Y-97976280D01*
X84540418Y-97976280D02*
X84675105Y-97908937D01*
X85988303Y-97807921D02*
X85988303Y-97875265D01*
X85988303Y-97875265D02*
X85920959Y-98009952D01*
X85920959Y-98009952D02*
X85853616Y-98077295D01*
X85853616Y-98077295D02*
X85718929Y-98144639D01*
X85718929Y-98144639D02*
X85584242Y-98144639D01*
X85584242Y-98144639D02*
X85483227Y-98110967D01*
X85483227Y-98110967D02*
X85314868Y-98009952D01*
X85314868Y-98009952D02*
X85213853Y-97908937D01*
X85213853Y-97908937D02*
X85112837Y-97740578D01*
X85112837Y-97740578D02*
X85079166Y-97639562D01*
X85079166Y-97639562D02*
X85079166Y-97504875D01*
X85079166Y-97504875D02*
X85146509Y-97370188D01*
X85146509Y-97370188D02*
X85213853Y-97302845D01*
X85213853Y-97302845D02*
X85348540Y-97235501D01*
X85348540Y-97235501D02*
X85415883Y-97235501D01*
X86358692Y-97572219D02*
X85651585Y-96865112D01*
X86762753Y-97168158D02*
X86055646Y-97067143D01*
X86055646Y-96461051D02*
X86055646Y-97269173D01*
X102704918Y-90027761D02*
X101997812Y-89320654D01*
X101997812Y-89320654D02*
X102267186Y-89051280D01*
X102267186Y-89051280D02*
X102368201Y-89017608D01*
X102368201Y-89017608D02*
X102435544Y-89017608D01*
X102435544Y-89017608D02*
X102536560Y-89051280D01*
X102536560Y-89051280D02*
X102637575Y-89152295D01*
X102637575Y-89152295D02*
X102671247Y-89253311D01*
X102671247Y-89253311D02*
X102671247Y-89320654D01*
X102671247Y-89320654D02*
X102637575Y-89421669D01*
X102637575Y-89421669D02*
X102368201Y-89691043D01*
X103277338Y-88714563D02*
X103412025Y-88647219D01*
X103412025Y-88647219D02*
X103479369Y-88647219D01*
X103479369Y-88647219D02*
X103580384Y-88680891D01*
X103580384Y-88680891D02*
X103681399Y-88781906D01*
X103681399Y-88781906D02*
X103715071Y-88882921D01*
X103715071Y-88882921D02*
X103715071Y-88950265D01*
X103715071Y-88950265D02*
X103681399Y-89051280D01*
X103681399Y-89051280D02*
X103412025Y-89320654D01*
X103412025Y-89320654D02*
X102704918Y-88613547D01*
X102704918Y-88613547D02*
X102940621Y-88377845D01*
X102940621Y-88377845D02*
X103041636Y-88344173D01*
X103041636Y-88344173D02*
X103108979Y-88344173D01*
X103108979Y-88344173D02*
X103209995Y-88377845D01*
X103209995Y-88377845D02*
X103277338Y-88445189D01*
X103277338Y-88445189D02*
X103311010Y-88546204D01*
X103311010Y-88546204D02*
X103311010Y-88613547D01*
X103311010Y-88613547D02*
X103277338Y-88714563D01*
X103277338Y-88714563D02*
X103041636Y-88950265D01*
X103546712Y-87771753D02*
X103614056Y-87704410D01*
X103614056Y-87704410D02*
X103715071Y-87670738D01*
X103715071Y-87670738D02*
X103782414Y-87670738D01*
X103782414Y-87670738D02*
X103883430Y-87704410D01*
X103883430Y-87704410D02*
X104051788Y-87805425D01*
X104051788Y-87805425D02*
X104220147Y-87973784D01*
X104220147Y-87973784D02*
X104321162Y-88142143D01*
X104321162Y-88142143D02*
X104354834Y-88243158D01*
X104354834Y-88243158D02*
X104354834Y-88310502D01*
X104354834Y-88310502D02*
X104321162Y-88411517D01*
X104321162Y-88411517D02*
X104253819Y-88478860D01*
X104253819Y-88478860D02*
X104152804Y-88512532D01*
X104152804Y-88512532D02*
X104085460Y-88512532D01*
X104085460Y-88512532D02*
X103984445Y-88478860D01*
X103984445Y-88478860D02*
X103816086Y-88377845D01*
X103816086Y-88377845D02*
X103647727Y-88209486D01*
X103647727Y-88209486D02*
X103546712Y-88041128D01*
X103546712Y-88041128D02*
X103513040Y-87940112D01*
X103513040Y-87940112D02*
X103513040Y-87872769D01*
X103513040Y-87872769D02*
X103546712Y-87771753D01*
X110613095Y-90251428D02*
X111375000Y-90251428D01*
X110994047Y-90632380D02*
X110994047Y-89870476D01*
X79662448Y-98952761D02*
X78955342Y-98245654D01*
X78955342Y-98245654D02*
X79696120Y-98515028D01*
X79696120Y-98515028D02*
X79426746Y-97774250D01*
X79426746Y-97774250D02*
X80133853Y-98481356D01*
X79898151Y-97302845D02*
X80032838Y-97168158D01*
X80032838Y-97168158D02*
X80133853Y-97134486D01*
X80133853Y-97134486D02*
X80268540Y-97134486D01*
X80268540Y-97134486D02*
X80436899Y-97235502D01*
X80436899Y-97235502D02*
X80672601Y-97471204D01*
X80672601Y-97471204D02*
X80773616Y-97639563D01*
X80773616Y-97639563D02*
X80773616Y-97774250D01*
X80773616Y-97774250D02*
X80739944Y-97875265D01*
X80739944Y-97875265D02*
X80605257Y-98009952D01*
X80605257Y-98009952D02*
X80504242Y-98043624D01*
X80504242Y-98043624D02*
X80369555Y-98043624D01*
X80369555Y-98043624D02*
X80201196Y-97942608D01*
X80201196Y-97942608D02*
X79965494Y-97706906D01*
X79965494Y-97706906D02*
X79864479Y-97538547D01*
X79864479Y-97538547D02*
X79864479Y-97403860D01*
X79864479Y-97403860D02*
X79898151Y-97302845D01*
X81144005Y-97403860D02*
X81278692Y-97336517D01*
X81278692Y-97336517D02*
X81447051Y-97168158D01*
X81447051Y-97168158D02*
X81480723Y-97067143D01*
X81480723Y-97067143D02*
X81480723Y-96999799D01*
X81480723Y-96999799D02*
X81447051Y-96898784D01*
X81447051Y-96898784D02*
X81379708Y-96831441D01*
X81379708Y-96831441D02*
X81278692Y-96797769D01*
X81278692Y-96797769D02*
X81211349Y-96797769D01*
X81211349Y-96797769D02*
X81110334Y-96831441D01*
X81110334Y-96831441D02*
X80941975Y-96932456D01*
X80941975Y-96932456D02*
X80840960Y-96966128D01*
X80840960Y-96966128D02*
X80773616Y-96966128D01*
X80773616Y-96966128D02*
X80672601Y-96932456D01*
X80672601Y-96932456D02*
X80605257Y-96865112D01*
X80605257Y-96865112D02*
X80571586Y-96764097D01*
X80571586Y-96764097D02*
X80571586Y-96696754D01*
X80571586Y-96696754D02*
X80605257Y-96595738D01*
X80605257Y-96595738D02*
X80773616Y-96427380D01*
X80773616Y-96427380D02*
X80908303Y-96360036D01*
X81884784Y-96730425D02*
X81177677Y-96023319D01*
X97904403Y-98110967D02*
X98039090Y-97976280D01*
X98039090Y-97976280D02*
X98140105Y-97942608D01*
X98140105Y-97942608D02*
X98274792Y-97942608D01*
X98274792Y-97942608D02*
X98443151Y-98043624D01*
X98443151Y-98043624D02*
X98678853Y-98279326D01*
X98678853Y-98279326D02*
X98779868Y-98447685D01*
X98779868Y-98447685D02*
X98779868Y-98582372D01*
X98779868Y-98582372D02*
X98746196Y-98683387D01*
X98746196Y-98683387D02*
X98611509Y-98818074D01*
X98611509Y-98818074D02*
X98510494Y-98851746D01*
X98510494Y-98851746D02*
X98375807Y-98851746D01*
X98375807Y-98851746D02*
X98207448Y-98750730D01*
X98207448Y-98750730D02*
X97971746Y-98515028D01*
X97971746Y-98515028D02*
X97870731Y-98346669D01*
X97870731Y-98346669D02*
X97870731Y-98211982D01*
X97870731Y-98211982D02*
X97904403Y-98110967D01*
X98510494Y-97504876D02*
X99082914Y-98077295D01*
X99082914Y-98077295D02*
X99183929Y-98110967D01*
X99183929Y-98110967D02*
X99251273Y-98110967D01*
X99251273Y-98110967D02*
X99352288Y-98077295D01*
X99352288Y-98077295D02*
X99486975Y-97942608D01*
X99486975Y-97942608D02*
X99520647Y-97841593D01*
X99520647Y-97841593D02*
X99520647Y-97774250D01*
X99520647Y-97774250D02*
X99486975Y-97673234D01*
X99486975Y-97673234D02*
X98914555Y-97100815D01*
X99150257Y-96865112D02*
X99554318Y-96461051D01*
X100059395Y-97370189D02*
X99352288Y-96663082D01*
X84924918Y-90027761D02*
X84217812Y-89320654D01*
X84217812Y-89320654D02*
X84487186Y-89051280D01*
X84487186Y-89051280D02*
X84588201Y-89017608D01*
X84588201Y-89017608D02*
X84655544Y-89017608D01*
X84655544Y-89017608D02*
X84756560Y-89051280D01*
X84756560Y-89051280D02*
X84857575Y-89152295D01*
X84857575Y-89152295D02*
X84891247Y-89253311D01*
X84891247Y-89253311D02*
X84891247Y-89320654D01*
X84891247Y-89320654D02*
X84857575Y-89421669D01*
X84857575Y-89421669D02*
X84588201Y-89691043D01*
X85632025Y-89320654D02*
X84924918Y-88613547D01*
X84924918Y-88613547D02*
X85093277Y-88445189D01*
X85093277Y-88445189D02*
X85227964Y-88377845D01*
X85227964Y-88377845D02*
X85362651Y-88377845D01*
X85362651Y-88377845D02*
X85463666Y-88411517D01*
X85463666Y-88411517D02*
X85632025Y-88512532D01*
X85632025Y-88512532D02*
X85733040Y-88613547D01*
X85733040Y-88613547D02*
X85834056Y-88781906D01*
X85834056Y-88781906D02*
X85867727Y-88882921D01*
X85867727Y-88882921D02*
X85867727Y-89017608D01*
X85867727Y-89017608D02*
X85800384Y-89152295D01*
X85800384Y-89152295D02*
X85632025Y-89320654D01*
X86170773Y-87839097D02*
X86642178Y-88310502D01*
X85733040Y-87738082D02*
X86069758Y-88411517D01*
X86069758Y-88411517D02*
X86507491Y-87973784D01*
X90004918Y-90027761D02*
X89297812Y-89320654D01*
X89297812Y-89320654D02*
X89567186Y-89051280D01*
X89567186Y-89051280D02*
X89668201Y-89017608D01*
X89668201Y-89017608D02*
X89735544Y-89017608D01*
X89735544Y-89017608D02*
X89836560Y-89051280D01*
X89836560Y-89051280D02*
X89937575Y-89152295D01*
X89937575Y-89152295D02*
X89971247Y-89253311D01*
X89971247Y-89253311D02*
X89971247Y-89320654D01*
X89971247Y-89320654D02*
X89937575Y-89421669D01*
X89937575Y-89421669D02*
X89668201Y-89691043D01*
X90712025Y-89320654D02*
X90004918Y-88613547D01*
X90004918Y-88613547D02*
X90173277Y-88445189D01*
X90173277Y-88445189D02*
X90307964Y-88377845D01*
X90307964Y-88377845D02*
X90442651Y-88377845D01*
X90442651Y-88377845D02*
X90543666Y-88411517D01*
X90543666Y-88411517D02*
X90712025Y-88512532D01*
X90712025Y-88512532D02*
X90813040Y-88613547D01*
X90813040Y-88613547D02*
X90914056Y-88781906D01*
X90914056Y-88781906D02*
X90947727Y-88882921D01*
X90947727Y-88882921D02*
X90947727Y-89017608D01*
X90947727Y-89017608D02*
X90880384Y-89152295D01*
X90880384Y-89152295D02*
X90712025Y-89320654D01*
X90745697Y-88007456D02*
X90745697Y-87940112D01*
X90745697Y-87940112D02*
X90779369Y-87839097D01*
X90779369Y-87839097D02*
X90947727Y-87670738D01*
X90947727Y-87670738D02*
X91048743Y-87637066D01*
X91048743Y-87637066D02*
X91116086Y-87637066D01*
X91116086Y-87637066D02*
X91217101Y-87670738D01*
X91217101Y-87670738D02*
X91284445Y-87738082D01*
X91284445Y-87738082D02*
X91351788Y-87872769D01*
X91351788Y-87872769D02*
X91351788Y-88680891D01*
X91351788Y-88680891D02*
X91789521Y-88243158D01*
X111303570Y-95712380D02*
X110970237Y-95236190D01*
X110732142Y-95712380D02*
X110732142Y-94712380D01*
X110732142Y-94712380D02*
X111113094Y-94712380D01*
X111113094Y-94712380D02*
X111208332Y-94760000D01*
X111208332Y-94760000D02*
X111255951Y-94807619D01*
X111255951Y-94807619D02*
X111303570Y-94902857D01*
X111303570Y-94902857D02*
X111303570Y-95045714D01*
X111303570Y-95045714D02*
X111255951Y-95140952D01*
X111255951Y-95140952D02*
X111208332Y-95188571D01*
X111208332Y-95188571D02*
X111113094Y-95236190D01*
X111113094Y-95236190D02*
X110732142Y-95236190D01*
X95084918Y-90027761D02*
X94377812Y-89320654D01*
X94377812Y-89320654D02*
X94647186Y-89051280D01*
X94647186Y-89051280D02*
X94748201Y-89017608D01*
X94748201Y-89017608D02*
X94815544Y-89017608D01*
X94815544Y-89017608D02*
X94916560Y-89051280D01*
X94916560Y-89051280D02*
X95017575Y-89152295D01*
X95017575Y-89152295D02*
X95051247Y-89253311D01*
X95051247Y-89253311D02*
X95051247Y-89320654D01*
X95051247Y-89320654D02*
X95017575Y-89421669D01*
X95017575Y-89421669D02*
X94748201Y-89691043D01*
X96128743Y-88849250D02*
X96128743Y-88916593D01*
X96128743Y-88916593D02*
X96061399Y-89051280D01*
X96061399Y-89051280D02*
X95994056Y-89118624D01*
X95994056Y-89118624D02*
X95859369Y-89185967D01*
X95859369Y-89185967D02*
X95724682Y-89185967D01*
X95724682Y-89185967D02*
X95623666Y-89152295D01*
X95623666Y-89152295D02*
X95455308Y-89051280D01*
X95455308Y-89051280D02*
X95354292Y-88950265D01*
X95354292Y-88950265D02*
X95253277Y-88781906D01*
X95253277Y-88781906D02*
X95219605Y-88680891D01*
X95219605Y-88680891D02*
X95219605Y-88546204D01*
X95219605Y-88546204D02*
X95286949Y-88411517D01*
X95286949Y-88411517D02*
X95354292Y-88344173D01*
X95354292Y-88344173D02*
X95488979Y-88276830D01*
X95488979Y-88276830D02*
X95556323Y-88276830D01*
X95825697Y-88007456D02*
X95825697Y-87940112D01*
X95825697Y-87940112D02*
X95859369Y-87839097D01*
X95859369Y-87839097D02*
X96027727Y-87670738D01*
X96027727Y-87670738D02*
X96128743Y-87637066D01*
X96128743Y-87637066D02*
X96196086Y-87637066D01*
X96196086Y-87637066D02*
X96297101Y-87670738D01*
X96297101Y-87670738D02*
X96364445Y-87738082D01*
X96364445Y-87738082D02*
X96431788Y-87872769D01*
X96431788Y-87872769D02*
X96431788Y-88680891D01*
X96431788Y-88680891D02*
X96869521Y-88243158D01*
X92544918Y-90027761D02*
X91837812Y-89320654D01*
X91837812Y-89320654D02*
X92107186Y-89051280D01*
X92107186Y-89051280D02*
X92208201Y-89017608D01*
X92208201Y-89017608D02*
X92275544Y-89017608D01*
X92275544Y-89017608D02*
X92376560Y-89051280D01*
X92376560Y-89051280D02*
X92477575Y-89152295D01*
X92477575Y-89152295D02*
X92511247Y-89253311D01*
X92511247Y-89253311D02*
X92511247Y-89320654D01*
X92511247Y-89320654D02*
X92477575Y-89421669D01*
X92477575Y-89421669D02*
X92208201Y-89691043D01*
X93588743Y-88849250D02*
X93588743Y-88916593D01*
X93588743Y-88916593D02*
X93521399Y-89051280D01*
X93521399Y-89051280D02*
X93454056Y-89118624D01*
X93454056Y-89118624D02*
X93319369Y-89185967D01*
X93319369Y-89185967D02*
X93184682Y-89185967D01*
X93184682Y-89185967D02*
X93083666Y-89152295D01*
X93083666Y-89152295D02*
X92915308Y-89051280D01*
X92915308Y-89051280D02*
X92814292Y-88950265D01*
X92814292Y-88950265D02*
X92713277Y-88781906D01*
X92713277Y-88781906D02*
X92679605Y-88680891D01*
X92679605Y-88680891D02*
X92679605Y-88546204D01*
X92679605Y-88546204D02*
X92746949Y-88411517D01*
X92746949Y-88411517D02*
X92814292Y-88344173D01*
X92814292Y-88344173D02*
X92948979Y-88276830D01*
X92948979Y-88276830D02*
X93016323Y-88276830D01*
X93184682Y-87973784D02*
X93622414Y-87536051D01*
X93622414Y-87536051D02*
X93656086Y-88041128D01*
X93656086Y-88041128D02*
X93757101Y-87940112D01*
X93757101Y-87940112D02*
X93858117Y-87906440D01*
X93858117Y-87906440D02*
X93925460Y-87906440D01*
X93925460Y-87906440D02*
X94026475Y-87940112D01*
X94026475Y-87940112D02*
X94194834Y-88108471D01*
X94194834Y-88108471D02*
X94228506Y-88209486D01*
X94228506Y-88209486D02*
X94228506Y-88276830D01*
X94228506Y-88276830D02*
X94194834Y-88377845D01*
X94194834Y-88377845D02*
X93992804Y-88579876D01*
X93992804Y-88579876D02*
X93891788Y-88613547D01*
X93891788Y-88613547D02*
X93824445Y-88613547D01*
X87464918Y-90027761D02*
X86757812Y-89320654D01*
X86757812Y-89320654D02*
X87027186Y-89051280D01*
X87027186Y-89051280D02*
X87128201Y-89017608D01*
X87128201Y-89017608D02*
X87195544Y-89017608D01*
X87195544Y-89017608D02*
X87296560Y-89051280D01*
X87296560Y-89051280D02*
X87397575Y-89152295D01*
X87397575Y-89152295D02*
X87431247Y-89253311D01*
X87431247Y-89253311D02*
X87431247Y-89320654D01*
X87431247Y-89320654D02*
X87397575Y-89421669D01*
X87397575Y-89421669D02*
X87128201Y-89691043D01*
X88172025Y-89320654D02*
X87464918Y-88613547D01*
X87464918Y-88613547D02*
X87633277Y-88445189D01*
X87633277Y-88445189D02*
X87767964Y-88377845D01*
X87767964Y-88377845D02*
X87902651Y-88377845D01*
X87902651Y-88377845D02*
X88003666Y-88411517D01*
X88003666Y-88411517D02*
X88172025Y-88512532D01*
X88172025Y-88512532D02*
X88273040Y-88613547D01*
X88273040Y-88613547D02*
X88374056Y-88781906D01*
X88374056Y-88781906D02*
X88407727Y-88882921D01*
X88407727Y-88882921D02*
X88407727Y-89017608D01*
X88407727Y-89017608D02*
X88340384Y-89152295D01*
X88340384Y-89152295D02*
X88172025Y-89320654D01*
X88104682Y-87973784D02*
X88542414Y-87536051D01*
X88542414Y-87536051D02*
X88576086Y-88041128D01*
X88576086Y-88041128D02*
X88677101Y-87940112D01*
X88677101Y-87940112D02*
X88778117Y-87906440D01*
X88778117Y-87906440D02*
X88845460Y-87906440D01*
X88845460Y-87906440D02*
X88946475Y-87940112D01*
X88946475Y-87940112D02*
X89114834Y-88108471D01*
X89114834Y-88108471D02*
X89148506Y-88209486D01*
X89148506Y-88209486D02*
X89148506Y-88276830D01*
X89148506Y-88276830D02*
X89114834Y-88377845D01*
X89114834Y-88377845D02*
X88912804Y-88579876D01*
X88912804Y-88579876D02*
X88811788Y-88613547D01*
X88811788Y-88613547D02*
X88744445Y-88613547D01*
X82384918Y-90027761D02*
X81677812Y-89320654D01*
X81677812Y-89320654D02*
X81947186Y-89051280D01*
X81947186Y-89051280D02*
X82048201Y-89017608D01*
X82048201Y-89017608D02*
X82115544Y-89017608D01*
X82115544Y-89017608D02*
X82216560Y-89051280D01*
X82216560Y-89051280D02*
X82317575Y-89152295D01*
X82317575Y-89152295D02*
X82351247Y-89253311D01*
X82351247Y-89253311D02*
X82351247Y-89320654D01*
X82351247Y-89320654D02*
X82317575Y-89421669D01*
X82317575Y-89421669D02*
X82048201Y-89691043D01*
X83092025Y-89320654D02*
X82384918Y-88613547D01*
X82384918Y-88613547D02*
X82553277Y-88445189D01*
X82553277Y-88445189D02*
X82687964Y-88377845D01*
X82687964Y-88377845D02*
X82822651Y-88377845D01*
X82822651Y-88377845D02*
X82923666Y-88411517D01*
X82923666Y-88411517D02*
X83092025Y-88512532D01*
X83092025Y-88512532D02*
X83193040Y-88613547D01*
X83193040Y-88613547D02*
X83294056Y-88781906D01*
X83294056Y-88781906D02*
X83327727Y-88882921D01*
X83327727Y-88882921D02*
X83327727Y-89017608D01*
X83327727Y-89017608D02*
X83260384Y-89152295D01*
X83260384Y-89152295D02*
X83092025Y-89320654D01*
X83428743Y-87569723D02*
X83092025Y-87906440D01*
X83092025Y-87906440D02*
X83395071Y-88276830D01*
X83395071Y-88276830D02*
X83395071Y-88209486D01*
X83395071Y-88209486D02*
X83428743Y-88108471D01*
X83428743Y-88108471D02*
X83597101Y-87940112D01*
X83597101Y-87940112D02*
X83698117Y-87906440D01*
X83698117Y-87906440D02*
X83765460Y-87906440D01*
X83765460Y-87906440D02*
X83866475Y-87940112D01*
X83866475Y-87940112D02*
X84034834Y-88108471D01*
X84034834Y-88108471D02*
X84068506Y-88209486D01*
X84068506Y-88209486D02*
X84068506Y-88276830D01*
X84068506Y-88276830D02*
X84034834Y-88377845D01*
X84034834Y-88377845D02*
X83866475Y-88546204D01*
X83866475Y-88546204D02*
X83765460Y-88579876D01*
X83765460Y-88579876D02*
X83698117Y-88579876D01*
X79844918Y-90027761D02*
X79137812Y-89320654D01*
X79137812Y-89320654D02*
X79407186Y-89051280D01*
X79407186Y-89051280D02*
X79508201Y-89017608D01*
X79508201Y-89017608D02*
X79575544Y-89017608D01*
X79575544Y-89017608D02*
X79676560Y-89051280D01*
X79676560Y-89051280D02*
X79777575Y-89152295D01*
X79777575Y-89152295D02*
X79811247Y-89253311D01*
X79811247Y-89253311D02*
X79811247Y-89320654D01*
X79811247Y-89320654D02*
X79777575Y-89421669D01*
X79777575Y-89421669D02*
X79508201Y-89691043D01*
X80552025Y-89320654D02*
X79844918Y-88613547D01*
X79844918Y-88613547D02*
X80013277Y-88445189D01*
X80013277Y-88445189D02*
X80147964Y-88377845D01*
X80147964Y-88377845D02*
X80282651Y-88377845D01*
X80282651Y-88377845D02*
X80383666Y-88411517D01*
X80383666Y-88411517D02*
X80552025Y-88512532D01*
X80552025Y-88512532D02*
X80653040Y-88613547D01*
X80653040Y-88613547D02*
X80754056Y-88781906D01*
X80754056Y-88781906D02*
X80787727Y-88882921D01*
X80787727Y-88882921D02*
X80787727Y-89017608D01*
X80787727Y-89017608D02*
X80720384Y-89152295D01*
X80720384Y-89152295D02*
X80552025Y-89320654D01*
X80855071Y-87603395D02*
X80720384Y-87738082D01*
X80720384Y-87738082D02*
X80686712Y-87839097D01*
X80686712Y-87839097D02*
X80686712Y-87906440D01*
X80686712Y-87906440D02*
X80720384Y-88074799D01*
X80720384Y-88074799D02*
X80821399Y-88243158D01*
X80821399Y-88243158D02*
X81090773Y-88512532D01*
X81090773Y-88512532D02*
X81191788Y-88546204D01*
X81191788Y-88546204D02*
X81259132Y-88546204D01*
X81259132Y-88546204D02*
X81360147Y-88512532D01*
X81360147Y-88512532D02*
X81494834Y-88377845D01*
X81494834Y-88377845D02*
X81528506Y-88276830D01*
X81528506Y-88276830D02*
X81528506Y-88209486D01*
X81528506Y-88209486D02*
X81494834Y-88108471D01*
X81494834Y-88108471D02*
X81326475Y-87940112D01*
X81326475Y-87940112D02*
X81225460Y-87906440D01*
X81225460Y-87906440D02*
X81158117Y-87906440D01*
X81158117Y-87906440D02*
X81057101Y-87940112D01*
X81057101Y-87940112D02*
X80922414Y-88074799D01*
X80922414Y-88074799D02*
X80888743Y-88175815D01*
X80888743Y-88175815D02*
X80888743Y-88243158D01*
X80888743Y-88243158D02*
X80922414Y-88344173D01*
X90091822Y-97908937D02*
X89755105Y-98245654D01*
X89755105Y-98245654D02*
X90058150Y-98616043D01*
X90058150Y-98616043D02*
X90058150Y-98548700D01*
X90058150Y-98548700D02*
X90091822Y-98447685D01*
X90091822Y-98447685D02*
X90260181Y-98279326D01*
X90260181Y-98279326D02*
X90361196Y-98245654D01*
X90361196Y-98245654D02*
X90428540Y-98245654D01*
X90428540Y-98245654D02*
X90529555Y-98279326D01*
X90529555Y-98279326D02*
X90697914Y-98447685D01*
X90697914Y-98447685D02*
X90731585Y-98548700D01*
X90731585Y-98548700D02*
X90731585Y-98616043D01*
X90731585Y-98616043D02*
X90697914Y-98717059D01*
X90697914Y-98717059D02*
X90529555Y-98885417D01*
X90529555Y-98885417D02*
X90428540Y-98919089D01*
X90428540Y-98919089D02*
X90361196Y-98919089D01*
X90327524Y-97673234D02*
X91270333Y-98144639D01*
X91270333Y-98144639D02*
X90798929Y-97201830D01*
X100164918Y-90027761D02*
X99457812Y-89320654D01*
X99457812Y-89320654D02*
X99727186Y-89051280D01*
X99727186Y-89051280D02*
X99828201Y-89017608D01*
X99828201Y-89017608D02*
X99895544Y-89017608D01*
X99895544Y-89017608D02*
X99996560Y-89051280D01*
X99996560Y-89051280D02*
X100097575Y-89152295D01*
X100097575Y-89152295D02*
X100131247Y-89253311D01*
X100131247Y-89253311D02*
X100131247Y-89320654D01*
X100131247Y-89320654D02*
X100097575Y-89421669D01*
X100097575Y-89421669D02*
X99828201Y-89691043D01*
X101208743Y-88849250D02*
X101208743Y-88916593D01*
X101208743Y-88916593D02*
X101141399Y-89051280D01*
X101141399Y-89051280D02*
X101074056Y-89118624D01*
X101074056Y-89118624D02*
X100939369Y-89185967D01*
X100939369Y-89185967D02*
X100804682Y-89185967D01*
X100804682Y-89185967D02*
X100703666Y-89152295D01*
X100703666Y-89152295D02*
X100535308Y-89051280D01*
X100535308Y-89051280D02*
X100434292Y-88950265D01*
X100434292Y-88950265D02*
X100333277Y-88781906D01*
X100333277Y-88781906D02*
X100299605Y-88680891D01*
X100299605Y-88680891D02*
X100299605Y-88546204D01*
X100299605Y-88546204D02*
X100366949Y-88411517D01*
X100366949Y-88411517D02*
X100434292Y-88344173D01*
X100434292Y-88344173D02*
X100568979Y-88276830D01*
X100568979Y-88276830D02*
X100636323Y-88276830D01*
X101006712Y-87771753D02*
X101074056Y-87704410D01*
X101074056Y-87704410D02*
X101175071Y-87670738D01*
X101175071Y-87670738D02*
X101242414Y-87670738D01*
X101242414Y-87670738D02*
X101343430Y-87704410D01*
X101343430Y-87704410D02*
X101511788Y-87805425D01*
X101511788Y-87805425D02*
X101680147Y-87973784D01*
X101680147Y-87973784D02*
X101781162Y-88142143D01*
X101781162Y-88142143D02*
X101814834Y-88243158D01*
X101814834Y-88243158D02*
X101814834Y-88310502D01*
X101814834Y-88310502D02*
X101781162Y-88411517D01*
X101781162Y-88411517D02*
X101713819Y-88478860D01*
X101713819Y-88478860D02*
X101612804Y-88512532D01*
X101612804Y-88512532D02*
X101545460Y-88512532D01*
X101545460Y-88512532D02*
X101444445Y-88478860D01*
X101444445Y-88478860D02*
X101276086Y-88377845D01*
X101276086Y-88377845D02*
X101107727Y-88209486D01*
X101107727Y-88209486D02*
X101006712Y-88041128D01*
X101006712Y-88041128D02*
X100973040Y-87940112D01*
X100973040Y-87940112D02*
X100973040Y-87872769D01*
X100973040Y-87872769D02*
X101006712Y-87771753D01*
X103186433Y-97908937D02*
X103085417Y-97942608D01*
X103085417Y-97942608D02*
X102984402Y-98043624D01*
X102984402Y-98043624D02*
X102917059Y-98178311D01*
X102917059Y-98178311D02*
X102917059Y-98312998D01*
X102917059Y-98312998D02*
X102950730Y-98414013D01*
X102950730Y-98414013D02*
X103051746Y-98582372D01*
X103051746Y-98582372D02*
X103152761Y-98683387D01*
X103152761Y-98683387D02*
X103321120Y-98784402D01*
X103321120Y-98784402D02*
X103422135Y-98818074D01*
X103422135Y-98818074D02*
X103556822Y-98818074D01*
X103556822Y-98818074D02*
X103691509Y-98750730D01*
X103691509Y-98750730D02*
X103758852Y-98683387D01*
X103758852Y-98683387D02*
X103826196Y-98548700D01*
X103826196Y-98548700D02*
X103826196Y-98481356D01*
X103826196Y-98481356D02*
X103590494Y-98245654D01*
X103590494Y-98245654D02*
X103455807Y-98380341D01*
X104196585Y-98245654D02*
X103489478Y-97538547D01*
X103489478Y-97538547D02*
X104600646Y-97841593D01*
X104600646Y-97841593D02*
X103893539Y-97134486D01*
X104937364Y-97504876D02*
X104230257Y-96797769D01*
X104230257Y-96797769D02*
X104398616Y-96629410D01*
X104398616Y-96629410D02*
X104533303Y-96562067D01*
X104533303Y-96562067D02*
X104667990Y-96562067D01*
X104667990Y-96562067D02*
X104769005Y-96595738D01*
X104769005Y-96595738D02*
X104937364Y-96696754D01*
X104937364Y-96696754D02*
X105038379Y-96797769D01*
X105038379Y-96797769D02*
X105139394Y-96966128D01*
X105139394Y-96966128D02*
X105173066Y-97067143D01*
X105173066Y-97067143D02*
X105173066Y-97201830D01*
X105173066Y-97201830D02*
X105105722Y-97336517D01*
X105105722Y-97336517D02*
X104937364Y-97504876D01*
X110613095Y-87711428D02*
X111375000Y-87711428D01*
X77304918Y-90027761D02*
X76597812Y-89320654D01*
X76597812Y-89320654D02*
X76867186Y-89051280D01*
X76867186Y-89051280D02*
X76968201Y-89017608D01*
X76968201Y-89017608D02*
X77035544Y-89017608D01*
X77035544Y-89017608D02*
X77136560Y-89051280D01*
X77136560Y-89051280D02*
X77237575Y-89152295D01*
X77237575Y-89152295D02*
X77271247Y-89253311D01*
X77271247Y-89253311D02*
X77271247Y-89320654D01*
X77271247Y-89320654D02*
X77237575Y-89421669D01*
X77237575Y-89421669D02*
X76968201Y-89691043D01*
X78012025Y-89320654D02*
X77304918Y-88613547D01*
X77304918Y-88613547D02*
X77473277Y-88445189D01*
X77473277Y-88445189D02*
X77607964Y-88377845D01*
X77607964Y-88377845D02*
X77742651Y-88377845D01*
X77742651Y-88377845D02*
X77843666Y-88411517D01*
X77843666Y-88411517D02*
X78012025Y-88512532D01*
X78012025Y-88512532D02*
X78113040Y-88613547D01*
X78113040Y-88613547D02*
X78214056Y-88781906D01*
X78214056Y-88781906D02*
X78247727Y-88882921D01*
X78247727Y-88882921D02*
X78247727Y-89017608D01*
X78247727Y-89017608D02*
X78180384Y-89152295D01*
X78180384Y-89152295D02*
X78012025Y-89320654D01*
X77944682Y-87973784D02*
X78416086Y-87502379D01*
X78416086Y-87502379D02*
X78820147Y-88512532D01*
X101016822Y-97908937D02*
X100680105Y-98245654D01*
X100680105Y-98245654D02*
X100983150Y-98616043D01*
X100983150Y-98616043D02*
X100983150Y-98548700D01*
X100983150Y-98548700D02*
X101016822Y-98447685D01*
X101016822Y-98447685D02*
X101185181Y-98279326D01*
X101185181Y-98279326D02*
X101286196Y-98245654D01*
X101286196Y-98245654D02*
X101353540Y-98245654D01*
X101353540Y-98245654D02*
X101454555Y-98279326D01*
X101454555Y-98279326D02*
X101622914Y-98447685D01*
X101622914Y-98447685D02*
X101656585Y-98548700D01*
X101656585Y-98548700D02*
X101656585Y-98616043D01*
X101656585Y-98616043D02*
X101622914Y-98717059D01*
X101622914Y-98717059D02*
X101454555Y-98885417D01*
X101454555Y-98885417D02*
X101353540Y-98919089D01*
X101353540Y-98919089D02*
X101286196Y-98919089D01*
X101252524Y-97673234D02*
X102195333Y-98144639D01*
X102195333Y-98144639D02*
X101723929Y-97201830D01*
X82202448Y-98952761D02*
X81495342Y-98245654D01*
X81495342Y-98245654D02*
X82236120Y-98515028D01*
X82236120Y-98515028D02*
X81966746Y-97774250D01*
X81966746Y-97774250D02*
X82673853Y-98481356D01*
X83010570Y-98144639D02*
X82303464Y-97437532D01*
X83279944Y-97807922D02*
X83414631Y-97740578D01*
X83414631Y-97740578D02*
X83582990Y-97572219D01*
X83582990Y-97572219D02*
X83616661Y-97471204D01*
X83616661Y-97471204D02*
X83616661Y-97403861D01*
X83616661Y-97403861D02*
X83582990Y-97302845D01*
X83582990Y-97302845D02*
X83515646Y-97235502D01*
X83515646Y-97235502D02*
X83414631Y-97201830D01*
X83414631Y-97201830D02*
X83347287Y-97201830D01*
X83347287Y-97201830D02*
X83246272Y-97235502D01*
X83246272Y-97235502D02*
X83077913Y-97336517D01*
X83077913Y-97336517D02*
X82976898Y-97370189D01*
X82976898Y-97370189D02*
X82909555Y-97370189D01*
X82909555Y-97370189D02*
X82808539Y-97336517D01*
X82808539Y-97336517D02*
X82741196Y-97269174D01*
X82741196Y-97269174D02*
X82707524Y-97168158D01*
X82707524Y-97168158D02*
X82707524Y-97100815D01*
X82707524Y-97100815D02*
X82741196Y-96999800D01*
X82741196Y-96999800D02*
X82909555Y-96831441D01*
X82909555Y-96831441D02*
X83044242Y-96764097D01*
X83448303Y-96292693D02*
X83582990Y-96158006D01*
X83582990Y-96158006D02*
X83684005Y-96124334D01*
X83684005Y-96124334D02*
X83818692Y-96124334D01*
X83818692Y-96124334D02*
X83987051Y-96225349D01*
X83987051Y-96225349D02*
X84222753Y-96461052D01*
X84222753Y-96461052D02*
X84323768Y-96629410D01*
X84323768Y-96629410D02*
X84323768Y-96764097D01*
X84323768Y-96764097D02*
X84290097Y-96865113D01*
X84290097Y-96865113D02*
X84155410Y-96999800D01*
X84155410Y-96999800D02*
X84054394Y-97033471D01*
X84054394Y-97033471D02*
X83919707Y-97033471D01*
X83919707Y-97033471D02*
X83751349Y-96932456D01*
X83751349Y-96932456D02*
X83515646Y-96696754D01*
X83515646Y-96696754D02*
X83414631Y-96528395D01*
X83414631Y-96528395D02*
X83414631Y-96393708D01*
X83414631Y-96393708D02*
X83448303Y-96292693D01*
%TO.C,U3*%
X89360714Y-61352380D02*
X89360714Y-62161904D01*
X89360714Y-62161904D02*
X89408333Y-62257142D01*
X89408333Y-62257142D02*
X89455952Y-62304761D01*
X89455952Y-62304761D02*
X89551190Y-62352380D01*
X89551190Y-62352380D02*
X89741666Y-62352380D01*
X89741666Y-62352380D02*
X89836904Y-62304761D01*
X89836904Y-62304761D02*
X89884523Y-62257142D01*
X89884523Y-62257142D02*
X89932142Y-62161904D01*
X89932142Y-62161904D02*
X89932142Y-61352380D01*
X90313095Y-61352380D02*
X90932142Y-61352380D01*
X90932142Y-61352380D02*
X90598809Y-61733333D01*
X90598809Y-61733333D02*
X90741666Y-61733333D01*
X90741666Y-61733333D02*
X90836904Y-61780952D01*
X90836904Y-61780952D02*
X90884523Y-61828571D01*
X90884523Y-61828571D02*
X90932142Y-61923809D01*
X90932142Y-61923809D02*
X90932142Y-62161904D01*
X90932142Y-62161904D02*
X90884523Y-62257142D01*
X90884523Y-62257142D02*
X90836904Y-62304761D01*
X90836904Y-62304761D02*
X90741666Y-62352380D01*
X90741666Y-62352380D02*
X90455952Y-62352380D01*
X90455952Y-62352380D02*
X90360714Y-62304761D01*
X90360714Y-62304761D02*
X90313095Y-62257142D01*
%TO.C,C1*%
X52858333Y-69497142D02*
X52810714Y-69544761D01*
X52810714Y-69544761D02*
X52667857Y-69592380D01*
X52667857Y-69592380D02*
X52572619Y-69592380D01*
X52572619Y-69592380D02*
X52429762Y-69544761D01*
X52429762Y-69544761D02*
X52334524Y-69449523D01*
X52334524Y-69449523D02*
X52286905Y-69354285D01*
X52286905Y-69354285D02*
X52239286Y-69163809D01*
X52239286Y-69163809D02*
X52239286Y-69020952D01*
X52239286Y-69020952D02*
X52286905Y-68830476D01*
X52286905Y-68830476D02*
X52334524Y-68735238D01*
X52334524Y-68735238D02*
X52429762Y-68640000D01*
X52429762Y-68640000D02*
X52572619Y-68592380D01*
X52572619Y-68592380D02*
X52667857Y-68592380D01*
X52667857Y-68592380D02*
X52810714Y-68640000D01*
X52810714Y-68640000D02*
X52858333Y-68687619D01*
X53810714Y-69592380D02*
X53239286Y-69592380D01*
X53525000Y-69592380D02*
X53525000Y-68592380D01*
X53525000Y-68592380D02*
X53429762Y-68735238D01*
X53429762Y-68735238D02*
X53334524Y-68830476D01*
X53334524Y-68830476D02*
X53239286Y-68878095D01*
%TO.C,UART*%
X107029762Y-84692380D02*
X107029762Y-85501904D01*
X107029762Y-85501904D02*
X107077381Y-85597142D01*
X107077381Y-85597142D02*
X107125000Y-85644761D01*
X107125000Y-85644761D02*
X107220238Y-85692380D01*
X107220238Y-85692380D02*
X107410714Y-85692380D01*
X107410714Y-85692380D02*
X107505952Y-85644761D01*
X107505952Y-85644761D02*
X107553571Y-85597142D01*
X107553571Y-85597142D02*
X107601190Y-85501904D01*
X107601190Y-85501904D02*
X107601190Y-84692380D01*
X108029762Y-85406666D02*
X108505952Y-85406666D01*
X107934524Y-85692380D02*
X108267857Y-84692380D01*
X108267857Y-84692380D02*
X108601190Y-85692380D01*
X109505952Y-85692380D02*
X109172619Y-85216190D01*
X108934524Y-85692380D02*
X108934524Y-84692380D01*
X108934524Y-84692380D02*
X109315476Y-84692380D01*
X109315476Y-84692380D02*
X109410714Y-84740000D01*
X109410714Y-84740000D02*
X109458333Y-84787619D01*
X109458333Y-84787619D02*
X109505952Y-84882857D01*
X109505952Y-84882857D02*
X109505952Y-85025714D01*
X109505952Y-85025714D02*
X109458333Y-85120952D01*
X109458333Y-85120952D02*
X109410714Y-85168571D01*
X109410714Y-85168571D02*
X109315476Y-85216190D01*
X109315476Y-85216190D02*
X108934524Y-85216190D01*
X109791667Y-84692380D02*
X110363095Y-84692380D01*
X110077381Y-85692380D02*
X110077381Y-84692380D01*
%TO.C,SPI*%
X107601191Y-57719761D02*
X107744048Y-57767380D01*
X107744048Y-57767380D02*
X107982143Y-57767380D01*
X107982143Y-57767380D02*
X108077381Y-57719761D01*
X108077381Y-57719761D02*
X108125000Y-57672142D01*
X108125000Y-57672142D02*
X108172619Y-57576904D01*
X108172619Y-57576904D02*
X108172619Y-57481666D01*
X108172619Y-57481666D02*
X108125000Y-57386428D01*
X108125000Y-57386428D02*
X108077381Y-57338809D01*
X108077381Y-57338809D02*
X107982143Y-57291190D01*
X107982143Y-57291190D02*
X107791667Y-57243571D01*
X107791667Y-57243571D02*
X107696429Y-57195952D01*
X107696429Y-57195952D02*
X107648810Y-57148333D01*
X107648810Y-57148333D02*
X107601191Y-57053095D01*
X107601191Y-57053095D02*
X107601191Y-56957857D01*
X107601191Y-56957857D02*
X107648810Y-56862619D01*
X107648810Y-56862619D02*
X107696429Y-56815000D01*
X107696429Y-56815000D02*
X107791667Y-56767380D01*
X107791667Y-56767380D02*
X108029762Y-56767380D01*
X108029762Y-56767380D02*
X108172619Y-56815000D01*
X108601191Y-57767380D02*
X108601191Y-56767380D01*
X108601191Y-56767380D02*
X108982143Y-56767380D01*
X108982143Y-56767380D02*
X109077381Y-56815000D01*
X109077381Y-56815000D02*
X109125000Y-56862619D01*
X109125000Y-56862619D02*
X109172619Y-56957857D01*
X109172619Y-56957857D02*
X109172619Y-57100714D01*
X109172619Y-57100714D02*
X109125000Y-57195952D01*
X109125000Y-57195952D02*
X109077381Y-57243571D01*
X109077381Y-57243571D02*
X108982143Y-57291190D01*
X108982143Y-57291190D02*
X108601191Y-57291190D01*
X109601191Y-57767380D02*
X109601191Y-56767380D01*
%TO.C,3.3V*%
X102498810Y-77392380D02*
X103117857Y-77392380D01*
X103117857Y-77392380D02*
X102784524Y-77773333D01*
X102784524Y-77773333D02*
X102927381Y-77773333D01*
X102927381Y-77773333D02*
X103022619Y-77820952D01*
X103022619Y-77820952D02*
X103070238Y-77868571D01*
X103070238Y-77868571D02*
X103117857Y-77963809D01*
X103117857Y-77963809D02*
X103117857Y-78201904D01*
X103117857Y-78201904D02*
X103070238Y-78297142D01*
X103070238Y-78297142D02*
X103022619Y-78344761D01*
X103022619Y-78344761D02*
X102927381Y-78392380D01*
X102927381Y-78392380D02*
X102641667Y-78392380D01*
X102641667Y-78392380D02*
X102546429Y-78344761D01*
X102546429Y-78344761D02*
X102498810Y-78297142D01*
X103546429Y-78297142D02*
X103594048Y-78344761D01*
X103594048Y-78344761D02*
X103546429Y-78392380D01*
X103546429Y-78392380D02*
X103498810Y-78344761D01*
X103498810Y-78344761D02*
X103546429Y-78297142D01*
X103546429Y-78297142D02*
X103546429Y-78392380D01*
X103927381Y-77392380D02*
X104546428Y-77392380D01*
X104546428Y-77392380D02*
X104213095Y-77773333D01*
X104213095Y-77773333D02*
X104355952Y-77773333D01*
X104355952Y-77773333D02*
X104451190Y-77820952D01*
X104451190Y-77820952D02*
X104498809Y-77868571D01*
X104498809Y-77868571D02*
X104546428Y-77963809D01*
X104546428Y-77963809D02*
X104546428Y-78201904D01*
X104546428Y-78201904D02*
X104498809Y-78297142D01*
X104498809Y-78297142D02*
X104451190Y-78344761D01*
X104451190Y-78344761D02*
X104355952Y-78392380D01*
X104355952Y-78392380D02*
X104070238Y-78392380D01*
X104070238Y-78392380D02*
X103975000Y-78344761D01*
X103975000Y-78344761D02*
X103927381Y-78297142D01*
X104832143Y-77392380D02*
X105165476Y-78392380D01*
X105165476Y-78392380D02*
X105498809Y-77392380D01*
%TO.C,5V*%
X103034523Y-80992380D02*
X102558333Y-80992380D01*
X102558333Y-80992380D02*
X102510714Y-81468571D01*
X102510714Y-81468571D02*
X102558333Y-81420952D01*
X102558333Y-81420952D02*
X102653571Y-81373333D01*
X102653571Y-81373333D02*
X102891666Y-81373333D01*
X102891666Y-81373333D02*
X102986904Y-81420952D01*
X102986904Y-81420952D02*
X103034523Y-81468571D01*
X103034523Y-81468571D02*
X103082142Y-81563809D01*
X103082142Y-81563809D02*
X103082142Y-81801904D01*
X103082142Y-81801904D02*
X103034523Y-81897142D01*
X103034523Y-81897142D02*
X102986904Y-81944761D01*
X102986904Y-81944761D02*
X102891666Y-81992380D01*
X102891666Y-81992380D02*
X102653571Y-81992380D01*
X102653571Y-81992380D02*
X102558333Y-81944761D01*
X102558333Y-81944761D02*
X102510714Y-81897142D01*
X103367857Y-80992380D02*
X103701190Y-81992380D01*
X103701190Y-81992380D02*
X104034523Y-80992380D01*
%TO.C,GND*%
X103083095Y-84640000D02*
X102987857Y-84592380D01*
X102987857Y-84592380D02*
X102845000Y-84592380D01*
X102845000Y-84592380D02*
X102702143Y-84640000D01*
X102702143Y-84640000D02*
X102606905Y-84735238D01*
X102606905Y-84735238D02*
X102559286Y-84830476D01*
X102559286Y-84830476D02*
X102511667Y-85020952D01*
X102511667Y-85020952D02*
X102511667Y-85163809D01*
X102511667Y-85163809D02*
X102559286Y-85354285D01*
X102559286Y-85354285D02*
X102606905Y-85449523D01*
X102606905Y-85449523D02*
X102702143Y-85544761D01*
X102702143Y-85544761D02*
X102845000Y-85592380D01*
X102845000Y-85592380D02*
X102940238Y-85592380D01*
X102940238Y-85592380D02*
X103083095Y-85544761D01*
X103083095Y-85544761D02*
X103130714Y-85497142D01*
X103130714Y-85497142D02*
X103130714Y-85163809D01*
X103130714Y-85163809D02*
X102940238Y-85163809D01*
X103559286Y-85592380D02*
X103559286Y-84592380D01*
X103559286Y-84592380D02*
X104130714Y-85592380D01*
X104130714Y-85592380D02*
X104130714Y-84592380D01*
X104606905Y-85592380D02*
X104606905Y-84592380D01*
X104606905Y-84592380D02*
X104845000Y-84592380D01*
X104845000Y-84592380D02*
X104987857Y-84640000D01*
X104987857Y-84640000D02*
X105083095Y-84735238D01*
X105083095Y-84735238D02*
X105130714Y-84830476D01*
X105130714Y-84830476D02*
X105178333Y-85020952D01*
X105178333Y-85020952D02*
X105178333Y-85163809D01*
X105178333Y-85163809D02*
X105130714Y-85354285D01*
X105130714Y-85354285D02*
X105083095Y-85449523D01*
X105083095Y-85449523D02*
X104987857Y-85544761D01*
X104987857Y-85544761D02*
X104845000Y-85592380D01*
X104845000Y-85592380D02*
X104606905Y-85592380D01*
%TO.C,ISP*%
X86023810Y-95592380D02*
X86023810Y-94592380D01*
X86452381Y-95544761D02*
X86595238Y-95592380D01*
X86595238Y-95592380D02*
X86833333Y-95592380D01*
X86833333Y-95592380D02*
X86928571Y-95544761D01*
X86928571Y-95544761D02*
X86976190Y-95497142D01*
X86976190Y-95497142D02*
X87023809Y-95401904D01*
X87023809Y-95401904D02*
X87023809Y-95306666D01*
X87023809Y-95306666D02*
X86976190Y-95211428D01*
X86976190Y-95211428D02*
X86928571Y-95163809D01*
X86928571Y-95163809D02*
X86833333Y-95116190D01*
X86833333Y-95116190D02*
X86642857Y-95068571D01*
X86642857Y-95068571D02*
X86547619Y-95020952D01*
X86547619Y-95020952D02*
X86500000Y-94973333D01*
X86500000Y-94973333D02*
X86452381Y-94878095D01*
X86452381Y-94878095D02*
X86452381Y-94782857D01*
X86452381Y-94782857D02*
X86500000Y-94687619D01*
X86500000Y-94687619D02*
X86547619Y-94640000D01*
X86547619Y-94640000D02*
X86642857Y-94592380D01*
X86642857Y-94592380D02*
X86880952Y-94592380D01*
X86880952Y-94592380D02*
X87023809Y-94640000D01*
X87452381Y-95592380D02*
X87452381Y-94592380D01*
X87452381Y-94592380D02*
X87833333Y-94592380D01*
X87833333Y-94592380D02*
X87928571Y-94640000D01*
X87928571Y-94640000D02*
X87976190Y-94687619D01*
X87976190Y-94687619D02*
X88023809Y-94782857D01*
X88023809Y-94782857D02*
X88023809Y-94925714D01*
X88023809Y-94925714D02*
X87976190Y-95020952D01*
X87976190Y-95020952D02*
X87928571Y-95068571D01*
X87928571Y-95068571D02*
X87833333Y-95116190D01*
X87833333Y-95116190D02*
X87452381Y-95116190D01*
%TO.C,EXTRA*%
X88625000Y-86343571D02*
X88958333Y-86343571D01*
X89101190Y-86867380D02*
X88625000Y-86867380D01*
X88625000Y-86867380D02*
X88625000Y-85867380D01*
X88625000Y-85867380D02*
X89101190Y-85867380D01*
X89434524Y-85867380D02*
X90101190Y-86867380D01*
X90101190Y-85867380D02*
X89434524Y-86867380D01*
X90339286Y-85867380D02*
X90910714Y-85867380D01*
X90625000Y-86867380D02*
X90625000Y-85867380D01*
X91815476Y-86867380D02*
X91482143Y-86391190D01*
X91244048Y-86867380D02*
X91244048Y-85867380D01*
X91244048Y-85867380D02*
X91625000Y-85867380D01*
X91625000Y-85867380D02*
X91720238Y-85915000D01*
X91720238Y-85915000D02*
X91767857Y-85962619D01*
X91767857Y-85962619D02*
X91815476Y-86057857D01*
X91815476Y-86057857D02*
X91815476Y-86200714D01*
X91815476Y-86200714D02*
X91767857Y-86295952D01*
X91767857Y-86295952D02*
X91720238Y-86343571D01*
X91720238Y-86343571D02*
X91625000Y-86391190D01*
X91625000Y-86391190D02*
X91244048Y-86391190D01*
X92196429Y-86581666D02*
X92672619Y-86581666D01*
X92101191Y-86867380D02*
X92434524Y-85867380D01*
X92434524Y-85867380D02*
X92767857Y-86867380D01*
%TO.C,Y1*%
X61391190Y-77036190D02*
X61867380Y-77036190D01*
X60867380Y-77369523D02*
X61391190Y-77036190D01*
X61391190Y-77036190D02*
X60867380Y-76702857D01*
X61867380Y-75845714D02*
X61867380Y-76417142D01*
X61867380Y-76131428D02*
X60867380Y-76131428D01*
X60867380Y-76131428D02*
X61010238Y-76226666D01*
X61010238Y-76226666D02*
X61105476Y-76321904D01*
X61105476Y-76321904D02*
X61153095Y-76417142D01*
%TO.C,U1*%
X65188095Y-55042380D02*
X65188095Y-55851904D01*
X65188095Y-55851904D02*
X65235714Y-55947142D01*
X65235714Y-55947142D02*
X65283333Y-55994761D01*
X65283333Y-55994761D02*
X65378571Y-56042380D01*
X65378571Y-56042380D02*
X65569047Y-56042380D01*
X65569047Y-56042380D02*
X65664285Y-55994761D01*
X65664285Y-55994761D02*
X65711904Y-55947142D01*
X65711904Y-55947142D02*
X65759523Y-55851904D01*
X65759523Y-55851904D02*
X65759523Y-55042380D01*
X66759523Y-56042380D02*
X66188095Y-56042380D01*
X66473809Y-56042380D02*
X66473809Y-55042380D01*
X66473809Y-55042380D02*
X66378571Y-55185238D01*
X66378571Y-55185238D02*
X66283333Y-55280476D01*
X66283333Y-55280476D02*
X66188095Y-55328095D01*
%TO.C,U2*%
X88263095Y-75492380D02*
X88263095Y-76301904D01*
X88263095Y-76301904D02*
X88310714Y-76397142D01*
X88310714Y-76397142D02*
X88358333Y-76444761D01*
X88358333Y-76444761D02*
X88453571Y-76492380D01*
X88453571Y-76492380D02*
X88644047Y-76492380D01*
X88644047Y-76492380D02*
X88739285Y-76444761D01*
X88739285Y-76444761D02*
X88786904Y-76397142D01*
X88786904Y-76397142D02*
X88834523Y-76301904D01*
X88834523Y-76301904D02*
X88834523Y-75492380D01*
X89263095Y-75587619D02*
X89310714Y-75540000D01*
X89310714Y-75540000D02*
X89405952Y-75492380D01*
X89405952Y-75492380D02*
X89644047Y-75492380D01*
X89644047Y-75492380D02*
X89739285Y-75540000D01*
X89739285Y-75540000D02*
X89786904Y-75587619D01*
X89786904Y-75587619D02*
X89834523Y-75682857D01*
X89834523Y-75682857D02*
X89834523Y-75778095D01*
X89834523Y-75778095D02*
X89786904Y-75920952D01*
X89786904Y-75920952D02*
X89215476Y-76492380D01*
X89215476Y-76492380D02*
X89834523Y-76492380D01*
%TO.C,I2C*%
X107648810Y-83542380D02*
X107648810Y-82542380D01*
X108077381Y-82637619D02*
X108125000Y-82590000D01*
X108125000Y-82590000D02*
X108220238Y-82542380D01*
X108220238Y-82542380D02*
X108458333Y-82542380D01*
X108458333Y-82542380D02*
X108553571Y-82590000D01*
X108553571Y-82590000D02*
X108601190Y-82637619D01*
X108601190Y-82637619D02*
X108648809Y-82732857D01*
X108648809Y-82732857D02*
X108648809Y-82828095D01*
X108648809Y-82828095D02*
X108601190Y-82970952D01*
X108601190Y-82970952D02*
X108029762Y-83542380D01*
X108029762Y-83542380D02*
X108648809Y-83542380D01*
X109648809Y-83447142D02*
X109601190Y-83494761D01*
X109601190Y-83494761D02*
X109458333Y-83542380D01*
X109458333Y-83542380D02*
X109363095Y-83542380D01*
X109363095Y-83542380D02*
X109220238Y-83494761D01*
X109220238Y-83494761D02*
X109125000Y-83399523D01*
X109125000Y-83399523D02*
X109077381Y-83304285D01*
X109077381Y-83304285D02*
X109029762Y-83113809D01*
X109029762Y-83113809D02*
X109029762Y-82970952D01*
X109029762Y-82970952D02*
X109077381Y-82780476D01*
X109077381Y-82780476D02*
X109125000Y-82685238D01*
X109125000Y-82685238D02*
X109220238Y-82590000D01*
X109220238Y-82590000D02*
X109363095Y-82542380D01*
X109363095Y-82542380D02*
X109458333Y-82542380D01*
X109458333Y-82542380D02*
X109601190Y-82590000D01*
X109601190Y-82590000D02*
X109648809Y-82637619D01*
%TO.C,R1*%
X63858333Y-51442380D02*
X63525000Y-50966190D01*
X63286905Y-51442380D02*
X63286905Y-50442380D01*
X63286905Y-50442380D02*
X63667857Y-50442380D01*
X63667857Y-50442380D02*
X63763095Y-50490000D01*
X63763095Y-50490000D02*
X63810714Y-50537619D01*
X63810714Y-50537619D02*
X63858333Y-50632857D01*
X63858333Y-50632857D02*
X63858333Y-50775714D01*
X63858333Y-50775714D02*
X63810714Y-50870952D01*
X63810714Y-50870952D02*
X63763095Y-50918571D01*
X63763095Y-50918571D02*
X63667857Y-50966190D01*
X63667857Y-50966190D02*
X63286905Y-50966190D01*
X64810714Y-51442380D02*
X64239286Y-51442380D01*
X64525000Y-51442380D02*
X64525000Y-50442380D01*
X64525000Y-50442380D02*
X64429762Y-50585238D01*
X64429762Y-50585238D02*
X64334524Y-50680476D01*
X64334524Y-50680476D02*
X64239286Y-50728095D01*
%TO.C,RELAY*%
X100245237Y-95817380D02*
X99911904Y-95341190D01*
X99673809Y-95817380D02*
X99673809Y-94817380D01*
X99673809Y-94817380D02*
X100054761Y-94817380D01*
X100054761Y-94817380D02*
X100149999Y-94865000D01*
X100149999Y-94865000D02*
X100197618Y-94912619D01*
X100197618Y-94912619D02*
X100245237Y-95007857D01*
X100245237Y-95007857D02*
X100245237Y-95150714D01*
X100245237Y-95150714D02*
X100197618Y-95245952D01*
X100197618Y-95245952D02*
X100149999Y-95293571D01*
X100149999Y-95293571D02*
X100054761Y-95341190D01*
X100054761Y-95341190D02*
X99673809Y-95341190D01*
X100673809Y-95293571D02*
X101007142Y-95293571D01*
X101149999Y-95817380D02*
X100673809Y-95817380D01*
X100673809Y-95817380D02*
X100673809Y-94817380D01*
X100673809Y-94817380D02*
X101149999Y-94817380D01*
X102054761Y-95817380D02*
X101578571Y-95817380D01*
X101578571Y-95817380D02*
X101578571Y-94817380D01*
X102340476Y-95531666D02*
X102816666Y-95531666D01*
X102245238Y-95817380D02*
X102578571Y-94817380D01*
X102578571Y-94817380D02*
X102911904Y-95817380D01*
X103435714Y-95341190D02*
X103435714Y-95817380D01*
X103102381Y-94817380D02*
X103435714Y-95341190D01*
X103435714Y-95341190D02*
X103769047Y-94817380D01*
%TO.C,RESET*%
X54822618Y-57142380D02*
X54489285Y-56666190D01*
X54251190Y-57142380D02*
X54251190Y-56142380D01*
X54251190Y-56142380D02*
X54632142Y-56142380D01*
X54632142Y-56142380D02*
X54727380Y-56190000D01*
X54727380Y-56190000D02*
X54774999Y-56237619D01*
X54774999Y-56237619D02*
X54822618Y-56332857D01*
X54822618Y-56332857D02*
X54822618Y-56475714D01*
X54822618Y-56475714D02*
X54774999Y-56570952D01*
X54774999Y-56570952D02*
X54727380Y-56618571D01*
X54727380Y-56618571D02*
X54632142Y-56666190D01*
X54632142Y-56666190D02*
X54251190Y-56666190D01*
X55251190Y-56618571D02*
X55584523Y-56618571D01*
X55727380Y-57142380D02*
X55251190Y-57142380D01*
X55251190Y-57142380D02*
X55251190Y-56142380D01*
X55251190Y-56142380D02*
X55727380Y-56142380D01*
X56108333Y-57094761D02*
X56251190Y-57142380D01*
X56251190Y-57142380D02*
X56489285Y-57142380D01*
X56489285Y-57142380D02*
X56584523Y-57094761D01*
X56584523Y-57094761D02*
X56632142Y-57047142D01*
X56632142Y-57047142D02*
X56679761Y-56951904D01*
X56679761Y-56951904D02*
X56679761Y-56856666D01*
X56679761Y-56856666D02*
X56632142Y-56761428D01*
X56632142Y-56761428D02*
X56584523Y-56713809D01*
X56584523Y-56713809D02*
X56489285Y-56666190D01*
X56489285Y-56666190D02*
X56298809Y-56618571D01*
X56298809Y-56618571D02*
X56203571Y-56570952D01*
X56203571Y-56570952D02*
X56155952Y-56523333D01*
X56155952Y-56523333D02*
X56108333Y-56428095D01*
X56108333Y-56428095D02*
X56108333Y-56332857D01*
X56108333Y-56332857D02*
X56155952Y-56237619D01*
X56155952Y-56237619D02*
X56203571Y-56190000D01*
X56203571Y-56190000D02*
X56298809Y-56142380D01*
X56298809Y-56142380D02*
X56536904Y-56142380D01*
X56536904Y-56142380D02*
X56679761Y-56190000D01*
X57108333Y-56618571D02*
X57441666Y-56618571D01*
X57584523Y-57142380D02*
X57108333Y-57142380D01*
X57108333Y-57142380D02*
X57108333Y-56142380D01*
X57108333Y-56142380D02*
X57584523Y-56142380D01*
X57870238Y-56142380D02*
X58441666Y-56142380D01*
X58155952Y-57142380D02*
X58155952Y-56142380D01*
%TO.C,C2*%
X52883333Y-84622142D02*
X52835714Y-84669761D01*
X52835714Y-84669761D02*
X52692857Y-84717380D01*
X52692857Y-84717380D02*
X52597619Y-84717380D01*
X52597619Y-84717380D02*
X52454762Y-84669761D01*
X52454762Y-84669761D02*
X52359524Y-84574523D01*
X52359524Y-84574523D02*
X52311905Y-84479285D01*
X52311905Y-84479285D02*
X52264286Y-84288809D01*
X52264286Y-84288809D02*
X52264286Y-84145952D01*
X52264286Y-84145952D02*
X52311905Y-83955476D01*
X52311905Y-83955476D02*
X52359524Y-83860238D01*
X52359524Y-83860238D02*
X52454762Y-83765000D01*
X52454762Y-83765000D02*
X52597619Y-83717380D01*
X52597619Y-83717380D02*
X52692857Y-83717380D01*
X52692857Y-83717380D02*
X52835714Y-83765000D01*
X52835714Y-83765000D02*
X52883333Y-83812619D01*
X53264286Y-83812619D02*
X53311905Y-83765000D01*
X53311905Y-83765000D02*
X53407143Y-83717380D01*
X53407143Y-83717380D02*
X53645238Y-83717380D01*
X53645238Y-83717380D02*
X53740476Y-83765000D01*
X53740476Y-83765000D02*
X53788095Y-83812619D01*
X53788095Y-83812619D02*
X53835714Y-83907857D01*
X53835714Y-83907857D02*
X53835714Y-84003095D01*
X53835714Y-84003095D02*
X53788095Y-84145952D01*
X53788095Y-84145952D02*
X53216667Y-84717380D01*
X53216667Y-84717380D02*
X53835714Y-84717380D01*
%TO.C,U3*%
X81872619Y-54235000D02*
X98372619Y-54235000D01*
X81872619Y-54985000D02*
X81872619Y-54235000D01*
X81872619Y-70985000D02*
X81872619Y-71735000D01*
X81872619Y-71735000D02*
X98372619Y-71735000D01*
X98372619Y-54235000D02*
X98372619Y-54985000D01*
X98372619Y-71735000D02*
X98372619Y-70985000D01*
D11*
%TO.C,C1*%
X59345000Y-70320000D02*
X59345000Y-67580000D01*
X59345000Y-70320000D02*
X54105000Y-70320000D01*
X59345000Y-67580000D02*
X54105000Y-67580000D01*
X54105000Y-70320000D02*
X54105000Y-67580000D01*
%TO.C,UART*%
X109955000Y-96595000D02*
X108625000Y-96595000D01*
X109955000Y-95265000D02*
X109955000Y-96595000D01*
X109955000Y-93995000D02*
X109955000Y-86315000D01*
X109955000Y-93995000D02*
X107295000Y-93995000D01*
X109955000Y-86315000D02*
X107295000Y-86315000D01*
X107295000Y-93995000D02*
X107295000Y-86315000D01*
%TO.C,SPI*%
X107295000Y-58160000D02*
X108625000Y-58160000D01*
X107295000Y-59490000D02*
X107295000Y-58160000D01*
X107295000Y-60760000D02*
X107295000Y-70980000D01*
X107295000Y-60760000D02*
X109955000Y-60760000D01*
X107295000Y-70980000D02*
X109955000Y-70980000D01*
X109955000Y-60760000D02*
X109955000Y-70980000D01*
%TO.C,3.3V*%
X101805000Y-76695000D02*
X101805000Y-78025000D01*
X100475000Y-76695000D02*
X101805000Y-76695000D01*
X99205000Y-76695000D02*
X94065000Y-76695000D01*
X99205000Y-76695000D02*
X99205000Y-79355000D01*
X94065000Y-76695000D02*
X94065000Y-79355000D01*
X99205000Y-79355000D02*
X94065000Y-79355000D01*
%TO.C,5V*%
X101805000Y-80295000D02*
X101805000Y-81625000D01*
X100475000Y-80295000D02*
X101805000Y-80295000D01*
X99205000Y-80295000D02*
X94065000Y-80295000D01*
X99205000Y-80295000D02*
X99205000Y-82955000D01*
X94065000Y-80295000D02*
X94065000Y-82955000D01*
X99205000Y-82955000D02*
X94065000Y-82955000D01*
%TO.C,GND*%
X101805000Y-83895000D02*
X101805000Y-85225000D01*
X100475000Y-83895000D02*
X101805000Y-83895000D01*
X99205000Y-83895000D02*
X94065000Y-83895000D01*
X99205000Y-83895000D02*
X99205000Y-86555000D01*
X94065000Y-83895000D02*
X94065000Y-86555000D01*
X99205000Y-86555000D02*
X94065000Y-86555000D01*
%TO.C,ISP*%
X79195000Y-101930000D02*
X79195000Y-100600000D01*
X80525000Y-101930000D02*
X79195000Y-101930000D01*
X81795000Y-101930000D02*
X94555000Y-101930000D01*
X81795000Y-101930000D02*
X81795000Y-99270000D01*
X94555000Y-101930000D02*
X94555000Y-99270000D01*
X81795000Y-99270000D02*
X94555000Y-99270000D01*
%TO.C,EXTRA*%
X76580000Y-93030000D02*
X76580000Y-91700000D01*
X77910000Y-93030000D02*
X76580000Y-93030000D01*
X79180000Y-93030000D02*
X104640000Y-93030000D01*
X79180000Y-93030000D02*
X79180000Y-90370000D01*
X104640000Y-93030000D02*
X104640000Y-90370000D01*
X79180000Y-90370000D02*
X104640000Y-90370000D01*
%TO.C,Y1*%
X60500000Y-73360000D02*
X60500000Y-79760000D01*
X55450000Y-73360000D02*
X55450000Y-79760000D01*
X60500000Y-73360000D02*
G75*
G03*
X55450000Y-73360000I-2525000J0D01*
G01*
X55450000Y-79760000D02*
G75*
G03*
X60500000Y-79760000I2525000J0D01*
G01*
%TO.C,U1*%
X63340000Y-52805000D02*
X63340000Y-88485000D01*
X63340000Y-88485000D02*
X68640000Y-88485000D01*
X64990000Y-52805000D02*
X63340000Y-52805000D01*
X68640000Y-52805000D02*
X66990000Y-52805000D01*
X68640000Y-88485000D02*
X68640000Y-52805000D01*
X64990000Y-52805000D02*
G75*
G03*
X66990000Y-52805000I1000000J0D01*
G01*
%TO.C,U2*%
X84850000Y-72490000D02*
X90860000Y-72490000D01*
X87100000Y-79310000D02*
X90860000Y-79310000D01*
X90860000Y-72490000D02*
X90860000Y-73750000D01*
X90860000Y-79310000D02*
X90860000Y-78050000D01*
%TO.C,J4*%
X104155000Y-73205000D02*
X102825000Y-73205000D01*
X104155000Y-71875000D02*
X104155000Y-73205000D01*
X104155000Y-70605000D02*
X104155000Y-52765000D01*
X104155000Y-70605000D02*
X101495000Y-70605000D01*
X104155000Y-52765000D02*
X101495000Y-52765000D01*
X101495000Y-70605000D02*
X101495000Y-52765000D01*
%TO.C,I2C*%
X109955000Y-82175000D02*
X108625000Y-82175000D01*
X109955000Y-80845000D02*
X109955000Y-82175000D01*
X109955000Y-79575000D02*
X109955000Y-71895000D01*
X109955000Y-79575000D02*
X107295000Y-79575000D01*
X109955000Y-71895000D02*
X107295000Y-71895000D01*
X107295000Y-79575000D02*
X107295000Y-71895000D01*
%TO.C,R1*%
X59935000Y-51025000D02*
X60705000Y-51025000D01*
X60705000Y-49655000D02*
X60705000Y-52395000D01*
X60705000Y-52395000D02*
X67245000Y-52395000D01*
X67245000Y-49655000D02*
X60705000Y-49655000D01*
X67245000Y-52395000D02*
X67245000Y-49655000D01*
X68015000Y-51025000D02*
X67245000Y-51025000D01*
%TO.C,RELAY*%
X97720000Y-101930000D02*
X97720000Y-100600000D01*
X99050000Y-101930000D02*
X97720000Y-101930000D01*
X100320000Y-101930000D02*
X105460000Y-101930000D01*
X100320000Y-101930000D02*
X100320000Y-99270000D01*
X105460000Y-101930000D02*
X105460000Y-99270000D01*
X100320000Y-99270000D02*
X105460000Y-99270000D01*
%TO.C,RESET*%
X55575000Y-65900000D02*
X57075000Y-65900000D01*
X59575000Y-64650000D02*
X59575000Y-60150000D01*
X53075000Y-60150000D02*
X53075000Y-64650000D01*
X57075000Y-58900000D02*
X55575000Y-58900000D01*
%TO.C,J9*%
X78655000Y-73205000D02*
X77325000Y-73205000D01*
X78655000Y-71875000D02*
X78655000Y-73205000D01*
X78655000Y-70605000D02*
X78655000Y-52765000D01*
X78655000Y-70605000D02*
X75995000Y-70605000D01*
X78655000Y-52765000D02*
X75995000Y-52765000D01*
X75995000Y-70605000D02*
X75995000Y-52765000D01*
%TO.C,C2*%
X54105000Y-82830000D02*
X54105000Y-85570000D01*
X54105000Y-82830000D02*
X59345000Y-82830000D01*
X54105000Y-85570000D02*
X59345000Y-85570000D01*
X59345000Y-82830000D02*
X59345000Y-85570000D01*
%TD*%
M02*
